<svg width="122" height="140" viewBox="0 0 122 140" fill="none" xmlns="http://www.w3.org/2000/svg">
<path d="M19.1446 93.0255C17.7008 91.0199 18.0273 88.2873 19.8449 86.6129L62.8177 47.0246L103.628 86.5633C105.389 88.2702 105.66 90.9823 104.198 92.9522C96.8843 102.808 75.0836 130.525 61.216 130.525C47.3827 130.525 26.2852 102.945 19.1446 93.0255Z" fill="#FF9E77"/>
<path fill-rule="evenodd" clip-rule="evenodd" d="M38.375 102.456C38.7072 102.318 39.1029 102.374 39.4607 102.609C39.7894 102.825 40.0655 103.173 40.2383 103.589C40.4111 104.006 40.4627 104.447 40.3836 104.832C40.2975 105.252 40.0576 105.571 39.7253 105.709C39.3931 105.847 38.9974 105.791 38.6396 105.556C38.3109 105.34 38.0348 104.992 37.862 104.576C37.6892 104.16 37.6377 103.718 37.7168 103.333C37.8029 102.914 38.0428 102.594 38.375 102.456ZM42.1589 101.489C41.8011 101.254 41.4054 101.198 41.0732 101.336C40.741 101.474 40.5011 101.793 40.415 102.213C40.3359 102.598 40.3875 103.039 40.5602 103.456C40.733 103.872 41.0092 104.22 41.3379 104.436C41.6956 104.671 42.0914 104.727 42.4236 104.589C42.7558 104.451 42.9957 104.131 43.0818 103.712C43.1609 103.327 43.1093 102.885 42.9365 102.469C42.7638 102.053 42.4876 101.705 42.1589 101.489ZM43.7478 105.492C42.8372 105.011 41.903 104.926 41.1173 105.252C40.3316 105.578 39.7323 106.3 39.4297 107.284C39.1578 108.169 39.1767 109.134 39.4803 109.865C39.6278 110.22 39.8487 110.446 40.137 110.535C40.4216 110.624 40.7254 110.568 41.0368 110.438C41.3682 110.301 41.7081 110.081 42.0421 109.864C42.3339 109.675 42.6096 109.497 42.8396 109.401C43.038 109.319 43.3395 109.254 43.6586 109.186C44.4043 109.028 45.2495 108.847 45.5463 108.282C45.6875 108.014 45.6853 107.7 45.5399 107.35C45.2363 106.618 44.5664 105.924 43.7478 105.492ZM45.4532 103.115C45.2374 102.847 44.9538 102.706 44.6547 102.716C44.4141 102.724 44.1845 102.835 44.0084 103.028C43.7657 103.294 43.6404 103.687 43.6645 104.107C43.6842 104.45 43.8025 104.772 43.9978 105.014C44.2136 105.281 44.4972 105.422 44.7963 105.412C44.8998 105.409 45.0012 105.386 45.0972 105.346C45.2245 105.293 45.3423 105.21 45.4426 105.1C45.6853 104.834 45.8107 104.441 45.7866 104.021L45.7866 104.021C45.7669 103.678 45.6485 103.356 45.4532 103.115ZM37.501 105.729C37.8607 105.745 38.2277 105.934 38.5079 106.247C38.7368 106.504 38.8813 106.815 38.9147 107.124C38.9515 107.465 38.8516 107.766 38.6331 107.971C38.5576 108.041 38.47 108.097 38.374 108.137C38.2467 108.19 38.1046 108.215 37.9558 108.208C37.5961 108.192 37.2291 108.003 36.9489 107.69L36.9489 107.69C36.72 107.434 36.5755 107.123 36.5421 106.814C36.5053 106.472 36.6053 106.171 36.8237 105.967C36.9994 105.802 37.2399 105.718 37.501 105.729Z" fill="white" fill-opacity="0.5"/>
<path fill-rule="evenodd" clip-rule="evenodd" d="M82.7084 101.917C83.0081 102.116 83.1823 102.475 83.1865 102.904C83.1903 103.297 83.0551 103.72 82.8058 104.096C82.5565 104.471 82.2187 104.76 81.8548 104.909C81.4586 105.071 81.0595 105.05 80.7599 104.851C80.4602 104.652 80.286 104.292 80.2818 103.864C80.278 103.471 80.4132 103.048 80.6625 102.672C80.9118 102.297 81.2496 102.008 81.6135 101.859C82.0097 101.697 82.4088 101.718 82.7084 101.917ZM85.6201 104.52C85.6159 104.092 85.4417 103.732 85.1421 103.533C84.8424 103.334 84.4434 103.313 84.0472 103.475C83.6832 103.624 83.3455 103.913 83.0961 104.288C82.8468 104.664 82.7116 105.087 82.7155 105.48C82.7196 105.909 82.8939 106.268 83.1935 106.467C83.4932 106.666 83.8922 106.687 84.2884 106.525C84.6524 106.376 84.9901 106.087 85.2394 105.712C85.4888 105.336 85.624 104.913 85.6201 104.52ZM83.1819 108.07C83.0735 107.046 82.6235 106.223 81.9149 105.752C81.2062 105.281 80.273 105.186 79.2872 105.483C78.401 105.75 77.6105 106.304 77.1724 106.963C76.9595 107.284 76.8954 107.593 76.9817 107.882C77.0669 108.168 77.2829 108.389 77.5638 108.575C77.8627 108.774 78.2349 108.933 78.6007 109.09C78.9204 109.227 79.2223 109.356 79.4297 109.494C79.6087 109.613 79.83 109.828 80.0643 110.055C80.6118 110.585 81.2323 111.187 81.867 111.118C82.1687 111.086 82.428 110.909 82.6378 110.593C83.0759 109.934 83.2793 108.99 83.1819 108.07ZM86.1061 108.161C86.2078 107.833 86.1672 107.519 85.9921 107.276C85.8511 107.081 85.6312 106.952 85.3728 106.913C85.0167 106.86 84.6203 106.975 84.2853 107.229C84.0115 107.436 83.8101 107.714 83.7182 108.011C83.6166 108.339 83.6571 108.653 83.8323 108.896C83.8929 108.98 83.9681 109.052 84.0547 109.109C84.1695 109.185 84.3043 109.237 84.4516 109.259C84.8077 109.312 85.2041 109.197 85.5391 108.943L85.5391 108.943C85.8128 108.736 86.0142 108.458 86.1061 108.161ZM79.5034 103.015C79.6907 103.323 79.7384 103.733 79.6343 104.14C79.5493 104.473 79.3714 104.766 79.1335 104.966C78.8705 105.187 78.565 105.272 78.2734 105.204C78.1725 105.181 78.0773 105.139 77.9907 105.082C77.8759 105.006 77.7763 104.901 77.6988 104.774C77.5116 104.467 77.4639 104.057 77.5679 103.649L77.5679 103.649C77.653 103.317 77.8308 103.023 78.0688 102.823C78.3318 102.602 78.6373 102.518 78.9289 102.585C79.1635 102.639 79.3676 102.792 79.5034 103.015Z" fill="white" fill-opacity="0.5"/>
<path fill-rule="evenodd" clip-rule="evenodd" d="M65.6649 109.824C65.3203 109.316 64.8268 109.025 64.311 109.025C63.7951 109.025 63.3016 109.316 62.957 109.824C62.6404 110.291 62.466 110.904 62.466 111.55C62.466 112.197 62.6404 112.81 62.957 113.276C63.3016 113.784 63.7951 114.076 64.311 114.076C64.8268 114.076 65.3203 113.784 65.6649 113.276C65.9815 112.81 66.1559 112.197 66.1559 111.55C66.1559 110.904 65.9816 110.291 65.6649 109.824ZM65.5686 116C64.6267 114.862 63.4361 114.236 62.2161 114.236C60.996 114.236 59.8054 114.862 58.8635 116C58.0169 117.022 57.5114 118.31 57.5114 119.446C57.5114 119.998 57.6801 120.418 58.0127 120.695C58.341 120.969 58.7744 121.061 59.258 121.061C59.7725 121.061 60.3438 120.956 60.9051 120.853C61.3957 120.763 61.859 120.678 62.2161 120.678C62.5243 120.678 62.9589 120.759 63.4189 120.844C64.494 121.044 65.7125 121.27 66.4164 120.685C66.7511 120.407 66.9207 119.99 66.9207 119.446C66.9207 118.31 66.4153 117.022 65.5686 116ZM60.1212 109.025C60.637 109.025 61.1305 109.316 61.4752 109.824C61.7917 110.291 61.9661 110.904 61.9661 111.55C61.9661 112.197 61.7917 112.81 61.4752 113.276C61.1305 113.784 60.637 114.076 60.1212 114.076C59.6053 114.076 59.1118 113.784 58.7672 113.276C58.4506 112.81 58.2762 112.197 58.2762 111.55C58.2762 110.904 58.4506 110.291 58.7672 109.824C59.1118 109.316 59.6053 109.025 60.1212 109.025ZM69.1346 113.789C68.9956 113.316 68.6978 112.973 68.2961 112.822C67.9728 112.7 67.6078 112.721 67.2684 112.88C66.8007 113.099 66.4184 113.551 66.2196 114.12C66.0572 114.585 66.0369 115.076 66.1626 115.504C66.3015 115.976 66.5993 116.32 67.0011 116.471C67.1402 116.523 67.2869 116.549 67.4359 116.549C67.6336 116.549 67.8354 116.503 68.0288 116.413C68.4965 116.194 68.8788 115.742 69.0776 115.173V115.173C69.24 114.708 69.2603 114.216 69.1346 113.789ZM57.1638 112.88C57.6315 113.099 58.0138 113.551 58.2126 114.12C58.375 114.585 58.3953 115.076 58.2696 115.504C58.1307 115.976 57.8329 116.32 57.4311 116.471C57.292 116.523 57.1453 116.549 56.9962 116.549C56.7986 116.549 56.5969 116.503 56.4034 116.413C55.9357 116.194 55.5534 115.742 55.3546 115.173V115.173C55.1921 114.708 55.1719 114.216 55.2976 113.789C55.4365 113.316 55.7343 112.973 56.1361 112.822C56.4594 112.7 56.8244 112.721 57.1638 112.88Z" fill="white" fill-opacity="0.5"/>
<path fill-rule="evenodd" clip-rule="evenodd" d="M5.8264 1.52469C15.4531 -3.70123 30.5267 5.44666 42.1415 14.7358C47.9489 12.0657 54.2421 10.5247 60.716 10.5247C67.163 10.5247 73.4006 12.0529 79.1423 14.7025C90.7515 5.42484 105.801 -3.69499 115.416 1.52469C128.461 8.60629 116.501 40.1373 109.566 55.7319C109.665 56.8323 109.716 57.9308 109.716 59.0247C109.716 82.2207 86.9496 101.025 60.716 101.025C34.4825 101.025 11.216 82.2207 11.216 59.0247C11.216 57.7435 11.287 56.456 11.4255 55.1666C4.45932 39.3878 -7.06289 8.52174 5.8264 1.52469Z" fill="white"/>
<path fill-rule="evenodd" clip-rule="evenodd" d="M16.7541 78.0121C41.4036 77.4118 61.216 55.4853 61.216 28.5247C61.216 22.2051 60.1275 16.1621 58.1432 10.6055C52.5767 10.9546 47.1765 12.4208 42.1415 14.7358C30.5267 5.44666 15.4531 -3.70123 5.8264 1.52469C-7.06289 8.52174 4.45932 39.3878 11.4255 55.1666C11.287 56.456 11.216 57.7436 11.216 59.0247C11.216 65.8577 13.235 72.3097 16.7541 78.0121Z" fill="#FED402"/>
<path fill-rule="evenodd" clip-rule="evenodd" d="M66.1882 10.89C70.6896 11.4903 75.0424 12.8105 79.1424 14.7025C90.7515 5.42485 105.801 -3.69499 115.416 1.52469C128.461 8.60629 116.501 40.1373 109.566 55.7319C109.665 56.8323 109.716 57.9308 109.716 59.0247C109.716 65.7754 107.788 72.1541 104.407 77.8056C81.299 75.444 63.2161 54.2817 63.2161 28.5247C63.2161 22.3128 64.2678 16.3681 66.1882 10.89Z" fill="#FED402"/>
<g style="mix-blend-mode:multiply">
<path d="M9.10848 9.29474C2.40652 13.6357 9.01413 32.2796 12.2654 40.3155C12.8859 41.8491 14.9782 41.9299 15.8279 40.5104C20.8243 32.1635 26.0368 27.1277 34.3786 19.8869C35.3287 19.0623 35.2974 17.5904 34.2718 16.8619C29.2975 13.3289 16.0154 4.82104 9.10848 9.29474Z" fill="#FED402" fill-opacity="0.5"/>
<path d="M112.324 9.29474C119.026 13.6357 112.418 32.2796 109.167 40.3155C108.546 41.8491 106.454 41.9299 105.604 40.5104C100.608 32.1635 95.3954 27.1277 87.0535 19.8869C86.1035 19.0623 86.1347 17.5904 87.1603 16.8619C92.1347 13.3289 105.417 4.82104 112.324 9.29474Z" fill="#FED402" fill-opacity="0.5"/>
</g>
<ellipse cx="40.7161" cy="50.0247" rx="5.5" ry="7" fill="#56392B"/>
<ellipse cx="42.7161" cy="49.0247" rx="1.5" ry="2" fill="white"/>
<ellipse cx="5.5" cy="7" rx="5.5" ry="7" transform="matrix(-1 0 0 1 88.2161 43.0247)" fill="#56392B"/>
<ellipse cx="1.5" cy="2" rx="1.5" ry="2" transform="matrix(-1 0 0 1 82.2161 47.0247)" fill="white"/>
<path d="M69.2161 63.5247C69.2161 65.4577 66.0821 67.0247 62.2161 67.0247C58.3501 67.0247 55.2161 65.4577 55.2161 63.5247C55.2161 61.5917 58.3501 59.0247 62.2161 59.0247C66.0821 59.0247 69.2161 61.5917 69.2161 63.5247Z" fill="#56392B"/>
<circle cx="65.2161" cy="62.0247" r="1" fill="white"/>
<path d="M62.2161 62.0247V68.0247C62.2161 70.2338 60.4252 72.0247 58.2161 72.0247H56.7161C55.3354 72.0247 54.2161 70.9054 54.2161 69.5247V69.5247" stroke="#56392B" stroke-width="2" stroke-linecap="round" stroke-linejoin="round"/>
<path d="M62.2161 62.0247V68.0247C62.2161 70.2338 64.0069 72.0247 66.2161 72.0247H67.7161C69.0968 72.0247 70.2161 70.9054 70.2161 69.5247V69.5247" stroke="#56392B" stroke-width="2" stroke-linecap="round" stroke-linejoin="round"/>
<ellipse cx="36.2161" cy="64.0247" rx="8" ry="5" fill="#FEB1AA"/>
<ellipse cx="88.2161" cy="64.0247" rx="8" ry="5" fill="#FEB1AA"/>
</svg>
