<svg width="131" height="137" viewBox="0 0 131 137" fill="none" xmlns="http://www.w3.org/2000/svg">
<circle cx="16.6723" cy="65.9192" r="16" fill="#C4C4C4"/>
<g style="mix-blend-mode:multiply">
<circle cx="16.6723" cy="65.9192" r="12" fill="#C4C4C4"/>
</g>
<circle cx="114.672" cy="65.9192" r="16" fill="#C4C4C4"/>
<g style="mix-blend-mode:multiply">
<circle cx="114.672" cy="65.9192" r="12" fill="#C4C4C4"/>
</g>
<path d="M63.515 4.98038C63.4724 2.78522 65.0447 0.967381 67.0271 0.920129C69.0094 0.872876 70.6509 2.6141 70.6936 4.80926L70.7542 7.92448L71.7076 5.02366C72.3857 2.96041 74.4459 1.89659 76.3091 2.64755C78.1723 3.39851 79.133 5.67989 78.4548 7.74314L75.1804 17.7054C74.5023 19.7687 72.4421 20.8325 70.5789 20.0815C69.9824 19.8411 69.4784 19.4438 69.091 18.947C68.588 19.2658 68.0079 19.4539 67.3876 19.4687C66.8794 19.4808 66.3935 19.3753 65.9512 19.1748C65.6204 20.296 64.8443 21.2436 63.7657 21.6783C61.9025 22.4293 59.8423 21.3655 59.1642 19.3022L55.8898 9.33996C55.2116 7.27671 56.1723 4.99534 58.0355 4.24437C59.8987 3.49341 61.9589 4.55723 62.637 6.62049L63.6041 9.56286L63.515 4.98038Z" fill="#393939"/>
<path d="M18.9822 58.1164C17.7256 32.9844 37.7638 11.9192 62.9273 11.9192H69.9532C95.29 11.9192 115.392 33.2631 113.874 58.5544L113.672 61.9192L114.581 81.9212C115.721 106.98 95.7116 127.919 70.6269 127.919H62.3705C37.4168 127.919 17.4575 107.19 18.4021 82.2537L19.1723 61.9192L18.9822 58.1164Z" fill="#393939"/>
<path fill-rule="evenodd" clip-rule="evenodd" d="M37.7664 69.5013C38.3005 69.0338 38.3102 68.1934 37.7961 67.7039C34.0236 64.1114 31.6723 59.0399 31.6723 53.4192C31.6723 42.527 40.5023 33.697 51.3945 33.697C57.3132 33.697 62.6229 36.3041 66.2379 40.4326C66.7267 40.9909 67.6179 40.9909 68.1068 40.4326C71.7218 36.3041 77.0315 33.697 82.9501 33.697C93.8424 33.697 102.672 42.527 102.672 53.4192C102.672 59.0471 100.315 64.1244 96.5341 67.7176C96.0192 68.2069 96.0284 69.048 96.5627 69.5158C102.146 74.4043 105.672 81.585 105.672 89.5892C105.672 102.267 96.7746 113.477 84.1795 114.919C72.3938 116.269 62.0037 116.245 50.2226 114.89C37.6109 113.438 28.6723 102.233 28.6723 89.538C28.6723 81.5481 32.1925 74.3805 37.7664 69.5013Z" fill="#B5B5B5"/>
<path fill-rule="evenodd" clip-rule="evenodd" d="M105.482 86.3908C105.608 87.4394 105.672 88.5068 105.672 89.5892C105.672 102.267 96.7746 113.477 84.1795 114.919C72.3938 116.269 62.0037 116.245 50.2226 114.89C37.6109 113.438 28.6723 102.233 28.6723 89.538C28.6723 88.98 28.6895 88.4261 28.7233 87.8767C36.5116 77.1397 51.0379 69.9192 67.6723 69.9192C83.5272 69.9192 97.467 76.4788 105.482 86.3908Z" fill="#DEDDDD"/>
<circle cx="48.6723" cy="49.9192" r="11" fill="white"/>
<circle cx="48.6723" cy="49.9192" r="7.33333" fill="#393939"/>
<circle cx="51.4223" cy="47.7803" r="2.75" fill="white"/>
<circle cx="84.6723" cy="49.9192" r="11" fill="white"/>
<circle cx="84.6723" cy="49.9192" r="7.33333" fill="#393939"/>
<circle cx="87.4223" cy="47.7803" r="2.75" fill="white"/>
<ellipse cx="52.6723" cy="83.9192" rx="3" ry="4" fill="#393939"/>
<ellipse cx="81.6723" cy="83.9192" rx="3" ry="4" fill="#393939"/>
<circle cx="39.1723" cy="94.4192" r="5.5" fill="#FFCEB9"/>
<circle cx="94.1723" cy="94.4192" r="5.5" fill="#FFCEB9"/>
<circle cx="39.1723" cy="94.4192" r="5.5" fill="#FFCEB9"/>
<circle cx="94.1723" cy="94.4192" r="5.5" fill="#FFCEB9"/>
<path d="M90.0089 111.945C75.7417 103.614 68.0215 102.93 50.065 103.945" stroke="#5EA985" stroke-width="2" stroke-linecap="round"/>
<path d="M78.4025 109.125C77.7514 107.021 75.7133 105.093 75.7133 105.093C75.7133 105.093 75.1208 107.836 75.7719 109.939C76.4231 112.043 78.4612 113.971 78.4612 113.971C78.4612 113.971 79.0537 111.229 78.4025 109.125Z" fill="#5EA985"/>
<path d="M78.892 101.689C77.0303 102.866 75.6991 105.335 75.6991 105.335C75.6991 105.335 78.5013 105.194 80.363 104.017C82.2247 102.841 83.5559 100.371 83.5559 100.371C83.5559 100.371 80.7537 100.513 78.892 101.689Z" fill="#5EA985"/>
<path d="M71.0997 107.643C70.3051 105.589 68.1389 103.806 68.1389 103.806C68.1389 103.806 67.7369 106.582 68.5315 108.636C69.3261 110.69 71.4923 112.473 71.4923 112.473C71.4923 112.473 71.8943 109.697 71.0997 107.643Z" fill="#5EA985"/>
<path d="M64.0438 106.886C62.8931 105.008 60.4418 103.643 60.4418 103.643C60.4418 103.643 60.5452 106.447 61.6959 108.325C62.8466 110.203 65.2979 111.568 65.2979 111.568C65.2979 111.568 65.1945 108.764 64.0438 106.886Z" fill="#5EA985"/>
<path fill-rule="evenodd" clip-rule="evenodd" d="M84.6237 109.293C84.9687 109.317 85.3042 109.353 85.6264 109.4C85.3958 109.17 85.1654 108.924 84.9387 108.662C83.2314 106.695 82.3788 104.64 83.0344 104.071C83.69 103.501 85.6056 104.635 87.3129 106.601C87.5396 106.863 87.7512 107.125 87.9462 107.386C87.9456 107.06 87.957 106.723 87.9814 106.378C88.1649 103.78 89.0157 101.724 89.8817 101.785C90.7478 101.846 91.301 104.002 91.1175 106.6C91.0931 106.945 91.057 107.28 91.0106 107.603C91.2403 107.372 91.4868 107.141 91.748 106.915C93.7149 105.207 95.7707 104.355 96.3398 105.011C96.9089 105.666 95.7758 107.582 93.8089 109.289C93.5478 109.516 93.285 109.727 93.0244 109.922C93.3499 109.922 93.6871 109.933 94.0321 109.958C96.6301 110.141 98.6867 110.992 98.6255 111.858C98.5643 112.724 96.4086 113.277 93.8105 113.094C93.4656 113.069 93.1302 113.033 92.8081 112.987C93.0386 113.216 93.2689 113.463 93.4956 113.724C95.2029 115.691 96.0555 117.747 95.3998 118.316C94.7442 118.885 92.8287 117.752 91.1214 115.785C90.8947 115.524 90.683 115.261 90.488 115C90.4886 115.326 90.4772 115.663 90.4529 116.008C90.2693 118.606 89.4185 120.663 88.5525 120.602C87.6865 120.54 87.1332 118.385 87.3167 115.787C87.3411 115.442 87.3772 115.106 87.4236 114.784C87.1939 115.015 86.9474 115.245 86.6862 115.472C84.7193 117.179 82.6635 118.032 82.0944 117.376C81.5253 116.72 82.6584 114.805 84.6253 113.097C84.8865 112.871 85.1492 112.659 85.4098 112.464C85.0843 112.465 84.7471 112.453 84.4021 112.429C81.8041 112.245 79.7476 111.395 79.8087 110.529C79.8699 109.663 82.0256 109.109 84.6237 109.293Z" fill="#ED653B"/>
<circle cx="89.2171" cy="111.193" r="2.16145" transform="rotate(-85.9591 89.2171 111.193)" fill="white" fill-opacity="0.5"/>
<path d="M53.6723 96.9192C58.3996 104.919 75.2077 104.919 79.6723 96.9192" stroke="#393939" stroke-width="2" stroke-linecap="round" stroke-linejoin="round"/>
</svg>
