<svg width="128" height="135" viewBox="0 0 128 135" fill="none" xmlns="http://www.w3.org/2000/svg">
<path d="M62.3465 4.56967C62.975 3.12422 65.025 3.12422 65.6535 4.56966L67.0131 7.69657C67.5851 9.01208 69.3897 9.16526 70.1752 7.96498L72.0389 5.11738C72.9019 3.7987 74.9223 4.14396 75.2985 5.6744L76.1143 8.99388C76.4566 10.3865 78.209 10.8416 79.1856 9.79141L81.5007 7.3019C82.5736 6.1482 84.5061 6.8287 84.6194 8.4001L84.8659 11.8192C84.969 13.2489 86.6184 13.9924 87.758 13.1229L90.4604 11.061C91.7123 10.1058 93.5012 11.1017 93.3487 12.669L93.0158 16.0905C92.877 17.5162 94.376 18.5266 95.6455 17.8631L98.6607 16.2872C100.055 15.5583 101.649 16.8409 101.235 18.3592L100.329 21.6842C99.953 23.0652 101.258 24.313 102.621 23.8747L105.865 22.8312C107.363 22.3496 108.715 23.8817 108.052 25.3078L106.597 28.4387C105.994 29.7356 107.068 31.1846 108.484 30.9841L111.867 30.5053C113.423 30.285 114.496 32.0224 113.603 33.3155L111.638 36.1592C110.826 37.335 111.639 38.9435 113.067 38.9864L116.492 39.0892C118.062 39.1364 118.825 41.0291 117.726 42.1521L115.309 44.6236C114.311 45.6448 114.839 47.3664 116.239 47.6511L119.606 48.3359C121.144 48.6488 121.575 50.6425 120.304 51.5633L117.506 53.5887C116.349 54.426 116.578 56.2115 117.909 56.7295L121.119 57.9788C122.582 58.5483 122.669 60.5857 121.259 61.2776L118.164 62.7972C116.882 63.4264 116.806 65.2249 118.029 65.9608L120.987 67.7398C122.332 68.5491 122.072 70.5719 120.566 71.0147L117.266 71.9851C115.896 72.3879 115.515 74.1478 116.597 75.0804L119.214 77.3372C120.403 78.3628 119.804 80.313 118.244 80.4938L114.836 80.8886C113.417 81.053 112.744 82.7241 113.653 83.8265L115.852 86.4942C116.851 87.7065 115.929 89.5282 114.361 89.4413L110.945 89.2522C109.518 89.1732 108.57 90.7075 109.281 91.9482L110.997 94.9468C111.778 96.3112 110.56 97.9519 109.028 97.5997L105.703 96.8354C104.309 96.5149 103.114 97.8682 103.606 99.2119L104.791 102.452C105.331 103.929 103.852 105.342 102.401 104.734L99.2605 103.42C97.9396 102.867 96.5324 104 96.7909 105.408L97.4122 108.794C97.6964 110.342 95.9989 111.486 94.6708 110.641L91.8021 108.815C90.5932 108.046 89.0133 108.926 89.0312 110.359L89.0742 113.791C89.0939 115.366 87.2264 116.208 86.0598 115.149L83.5423 112.866C82.4804 111.902 80.7733 112.504 80.5499 113.92L80.0165 117.301C79.7709 118.858 77.7873 119.373 76.8158 118.132L74.7191 115.454C73.8349 114.325 72.0499 114.63 71.5911 115.989L70.4993 119.223C69.9952 120.717 67.9526 120.89 67.2042 119.503L65.5868 116.505C64.9056 115.243 63.0944 115.243 62.4132 116.505L60.7958 119.503C60.0474 120.89 58.0048 120.717 57.5007 119.223L56.4088 115.989C55.9501 114.63 54.1651 114.325 53.2809 115.454L51.1842 118.132C50.2127 119.373 48.2291 118.858 47.9835 117.301L47.4501 113.92C47.2267 112.504 45.5196 111.902 44.4577 112.866L41.9402 115.149C40.7736 116.208 38.9061 115.366 38.9258 113.791L38.9688 110.359C38.9867 108.926 37.4068 108.046 36.1979 108.815L33.3292 110.641C32.0011 111.486 30.3036 110.342 30.5878 108.794L31.2091 105.408C31.4676 104 30.0604 102.867 28.7395 103.42L25.5988 104.734C24.1476 105.342 22.6689 103.929 23.2093 102.452L24.3942 99.2119C24.8856 97.8682 23.6913 96.5149 22.297 96.8354L18.9718 97.5997C17.4396 97.9519 16.222 96.3112 17.0031 94.9468L18.7195 91.9482C19.4297 90.7075 18.4824 89.1732 17.055 89.2522L13.6394 89.4413C12.0706 89.5282 11.149 87.7066 12.1484 86.4942L14.3475 83.8265C15.2562 82.7241 14.5829 81.053 13.1637 80.8886L9.75587 80.4938C8.19584 80.313 7.59659 78.3628 8.78594 77.3372L11.4032 75.0804C12.4847 74.1478 12.1044 72.3879 10.7343 71.9851L7.43384 71.0147C5.92757 70.5719 5.66766 68.5491 7.01307 67.7398L9.97081 65.9608C11.1943 65.2249 11.1177 63.4264 9.83606 62.7972L6.74066 61.2776C5.3314 60.5857 5.41825 58.5483 6.88127 57.9788L10.0912 56.7295C11.4218 56.2115 11.6511 54.426 10.4944 53.5887L7.69648 51.5633C6.42456 50.6425 6.85567 48.6488 8.39437 48.3359L11.761 47.6511C13.1606 47.3664 13.6893 45.6448 12.6906 44.6236L10.2735 42.1521C9.17524 41.0291 9.93835 39.1364 11.5084 39.0892L14.9326 38.9864C16.3611 38.9435 17.1743 37.335 16.3619 36.1592L14.397 33.3155C13.5037 32.0224 14.577 30.285 16.1332 30.5053L19.5156 30.9841C20.9317 31.1846 22.0063 29.7356 21.4033 28.4387L19.9476 25.3078C19.2845 23.8817 20.6375 22.3496 22.1346 22.8312L25.379 23.8747C26.7415 24.313 28.047 23.0652 27.6706 21.6842L26.7646 18.3592C26.3508 16.8409 27.9446 15.5583 29.3393 16.2872L32.3545 17.8631C33.624 18.5266 35.123 17.5162 34.9842 16.0905L34.6513 12.669C34.4988 11.1017 36.2877 10.1058 37.5396 11.061L40.242 13.1229C41.3816 13.9924 43.031 13.2489 43.1341 11.8192L43.3806 8.4001C43.4939 6.8287 45.4264 6.1482 46.4993 7.3019L48.8144 9.79141C49.791 10.8416 51.5434 10.3865 51.8857 8.99388L52.7015 5.6744C53.0777 4.14396 55.0981 3.79869 55.9611 5.11737L57.8248 7.96499C58.6103 9.16526 60.4149 9.01208 60.9869 7.69658L62.3465 4.56967Z" fill="#3B2514"/>
<path d="M62.3344 12.8971C62.9495 11.4139 65.0505 11.4139 65.6655 12.8971L66.3459 14.5378C66.9074 15.8921 68.7647 16.0456 69.5409 14.8019L70.4514 13.3431C71.3006 11.9824 73.3704 12.3247 73.7364 13.8863L74.1606 15.696C74.4943 17.1196 76.2948 17.5749 77.265 16.4809L78.3897 15.2127C79.4505 14.0167 81.4277 14.6905 81.5374 16.2854L81.6717 18.2387C81.7715 19.6901 83.4608 20.4318 84.5969 19.5228L85.928 18.4579C87.17 17.4641 88.9967 18.4485 88.8497 20.0324L88.6592 22.0856C88.5256 23.5243 90.0539 24.5278 91.321 23.8334L92.8532 22.9937C94.2393 22.234 95.8624 23.4986 95.4648 25.0283L94.9218 27.1179C94.5613 28.505 95.8851 29.7379 97.2431 29.2799L98.9655 28.699C100.453 28.1974 101.826 29.7036 101.19 31.1383L100.283 33.1836C99.707 34.4827 100.79 35.9066 102.196 35.6979L104.084 35.4177C105.625 35.1889 106.712 36.8918 105.854 38.1933L104.595 40.1034C103.82 41.2809 104.635 42.8532 106.044 42.8976L108.052 42.9608C109.601 43.0096 110.371 44.8597 109.314 45.9927L107.743 47.6776C106.787 48.7025 107.314 50.3784 108.685 50.6707L110.748 51.1107C112.257 51.4325 112.691 53.3774 111.462 54.3102L109.642 55.6917C108.53 56.536 108.758 58.2696 110.051 58.7972L112.085 59.6275C113.511 60.2093 113.598 62.1951 112.229 62.8999L110.243 63.9221C109.003 64.5607 108.926 66.3059 110.107 67.0502L112.021 68.2574C113.324 69.0794 113.062 71.0516 111.59 71.5055L109.53 72.1404C108.194 72.5524 107.815 74.2629 108.852 75.2008L110.557 76.7426C111.704 77.7792 111.1 79.6834 109.566 79.8699L107.521 80.1183C106.125 80.2878 105.452 81.9176 106.321 83.0225L107.742 84.8308C108.702 86.0522 107.771 87.8351 106.22 87.7451L104.265 87.6316C102.852 87.5496 101.9 89.0532 102.578 90.2955L103.664 92.2848C104.414 93.6575 103.18 95.268 101.659 94.9015L99.85 94.4655C98.4626 94.1311 97.2551 95.4646 97.725 96.8121L98.4499 98.8905C98.9686 100.378 97.465 101.768 96.0228 101.135L94.3934 100.42C93.0756 99.8417 91.6446 100.964 91.8927 102.382L92.2569 104.463C92.5303 106.025 90.7992 107.153 89.4801 106.273L88.0476 105.317C86.8414 104.512 85.2267 105.389 85.244 106.839L85.268 108.849C85.287 110.443 83.3781 111.276 82.2224 110.176L80.9939 109.008C79.9368 108.002 78.1853 108.603 77.9682 110.046L77.6845 111.932C77.4462 113.516 75.4152 114.026 74.4568 112.742L73.4379 111.378C72.5616 110.204 70.7257 110.51 70.2769 111.904L69.7208 113.631C69.2289 115.159 67.1357 115.331 66.4013 113.904L65.6032 112.353C64.9322 111.049 63.0678 111.049 62.3967 112.353L61.5987 113.904C60.8642 115.331 58.771 115.159 58.2791 113.631L57.723 111.904C57.2742 110.51 55.4384 110.204 54.562 111.378L53.5431 112.742C52.5848 114.026 50.5537 113.516 50.3154 111.932L50.0317 110.046C49.8146 108.603 48.0632 108.002 47.0061 109.008L45.7775 110.176C44.6219 111.276 42.7129 110.443 42.732 108.849L42.756 106.839C42.7733 105.389 41.1586 104.512 39.9523 105.317L38.5198 106.273C37.2007 107.153 35.4696 106.025 35.743 104.463L36.1072 102.382C36.3553 100.964 34.9243 99.8417 33.6065 100.42L31.9771 101.135C30.5349 101.768 29.0313 100.378 29.55 98.8905L30.2749 96.8121C30.7449 95.4646 29.5374 94.1311 28.15 94.4655L26.3407 94.9015C24.8203 95.268 23.5863 93.6575 24.3357 92.2848L25.4216 90.2955C26.0998 89.0532 25.1475 87.5496 23.7345 87.6316L21.7797 87.7451C20.2286 87.8351 19.2975 86.0522 20.2577 84.8308L21.6793 83.0225C22.5479 81.9176 21.8745 80.2878 20.4793 80.1183L18.4344 79.8699C16.9 79.6834 16.2961 77.7792 17.4426 76.7426L19.1477 75.2008C20.185 74.2629 19.806 72.5524 18.4696 72.1404L16.41 71.5055C14.9376 71.0516 14.6761 69.0794 15.9793 68.2574L17.8934 67.0502C19.0735 66.3059 18.9973 64.5607 17.7568 63.9221L15.7711 62.8999C14.4021 62.1951 14.4894 60.2093 15.915 59.6275L17.9492 58.7972C19.242 58.2696 19.4703 56.536 18.358 55.6917L16.538 54.3102C15.3091 53.3774 15.7432 51.4325 17.252 51.1107L19.3147 50.6707C20.6854 50.3784 21.2131 48.7025 20.2572 47.6776L18.6858 45.9927C17.629 44.8597 18.399 43.0096 19.9476 42.9608L21.9557 42.8976C23.3651 42.8532 24.1804 41.2809 23.4045 40.1034L22.1459 38.1933C21.2884 36.8918 22.3745 35.1889 23.9162 35.4177L25.8039 35.6979C27.2096 35.9066 28.2929 34.4827 27.7169 33.1836L26.81 31.1383C26.1738 29.7036 27.5473 28.1974 29.0345 28.699L30.7569 29.2799C32.1149 29.7379 33.4386 28.505 33.0782 27.1179L32.5351 25.0283C32.1376 23.4986 33.7607 22.234 35.1467 22.9937L36.6789 23.8334C37.946 24.5278 39.4743 23.5243 39.3408 22.0856L39.1502 20.0324C39.0032 18.4485 40.8299 17.4641 42.072 18.4579L43.403 19.5228C44.5391 20.4318 46.2284 19.6901 46.3282 18.2387L46.4625 16.2854C46.5722 14.6905 48.5495 14.0167 49.6103 15.2127L50.7349 16.4809C51.7052 17.5749 53.5056 17.1196 53.8393 15.696L54.2635 13.8863C54.6295 12.3247 56.6993 11.9824 57.5485 13.3431L58.459 14.8019C59.2353 16.0456 61.0925 15.8921 61.6541 14.5378L62.3344 12.8971Z" fill="#61432F"/>
<circle cx="36.6106" cy="40.5902" r="8.82334" fill="#FFE6BB"/>
<circle cx="36.1581" cy="40.5797" r="6.10847" fill="#ECC79F"/>
<circle cx="89.4616" cy="40.5902" r="8.82334" fill="#FFE6BB"/>
<circle cx="89.0092" cy="40.5797" r="6.10847" fill="#ECC79F"/>
<path d="M26.3534 60.9719C31.4758 46.0069 45.5837 35.8374 61.4011 35.8374H66.2541C82.2433 35.8374 96.4296 46.0926 101.443 61.2755L101.604 61.7625C103.95 68.8678 105.489 76.2146 106.191 83.6642C108.234 105.339 91.185 124.071 69.4142 124.071H57.725C36.3567 124.071 19.5673 105.781 21.3916 84.4908C22.0767 76.4965 23.755 68.5632 26.3534 60.9719Z" fill="#FFE6BB"/>
<circle cx="40.5106" cy="89.5115" r="4.89362" fill="#FFCEB9"/>
<circle cx="87.4894" cy="89.5115" r="4.89362" fill="#FFCEB9"/>
<path d="M77.7021 72.2015C77.7021 68.2482 71.8601 65.0435 63.4674 65.0435C55.0747 65.0435 50.2979 68.2482 50.2979 72.2015C50.2979 76.1548 55.0747 84.6179 63.4674 84.6179C71.8601 84.6179 77.7021 76.1548 77.7021 72.2015Z" fill="#ECC79F"/>
<rect x="62.9408" y="73.1997" width="1.60441" height="6.41763" rx="0.802204" fill="#3A211F"/>
<ellipse cx="64.0104" cy="71.8627" rx="4.81322" ry="2.94141" fill="#3A211F"/>
<circle cx="61.069" cy="70.7931" r="0.802204" fill="white"/>
<path d="M58.1276 77.2108C60.8016 79.6174 66.7439 79.6174 69.4179 77.2108" stroke="#3A211F" stroke-width="1.76467" stroke-linecap="round"/>
<circle cx="45.8936" cy="63.1825" r="4.40426" fill="#3A211F"/>
<circle cx="47.1131" cy="62.232" r="1.46809" fill="white"/>
<circle cx="4.40426" cy="4.40426" r="4.40426" transform="matrix(-1 0 0 1 85.7924 58.7781)" fill="#3A211F"/>
<circle cx="1.46809" cy="1.46809" r="1.46809" transform="matrix(-1 0 0 1 84.5453 60.7639)" fill="white"/>
<path d="M46.543 71.4541C40.8241 70.9519 37.58 70.8242 31.7021 70.9755" stroke="#ECC79F" stroke-width="1.46809" stroke-linecap="round" stroke-linejoin="round"/>
<path d="M45.0729 80.2174C40.1341 81.0646 37.4303 81.6893 32.7694 83.1715" stroke="#ECC79F" stroke-width="1.46809" stroke-linecap="round" stroke-linejoin="round"/>
<path d="M44.6878 76.0003C39.5246 75.7931 37.0034 76.1143 31.8474 76.5548" stroke="#ECC79F" stroke-width="1.46809" stroke-linecap="round" stroke-linejoin="round"/>
<path d="M80.7983 71.4541C86.5172 70.9519 89.7613 70.8242 95.6392 70.9755" stroke="#ECC79F" stroke-width="1.46809" stroke-linecap="round" stroke-linejoin="round"/>
<path d="M82.2683 80.2174C87.2072 81.0646 89.911 81.6893 94.5719 83.1715" stroke="#ECC79F" stroke-width="1.46809" stroke-linecap="round" stroke-linejoin="round"/>
<path d="M81.6747 76.0003C86.838 75.7931 89.3591 76.1143 94.5152 76.5548" stroke="#ECC79F" stroke-width="1.46809" stroke-linecap="round" stroke-linejoin="round"/>
<path d="M10.7365 101.218C24.2025 116.398 32.9515 120.147 54.2972 125.828" stroke="#412E1A" stroke-width="1.84133" stroke-linecap="round"/>
<path d="M5.07626 99.1033C5.65272 99.8574 6.40053 100.504 7.20127 101.05C9.65334 102.723 12.4437 100.406 11.3292 97.6543C10.9776 96.7864 10.5345 95.9395 9.97698 95.2101C9.45275 94.5244 8.80164 93.909 8.10613 93.3666C5.72692 91.5112 2.72673 93.665 3.73207 96.5097C4.06227 97.4441 4.4989 98.348 5.07626 99.1033Z" fill="#412E1A"/>
<path d="M15.3674 103.866C15.356 104.556 15.4546 105.268 15.6078 105.945C15.9862 107.619 18.0073 107.652 18.4404 105.992C18.6157 105.32 18.7376 104.612 18.7489 103.921C18.7603 103.231 18.6617 102.519 18.5085 101.842C18.1302 100.168 16.109 100.135 15.6759 101.795C15.5006 102.467 15.3787 103.175 15.3674 103.866Z" fill="#412E1A"/>
<path d="M13.1555 109.504C13.8462 109.502 14.5559 109.388 15.2298 109.221C16.8948 108.808 16.8864 106.787 15.2179 106.388C14.5427 106.227 13.8321 106.12 13.1414 106.122C12.4507 106.125 11.741 106.239 11.0671 106.406C9.40211 106.818 9.41054 108.84 11.079 109.239C11.7542 109.4 12.4648 109.507 13.1555 109.504Z" fill="#412E1A"/>
<path d="M22.2354 109.739C22.2241 110.43 22.3227 111.142 22.4758 111.819C22.8542 113.492 24.8753 113.525 25.3084 111.866C25.4837 111.194 25.6056 110.486 25.617 109.795C25.6283 109.104 25.5297 108.393 25.3766 107.715C24.9982 106.042 22.977 106.009 22.5439 107.669C22.3687 108.341 22.2467 109.049 22.2354 109.739Z" fill="#412E1A"/>
<path d="M20.9566 116.234C21.6264 116.065 22.288 115.784 22.902 115.46C24.419 114.659 23.9248 112.699 22.2095 112.713C21.5152 112.719 20.7997 112.786 20.1299 112.954C19.4602 113.123 18.7985 113.404 18.1846 113.728C16.6676 114.529 17.1617 116.489 18.8771 116.475C19.5713 116.469 20.2869 116.403 20.9566 116.234Z" fill="#412E1A"/>
<path d="M29.9175 115.118C29.9538 115.807 30.1013 116.511 30.3007 117.176C30.7935 118.819 32.8121 118.713 33.1298 117.027C33.2584 116.345 33.3312 115.63 33.2949 114.94C33.2586 114.25 33.1112 113.547 32.9117 112.882C32.4189 111.239 30.4003 111.345 30.0826 113.031C29.9541 113.713 29.8813 114.428 29.9175 115.118Z" fill="#412E1A"/>
<path d="M29.2113 121.003C29.8499 120.739 30.4644 120.367 31.0254 119.958C32.4117 118.947 31.6412 117.079 29.9456 117.339C29.2593 117.444 28.5608 117.613 27.9222 117.876C27.2836 118.139 26.6692 118.512 26.1081 118.921C24.7219 119.931 25.4924 121.8 27.188 121.54C27.8742 121.435 28.5728 121.266 29.2113 121.003Z" fill="#412E1A"/>
<path d="M38.3992 118.553C38.4933 119.237 38.6993 119.926 38.954 120.572C39.5831 122.168 41.5856 121.892 41.7605 120.186C41.8313 119.495 41.8438 118.776 41.7497 118.092C41.6556 117.408 41.4495 116.719 41.1949 116.074C40.5658 114.478 38.5632 114.753 38.3883 116.46C38.3176 117.15 38.3051 117.869 38.3992 118.553Z" fill="#412E1A"/>
<path d="M38.5637 125.318C39.1666 124.981 39.7327 124.538 40.2415 124.066C41.4986 122.899 40.5125 121.134 38.8596 121.593C38.1906 121.778 37.5169 122.029 36.9139 122.365C36.311 122.702 35.7449 123.145 35.2361 123.617C33.979 124.785 34.9651 126.549 36.618 126.091C37.287 125.905 37.9607 125.655 38.5637 125.318Z" fill="#412E1A"/>
<path d="M116.341 100.753C102.876 115.933 94.1265 119.683 72.7808 125.363" stroke="#412E1A" stroke-width="1.84133" stroke-linecap="round"/>
<path d="M122.002 98.6386C121.425 99.3927 120.677 100.039 119.877 100.586C117.425 102.259 114.634 99.941 115.749 97.1896C116.1 96.3217 116.543 95.4747 117.101 94.7454C117.625 94.0597 118.276 93.4442 118.972 92.9019C121.351 91.0465 124.351 93.2003 123.346 96.045C123.016 96.9793 122.579 97.8833 122.002 98.6386Z" fill="#412E1A"/>
<path d="M111.711 103.401C111.722 104.092 111.623 104.803 111.47 105.481C111.092 107.154 109.071 107.187 108.638 105.527C108.462 104.855 108.34 104.147 108.329 103.456C108.318 102.766 108.416 102.054 108.569 101.377C108.948 99.7037 110.969 99.6705 111.402 101.33C111.577 102.002 111.699 102.71 111.711 103.401Z" fill="#412E1A"/>
<path d="M113.922 109.04C113.232 109.037 112.522 108.924 111.848 108.757C110.183 108.344 110.192 106.322 111.86 105.924C112.535 105.762 113.246 105.655 113.937 105.658C114.627 105.661 115.337 105.774 116.011 105.941C117.676 106.354 117.667 108.375 115.999 108.774C115.324 108.935 114.613 109.043 113.922 109.04Z" fill="#412E1A"/>
<path d="M104.843 109.275C104.854 109.965 104.755 110.677 104.602 111.354C104.224 113.028 102.203 113.061 101.77 111.401C101.594 110.729 101.472 110.021 101.461 109.33C101.45 108.64 101.548 107.928 101.701 107.251C102.08 105.577 104.101 105.544 104.534 107.204C104.709 107.876 104.831 108.584 104.843 109.275Z" fill="#412E1A"/>
<path d="M106.121 115.769C105.452 115.6 104.79 115.32 104.176 114.996C102.659 114.195 103.153 112.235 104.868 112.249C105.563 112.254 106.278 112.321 106.948 112.49C107.618 112.659 108.279 112.939 108.893 113.263C110.41 114.064 109.916 116.024 108.201 116.01C107.507 116.005 106.791 115.938 106.121 115.769Z" fill="#412E1A"/>
<path d="M97.1604 114.653C97.1241 115.343 96.9767 116.046 96.7772 116.711C96.2844 118.354 94.2658 118.248 93.9482 116.562C93.8196 115.88 93.7468 115.165 93.7831 114.475C93.8193 113.785 93.9668 113.082 94.1662 112.417C94.659 110.774 96.6777 110.88 96.9953 112.566C97.1239 113.248 97.1967 113.963 97.1604 114.653Z" fill="#412E1A"/>
<path d="M97.8667 120.538C97.2281 120.275 96.6136 119.902 96.0526 119.493C94.6663 118.483 95.4368 116.614 97.1324 116.874C97.8187 116.979 98.5172 117.148 99.1558 117.411C99.7943 117.675 100.409 118.047 100.97 118.456C102.356 119.467 101.586 121.335 99.89 121.075C99.2038 120.97 98.5052 120.801 97.8667 120.538Z" fill="#412E1A"/>
<path d="M88.6788 118.088C88.5847 118.773 88.3786 119.461 88.124 120.107C87.4949 121.703 85.4923 121.427 85.3175 119.721C85.2467 119.03 85.2342 118.312 85.3283 117.627C85.4224 116.943 85.6284 116.255 85.8831 115.609C86.5122 114.013 88.5147 114.288 88.6896 115.995C88.7604 116.686 88.7729 117.404 88.6788 118.088Z" fill="#412E1A"/>
<path d="M88.5143 124.853C87.9113 124.516 87.3452 124.073 86.8365 123.601C85.5794 122.434 86.5654 120.669 88.2184 121.128C88.8874 121.314 89.5611 121.564 90.164 121.901C90.767 122.238 91.3331 122.68 91.8419 123.153C93.0989 124.32 92.1129 126.085 90.46 125.626C89.791 125.44 89.1173 125.19 88.5143 124.853Z" fill="#412E1A"/>
<path d="M71.0669 114.087C71.0841 113.905 71.0929 113.721 71.0929 113.534C71.0929 110.349 68.528 107.767 65.364 107.767C62.2 107.767 59.6351 110.349 59.6351 113.534C59.6351 113.844 59.6593 114.147 59.7058 114.443C57.7972 113.289 55.3266 113.267 53.4107 114.587C50.8189 116.372 50.2237 119.934 52.0813 122.544C53.0716 123.935 54.5591 124.774 56.1248 124.984C55.9658 125.159 55.8156 125.345 55.6753 125.542C53.8178 128.151 54.413 131.713 57.0047 133.498C59.5965 135.283 63.2034 134.615 65.061 132.006C65.1612 131.865 65.2543 131.721 65.3404 131.575C65.4264 131.721 65.5195 131.865 65.6198 132.006C67.4774 134.615 71.0843 135.283 73.6761 133.498C76.2678 131.713 76.863 128.151 75.0054 125.542C74.8405 125.31 74.6617 125.094 74.4711 124.893C75.8462 124.584 77.1228 123.783 78.005 122.544C79.8626 119.934 79.2674 116.372 76.6756 114.587C74.9824 113.421 72.8559 113.302 71.0669 114.087Z" fill="#FFCE05"/>
<circle cx="65.6877" cy="121.757" r="4.32162" transform="rotate(24.6549 65.6877 121.757)" fill="white" fill-opacity="0.6"/>
<path d="M51.9603 35.9039C51.9688 35.8136 51.9732 35.7221 51.9732 35.6296C51.9732 34.0486 50.7001 32.7668 49.1296 32.7668C47.5592 32.7668 46.2861 34.0486 46.2861 35.6296C46.2861 35.7831 46.2981 35.9338 46.3212 36.0808C45.3738 35.5076 44.1475 35.4971 43.1965 36.152C41.9101 37.038 41.6147 38.8062 42.5367 40.1013C43.0282 40.7918 43.7666 41.2084 44.5437 41.3127C44.4648 41.3994 44.3902 41.4917 44.3206 41.5895C43.3986 42.8846 43.694 44.6528 44.9805 45.5387C46.2669 46.4247 48.0572 46.093 48.9792 44.7979C49.029 44.728 49.0752 44.6567 49.1179 44.5842C49.1606 44.6567 49.2068 44.728 49.2566 44.7979C50.1786 46.093 51.9689 46.4247 53.2554 45.5387C54.5418 44.6528 54.8372 42.8846 53.9152 41.5895C53.8333 41.4745 53.7446 41.367 53.65 41.2674C54.3325 41.1141 54.9662 40.7164 55.404 40.1013C56.326 38.8062 56.0306 37.038 54.7442 36.152C53.9037 35.5732 52.8482 35.5141 51.9603 35.9039Z" fill="white"/>
<circle cx="49.2903" cy="39.7108" r="2.14505" transform="rotate(24.6549 49.2903 39.7108)" fill="#FFE36B"/>
<path d="M67.0026 32.9039C67.0112 32.8136 67.0156 32.7221 67.0156 32.6296C67.0156 31.0486 65.7371 29.7668 64.1599 29.7668C62.5828 29.7668 61.3043 31.0486 61.3043 32.6296C61.3043 32.7831 61.3164 32.9338 61.3396 33.0808C60.3882 32.5076 59.1566 32.4971 58.2016 33.152C56.9097 34.038 56.6131 35.8062 57.539 37.1013C58.0326 37.7918 58.7741 38.2084 59.5546 38.3127C59.4753 38.3994 59.4004 38.4917 59.3305 38.5895C58.4046 39.8846 58.7012 41.6528 59.9931 42.5387C61.285 43.4247 63.083 43.093 64.0089 41.7979C64.0589 41.728 64.1053 41.6567 64.1482 41.5842C64.1911 41.6567 64.2375 41.728 64.2874 41.7979C65.2134 43.093 67.0113 43.4247 68.3032 42.5387C69.5951 41.6528 69.8918 39.8846 68.9658 38.5895C68.8836 38.4745 68.7945 38.367 68.6995 38.2674C69.3849 38.1141 70.0213 37.7164 70.461 37.1013C71.3869 35.8062 71.0903 34.038 69.7984 33.152C68.9544 32.5732 67.8944 32.5141 67.0026 32.9039Z" fill="#FFCE05"/>
<ellipse cx="2.15259" cy="2.14664" rx="2.15259" ry="2.14664" transform="matrix(0.909505 0.415692 -0.418615 0.908164 63.2622 33.8665)" fill="white" fill-opacity="0.6"/>
<path d="M80.9603 35.9039C80.9688 35.8136 80.9732 35.7221 80.9732 35.6296C80.9732 34.0486 79.7001 32.7668 78.1296 32.7668C76.5592 32.7668 75.2861 34.0486 75.2861 35.6296C75.2861 35.7831 75.2981 35.9338 75.3212 36.0808C74.3738 35.5076 73.1475 35.4971 72.1965 36.152C70.9101 37.038 70.6147 38.8062 71.5367 40.1013C72.0282 40.7918 72.7666 41.2084 73.5437 41.3127C73.4648 41.3994 73.3902 41.4917 73.3206 41.5895C72.3986 42.8846 72.694 44.6528 73.9805 45.5387C75.2669 46.4247 77.0572 46.093 77.9792 44.7979C78.029 44.728 78.0752 44.6567 78.1179 44.5842C78.1606 44.6567 78.2068 44.728 78.2566 44.7979C79.1786 46.093 80.9689 46.4247 82.2554 45.5387C83.5418 44.6528 83.8372 42.8846 82.9152 41.5895C82.8333 41.4745 82.7446 41.367 82.65 41.2674C83.3325 41.1141 83.9662 40.7164 84.404 40.1013C85.326 38.8062 85.0306 37.038 83.7442 36.152C82.9037 35.5732 81.8482 35.5141 80.9603 35.9039Z" fill="white"/>
<circle cx="78.2903" cy="39.7108" r="2.14505" transform="rotate(24.6549 78.2903 39.7108)" fill="#FFE36B"/>
</svg>
