<svg width="118" height="125" viewBox="0 0 118 125" fill="none" xmlns="http://www.w3.org/2000/svg">
<path d="M86.943 7.64086C86.1 6.20027 84.0134 6.46185 83.5563 8.06713C80.782 17.8094 80.726 23.0751 63.6776 26.7869L90.1028 42.1744C95.1734 28.1771 93.6721 19.1406 86.943 7.64086Z" fill="#56392B"/>
<path d="M30.5933 7.64086C31.4363 6.20027 33.5229 6.46185 33.98 8.06713C36.7543 17.8094 36.8104 23.0751 53.8587 26.7869L27.4335 42.1744C22.363 28.1771 23.8642 19.1406 30.5933 7.64086Z" fill="#56392B"/>
<ellipse cx="17.4787" cy="10.329" rx="17.4787" ry="10.329" transform="matrix(0.96549 -0.260439 0.269145 0.9631 -1.52588e-05 37.4187)" fill="#525151"/>
<ellipse cx="17.4787" cy="10.329" rx="17.4787" ry="10.329" transform="matrix(-0.96549 -0.260439 -0.269145 0.9631 117.311 37.4187)" fill="#525151"/>
<rect x="17" y="15.3144" width="85" height="105" rx="42.5" fill="white"/>
<path fill-rule="evenodd" clip-rule="evenodd" d="M38.7283 20.7276C35.4665 27.5434 32.87 35.8131 38.5 37.3144C43.4667 38.6389 47.5564 34.2621 49.7524 31.1544C50.3252 30.3438 51.8668 30.6285 52.0758 31.5988C53.0918 36.3138 55.6251 44.3792 61 43.8144C65.1638 43.3769 67.4359 38.2635 68.559 34.4586C68.858 33.4456 70.7276 33.2646 71.237 34.1899C73.0012 37.3941 76.0356 41.1441 80 39.3144C85.9999 36.5452 82.8139 27.2717 79.203 20.1478C73.3135 17.0607 66.6107 15.3144 59.5 15.3144C51.9555 15.3144 44.8702 17.2802 38.7283 20.7276Z" fill="#525151"/>
<ellipse cx="30" cy="68.7144" rx="4" ry="2.4" fill="#ED653B" fill-opacity="0.6"/>
<ellipse cx="89" cy="68.7144" rx="4" ry="2.4" fill="#ED653B" fill-opacity="0.6"/>
<ellipse cx="8" cy="10" rx="8" ry="10" transform="matrix(-1 0 0 1 45 47.3144)" fill="#525151"/>
<ellipse cx="3" cy="3.5" rx="3" ry="3.5" transform="matrix(-1 0 0 1 42 50.3144)" fill="white"/>
<circle cx="1.5" cy="1.5" r="1.5" transform="matrix(-1 0 0 1 36 57.3144)" fill="white"/>
<ellipse cx="82" cy="57.3144" rx="8" ry="10" fill="#525151"/>
<ellipse cx="80" cy="53.8144" rx="3" ry="3.5" fill="white"/>
<circle cx="84.5" cy="58.8144" r="1.5" fill="white"/>
<ellipse cx="59" cy="95.8144" rx="46" ry="27.5" fill="#FFCEB9"/>
<ellipse cx="39" cy="85.8145" rx="3" ry="4.5" fill="#525151"/>
<ellipse cx="82" cy="85.8145" rx="3" ry="4.5" fill="#525151"/>
<path d="M92.6998 108.543C90.2836 104.816 84.1127 103.027 82.3408 102.579C82.0732 102.512 81.8139 102.68 81.7664 102.952C81.4519 104.752 80.5667 111.116 82.9829 114.842C85.3991 118.569 91.57 120.358 93.3419 120.806C93.6095 120.873 93.8688 120.705 93.9163 120.433C94.2308 118.633 95.116 112.269 92.6998 108.543Z" fill="#00B5AD"/>
<path d="M80.5869 115.589C81.8232 112.003 79.8267 106.931 79.1573 105.402C79.0466 105.149 78.7517 105.048 78.5087 105.179C77.0393 105.97 72.3412 108.734 71.1048 112.32C69.8684 115.905 71.865 120.977 72.5344 122.506C72.6451 122.759 72.94 122.861 73.183 122.73C74.6524 121.938 79.3505 119.175 80.5869 115.589Z" fill="#00B5AD"/>
<path d="M36 99.3145C45 113.814 77 113.814 85.5 99.3145" stroke="#525151" stroke-width="2.5" stroke-linecap="round" stroke-linejoin="round"/>
<path d="M59.4951 47.6524C62.2855 34.8073 66.1195 29.7593 76.6203 19.3144" stroke="#00B5AD" stroke-width="1.24764" stroke-linecap="round"/>
<path d="M56.6436 51.8446C56.9907 49.3686 59.5897 46.8726 59.5897 46.8726C59.5897 46.8726 61.12 49.7745 60.7729 52.2505C60.4258 54.7265 58.1248 57.3216 58.1248 57.3216C58.1248 57.3216 56.2965 54.3206 56.6436 51.8446Z" fill="#00B5AD"/>
<path d="M61.8058 45.0995C60.8859 43.6559 60.836 41.4537 60.836 41.4537C60.836 41.4537 62.8286 42.4567 63.7485 43.9003C64.6684 45.3439 64.7182 47.5461 64.7182 47.5461C64.7182 47.5461 62.7257 46.5431 61.8058 45.0995Z" fill="#00B5AD"/>
<path d="M57.1338 42.5807C58.7061 41.6516 61.0064 41.535 61.0064 41.535C61.0064 41.535 59.8161 43.4811 58.2438 44.4101C56.6716 45.3392 54.3712 45.4558 54.3712 45.4558C54.3712 45.4558 55.5616 43.5097 57.1338 42.5807Z" fill="#00B5AD"/>
<path d="M64.17 39.1718C63.2501 37.7282 63.2003 35.526 63.2003 35.526C63.2003 35.526 65.1928 36.529 66.1127 37.9726C67.0326 39.4162 67.0825 41.6183 67.0825 41.6183C67.0825 41.6183 65.0899 40.6154 64.17 39.1718Z" fill="#00B5AD"/>
<path d="M59.3823 35.7712C61.1218 35.2211 63.3553 35.6379 63.3553 35.6379C63.3553 35.6379 61.7267 37.2761 59.9871 37.8262C58.2476 38.3763 56.0141 37.9595 56.0141 37.9595C56.0141 37.9595 57.6427 36.3213 59.3823 35.7712Z" fill="#00B5AD"/>
<path d="M67.2888 33.9809C66.4782 32.4746 66.587 30.2666 66.587 30.2666C66.587 30.2666 68.4956 31.4028 69.3062 32.909C70.1168 34.4153 70.008 36.6234 70.008 36.6234C70.008 36.6234 68.0995 35.4872 67.2888 33.9809Z" fill="#00B5AD"/>
<path d="M62.4618 30.2264C64.2146 29.7241 66.4312 30.2036 66.4312 30.2036C66.4312 30.2036 64.7562 31.7982 63.0034 32.3005C61.2506 32.8028 59.034 32.3233 59.034 32.3233C59.034 32.3233 60.709 30.7286 62.4618 30.2264Z" fill="#00B5AD"/>
<path d="M71.3288 28.4983C70.6566 26.9253 70.9581 24.7242 70.9581 24.7242C70.9581 24.7242 72.752 26.0155 73.4242 27.5885C74.0964 29.1614 73.7949 31.3625 73.7949 31.3625C73.7949 31.3625 72.001 30.0713 71.3288 28.4983Z" fill="#00B5AD"/>
<path d="M67.237 24.6793C68.9899 24.1771 71.2065 24.6566 71.2065 24.6566C71.2065 24.6566 69.5315 26.2512 67.7787 26.7535C66.0258 27.2557 63.8092 26.7762 63.8092 26.7762C63.8092 26.7762 65.4842 25.1816 67.237 24.6793Z" fill="#00B5AD"/>
</svg>
