<svg width="111" height="137" viewBox="0 0 111 137" fill="none" xmlns="http://www.w3.org/2000/svg">
<path d="M109.672 80.2811C109.672 107.895 85.4957 130.281 55.6723 130.281C25.8489 130.281 1.6723 107.895 1.6723 80.2811C1.6723 52.6669 29.4154 30.2811 55.6723 30.2811C81.9292 30.2811 109.672 52.6669 109.672 80.2811Z" fill="#F0F0F0"/>
<path d="M55.6723 18.2811C25.2966 18.2811 0.672302 42.3477 0.672302 72.0352V94.3216C0.672302 100.374 5.6928 105.281 11.8859 105.281C18.079 105.281 23.0995 100.374 23.0995 94.3216V85.2633L23.0995 94.8434C23.0995 100.608 27.8809 105.281 33.7791 105.281C39.6773 105.281 44.4587 100.608 44.4587 94.8435L44.4587 85.2633V94.3216C44.4587 100.374 49.4792 105.281 55.6723 105.281C61.8555 105.281 66.8699 100.39 66.8859 94.3506V94.8434C66.8859 100.608 71.6673 105.281 77.5655 105.281C83.4637 105.281 88.2451 100.608 88.2451 94.8435L88.2451 94.3216C88.2451 100.374 93.2656 105.281 99.4587 105.281C105.652 105.281 110.672 100.374 110.672 94.3216V76.4241C110.672 76.4198 110.672 76.4154 110.672 76.4111V72.0352C110.672 42.3477 86.048 18.2811 55.6723 18.2811Z" fill="#FCFCFC"/>
<circle cx="21.6723" cy="66.1674" r="8" fill="#FFCEB9"/>
<circle cx="89.6723" cy="66.1674" r="8" fill="#FFCEB9"/>
<circle cx="31.1723" cy="56.7811" r="7.5" fill="#525151"/>
<circle cx="2.34375" cy="2.34375" r="2.34375" transform="matrix(-1 0 0 1 36.7973 51.0519)" fill="white"/>
<circle cx="1.40625" cy="1.40625" r="1.40625" transform="matrix(-1 0 0 1 32.1098 55.7394)" fill="white"/>
<circle cx="81.1723" cy="56.7811" r="7.5" fill="#525151"/>
<circle cx="2.34375" cy="2.34375" r="2.34375" transform="matrix(-1 0 0 1 86.7973 51.0519)" fill="white"/>
<circle cx="1.40625" cy="1.40625" r="1.40625" transform="matrix(-1 0 0 1 82.1098 55.7394)" fill="white"/>
<path fill-rule="evenodd" clip-rule="evenodd" d="M56.4183 78.8305C54.7714 82.3166 51.7819 84.5827 48.9861 84.169C45.5463 83.66 43.7023 79.2873 44.8673 74.4024C46.0323 69.5174 49.7652 65.97 53.205 66.479C54.5677 66.6807 55.68 67.4887 56.4539 68.6947C57.2259 67.5239 58.3229 66.7407 59.6615 66.5426C63.1012 66.0336 66.8342 69.581 67.9992 74.4659C69.1642 79.3509 67.3201 83.7235 63.8804 84.2325C61.0676 84.6488 58.0587 82.3525 56.4183 78.8305Z" fill="#ED653B"/>
<path d="M45.4282 66.731C43.4805 65.1416 43.4645 62.1708 45.3948 60.5604L53.9688 53.4077C55.4469 52.1747 57.5936 52.1692 59.0779 53.3947L67.7408 60.5473C69.6921 62.1584 69.676 65.1537 67.7075 66.7436L59.0443 73.7406C57.5722 74.9297 55.4681 74.9244 54.002 73.7279L45.4282 66.731Z" fill="#FFD500"/>
<g style="mix-blend-mode:multiply">
<path fill-rule="evenodd" clip-rule="evenodd" d="M69.1276 64.3613C65.9839 66.1698 61.7172 67.2811 57.018 67.2811C51.8273 67.2811 47.1644 65.9252 43.9596 63.7715C43.9978 64.8743 44.4879 65.9636 45.4282 66.731L54.002 73.7279C55.4681 74.9244 57.5722 74.9297 59.0443 73.7406L67.7075 66.7436C68.4886 66.1127 68.9623 65.2605 69.1276 64.3613Z" fill="#FFD500" fill-opacity="0.5"/>
</g>
<path d="M58.7546 120.356C58.2092 120.588 57.5905 120.71 56.9607 120.71H55.3255C54.6957 120.71 54.077 120.588 53.5316 120.356L40.1265 114.662C37.6145 113.595 34.5049 115.051 34.6883 117.181C35.1887 122.99 35.1787 127.571 34.68 133.381C34.4974 135.508 37.6036 136.96 40.1129 135.894L54.0554 129.972C54.6008 129.74 55.2195 129.618 55.8493 129.618H56.4369C57.0667 129.618 57.6854 129.74 58.2308 129.972L72.2414 135.923C74.7373 136.983 77.8299 135.552 77.6661 133.436C77.2132 127.584 77.1922 122.986 77.6488 117.138C77.8145 115.016 74.7148 113.577 72.2134 114.639L58.7546 120.356Z" fill="#ED653B"/>
<g style="mix-blend-mode:multiply">
<path fill-rule="evenodd" clip-rule="evenodd" d="M35.0588 125.281C35.0565 127.879 34.9293 130.476 34.68 133.381C34.4974 135.508 37.6036 136.96 40.1129 135.894L54.0554 129.972C54.6008 129.74 55.2195 129.618 55.8493 129.618H56.4369C57.0667 129.618 57.6854 129.74 58.2308 129.972L72.2414 135.923C74.7373 136.983 77.8299 135.552 77.6661 133.436C77.4395 130.508 77.321 127.895 77.3164 125.281H35.0588Z" fill="#ED653B" fill-opacity="0.45"/>
</g>
<path fill-rule="evenodd" clip-rule="evenodd" d="M55.9756 33.7664C52.2499 36.1539 47.2389 35.719 43.9816 32.4616L35.103 23.583C31.3437 19.8237 31.3437 13.7286 35.103 9.96923C38.295 6.77725 43.1709 6.29552 46.8712 8.52403C47.6955 4.04477 51.6206 0.651123 56.3383 0.651123C60.9291 0.651123 64.7693 3.86474 65.7322 8.16513C69.3377 6.36018 73.8405 6.96155 76.8482 9.96923C80.6075 13.7286 80.6075 19.8237 76.8482 23.583L67.9696 32.4616C64.7123 35.719 59.7013 36.1539 55.9756 33.7664Z" fill="#ED653B"/>
<g style="mix-blend-mode:multiply">
<path fill-rule="evenodd" clip-rule="evenodd" d="M79.2131 19.7059C78.7614 18.2879 77.9731 16.9538 76.8482 15.8288C73.8405 12.8211 69.3377 12.2198 65.7322 14.0247C64.7693 9.72432 60.9291 6.51071 56.3383 6.51071C51.6206 6.51071 47.6955 9.90436 46.8712 14.3836C43.1709 12.1551 38.295 12.6368 35.103 15.8288C33.9781 16.9538 33.1898 18.2879 32.7381 19.7059C31.6803 16.3851 32.4686 12.6036 35.103 9.96923C38.295 6.77725 43.1709 6.29552 46.8712 8.52403C47.6955 4.04477 51.6206 0.651123 56.3383 0.651123C60.9291 0.651123 64.7693 3.86474 65.7322 8.16512C69.3377 6.36018 73.8405 6.96155 76.8482 9.96923C79.4826 12.6036 80.2709 16.3851 79.2131 19.7059Z" fill="#ED653B" fill-opacity="0.5"/>
</g>
</svg>
