<svg width="105" height="136" viewBox="0 0 105 136" fill="none" xmlns="http://www.w3.org/2000/svg">
<path d="M7.93317 27.9555C6.43895 20.7645 10.3533 8.86575 12.3893 3.39992C12.9137 1.99238 14.6706 1.63722 15.69 2.7403C19.3195 6.66748 26.388 15.0012 27.8425 21.7704C29.8864 31.2829 19.3425 44.7704 19.3425 44.7704C19.3425 44.7704 9.8875 37.3608 7.93317 27.9555Z" fill="#F5F5F5"/>
<g style="mix-blend-mode:multiply">
<path fill-rule="evenodd" clip-rule="evenodd" d="M12.0705 4.2673C15.8766 8.57067 21.5559 15.7827 22.8425 21.7705C24.3152 28.6245 19.2527 37.5422 16.3081 41.9914C18.0431 43.7521 19.3424 44.7704 19.3424 44.7704C19.3424 44.7704 29.8863 31.2829 27.8424 21.7704C26.388 15.0012 19.3195 6.66748 15.69 2.74029C14.6705 1.63722 12.9136 1.99237 12.3893 3.39992C12.2874 3.6734 12.1808 3.963 12.0705 4.2673Z" fill="#F5F5F5"/>
</g>
<path d="M97.1349 27.9555C98.6292 20.7645 94.7149 8.86575 92.6788 3.39992C92.1545 1.99238 90.3975 1.63722 89.3781 2.7403C85.7486 6.66748 78.6801 15.0012 77.2256 21.7704C75.1818 31.2829 85.7256 44.7704 85.7256 44.7704C85.7256 44.7704 95.1806 37.3608 97.1349 27.9555Z" fill="#F5F5F5"/>
<g style="mix-blend-mode:multiply">
<path fill-rule="evenodd" clip-rule="evenodd" d="M92.9976 4.2673C89.1915 8.57067 83.5122 15.7827 82.2256 21.7705C80.753 28.6245 85.8154 37.5422 88.76 41.9914C87.0251 43.7521 85.7257 44.7704 85.7257 44.7704C85.7257 44.7704 75.1818 31.2829 77.2257 21.7704C78.6801 15.0012 85.7486 6.66748 89.3781 2.74029C90.3976 1.63722 92.1545 1.99237 92.6788 3.39992C92.7807 3.6734 92.8873 3.963 92.9976 4.2673Z" fill="#F5F5F5"/>
</g>
<path d="M5.39251 61.4122C2.89009 36.3237 22.5931 14.5577 47.8061 14.5577H57.5361C82.7491 14.5577 102.452 36.3237 99.9497 61.4122L97.4526 86.4466C95.2788 108.241 76.9414 124.84 55.0391 124.84H50.3031C28.4008 124.84 10.0634 108.241 7.88954 86.4466L5.39251 61.4122Z" fill="#F5F5F5"/>
<path fill-rule="evenodd" clip-rule="evenodd" d="M27.5419 19.6675C31.9674 17.2709 36.8736 15.6323 42.0943 14.9355C37.4538 25.5526 35.4687 32.2283 33.8857 43.7704C29.5505 34.1489 28.5315 27.8891 27.5419 19.6675ZM77.9877 19.7696C77.0036 28.0151 75.5457 34.2261 70.5525 43.7704C68.4384 32.7386 66.1782 24.4257 61.6622 14.7539C67.5508 15.3173 73.0694 17.074 77.9877 19.7696ZM60.3413 14.6481C54.3898 25.8287 53.6713 36.1071 53.719 47.7704C47.7311 36.8311 44.4373 26.5538 43.2374 14.7986C44.7371 14.6394 46.2612 14.5577 47.8061 14.5577H57.5361C58.4792 14.5577 59.4145 14.5881 60.3413 14.6481Z" fill="#1F1F1F"/>
<path fill-rule="evenodd" clip-rule="evenodd" d="M5.22426 55.1232C5.12796 57.1883 5.18067 59.2884 5.39251 61.4122L5.50796 62.5697L20.175 59.202L5.22426 55.1232ZM5.94228 49.0844H19.6356L7.74094 42.5908C6.97582 44.6867 6.37149 46.8565 5.94228 49.0844ZM6.78954 75.4184L19.2191 68.273H6.07683L6.78954 75.4184Z" fill="#1F1F1F"/>
<path fill-rule="evenodd" clip-rule="evenodd" d="M99.2653 68.273L98.6069 74.8746L87.1233 68.273H99.2653ZM100.13 55.3929C100.209 57.371 100.152 59.3807 99.9497 61.4121L99.8566 62.3452L86.1674 59.202L100.13 55.3929ZM97.765 43.0474C98.453 45.0013 99.0018 47.0179 99.3999 49.0844H86.7068L97.765 43.0474Z" fill="#1F1F1F"/>
<path fill-rule="evenodd" clip-rule="evenodd" d="M94.284 98.8687C87.7615 114.244 72.5381 124.84 55.0391 124.84H50.3031C32.9055 124.84 17.7572 114.367 11.1724 99.1355C16.969 88.5815 28.1895 81.428 41.0807 81.428H64.5238C77.3061 81.428 88.4457 88.4612 94.284 98.8687Z" fill="#1F1F1F"/>
<path d="M64.0798 122.397C67.2403 124.87 73.0765 124.448 73.0765 124.448C73.0765 124.448 71.7966 119.053 68.6361 116.58C65.4756 114.107 59.7388 114.011 59.7388 114.011C59.7388 114.011 60.9194 119.924 64.0798 122.397Z" fill="#A6C65A"/>
<path d="M66.3257 122.356C67.4844 127.407 63.546 134.211 63.546 134.211C63.546 134.211 57.6409 129.967 56.4822 124.916C55.3235 119.866 58.8024 113.681 58.8024 113.681C58.8024 113.681 65.1669 117.305 66.3257 122.356Z" fill="#CCE772"/>
<path d="M34.7915 31.6121C39.3945 34.7096 48.7951 32.6197 48.7951 32.6197C48.7951 32.6197 45.9406 23.7358 41.3375 20.6383C36.7345 17.5408 27.5943 18.8536 27.5943 18.8536C27.5943 18.8536 30.1884 28.5145 34.7915 31.6121Z" fill="#A6C65A"/>
<path d="M40.5566 30.4631C43.7412 38.0094 40.43 49.2489 40.43 49.2489C40.43 49.2489 30.9375 43.8692 27.7529 36.323C24.5684 28.7767 27.4387 18.5808 27.4387 18.5808C27.4387 18.5808 37.3721 22.9168 40.5566 30.4631Z" fill="#CCE772"/>
<path d="M41.7191 108.77C46.4463 116.77 63.2544 116.77 67.7191 108.77" stroke="#F5F5F5" stroke-width="2" stroke-linecap="round" stroke-linejoin="round"/>
<ellipse cx="39.2191" cy="92.7704" rx="2.5" ry="3" fill="#F5F5F5"/>
<ellipse cx="69.2191" cy="92.7704" rx="2.5" ry="3" fill="#F5F5F5"/>
<circle cx="21.7191" cy="75.7704" r="6" fill="#FFDED0"/>
<circle cx="83.5239" cy="75.7704" r="6" fill="#FFDED0"/>
<ellipse cx="6.5" cy="7.5" rx="6.5" ry="7.5" transform="matrix(-1 0 0 1 38.7191 53.7705)" fill="#181818"/>
<circle cx="34.7191" cy="59.1393" r="2" fill="white"/>
<ellipse cx="6.5" cy="7.5" rx="6.5" ry="7.5" transform="matrix(-1 0 0 1 79.7191 53.7705)" fill="#181818"/>
<circle cx="75.7191" cy="59.1393" r="2" fill="white"/>
</svg>
