<svg width="135" height="143" viewBox="0 0 135 143" fill="none" xmlns="http://www.w3.org/2000/svg">
<path d="M21.7008 9.93524C11.1428 15.4161 18.2463 56.5177 18.2463 56.5177L56.8123 32.5403C56.8123 32.5403 30.0617 5.59492 21.7008 9.93524Z" fill="#888888"/>
<path d="M25.1168 16.9494C17.3992 20.9558 22.5917 50.9997 22.5917 50.9997L50.7821 33.473C50.7821 33.473 31.2283 13.7768 25.1168 16.9494Z" fill="#464646"/>
<path d="M114.095 9.53705C124.653 15.0179 117.549 56.1195 117.549 56.1195L78.9833 32.1421C78.9833 32.1421 105.734 5.19672 114.095 9.53705Z" fill="#888888"/>
<path d="M110.679 16.5512C118.396 20.5576 113.204 50.6015 113.204 50.6015L85.0135 33.0748C85.0135 33.0748 104.567 13.3786 110.679 16.5512Z" fill="#464646"/>
<path d="M17.6918 51.4918C17.6427 51.6263 17.5481 51.7344 17.4283 51.793C8.95079 55.9371 1.92489 64.7519 0.697238 68.5919C0.594026 68.9147 0.825952 69.2215 1.13481 69.2217C6.28773 69.2244 7.52265 69.2997 11.6151 71.3898C11.9344 71.5529 12.002 72.0248 11.7435 72.2891L7.7574 76.3636C7.41329 76.7153 7.66186 77.3971 8.1287 77.4333C10.0092 77.5788 12.334 78.2037 14.8594 79.1236C15.0312 79.1862 15.1579 79.3496 15.1913 79.5467C19.1213 102.717 37.4634 120.247 59.4973 120.247H72.3785C93.9372 120.247 111.962 103.465 116.41 81.0379C116.446 80.8586 116.559 80.7091 116.713 80.6418C120.661 78.9189 124.427 77.6491 127.215 77.4333C127.682 77.3971 127.931 76.7153 127.586 76.3636L123.6 72.2891C123.342 72.0248 123.409 71.5529 123.729 71.3898C127.821 69.2997 129.056 69.2244 134.209 69.2217C134.518 69.2215 134.751 68.9181 134.648 68.5952C133.235 64.1678 124.102 53.1144 113.925 50.2496C113.775 50.2074 113.65 50.0916 113.588 49.9349C106.567 32.4425 90.757 20.2466 72.3785 20.2466H59.4973C40.5783 20.2466 24.381 33.1704 17.6918 51.4918Z" fill="#888888"/>
<path d="M117.653 51.4918C117.702 51.6263 117.797 51.7344 117.916 51.793C126.394 55.9371 133.42 64.7519 134.647 68.5919C134.751 68.9147 134.518 69.2215 134.209 69.2217C129.056 69.2244 127.821 69.2997 123.729 71.3898C123.409 71.5529 123.342 72.0248 123.6 72.2891L127.586 76.3636C127.931 76.7153 127.682 77.3971 127.215 77.4333C125.335 77.5788 123.011 78.2037 120.485 79.1236C120.314 79.1862 120.187 79.3496 120.153 79.5467C116.223 102.717 97.8814 120.247 75.8475 120.247H62.9662C41.4076 120.247 23.3832 103.465 18.9345 81.038C18.899 80.8586 18.7856 80.7091 18.6315 80.6418C14.6838 78.9189 10.9172 77.6491 8.1287 77.4333C7.66186 77.3971 7.41329 76.7153 7.7574 76.3636L11.7435 72.2891C12.002 72.0248 11.9344 71.5529 11.6151 71.3898C7.52265 69.2997 6.28773 69.2244 1.13481 69.2217C0.825952 69.2215 0.594075 68.9181 0.69711 68.5952C2.10979 64.1679 11.2428 53.1144 21.4201 50.2496C21.57 50.2074 21.6943 50.0916 21.7572 49.9349C28.7777 32.4425 44.5877 20.2467 62.9662 20.2467H75.8475C94.7665 20.2467 110.964 33.1704 117.653 51.4918Z" fill="#888888"/>
<path fill-rule="evenodd" clip-rule="evenodd" d="M117.712 51.6106C114.357 50.7176 110.823 50.2466 107.172 50.2466C86.4792 50.2466 69.5026 65.3832 67.8109 86.7322C67.7314 86.7252 67.6518 86.7185 67.5721 86.712C66.1184 64.9039 49.034 50.2466 28.1723 50.2466C24.536 50.2466 21.0144 50.692 17.6704 51.5429C17.6176 51.6536 17.5325 51.742 17.4283 51.793C8.95079 55.9371 1.92489 64.7519 0.697237 68.5919C0.681189 68.6421 0.673243 68.6919 0.67243 68.7402C0.666434 69.0034 0.872955 69.2216 1.13481 69.2217C6.28773 69.2244 7.52265 69.2997 11.6151 71.3898C11.9344 71.5529 12.002 72.0248 11.7435 72.2891L7.7574 76.3636C7.41329 76.7153 7.66186 77.3971 8.1287 77.4333C8.36376 77.4515 8.60576 77.4771 8.85423 77.51C10.5935 77.7396 12.6497 78.3187 14.8594 79.1236C15.0312 79.1862 15.1579 79.3496 15.1913 79.5467C19.1213 102.717 37.4634 120.247 59.4973 120.247H62.941L62.9662 120.247L72.3785 120.247L75.8475 120.247C97.8814 120.247 116.223 102.717 120.153 79.5467C120.187 79.3496 120.314 79.1862 120.485 79.1236C122.172 78.5092 123.769 78.0263 125.204 77.73C125.917 77.5828 126.591 77.4816 127.215 77.4333C127.682 77.3971 127.931 76.7153 127.586 76.3636L123.6 72.2891C123.342 72.0248 123.409 71.5529 123.729 71.3898C127.821 69.2997 129.056 69.2244 134.209 69.2217C134.472 69.2216 134.679 69.0023 134.672 68.7382C134.671 68.6905 134.663 68.6414 134.647 68.5919C133.42 64.7519 126.394 55.9371 117.916 51.793C117.834 51.7529 117.764 51.6897 117.712 51.6106Z" fill="#EDEDED"/>
<path fill-rule="evenodd" clip-rule="evenodd" d="M39.1875 114.898C39.5891 114.319 39.9676 113.72 40.3208 113.102C44.0214 106.625 48.2188 100.841 53.0896 95.2856C61.9056 85.2302 60.6752 69.2491 49.0914 62.5671C41.4654 58.1681 31.7441 59.4089 25.8935 65.9875C21.896 70.4824 18.3823 74.8083 15.1077 79.3276C15.1489 79.392 15.1778 79.4665 15.1914 79.5466C17.8183 95.0339 26.8841 108.001 39.1875 114.898Z" fill="#888888"/>
<path fill-rule="evenodd" clip-rule="evenodd" d="M120.365 79.1889C116.362 74.649 112.132 70.3967 107.316 66.0065C100.81 60.0756 91.0121 59.8578 83.8877 65.0297C73.0658 72.8859 73.5127 88.9081 83.3314 97.9869C88.653 102.907 93.3531 108.114 97.6433 114.026C109.188 106.942 117.634 94.4036 120.153 79.5467C120.179 79.3991 120.256 79.2705 120.365 79.1889Z" fill="#888888"/>
<rect x="66.9506" y="82.7296" width="2" height="12" rx="1" fill="#2D2D2D"/>
<ellipse cx="67.9978" cy="82.3229" rx="7.41811" ry="4.87696" fill="#2D2D2D"/>
<circle cx="64.1724" cy="80.7466" r="1.5" fill="white"/>
<path d="M59.8815 91.5958C63.671 95.1303 72.0921 95.1303 75.8815 91.5958" stroke="#2D2D2D" stroke-width="2.5" stroke-linecap="round"/>
<ellipse cx="26.6724" cy="87.7466" rx="6" ry="4.5" fill="#FFD4DC"/>
<ellipse cx="108.672" cy="87.7466" rx="6" ry="4.5" fill="#FFD4DC"/>
<circle cx="1" cy="1" r="1" transform="matrix(1 0 0 -1 34.6724 99.7466)" fill="#EDEDED"/>
<circle cx="1" cy="1" r="1" transform="matrix(1 0 0 -1 38.6724 98.7466)" fill="#EDEDED"/>
<circle cx="1" cy="1" r="1" transform="matrix(1 0 0 -1 35.6724 95.7466)" fill="#EDEDED"/>
<circle cx="99.6724" cy="98.7466" r="1" transform="rotate(180 99.6724 98.7466)" fill="#EDEDED"/>
<circle cx="95.6724" cy="97.7466" r="1" transform="rotate(180 95.6724 97.7466)" fill="#EDEDED"/>
<circle cx="98.6724" cy="94.7466" r="1" transform="rotate(180 98.6724 94.7466)" fill="#EDEDED"/>
<circle cx="11" cy="11" r="11" transform="matrix(-1 0 0 1 51.6724 65.2466)" fill="white"/>
<circle cx="40.6724" cy="76.2466" r="8" fill="#2D2D2D"/>
<ellipse cx="41.0123" cy="72.684" rx="2.3399" ry="2.4374" fill="white"/>
<ellipse cx="45.2724" cy="76.9133" rx="1.6" ry="1.66667" fill="white"/>
<circle cx="11" cy="11" r="11" transform="matrix(-1 0 0 1 51.6724 65.2466)" fill="white"/>
<circle cx="40.6724" cy="76.2466" r="8" fill="#2D2D2D"/>
<ellipse cx="41.0123" cy="73.684" rx="2.3399" ry="2.4374" fill="white"/>
<ellipse cx="45.2724" cy="77.9133" rx="1.6" ry="1.66667" fill="white"/>
<circle cx="11" cy="11" r="11" transform="matrix(-1 0 0 1 105.672 65.2466)" fill="white"/>
<circle cx="8" cy="8" r="8" transform="matrix(-1 0 0 1 102.672 68.2466)" fill="#2D2D2D"/>
<ellipse cx="2.3399" cy="2.4374" rx="2.3399" ry="2.4374" transform="matrix(-1 0 0 1 96.6724 71.2466)" fill="white"/>
<ellipse cx="1.6" cy="1.66667" rx="1.6" ry="1.66667" transform="matrix(-1 0 0 1 91.6724 76.2466)" fill="white"/>
<path d="M65.6926 26.484C65.9176 26.4469 66.1429 26.399 66.3679 26.3398C70.2141 25.3279 72.5173 21.4107 71.5122 17.5903C70.5071 13.77 66.5744 11.4934 62.7282 12.5052C62.3549 12.6035 61.996 12.7291 61.6533 12.8793C62.4413 10.2079 61.682 7.21808 59.4801 5.32389C56.5016 2.76149 52.0113 3.17445 49.4508 6.24625C48.0858 7.88387 47.5447 9.94654 47.7884 11.9039C47.527 11.7674 47.2548 11.6451 46.9723 11.5383C43.2316 10.1243 39.1195 11.9745 37.7876 15.6709C36.4556 19.3674 38.4083 23.5102 42.149 24.9242C42.3509 25.0006 42.5539 25.0674 42.7574 25.1249C42.6085 25.2752 42.4647 25.4332 42.3265 25.599C39.766 28.6708 40.1049 33.2382 43.0834 35.8006C46.062 38.363 50.5523 37.9501 53.1128 34.8783C53.3402 34.6055 53.5447 34.3209 53.7265 34.0269C54.5362 35.5892 55.9094 36.8761 57.6858 37.5476C61.4265 38.9617 65.5386 37.1114 66.8706 33.415C67.7407 31 67.209 28.3946 65.6926 26.484Z" fill="#F09AA5"/>
<g style="mix-blend-mode:multiply">
<circle cx="54.7232" cy="22.425" r="5.39568" transform="rotate(99.9151 54.7232 22.425)" fill="#ED653B" fill-opacity="0.5"/>
</g>
<g style="mix-blend-mode:multiply">
<path fill-rule="evenodd" clip-rule="evenodd" d="M51.0883 26.4137C51.8204 27.0821 52.7452 27.5569 53.7941 27.7402C56.7296 28.2533 59.5252 26.2896 60.0383 23.3542C60.4999 20.7131 58.9566 18.1852 56.5044 17.3311C57.8212 18.5333 58.5144 20.3621 58.1846 22.2487C57.6715 25.1841 54.8759 27.1478 51.9405 26.6347C51.6462 26.5833 51.3616 26.5089 51.0883 26.4137Z" fill="#ED653B" fill-opacity="0.5"/>
</g>
<path d="M14.4089 103.698C27.8748 118.877 36.6238 122.627 57.9695 128.308" stroke="#BBD468" stroke-width="1.84133" stroke-linecap="round"/>
<path d="M8.74861 101.583C9.32506 102.337 10.0729 102.984 10.8736 103.53C13.3257 105.203 16.116 102.886 15.0015 100.134C14.6499 99.2662 14.2069 98.4193 13.6493 97.6899C13.1251 97.0042 12.474 96.3888 11.7785 95.8464C9.39927 93.991 6.39908 96.1448 7.40441 98.9895C7.73462 99.9238 8.17125 100.828 8.74861 101.583Z" fill="#BBD468"/>
<path d="M19.0397 106.345C19.0284 107.036 19.127 107.748 19.2801 108.425C19.6585 110.098 21.6797 110.132 22.1128 108.472C22.288 107.8 22.41 107.092 22.4213 106.401C22.4326 105.71 22.334 104.999 22.1809 104.321C21.8025 102.648 19.7814 102.615 19.3483 104.275C19.173 104.947 19.0511 105.655 19.0397 106.345Z" fill="#BBD468"/>
<path d="M16.8279 111.984C17.5186 111.981 18.2282 111.868 18.9021 111.701C20.5672 111.288 20.5587 109.267 18.8903 108.868C18.215 108.707 17.5045 108.599 16.8138 108.602C16.1231 108.605 15.4134 108.718 14.7395 108.885C13.0745 109.298 13.0829 111.32 14.7513 111.718C15.4266 111.88 16.1372 111.987 16.8279 111.984Z" fill="#BBD468"/>
<path d="M25.9077 112.219C25.8964 112.91 25.995 113.622 26.1481 114.299C26.5265 115.972 28.5476 116.005 28.9807 114.345C29.156 113.674 29.278 112.965 29.2893 112.275C29.3006 111.584 29.202 110.872 29.0489 110.195C28.6705 108.522 26.6494 108.489 26.2163 110.149C26.041 110.82 25.9191 111.529 25.9077 112.219Z" fill="#BBD468"/>
<path d="M24.629 118.714C25.2988 118.545 25.9604 118.264 26.5744 117.94C28.0913 117.139 27.5972 115.179 25.8818 115.193C25.1876 115.199 24.472 115.265 23.8023 115.434C23.1325 115.603 22.4709 115.884 21.8569 116.208C20.34 117.009 20.8341 118.969 22.5494 118.955C23.2437 118.949 23.9593 118.882 24.629 118.714Z" fill="#BBD468"/>
<path d="M33.5899 117.597C33.6262 118.287 33.7737 118.991 33.9731 119.656C34.4659 121.299 36.4845 121.192 36.8022 119.507C36.9307 118.824 37.0036 118.109 36.9673 117.42C36.931 116.73 36.7836 116.027 36.5841 115.362C36.0913 113.718 34.0727 113.825 33.755 115.51C33.6265 116.193 33.5536 116.908 33.5899 117.597Z" fill="#BBD468"/>
<path d="M32.8837 123.482C33.5222 123.219 34.1367 122.847 34.6978 122.438C36.084 121.427 35.3135 119.558 33.6179 119.818C32.9317 119.924 32.2331 120.092 31.5946 120.356C30.956 120.619 30.3415 120.992 29.7805 121.401C28.3942 122.411 29.1647 124.28 30.8603 124.02C31.5466 123.914 32.2451 123.746 32.8837 123.482Z" fill="#BBD468"/>
<path d="M42.0716 121.033C42.1657 121.717 42.3717 122.406 42.6263 123.051C43.2554 124.647 45.258 124.372 45.4329 122.665C45.5037 121.975 45.5162 121.256 45.422 120.572C45.3279 119.888 45.1219 119.199 44.8673 118.553C44.2382 116.957 42.2356 117.233 42.0607 118.939C41.9899 119.63 41.9774 120.349 42.0716 121.033Z" fill="#BBD468"/>
<path d="M42.236 127.798C42.839 127.461 43.4051 127.018 43.9139 126.546C45.1709 125.378 44.1849 123.614 42.532 124.072C41.863 124.258 41.1893 124.508 40.5863 124.845C39.9833 125.182 39.4172 125.625 38.9085 126.097C37.6514 127.265 38.6374 129.029 40.2904 128.57C40.9594 128.385 41.6331 128.135 42.236 127.798Z" fill="#BBD468"/>
<path d="M120.014 103.233C106.548 118.413 97.7989 122.162 76.4531 127.843" stroke="#BBD468" stroke-width="1.84133" stroke-linecap="round"/>
<path d="M125.674 101.118C125.098 101.872 124.35 102.519 123.549 103.065C121.097 104.738 118.307 102.421 119.421 99.6694C119.773 98.8015 120.216 97.9545 120.773 97.2252C121.298 96.5395 121.949 95.924 122.644 95.3817C125.023 93.5263 128.024 95.68 127.018 98.5248C126.688 99.4591 126.251 100.363 125.674 101.118Z" fill="#BBD468"/>
<path d="M115.383 105.881C115.394 106.571 115.296 107.283 115.143 107.96C114.764 109.634 112.743 109.667 112.31 108.007C112.135 107.335 112.013 106.627 112.001 105.936C111.99 105.246 112.089 104.534 112.242 103.857C112.62 102.183 114.641 102.15 115.074 103.81C115.25 104.482 115.372 105.19 115.383 105.881Z" fill="#BBD468"/>
<path d="M117.595 111.519C116.904 111.517 116.194 111.403 115.521 111.236C113.856 110.824 113.864 108.802 115.532 108.403C116.208 108.242 116.918 108.135 117.609 108.137C118.3 108.14 119.009 108.254 119.683 108.421C121.348 108.833 121.34 110.855 119.671 111.254C118.996 111.415 118.286 111.522 117.595 111.519Z" fill="#BBD468"/>
<path d="M108.515 111.755C108.526 112.445 108.428 113.157 108.275 113.834C107.896 115.507 105.875 115.541 105.442 113.881C105.267 113.209 105.145 112.501 105.133 111.81C105.122 111.119 105.221 110.408 105.374 109.73C105.752 108.057 107.773 108.024 108.206 109.684C108.382 110.356 108.504 111.064 108.515 111.755Z" fill="#BBD468"/>
<path d="M109.794 118.249C109.124 118.08 108.462 117.8 107.848 117.475C106.331 116.674 106.825 114.714 108.541 114.728C109.235 114.734 109.951 114.801 110.62 114.969C111.29 115.138 111.952 115.419 112.566 115.743C114.083 116.544 113.589 118.504 111.873 118.49C111.179 118.484 110.463 118.418 109.794 118.249Z" fill="#BBD468"/>
<path d="M100.833 117.133C100.796 117.822 100.649 118.526 100.45 119.191C99.9568 120.834 97.9382 120.728 97.6205 119.042C97.4919 118.36 97.4191 117.645 97.4554 116.955C97.4917 116.265 97.6391 115.562 97.8386 114.897C98.3314 113.254 100.35 113.36 100.668 115.046C100.796 115.728 100.869 116.443 100.833 117.133Z" fill="#BBD468"/>
<path d="M101.539 123.018C100.9 122.754 100.286 122.382 99.7249 121.973C98.3387 120.962 99.1092 119.094 100.805 119.354C101.491 119.459 102.19 119.628 102.828 119.891C103.467 120.154 104.081 120.527 104.642 120.936C106.028 121.946 105.258 123.815 103.562 123.555C102.876 123.45 102.178 123.281 101.539 123.018Z" fill="#BBD468"/>
<path d="M92.3511 120.568C92.257 121.252 92.051 121.941 91.7963 122.587C91.1672 124.183 89.1647 123.907 88.9898 122.201C88.919 121.51 88.9065 120.792 89.0006 120.107C89.0948 119.423 89.3008 118.735 89.5554 118.089C90.1845 116.493 92.1871 116.768 92.362 118.475C92.4327 119.165 92.4452 119.884 92.3511 120.568Z" fill="#BBD468"/>
<path d="M92.1866 127.333C91.5837 126.996 91.0176 126.553 90.5088 126.081C89.2517 124.914 90.2378 123.149 91.8907 123.608C92.5597 123.793 93.2334 124.044 93.8364 124.381C94.4393 124.717 95.0054 125.16 95.5142 125.633C96.7713 126.8 95.7852 128.564 94.1323 128.106C93.4633 127.92 92.7896 127.67 92.1866 127.333Z" fill="#BBD468"/>
<path d="M51.197 124.484C51.3676 124.456 51.5385 124.419 51.7092 124.374C54.626 123.607 56.3726 120.636 55.6104 117.739C54.8482 114.842 51.8657 113.115 48.9489 113.883C48.6658 113.957 48.3936 114.052 48.1338 114.166C48.7314 112.141 48.1555 109.873 46.4857 108.437C44.2269 106.493 40.8216 106.807 38.8798 109.136C37.8446 110.378 37.4343 111.942 37.6191 113.427C37.4209 113.323 37.2144 113.23 37.0002 113.149C34.1634 112.077 31.0449 113.48 30.0348 116.283C29.0247 119.087 30.5056 122.228 33.3424 123.301C33.4955 123.359 33.6494 123.409 33.8038 123.453C33.6909 123.567 33.5818 123.687 33.477 123.813C31.5352 126.142 31.7922 129.606 34.051 131.549C36.3099 133.492 39.7151 133.179 41.6569 130.85C41.8294 130.643 41.9845 130.427 42.1224 130.204C42.7364 131.389 43.7778 132.365 45.1249 132.874C47.9617 133.946 51.0802 132.543 52.0903 129.74C52.7502 127.909 52.347 125.933 51.197 124.484Z" fill="#F09AA5"/>
<g style="mix-blend-mode:multiply">
<circle cx="42.8782" cy="121.406" r="4.09188" transform="rotate(99.9151 42.8782 121.406)" fill="#ED653B" fill-opacity="0.5"/>
</g>
<g style="mix-blend-mode:multiply">
<path fill-rule="evenodd" clip-rule="evenodd" d="M40.1218 124.43C40.677 124.937 41.3783 125.297 42.1737 125.436C44.3998 125.825 46.5199 124.336 46.909 122.11C47.2591 120.107 46.0887 118.19 44.229 117.542C45.2276 118.454 45.7534 119.841 45.5033 121.272C45.1142 123.498 42.9941 124.987 40.768 124.598C40.5448 124.559 40.329 124.503 40.1218 124.43Z" fill="#ED653B" fill-opacity="0.5"/>
</g>
<path d="M99.2195 124.361C99.3901 124.332 99.561 124.296 99.7316 124.251C102.648 123.484 104.395 120.513 103.633 117.616C102.871 114.719 99.8882 112.992 96.9714 113.76C96.6882 113.834 96.4161 113.929 96.1562 114.043C96.7538 112.017 96.178 109.75 94.5082 108.313C92.2493 106.37 88.8441 106.683 86.9023 109.013C85.8671 110.255 85.4568 111.819 85.6416 113.304C85.4433 113.2 85.2369 113.107 85.0227 113.026C82.1859 111.954 79.0674 113.357 78.0573 116.16C77.0472 118.964 78.528 122.105 81.3648 123.178C81.518 123.236 81.6719 123.286 81.8263 123.33C81.7133 123.444 81.6043 123.564 81.4995 123.689C79.5577 126.019 79.8147 129.483 82.0735 131.426C84.3323 133.369 87.7376 133.056 89.6794 130.726C89.8518 130.52 90.0069 130.304 90.1448 130.081C90.7589 131.266 91.8002 132.242 93.1474 132.751C95.9842 133.823 99.1027 132.42 100.113 129.617C100.773 127.785 100.369 125.809 99.2195 124.361Z" fill="#F09AA5"/>
<g style="mix-blend-mode:multiply">
<circle cx="90.9007" cy="121.282" r="4.09188" transform="rotate(99.9151 90.9007 121.282)" fill="#ED653B" fill-opacity="0.5"/>
</g>
<g style="mix-blend-mode:multiply">
<path fill-rule="evenodd" clip-rule="evenodd" d="M88.1442 124.307C88.6994 124.814 89.4007 125.174 90.1961 125.313C92.4223 125.702 94.5424 124.213 94.9315 121.987C95.2816 119.984 94.1112 118.067 92.2515 117.419C93.2501 118.331 93.7759 119.718 93.5258 121.149C93.1366 123.375 91.0165 124.864 88.7904 124.475C88.5672 124.436 88.3515 124.379 88.1442 124.307Z" fill="#ED653B" fill-opacity="0.5"/>
</g>
<path d="M78.0847 121.098C78.234 120.972 78.3787 120.838 78.5183 120.696C80.9036 118.264 80.8792 114.372 78.4639 112.003C76.0485 109.634 72.1568 109.684 69.7714 112.116C69.5399 112.352 69.331 112.602 69.1448 112.863C68.5525 110.552 66.6822 108.686 64.2315 108.258C60.9163 107.68 57.7944 109.954 57.2585 113.337C56.9729 115.14 57.4798 116.895 58.5178 118.228C58.2656 118.242 58.0117 118.272 57.7571 118.317C54.385 118.918 52.1718 122.083 52.8137 125.387C53.4556 128.69 56.7096 130.881 60.0816 130.28C60.2636 130.247 60.4422 130.208 60.6172 130.161C60.5736 130.336 60.5371 130.516 60.5082 130.698C59.9723 134.081 62.2254 137.293 65.5406 137.871C68.8558 138.449 71.9778 136.175 72.5136 132.792C72.5612 132.492 72.5868 132.193 72.5916 131.897C73.8726 132.691 75.4473 133.035 77.0487 132.75C80.4207 132.149 82.6339 128.983 81.992 125.68C81.5726 123.522 80.0384 121.839 78.0847 121.098Z" fill="#94D9FF"/>
<g style="mix-blend-mode:multiply">
<circle cx="68.235" cy="122.925" r="4.62138" transform="rotate(69.1033 68.235 122.925)" fill="#94D9FF" fill-opacity="0.5"/>
</g>
<g style="mix-blend-mode:multiply">
<path fill-rule="evenodd" clip-rule="evenodd" d="M67.311 127.454C68.1427 127.624 69.0313 127.568 69.8833 127.243C72.2678 126.332 73.4627 123.661 72.5524 121.277C71.7333 119.131 69.4889 117.949 67.3104 118.397C68.8064 118.703 70.1187 119.744 70.7038 121.277C71.6142 123.661 70.4192 126.332 68.0348 127.243C67.7957 127.334 67.5537 127.404 67.311 127.454Z" fill="#94D9FF" fill-opacity="0.5"/>
</g>
</svg>
