<svg width="108" height="120" viewBox="0 0 108 120" fill="none" xmlns="http://www.w3.org/2000/svg">
<path fill-rule="evenodd" clip-rule="evenodd" d="M0.242188 19.8144C0.242188 27.254 4.40838 33.7205 10.535 37.0082C9.04888 41.337 8.24219 45.9815 8.24219 50.8144C8.24219 74.2865 27.2701 93.3144 50.7422 93.3144H58.7422C82.2143 93.3144 101.242 74.2865 101.242 50.8144C101.242 45.6107 100.307 40.6254 98.5954 36.0174C103.81 32.5175 107.242 26.5667 107.242 19.8144C107.242 9.04487 98.5117 0.314423 87.7422 0.314423C80.5245 0.314423 74.2227 4.2358 70.851 10.0643C67.0135 8.9257 62.9492 8.31442 58.7422 8.31442H50.7422C45.9093 8.31442 41.2648 9.12111 36.936 10.6072C33.6483 4.48061 27.1818 0.314423 19.7422 0.314423C8.97264 0.314423 0.242188 9.04487 0.242188 19.8144Z" fill="#CA926A"/>
<path d="M8.92682 23.9136C5.0152 19.6132 5.21829 12.9857 9.38588 8.93291V8.93291C13.6117 4.8235 20.3547 4.87057 24.5227 9.03858L29.7751 14.291C30.3817 14.8975 30.2884 15.9052 29.5918 16.4057C24.2436 20.2483 20.5402 23.9187 16.4138 29.5738C15.8794 30.3062 14.8047 30.3757 14.1946 29.705L8.92682 23.9136Z" fill="#ECC79F"/>
<path d="M98.3242 23.2858C102.236 18.9854 102.033 12.3579 97.8652 8.3051V8.3051C93.6394 4.19569 86.8963 4.24276 82.7283 8.41077L77.4759 13.6632C76.8694 14.2697 76.9626 15.2774 77.6592 15.7779C83.0074 19.6205 86.7108 23.2909 90.8372 28.946C91.3716 29.6784 92.4463 29.7479 93.0564 29.0772L98.3242 23.2858Z" fill="#ECC79F"/>
<ellipse cx="54.7422" cy="64.3144" rx="24.5" ry="19" fill="#ECC79F"/>
<rect x="53.3422" y="59.5144" width="2.7" height="10.8" rx="1.35" fill="#3A211F"/>
<ellipse cx="55.1422" cy="57.2644" rx="8.1" ry="4.95" fill="#3A211F"/>
<circle cx="50.1922" cy="55.4644" r="1.35" fill="white"/>
<path d="M45.2422 66.2644C49.7422 70.3144 59.7422 70.3144 64.2422 66.2644" stroke="#3A211F" stroke-width="2.7" stroke-linecap="round"/>
<circle cx="33.2422" cy="46.3144" r="4" fill="#3A211F"/>
<circle cx="77.2422" cy="46.3144" r="4" fill="#3A211F"/>
<circle cx="23.2422" cy="60.3144" r="5" fill="#FFCEB9"/>
<circle cx="86.2422" cy="60.3144" r="5" fill="#FFCEB9"/>
<path fill-rule="evenodd" clip-rule="evenodd" d="M43.714 98.9201C46.4773 98.9201 48.9881 97.9609 50.9851 96.836C50.4666 99.6769 50.5098 102.229 50.5505 104.64L50.5593 105.173C50.6192 109.004 50.5747 112.552 48.4078 116.948C48.032 117.71 48.3454 118.632 49.1076 119.008C49.8699 119.384 50.7924 119.07 51.1681 118.308C53.6735 113.225 53.6979 109.058 53.6364 105.125L53.6291 104.671C53.5776 101.534 53.5287 98.5573 54.557 95.1104C56.448 98.1459 57.3244 101.129 58.2042 104.136L58.2277 104.216C59.2504 107.713 60.3128 111.344 63.2168 114.602C63.7822 115.237 64.7549 115.293 65.3893 114.727C66.0237 114.162 66.0795 113.189 65.5141 112.555C63.1109 109.859 62.2057 106.854 61.1579 103.272L61.1314 103.182C60.6284 101.462 60.0934 99.6328 59.3225 97.7376C60.9454 98.429 62.7933 98.9201 64.7703 98.9201C67.9687 98.9201 70.9398 98.2991 73.1687 97.2259C75.2883 96.2054 77.2422 94.4983 77.2422 92.1172C77.2422 89.7361 75.2883 88.0291 73.1687 87.0086C70.9398 85.9354 67.9687 85.3144 64.7703 85.3144C60.1453 85.3144 56.2275 88.0016 54.2422 89.6551C52.2569 88.0016 48.339 85.3144 43.714 85.3144C40.5157 85.3144 37.5446 85.9354 35.3156 87.0086C33.1961 88.0291 31.2422 89.7361 31.2422 92.1172C31.2422 94.4983 33.1961 96.2054 35.3156 97.2259C37.5446 98.2991 40.5157 98.9201 43.714 98.9201ZM36.6507 89.7814C34.8132 90.6661 34.3197 91.5911 34.3197 92.1172C34.3197 92.6434 34.8132 93.5684 36.6507 94.4531C38.3787 95.2851 40.8742 95.8426 43.714 95.8426C47.317 95.8426 50.5696 93.6407 52.3188 92.1758L52.3536 92.0879C50.6129 90.6232 47.3411 88.3919 43.714 88.3919C40.8742 88.3919 38.3787 88.9493 36.6507 89.7814ZM56.479 92.4328C56.3868 92.2995 56.2928 92.1661 56.1967 92.0326C57.9533 90.5678 61.1886 88.3919 64.7703 88.3919C67.6102 88.3919 70.1056 88.9493 71.8337 89.7814C73.6711 90.6661 74.1647 91.5911 74.1647 92.1172C74.1647 92.6434 73.6711 93.5684 71.8337 94.4531C70.1056 95.2851 67.6102 95.8426 64.7703 95.8426C61.3726 95.8426 58.2866 93.8845 56.479 92.4328Z" fill="#513831"/>
</svg>
