<svg width="120" height="130" viewBox="0 0 120 130" fill="none" xmlns="http://www.w3.org/2000/svg">
<path d="M30.9067 9.14973C22.9968 10.2328 16.1022 47.4873 16.1022 47.4873L52.1522 43.1788C52.1522 43.1788 38.3771 8.12681 30.9067 9.14973Z" fill="#FFCFBB"/>
<path d="M31.8076 15.142C25.7178 15.9759 20.4097 44.6581 20.4097 44.6581L48.1646 41.3409C48.1646 41.3409 37.5591 14.3545 31.8076 15.142Z" fill="#FFDED0"/>
<path d="M93.0812 9.14973C100.991 10.2328 107.886 47.4873 107.886 47.4873L71.8357 43.1788C71.8357 43.1788 85.6108 8.12681 93.0812 9.14973Z" fill="#FFCFBB"/>
<path d="M92.1803 15.142C98.2701 15.9759 103.578 44.6581 103.578 44.6581L75.8234 41.3409C75.8234 41.3409 86.4289 14.3545 92.1803 15.142Z" fill="#FFDED0"/>
<rect x="11.4513" y="22.3144" width="100" height="103" rx="45.6567" fill="#FFD1BD"/>
<g style="mix-blend-mode:multiply">
<path fill-rule="evenodd" clip-rule="evenodd" d="M56.6952 101.192C56.6952 101.828 56.5701 102.457 56.327 103.044C56.0839 103.631 55.7275 104.164 55.2783 104.613C54.8291 105.062 54.2959 105.419 53.709 105.662C53.1221 105.905 52.493 106.03 51.8578 106.03C51.2225 106.03 50.5935 105.905 50.0066 105.662C49.4197 105.419 48.8864 105.062 48.4372 104.613C47.988 104.164 47.6317 103.631 47.3886 103.044C47.1455 102.457 47.0204 101.828 47.0204 101.192L51.8578 101.192H56.6952ZM66.37 101.192H61.5326H56.6952C56.6952 101.828 56.8203 102.457 57.0634 103.044C57.3065 103.631 57.6628 104.164 58.112 104.613C58.5612 105.062 59.0945 105.419 59.6814 105.662C60.2683 105.905 60.8973 106.03 61.5326 106.03C62.1678 106.03 62.7969 105.905 63.3838 105.662C63.9707 105.419 64.5039 105.062 64.9531 104.613C65.4023 104.164 65.7587 103.631 66.0018 103.044C66.2449 102.457 66.37 101.828 66.37 101.192ZM66.37 101.192H71.2074H76.0448C76.0448 101.828 75.9197 102.457 75.6766 103.044C75.4334 103.631 75.0771 104.164 74.6279 104.613C74.1787 105.062 73.6455 105.419 73.0586 105.662C72.4717 105.905 71.8426 106.03 71.2074 106.03C70.5721 106.03 69.9431 105.905 69.3562 105.662C68.7693 105.419 68.236 105.062 67.7868 104.613C67.3376 104.164 66.9813 103.631 66.7382 103.044C66.4951 102.457 66.37 101.828 66.37 101.192Z" fill="#F4B89F" fill-opacity="0.5"/>
</g>
<g style="mix-blend-mode:multiply">
<path fill-rule="evenodd" clip-rule="evenodd" d="M56.6952 90.5502C56.6952 91.1643 56.5701 91.7723 56.327 92.3397C56.0839 92.907 55.7275 93.4225 55.2783 93.8567C54.8291 94.2909 54.2959 94.6354 53.709 94.8704C53.1221 95.1054 52.493 95.2263 51.8578 95.2263C51.2225 95.2263 50.5935 95.1054 50.0066 94.8704C49.4197 94.6354 48.8864 94.2909 48.4372 93.8567C47.988 93.4225 47.6317 92.907 47.3886 92.3397C47.1455 91.7723 47.0204 91.1643 47.0204 90.5502L51.8578 90.5502H56.6952ZM66.37 90.5502H61.5326H56.6952C56.6952 91.1643 56.8203 91.7723 57.0634 92.3397C57.3065 92.907 57.6628 93.4225 58.112 93.8567C58.5612 94.2909 59.0945 94.6354 59.6814 94.8704C60.2683 95.1054 60.8973 95.2263 61.5326 95.2263C62.1678 95.2263 62.7969 95.1054 63.3838 94.8704C63.9707 94.6354 64.5039 94.2909 64.9531 93.8567C65.4023 93.4225 65.7587 92.907 66.0018 92.3397C66.2449 91.7723 66.37 91.1643 66.37 90.5502ZM66.37 90.5502H71.2074H76.0448C76.0448 91.1643 75.9197 91.7723 75.6766 92.3397C75.4334 92.907 75.0771 93.4225 74.6279 93.8567C74.1787 94.2909 73.6455 94.6354 73.0586 94.8704C72.4717 95.1054 71.8426 95.2263 71.2074 95.2263C70.5721 95.2263 69.9431 95.1054 69.3562 94.8704C68.7693 94.6354 68.236 94.2909 67.7868 93.8567C67.3376 93.4225 66.9813 92.907 66.7382 92.3397C66.4951 91.7723 66.37 91.1643 66.37 90.5502Z" fill="#F4B89F" fill-opacity="0.5"/>
</g>
<g style="mix-blend-mode:multiply">
<path fill-rule="evenodd" clip-rule="evenodd" d="M50.0841 111.835H56.0502H62.0163H67.9825C67.9825 113.417 67.3539 114.935 66.235 116.053C65.1162 117.172 63.5986 117.801 62.0163 117.801C60.434 117.801 58.9165 117.172 57.7976 116.053C56.6813 114.937 56.053 113.424 56.0502 111.845C56.0488 112.625 55.8945 113.397 55.5961 114.118C55.2963 114.842 54.8568 115.499 54.3028 116.053C53.7488 116.607 53.0911 117.047 52.3672 117.347C51.6434 117.647 50.8676 117.801 50.0841 117.801C49.3006 117.801 48.5248 117.647 47.801 117.347C47.0771 117.047 46.4194 116.607 45.8654 116.053C45.3114 115.499 44.872 114.842 44.5721 114.118C44.2723 113.394 44.118 112.618 44.118 111.835L50.0841 111.835ZM79.4606 114.118C79.7604 113.394 79.9147 112.618 79.9147 111.835H73.9486L67.9825 111.835C67.9825 112.618 68.1368 113.394 68.4366 114.118C68.7365 114.842 69.1759 115.499 69.7299 116.053C70.2839 116.607 70.9416 117.047 71.6655 117.347C72.3893 117.647 73.1651 117.801 73.9486 117.801C74.7321 117.801 75.5079 117.647 76.2318 117.347C76.9556 117.047 77.6133 116.607 78.1673 116.053C78.7213 115.499 79.1608 114.842 79.4606 114.118Z" fill="#F4B89F" fill-opacity="0.5"/>
</g>
<path fill-rule="evenodd" clip-rule="evenodd" d="M16.6479 46.7966C13.3289 53.1255 11.4513 60.329 11.4513 67.9711V79.6578C11.4513 97.9574 22.2174 113.743 37.7611 121.025C43.7483 114.281 47.3845 105.404 47.3845 95.6767V84.2626C47.3845 65.7207 34.1717 50.2648 16.6479 46.7966Z" fill="#FFDED0"/>
<path fill-rule="evenodd" clip-rule="evenodd" d="M106.268 46.8222C109.579 53.1449 111.451 60.3393 111.451 67.9711V79.6578C111.451 97.9182 100.731 113.675 85.2415 120.978C79.2791 114.24 75.6598 105.381 75.6598 95.6767V84.2625C75.6598 65.7659 88.8081 50.3402 106.268 46.8222Z" fill="#FFDED0"/>
<path d="M61.5221 61.8498C61.5221 77.6095 48.7464 90.3852 32.9867 90.3852C17.227 90.3852 4.45129 77.6095 4.45129 61.8498C4.45129 46.0902 17.227 33.3144 32.9867 33.3144C48.7464 33.3144 61.5221 46.0902 61.5221 61.8498Z" fill="white"/>
<path d="M54.9554 61.5665C54.9554 73.8559 44.9928 83.8185 32.7033 83.8185C20.4139 83.8185 10.4513 73.8559 10.4513 61.5665C10.4513 49.277 20.4139 39.3144 32.7033 39.3144C44.9928 39.3144 54.9554 49.277 54.9554 61.5665Z" fill="#F3F3F3"/>
<path d="M48.0436 62.1106C48.0436 70.2823 41.4191 76.9067 33.2474 76.9067C25.0758 76.9067 18.4513 70.2823 18.4513 62.1106C18.4513 53.9389 25.0758 47.3145 33.2474 47.3145C41.4191 47.3145 48.0436 53.9389 48.0436 62.1106Z" fill="#323232"/>
<path d="M33.4583 57.1915C33.4583 60.11 31.0924 62.4758 28.1739 62.4758C25.2555 62.4758 22.8896 60.11 22.8896 57.1915C22.8896 54.273 25.2555 51.9072 28.1739 51.9072C31.0924 51.9072 33.4583 54.273 33.4583 57.1915Z" fill="#F7F7F7"/>
<path d="M119.522 61.8498C119.522 77.6095 106.746 90.3852 90.9867 90.3852C75.227 90.3852 62.4513 77.6095 62.4513 61.8498C62.4513 46.0902 75.227 33.3144 90.9867 33.3144C106.746 33.3144 119.522 46.0902 119.522 61.8498Z" fill="white"/>
<path d="M112.955 61.5665C112.955 73.8559 102.993 83.8185 90.7033 83.8185C78.4139 83.8185 68.4513 73.8559 68.4513 61.5665C68.4513 49.277 78.4139 39.3144 90.7033 39.3144C102.993 39.3144 112.955 49.277 112.955 61.5665Z" fill="#F3F3F3"/>
<path d="M106.044 62.1106C106.044 70.2823 99.4191 76.9067 91.2474 76.9067C83.0758 76.9067 76.4513 70.2823 76.4513 62.1106C76.4513 53.9389 83.0758 47.3145 91.2474 47.3145C99.4191 47.3145 106.044 53.9389 106.044 62.1106Z" fill="#323232"/>
<path d="M102.033 57.1915C102.033 60.11 99.6668 62.4758 96.7483 62.4758C93.8299 62.4758 91.464 60.11 91.464 57.1915C91.464 54.273 93.8299 51.9072 96.7483 51.9072C99.6668 51.9072 102.033 54.273 102.033 57.1915Z" fill="#F7F7F7"/>
<path d="M70.4513 64.9094C70.4513 61.8194 66.6457 59.3144 61.9513 59.3144C57.2569 59.3144 53.4513 61.8194 53.4513 64.9094C53.4513 67.9994 57.2569 76.3144 61.9513 76.3144C66.6457 76.3144 70.4513 67.9994 70.4513 64.9094Z" fill="#FFD500"/>
<ellipse cx="28.1545" cy="83.2941" rx="7.2561" ry="4.35366" fill="#FFB99B"/>
<ellipse cx="95.8781" cy="83.2941" rx="7.2561" ry="4.35366" fill="#FFB99B"/>
<g filter="url(#filter0_f_215_18)">
<path d="M96.4513 95.3145L100.503 106.263L111.451 110.314L100.503 114.366L96.4513 125.314L92.3999 114.366L81.4513 110.314L92.3999 106.263L96.4513 95.3145Z" fill="white"/>
</g>
<path d="M96.4513 95.3145L100.503 106.263L111.451 110.314L100.503 114.366L96.4513 125.314L92.3999 114.366L81.4513 110.314L92.3999 106.263L96.4513 95.3145Z" fill="white"/>
<g filter="url(#filter1_f_215_18)">
<path d="M108.951 3.31442L110.977 8.78874L116.451 10.8144L110.977 12.8401L108.951 18.3144L106.926 12.8401L101.451 10.8144L106.926 8.78874L108.951 3.31442Z" fill="white"/>
</g>
<path d="M108.951 3.31442L110.977 8.78874L116.451 10.8144L110.977 12.8401L108.951 18.3144L106.926 12.8401L101.451 10.8144L106.926 8.78874L108.951 3.31442Z" fill="white"/>
<g filter="url(#filter2_f_215_18)">
<path d="M14.9513 15.3144L17.7872 22.9785L25.4513 25.8144L17.7872 28.6504L14.9513 36.3144L12.1153 28.6504L4.45129 25.8144L12.1153 22.9785L14.9513 15.3144Z" fill="white"/>
</g>
<path d="M14.9513 15.3144L17.7872 22.9785L25.4513 25.8144L17.7872 28.6504L14.9513 36.3144L12.1153 28.6504L4.45129 25.8144L12.1153 22.9785L14.9513 15.3144Z" fill="white"/>
<defs>
<filter id="filter0_f_215_18" x="77.7013" y="91.5645" width="37.5" height="37.5" filterUnits="userSpaceOnUse" color-interpolation-filters="sRGB">
<feFlood flood-opacity="0" result="BackgroundImageFix"/>
<feBlend mode="normal" in="SourceGraphic" in2="BackgroundImageFix" result="shape"/>
<feGaussianBlur stdDeviation="1.875" result="effect1_foregroundBlur_215_18"/>
</filter>
<filter id="filter1_f_215_18" x="98.2934" y="0.156528" width="21.3158" height="21.3158" filterUnits="userSpaceOnUse" color-interpolation-filters="sRGB">
<feFlood flood-opacity="0" result="BackgroundImageFix"/>
<feBlend mode="normal" in="SourceGraphic" in2="BackgroundImageFix" result="shape"/>
<feGaussianBlur stdDeviation="1.57895" result="effect1_foregroundBlur_215_18"/>
</filter>
<filter id="filter2_f_215_18" x="0.0302415" y="10.8934" width="29.8421" height="29.8421" filterUnits="userSpaceOnUse" color-interpolation-filters="sRGB">
<feFlood flood-opacity="0" result="BackgroundImageFix"/>
<feBlend mode="normal" in="SourceGraphic" in2="BackgroundImageFix" result="shape"/>
<feGaussianBlur stdDeviation="2.21053" result="effect1_foregroundBlur_215_18"/>
</filter>
</defs>
</svg>
