<svg width="102" height="146" viewBox="0 0 102 146" fill="none" xmlns="http://www.w3.org/2000/svg">
<ellipse cx="14.4403" cy="10.329" rx="14.4403" ry="10.329" transform="matrix(0.54801 0.836472 -0.831491 0.555539 17.1769 18.3298)" fill="#B1C1C9"/>
<ellipse cx="7.63481" cy="5.60285" rx="7.63481" ry="5.60285" transform="matrix(0.54801 0.836472 -0.831491 0.555539 15.3174 25.3298)" fill="#FFDED0"/>
<ellipse cx="14.4403" cy="10.329" rx="14.4403" ry="10.329" transform="matrix(-0.54801 0.836472 0.831491 0.555539 83.9682 18.3298)" fill="#B1C1C9"/>
<ellipse cx="7.63481" cy="5.60285" rx="7.63481" ry="5.60285" transform="matrix(-0.54801 0.836472 0.831491 0.555539 85.3679 25.3298)" fill="#FFDED0"/>
<path d="M54.4989 17.5839C55.7768 12.8534 61.7317 8.86017 61.7317 8.86017C61.7317 8.86017 64.3796 14.9514 63.1018 19.6819C61.8239 24.4123 56.3389 28.8235 56.3389 28.8235C56.3389 28.8235 53.2211 22.3143 54.4989 17.5839Z" fill="#ACCC5F"/>
<path d="M43.7782 19.6025C40.6771 16.5868 33.9629 16.6237 33.9629 16.6237C33.9629 16.6237 34.3492 22.781 37.4503 25.7967C40.5515 28.8124 47.0501 29.3505 47.0501 29.3505C47.0501 29.3505 46.8793 22.6182 43.7782 19.6025Z" fill="#ACCC5F"/>
<path d="M54.1987 16.1464C51.6361 10.2205 42.8439 6.17272 42.8439 6.17272C42.8439 6.17272 40.2093 14.682 42.7719 20.6079C45.3345 26.5338 53.6585 31.1811 53.6585 31.1811C53.6585 31.1811 56.7612 22.0723 54.1987 16.1464Z" fill="#BBD468"/>
<path d="M54.4989 17.5839C55.7768 12.8534 61.7317 8.86017 61.7317 8.86017C61.7317 8.86017 64.3796 14.9514 63.1018 19.6819C61.8239 24.4123 56.3389 28.8235 56.3389 28.8235C56.3389 28.8235 53.2211 22.3143 54.4989 17.5839Z" fill="#ACCC5F"/>
<path d="M43.7782 19.6025C40.6771 16.5868 33.9629 16.6237 33.9629 16.6237C33.9629 16.6237 34.3492 22.781 37.4503 25.7967C40.5515 28.8124 47.0501 29.3505 47.0501 29.3505C47.0501 29.3505 46.8793 22.6182 43.7782 19.6025Z" fill="#ACCC5F"/>
<path d="M54.1987 16.1464C51.6361 10.2205 42.8439 6.17272 42.8439 6.17272C42.8439 6.17272 40.2093 14.682 42.7719 20.6079C45.3345 26.5338 53.6585 31.1811 53.6585 31.1811C53.6585 31.1811 56.7612 22.0723 54.1987 16.1464Z" fill="#BBD468"/>
<path d="M8.07361 62.784C9.15203 40.1371 27.8274 22.3298 50.5 22.3298C73.1726 22.3298 91.848 40.137 92.9264 62.7839L93.8358 81.8812C95.014 106.624 75.271 127.33 50.5 127.33C25.729 127.33 5.98598 106.624 7.16421 81.8813L8.07361 62.784Z" fill="#B1C1C9"/>
<circle cx="32" cy="62.3297" r="9" fill="white"/>
<circle cx="33.9" cy="61.4297" r="7.2" fill="#525151"/>
<circle cx="2.25" cy="2.25" r="2.25" transform="matrix(-1 0 0 1 39.3 55.9297)" fill="white"/>
<circle cx="1.35" cy="1.35" r="1.35" transform="matrix(-1 0 0 1 34.8 60.4297)" fill="white"/>
<circle cx="70" cy="62.3297" r="9" fill="white"/>
<circle cx="71.9" cy="61.4297" r="7.2" fill="#525151"/>
<circle cx="2.25" cy="2.25" r="2.25" transform="matrix(-1 0 0 1 77.3 55.9297)" fill="white"/>
<circle cx="1.35" cy="1.35" r="1.35" transform="matrix(-1 0 0 1 72.8 60.4297)" fill="white"/>
<ellipse cx="21" cy="73.7297" rx="4" ry="2.4" fill="#FFDED0"/>
<ellipse cx="80" cy="73.7297" rx="4" ry="2.4" fill="#FFDED0"/>
<path d="M87.9443 124.705C84.8481 122.479 79.387 122.939 77.725 123.142C77.4511 123.176 77.2689 123.429 77.3245 123.699C77.6616 125.339 78.9658 130.662 82.062 132.888C85.1582 135.114 90.6193 134.654 92.2812 134.451C92.5552 134.417 92.7373 134.164 92.6818 133.893C92.3447 132.253 91.0404 126.93 87.9443 124.705Z" fill="#BBD468"/>
<path d="M80.356 134.252C80.2248 130.999 77.0882 127.571 76.0163 126.491C75.8219 126.295 75.5128 126.308 75.3348 126.519C74.3534 127.682 71.5032 131.351 71.6344 134.604C71.7656 137.856 74.9022 141.284 75.9741 142.364C76.1685 142.56 76.4775 142.547 76.6556 142.336C77.6369 141.174 80.4872 137.504 80.356 134.252Z" fill="#BBD468"/>
<rect x="25" y="126.33" width="8" height="8" rx="2" fill="#FBFBFB"/>
<rect x="69" y="126.33" width="8" height="8" rx="2" fill="#FBFBFB"/>
<path d="M0 104.192C0 88.2261 14.0636 76.1168 29.9852 77.3026C44.0738 78.3519 56.7644 78.4072 70.9019 77.387C86.8507 76.2362 101 88.3249 101 104.315C101 117.836 90.7481 129.253 77.2549 130.122C58.4304 131.336 42.6815 131.319 23.8708 130.11C10.3141 129.238 0 117.777 0 104.192Z" fill="#D9E7EE"/>
<circle cx="26.5" cy="86.8298" r="3.5" fill="#525151"/>
<circle cx="76.5" cy="86.8298" r="3.5" fill="#525151"/>
<path d="M29 106.33C37 119.663 65.4444 119.663 73 106.33" stroke="#525151" stroke-width="2.5" stroke-linecap="round" stroke-linejoin="round"/>
<circle cx="17.25" cy="97.5798" r="1.25" fill="#525151"/>
<circle cx="21.25" cy="98.5798" r="1.25" fill="#525151"/>
<circle cx="18.25" cy="101.58" r="1.25" fill="#525151"/>
<circle cx="1.25" cy="1.25" r="1.25" transform="matrix(-1 0 0 1 87 96.3298)" fill="#525151"/>
<circle cx="1.25" cy="1.25" r="1.25" transform="matrix(-1 0 0 1 83 97.3298)" fill="#525151"/>
<circle cx="1.25" cy="1.25" r="1.25" transform="matrix(-1 0 0 1 86 100.33)" fill="#525151"/>
</svg>
