<svg width="121" height="132" viewBox="0 0 121 132" fill="none" xmlns="http://www.w3.org/2000/svg">
<path d="M55.5301 9.42823C56.1494 5.7157 59.3421 3.14148 62.6612 3.67856C65.9803 4.21563 68.1689 7.66062 67.5496 11.3731L66.6708 16.6417L69.1724 12.0499C70.9517 8.78392 74.7203 7.63211 77.5898 9.47726C80.4593 11.3224 81.3431 15.4658 79.5638 18.7318L70.9725 34.5014C69.1931 37.7674 65.4245 38.9192 62.555 37.0741C61.6363 36.4833 60.9211 35.657 60.4318 34.6993C59.4929 35.08 58.4668 35.2165 57.4283 35.0485C56.5773 34.9108 55.8006 34.5819 55.1265 34.1064C54.2223 35.893 52.6306 37.2483 50.696 37.6454C47.3541 38.3313 44.2547 35.8976 43.7732 32.2096L41.4486 14.4027C40.9672 10.7148 43.286 7.16909 46.6279 6.48323C49.9698 5.79736 53.0692 8.23102 53.5507 11.919L54.2373 17.1783L55.5301 9.42823Z" fill="#FFF161"/>
<path d="M117.101 81.9791C117.101 112.283 90.4767 131.417 60.1011 131.417C29.7254 131.417 3.10107 112.283 3.10107 81.9791C3.10107 51.6751 29.7254 18.4166 60.1011 18.4166C90.4767 18.4166 117.101 51.6751 117.101 81.9791Z" fill="#FFF161"/>
<path d="M72.165 101.174C75.2752 103.009 80.7138 101.654 80.7138 101.654C80.7138 101.654 79.1857 96.7361 76.0754 94.9019C72.9652 93.0676 67.588 93.9133 67.588 93.9133C67.588 93.9133 69.0547 99.3401 72.165 101.174Z" fill="#A0BE56"/>
<path d="M62.765 103.529C64.9041 108.475 72.2433 111.854 72.2433 111.854C72.2433 111.854 74.4425 104.751 72.3034 99.8047C70.1643 94.8581 63.2159 90.9788 63.2159 90.9788C63.2159 90.9788 60.6259 98.5823 62.765 103.529Z" fill="#BBD468"/>
<path d="M43.034 90.3763C40.6437 88.9422 40.4165 85.5642 42.5932 83.8229L52.4608 75.9288C56.9318 72.352 63.3071 72.4322 67.6867 76.1203L76.9188 83.8947C78.989 85.638 78.7665 88.891 76.4782 90.3363L66.3989 96.7021C62.5684 99.1214 57.7019 99.1771 53.8171 96.8462L43.034 90.3763Z" fill="#FFA046"/>
<ellipse cx="53.0147" cy="86.314" rx="1.68288" ry="2.20513" fill="#CF7520"/>
<ellipse cx="66.1874" cy="86.3141" rx="1.68288" ry="2.20513" fill="#CF7520"/>
<circle cx="9" cy="9" r="9" transform="matrix(-1 0 0 1 43.1011 64.4166)" fill="#3A3A3A"/>
<ellipse cx="2.7" cy="3.15" rx="2.7" ry="3.15" transform="matrix(-1 0 0 1 40.4011 67.1165)" fill="white"/>
<circle cx="1.35" cy="1.35" r="1.35" transform="matrix(-1 0 0 1 35.0011 73.4166)" fill="white"/>
<path d="M28.0569 59.829C32.8796 57.3548 35.4972 57.6057 40.0405 60.457" stroke="#3A3A3A" stroke-width="2.5" stroke-linecap="round"/>
<circle cx="9" cy="9" r="9" transform="matrix(-1 0 0 1 95.1011 64.4166)" fill="#3A3A3A"/>
<ellipse cx="2.7" cy="3.15" rx="2.7" ry="3.15" transform="matrix(-1 0 0 1 92.4011 67.1165)" fill="white"/>
<circle cx="1.35" cy="1.35" r="1.35" transform="matrix(-1 0 0 1 87.0011 73.4166)" fill="white"/>
<path d="M93.1893 59.829C88.3666 57.3548 85.7491 57.6057 81.2057 60.457" stroke="#3A3A3A" stroke-width="2.5" stroke-linecap="round"/>
<circle cx="23.1011" cy="92.4166" r="12" fill="#FFAA97"/>
<circle cx="98.1011" cy="92.4166" r="12" fill="#FFAA97"/>
<path d="M50.2365 72.0225C50.2365 84.8447 39.3571 95.3353 25.8154 95.3353C12.2736 95.3353 1.39418 84.8447 1.39418 72.0225C1.39418 59.2003 12.2736 48.7097 25.8154 48.7097C39.3571 48.7097 50.2365 59.2003 50.2365 72.0225Z" stroke="#525252" stroke-width="2.58621"/>
<path d="M118.808 72.0225C118.808 84.8447 107.928 95.3353 94.3868 95.3353C80.845 95.3353 69.9656 84.8447 69.9656 72.0225C69.9656 59.2003 80.845 48.7097 94.3868 48.7097C107.928 48.7097 118.808 59.2003 118.808 72.0225Z" stroke="#525252" stroke-width="2.58621"/>
<path d="M50.3868 70.2147C57.7047 68.9685 61.9992 68.991 69.8154 70.2147V74.7564C62.3515 73.6206 58.0955 73.6046 50.3868 74.7564V70.2147Z" fill="#525252"/>
</svg>
