<svg width="127" height="114" viewBox="0 0 127 114" fill="none" xmlns="http://www.w3.org/2000/svg">
<path d="M44.9593 9.37277C43.9672 14.4681 54.5838 21.2619 54.5838 21.2619L84.5896 20.7163C84.5896 20.7163 73.484 0.314423 67.8225 0.314423C64.0958 0.314423 65.2753 4.739 66.5168 7.76311C66.6751 8.14863 65.9784 8.63859 65.6769 8.35088C62.7338 5.54229 57.3646 1.05543 53.4515 1.44672C49.6302 1.82883 53.9037 6.8631 57.0854 10.0953C57.385 10.3996 56.8716 11.0948 56.4921 10.899C52.296 8.73469 45.6338 5.90845 44.9593 9.37277Z" fill="#C79D72"/>
<path d="M8.57657 58.5445C10.1442 34.7891 29.8698 16.3222 53.6769 16.3222H78.0245C101.936 16.3222 121.71 34.9455 123.142 58.8136L123.435 63.7068C125.005 89.8674 105.68 112.943 79.4741 113.218C70.2168 113.315 61.1918 113.143 52.2116 112.753C25.9247 111.611 6.61241 88.309 8.34495 62.0545L8.57657 58.5445Z" fill="#C79D72"/>
<path d="M18.2599 61.9821C19.6041 41.5909 36.5358 25.7386 56.9712 25.7386H73.6687C94.4991 25.7386 111.725 41.9631 112.971 62.7562V62.7562C114.337 85.5423 97.5018 105.657 74.6751 105.772C68.3271 105.805 62.1025 105.684 55.9112 105.436C33.3481 104.534 16.7746 84.5144 18.2599 61.9821V61.9821Z" fill="#EDD49B"/>
<path d="M85.5574 87.2265C85.5574 96.9567 77.0508 102.254 66.5574 102.254C56.064 102.254 47.5574 96.9567 47.5574 87.2265C47.5574 77.4962 56.064 68.0537 66.5574 68.0537C77.0508 68.0537 85.5574 77.4962 85.5574 87.2265Z" fill="#B19574"/>
<rect x="65.398" y="78.7148" width="2.67357" height="11.5855" rx="1.33678" fill="#09060D"/>
<path d="M58.2422 86.3144C62.2685 90.3144 71.2159 90.3144 75.2422 86.3144" stroke="#09060D" stroke-width="2.5" stroke-linecap="round"/>
<path d="M74.5971 77.344C74.5971 80.2417 71.0735 82.5907 66.727 82.5907C62.3805 82.5907 58.857 80.2417 58.857 77.344C58.857 74.4463 62.3805 70.8203 66.727 70.8203C71.0735 70.8203 74.5971 74.4463 74.5971 77.344Z" fill="#09060D"/>
<circle cx="70.3997" cy="75.2453" r="1.04934" fill="white"/>
<path fill-rule="evenodd" clip-rule="evenodd" d="M19.7384 53.6634C18.9571 56.3216 18.4537 59.1032 18.2626 61.9758C17.6112 71.7689 20.4043 81.0823 25.6316 88.531C32.6202 82.7882 40.6039 78.3599 47.805 74.5889C56.1016 70.2442 59.6111 59.3191 55.6416 50.9692C53.1811 45.7935 48.3408 42.7306 42.9225 43.5916C31.9507 45.3349 25.4163 48.7206 19.7384 53.6634Z" fill="#AA6C56"/>
<path fill-rule="evenodd" clip-rule="evenodd" d="M110.309 50.7385C111.792 54.4831 112.714 58.5183 112.969 62.7444C113.514 71.7482 111.189 80.3307 106.763 87.406C100.121 82.2039 92.7154 78.1098 85.9916 74.5888C77.695 70.2441 74.1856 59.319 78.1551 50.9691C80.6155 45.7935 85.4559 42.7306 90.8742 43.5915C99.5268 44.9663 105.42 47.3626 110.309 50.7385Z" fill="#AA6C56"/>
<path d="M12.749 20.2083C17.8832 21.1059 22.746 26.8879 22.746 26.8879C22.746 26.8879 16.2099 30.6771 11.0758 29.7796C5.94158 28.882 1.07878 23.1 1.07878 23.1C1.07878 23.1 7.61481 19.3108 12.749 20.2083Z" fill="#34876F"/>
<path d="M28.5661 14.1063C27.3549 19.1756 21.6262 23.7555 21.6262 23.7555C21.6262 23.7555 18.5868 17.0806 19.7981 12.0112C21.0093 6.94187 26.738 2.36196 26.738 2.36196C26.738 2.36196 29.7774 9.03692 28.5661 14.1063Z" fill="#34876F"/>
<circle cx="39.0512" cy="67.1704" r="8.47471" fill="#09060D"/>
<circle cx="41.8761" cy="65.2871" r="1.88327" fill="white"/>
<circle cx="8.47471" cy="8.47471" r="8.47471" transform="matrix(-1 0 0 1 102.32 58.6956)" fill="#09060D"/>
<circle cx="1.88327" cy="1.88327" r="1.88327" transform="matrix(-1 0 0 1 92.9037 63.4038)" fill="white"/>
<circle cx="39.141" cy="86.9448" r="5.64981" fill="#FFBAA0"/>
<circle cx="94.6974" cy="86.9448" r="5.64981" fill="#FFBAA0"/>
<path d="M45.0275 17.689C45.1581 17.5788 45.2848 17.4614 45.4069 17.3369C47.4946 15.2086 47.4733 11.8023 45.3593 9.72859C43.2453 7.65493 39.8392 7.69921 37.7515 9.82751C37.5488 10.0341 37.366 10.2528 37.2031 10.4811C36.6847 8.45862 35.0477 6.82528 32.9028 6.4512C30.0013 5.94517 27.2689 7.93519 26.7999 10.896C26.5499 12.4745 26.9936 14.0102 27.902 15.1768C27.6813 15.1893 27.4591 15.2151 27.2362 15.2548C24.285 15.7808 22.3479 18.551 22.9097 21.4422C23.4715 24.3335 26.3195 26.2509 29.2707 25.725C29.43 25.6966 29.5864 25.6617 29.7395 25.6206C29.7013 25.7745 29.6694 25.9314 29.6441 26.0912C29.1751 29.0521 31.147 31.8626 34.0486 32.3686C36.9501 32.8746 39.6825 30.8846 40.1515 27.9238C40.1932 27.6608 40.2156 27.3991 40.2198 27.14C41.3409 27.8349 42.7191 28.1362 44.1207 27.8864C47.0719 27.3605 49.009 24.5903 48.4472 21.699C48.0801 19.8102 46.7374 18.3369 45.0275 17.689Z" fill="#FFA787"/>
<g style="mix-blend-mode:multiply">
<circle cx="36.4067" cy="19.2879" r="4.04474" transform="rotate(69.1033 36.4067 19.2879)" fill="#FEB1AA" fill-opacity="0.5"/>
</g>
<path d="M29.6858 29.8187C29.8099 29.714 29.9302 29.6025 30.0462 29.4842C32.0293 27.4625 32.0091 24.2268 30.001 22.257C27.9929 20.2872 24.7574 20.3293 22.7743 22.351C22.5817 22.5472 22.4081 22.7549 22.2533 22.9718C21.7609 21.0506 20.206 19.4991 18.1685 19.1438C15.4123 18.6631 12.8168 20.5534 12.3713 23.366C12.1338 24.8654 12.5553 26.3242 13.4182 27.4323C13.2085 27.4442 12.9974 27.4687 12.7858 27.5064C9.98233 28.006 8.14232 30.6374 8.67599 33.3838C9.20966 36.1303 11.9149 37.9517 14.7183 37.4521C14.8697 37.4251 15.0182 37.3919 15.1636 37.3529C15.1274 37.4991 15.0971 37.6482 15.073 37.8C14.6275 40.6125 16.5007 43.2822 19.2569 43.7629C22.013 44.2436 24.6085 42.3532 25.0541 39.5407C25.0936 39.2909 25.1149 39.0423 25.1189 38.7962C26.1839 39.4563 27.4931 39.7425 28.8244 39.5052C31.6278 39.0056 33.4678 36.3742 32.9342 33.6278C32.5855 31.8335 31.31 30.4341 29.6858 29.8187Z" fill="#FFCE05"/>
<g style="mix-blend-mode:multiply">
<circle cx="21.4968" cy="31.3375" r="3.84212" transform="rotate(69.1033 21.4968 31.3375)" fill="#FED402"/>
</g>
</svg>
