<svg width="133" height="141" viewBox="0 0 133 141" fill="none" xmlns="http://www.w3.org/2000/svg">
<path d="M110.257 120.867C115.349 123.069 124.208 119.294 124.208 119.294C124.208 119.294 119.776 111.083 114.683 108.88C109.591 106.677 100.846 109.641 100.846 109.641C100.846 109.641 105.164 118.664 110.257 120.867Z" fill="#FFCE05"/>
<path d="M112.06 122.219C113.85 129.141 109.132 138.551 109.132 138.551C109.132 138.551 101.234 132.809 99.4441 125.887C97.6541 118.965 101.812 110.414 101.812 110.414C101.812 110.414 110.27 115.297 112.06 122.219Z" fill="#FFCE05"/>
<path fill-rule="evenodd" clip-rule="evenodd" d="M25.972 115.804C23.4738 111.422 21.5341 107.417 20.1937 104.441C18.9384 101.653 20.1153 98.3031 22.5914 97.2335L66.3349 78.3374L109.067 97.2544C111.482 98.3235 112.651 101.574 111.476 104.335C110.188 107.365 108.293 111.487 105.82 115.996C95.2268 125.733 81.2805 131.647 66 131.647C50.6194 131.647 36.5905 125.656 25.972 115.804Z" fill="#FFCE05"/>
<ellipse cx="66" cy="66.0336" rx="60" ry="51.5" fill="#FFD4DC"/>
<path d="M46.9818 13.145C38.4512 5.82135 -0.248753 26.3991 3.86666 36.8995C7.98207 47.3998 26.9305 68.1013 38.3207 59.3263C49.711 50.5513 55.5123 20.4687 46.9818 13.145Z" fill="#FFA6B4"/>
<g style="mix-blend-mode:multiply">
<path fill-rule="evenodd" clip-rule="evenodd" d="M39.9857 11.6708C42.9973 11.4232 45.4659 11.8436 46.9818 13.145C55.5123 20.4686 49.711 50.5513 38.3208 59.3263C35.9763 61.1325 33.3116 61.6898 30.5219 61.3444C32.2172 61.1154 33.8334 60.4722 35.3208 59.3263C46.711 50.5513 52.5123 20.4686 43.9818 13.145C43.0072 12.3083 41.6389 11.8358 39.9857 11.6708Z" fill="#FFA6B4" fill-opacity="0.6"/>
</g>
<path d="M85.6905 13.145C94.2211 5.82135 132.921 26.3991 128.806 36.8995C124.69 47.3998 105.742 68.1013 94.3516 59.3263C82.9613 50.5513 77.16 20.4687 85.6905 13.145Z" fill="#FFA6B4"/>
<g style="mix-blend-mode:multiply">
<path fill-rule="evenodd" clip-rule="evenodd" d="M92.6867 11.6708C89.675 11.4232 87.2064 11.8436 85.6905 13.145C77.16 20.4686 82.9613 50.5513 94.3515 59.3263C96.696 61.1325 99.3607 61.6898 102.15 61.3444C100.455 61.1154 98.8389 60.4722 97.3515 59.3263C85.9613 50.5513 80.16 20.4686 88.6905 13.145C89.6651 12.3083 91.0334 11.8358 92.6867 11.6708Z" fill="#FFA6B4" fill-opacity="0.6"/>
</g>
<ellipse cx="66" cy="90.6193" rx="24" ry="16" fill="#FFA6B4"/>
<ellipse cx="55.5068" cy="91.3868" rx="3.4254" ry="4.6913" transform="rotate(1 55.5068 91.3868)" fill="#413E4E"/>
<g style="mix-blend-mode:multiply">
<ellipse cx="75.6125" cy="91.3739" rx="3.4254" ry="4.6913" fill="#413E4E"/>
</g>
<circle cx="28" cy="88.5336" r="8" fill="#FFA6B4"/>
<circle cx="104" cy="88.5336" r="8" fill="#FFA6B4"/>
<ellipse cx="40.6858" cy="71.806" rx="6.68583" ry="8.35729" fill="#413E4E"/>
<ellipse cx="39.0144" cy="68.8809" rx="2.50719" ry="2.92505" fill="white"/>
<circle cx="42.7752" cy="73.0596" r="1.25359" fill="white"/>
<ellipse cx="6.68583" cy="8.35729" rx="6.68583" ry="8.35729" transform="matrix(-1 0 0 1 97.5154 63.4487)" fill="#413E4E"/>
<ellipse cx="2.50719" cy="2.92505" rx="2.50719" ry="2.92505" transform="matrix(-1 0 0 1 95.0082 65.9559)" fill="white"/>
<circle cx="1.25359" cy="1.25359" r="1.25359" transform="matrix(-1 0 0 1 89.9939 71.806)" fill="white"/>
<ellipse cx="1.93269" cy="1.78352" rx="1.93269" ry="1.78352" transform="matrix(-0.993902 0.110268 0.117654 0.993055 81.9725 7.66168)" fill="#FFCE05"/>
<ellipse cx="1.93269" cy="1.78352" rx="1.93269" ry="1.78352" transform="matrix(-0.993902 0.110268 0.117654 0.993055 70.4482 1.83368)" fill="#FFCE05"/>
<ellipse cx="1.93269" cy="1.78352" rx="1.93269" ry="1.78352" transform="matrix(-0.993902 0.110268 0.117654 0.993055 57.6934 4.72485)" fill="#FFCE05"/>
<path d="M80.1174 14.1059L77.8098 25.8125C77.7123 26.3073 77.1958 26.5966 76.717 26.43C69.4874 23.9135 64.1903 23.0819 56.3882 24.0136C55.8786 24.0745 55.4258 23.67 55.4397 23.1574L55.7834 10.4673C55.8031 9.73996 56.6856 9.39596 57.2004 9.91498L61.8852 14.638C62.2709 15.0268 62.9186 14.9467 63.1915 14.4763L67.3696 7.27515C67.7295 6.65484 68.659 6.76087 68.8787 7.4473L71.607 15.9718C71.7654 16.4667 72.334 16.6996 72.791 16.4569L78.9094 13.2083C79.5266 12.8806 80.2526 13.4201 80.1174 14.1059Z" fill="#FFCE05"/>
</svg>
