<svg width="128" height="115" viewBox="0 0 128 115" fill="none" xmlns="http://www.w3.org/2000/svg">
<path fill-rule="evenodd" clip-rule="evenodd" d="M48.6372 26.7087C40.8982 18.8418 32.5537 11.2018 29.7809 11.7099C26.4329 12.3235 22.7787 28.0961 20.3728 40.7385C11.837 48.5133 6.6842 58.5979 6.6842 69.6174C6.6842 94.2086 32.3454 114.144 64 114.144C95.6547 114.144 121.316 94.2086 121.316 69.6174C121.316 58.4687 116.042 48.277 107.326 40.466C104.919 27.8706 101.293 12.3191 97.9695 11.7099C95.2018 11.2027 86.8834 18.8132 79.1565 26.6645C74.3287 25.6388 69.2467 25.0911 64 25.0911C58.6786 25.0911 53.5265 25.6545 48.6372 26.7087Z" fill="#FFEBA8"/>
<g style="mix-blend-mode:multiply">
<path fill-rule="evenodd" clip-rule="evenodd" d="M49 26.6315L49 38.68C49 41.4415 51.2386 43.68 54 43.68C56.7614 43.68 59 41.4415 59 38.68V43C59 45.7615 61.2386 48 64 48C66.7614 48 69 45.7615 69 43V38.68C69 41.4415 71.2386 43.68 74 43.68C76.7614 43.68 79 41.4415 79 38.68V26.6315C74.2189 25.6271 69.19 25.0912 64 25.0912C58.81 25.0912 53.7811 25.6271 49 26.6315Z" fill="#FFEBA8"/>
</g>
<path d="M111.018 67.25C117.824 64.8159 119.004 64.4087 126.291 63.1097" stroke="#323232" stroke-width="1.89474" stroke-linecap="round" stroke-linejoin="round"/>
<path d="M109.474 80.38C116.543 82.296 119.723 82.6867 126.465 85.7864" stroke="#323232" stroke-width="1.89474" stroke-linecap="round" stroke-linejoin="round"/>
<path d="M111.791 74.2012C118.3 73.8181 120.462 74.5855 126.962 75.4" stroke="#323232" stroke-width="1.89474" stroke-linecap="round" stroke-linejoin="round"/>
<path d="M16.9816 67.25C10.1759 64.8159 8.99647 64.4087 1.70884 63.1097" stroke="#323232" stroke-width="1.89474" stroke-linecap="round" stroke-linejoin="round"/>
<path d="M18.5263 80.38C11.4572 82.296 8.2768 82.6867 1.53461 85.7864" stroke="#323232" stroke-width="1.89474" stroke-linecap="round" stroke-linejoin="round"/>
<path d="M16.2093 74.2012C9.70018 73.8181 7.53829 74.5855 1.03831 75.4" stroke="#323232" stroke-width="1.89474" stroke-linecap="round" stroke-linejoin="round"/>
<circle cx="37.5921" cy="62.5122" r="9.59211" fill="#323232"/>
<circle cx="41.9737" cy="61.328" r="2.13158" fill="white"/>
<path d="M82 67C82 65.6868 82.2328 64.3864 82.6851 63.1732C83.1374 61.9599 83.8003 60.8575 84.636 59.9289C85.4718 59.0003 86.4639 58.2638 87.5558 57.7612C88.6478 57.2587 89.8181 57 91 57C92.1819 57 93.3522 57.2587 94.4442 57.7612C95.5361 58.2638 96.5282 59.0003 97.364 59.9289C98.1997 60.8575 98.8626 61.9599 99.3149 63.1732C99.7672 64.3864 100 65.6868 100 67" stroke="#323232" stroke-width="2.5" stroke-linecap="round" stroke-linejoin="round"/>
<path d="M70.1579 71.5123C70.1579 73.3435 68.0372 74.828 65.4211 74.828C62.805 74.828 60.6842 73.3435 60.6842 71.5123C60.6842 69.681 62.805 67.7228 65.4211 67.7228C68.0372 67.7228 70.1579 69.681 70.1579 71.5123Z" fill="#323232"/>
<path d="M65.4211 70.0912V76.7228C65.4211 78.8156 63.7245 80.5122 61.6316 80.5122H60.4474C59.0085 80.5122 57.8421 79.3458 57.8421 77.907V77.907" stroke="#323232" stroke-width="2" stroke-linecap="round" stroke-linejoin="round"/>
<path d="M65.4211 70.0912V76.7228C65.4211 78.8156 67.1177 80.5122 69.2106 80.5122H70.3948C71.8336 80.5122 73 79.3458 73 77.907V77.907" stroke="#323232" stroke-width="2" stroke-linecap="round" stroke-linejoin="round"/>
<circle cx="67.3158" cy="70.0912" r="0.947369" fill="white"/>
<g style="mix-blend-mode:multiply">
<path d="M25.0309 36.9674C26.4296 30.0458 27.7836 25.3906 30.5874 18.2314C30.8013 17.6853 31.4593 17.4647 31.9572 17.7747C37.3891 21.1559 40.377 23.7462 44.4967 28.1814C44.9739 28.6951 44.7381 29.5301 44.0648 29.7255C36.9379 31.7944 32.5094 33.1708 26.6157 37.8995C25.9116 38.4645 24.8521 37.8523 25.0309 36.9674Z" fill="#FFEBA8"/>
<path d="M101.766 36.2938C101.052 29.1982 100.373 24.9796 97.4257 17.7182C97.2061 17.1772 96.5487 16.9668 96.0561 17.2802C91.1314 20.4126 88.3205 22.738 83.7085 27.0501C83.1733 27.5504 83.3871 28.4435 84.0891 28.653C91.0859 30.741 94.3972 32.2266 100.18 37.1109C100.837 37.6657 101.852 37.1493 101.766 36.2938Z" fill="#FFEBA8"/>
</g>
<circle cx="28.9474" cy="82.407" r="8.05264" fill="#FFAC99"/>
<circle cx="99.0527" cy="82.407" r="8.05264" fill="#FFAC99"/>
<path d="M64.6326 10.2737C67.7221 7.12598 70.2293 11.6041 70.2293 11.6041C70.2293 11.6041 75.2342 8.91174 76.3466 13.0583C77.4589 17.2049 67.9925 21.0138 67.9925 21.0138C67.9925 21.0138 61.5431 13.4214 64.6326 10.2737Z" fill="#FFE312"/>
<path d="M77.1151 1.15828C79.3047 -0.83601 80.8174 2.26058 80.8174 2.26058C80.8174 2.26058 84.2742 0.643555 84.8641 3.46542C85.4541 6.28729 78.9641 8.48523 78.9641 8.48523C78.9641 8.48523 74.9254 3.15258 77.1151 1.15828Z" fill="#FFE312"/>
</svg>
