<svg width="139" height="125" viewBox="0 0 139 125" fill="none" xmlns="http://www.w3.org/2000/svg">
<path fill-rule="evenodd" clip-rule="evenodd" d="M15.6436 20.5693C15.6436 9.40703 24.6924 0.358215 35.8547 0.358215C47.017 0.358215 56.0658 9.40703 56.0658 20.5693V22.3128C56.0658 22.8651 56.5135 23.3128 57.0658 23.3128H81.2214C81.7737 23.3128 82.2214 22.8651 82.2214 22.3128V20.5693C82.2214 9.40703 91.2702 0.358215 102.433 0.358215C113.595 0.358215 122.644 9.40703 122.644 20.5693V58.3826C122.644 58.9214 122.207 59.3583 121.668 59.3583H57.0658C56.5135 59.3583 56.0658 59.806 56.0658 60.3582C56.0658 60.9105 55.6181 61.3582 55.0658 61.3582H16.6436C16.0913 61.3582 15.6436 60.9105 15.6436 60.3582V59.3583V23.3128V20.5693Z" fill="#51B36A"/>
<path d="M7.64362 71.0482C7.64362 53.097 21.8725 38.3217 39.8198 37.9448C60.4698 37.5111 78.2903 37.5103 98.9423 37.9439C116.889 38.3206 131.117 53.0961 131.117 71.047C131.117 89.4443 116.203 104.358 97.8061 104.358H40.9536C22.557 104.358 7.64362 89.4448 7.64362 71.0482Z" fill="#59C385"/>
<circle cx="35.6436" cy="20.3582" r="15" fill="white"/>
<circle cx="11" cy="11" r="11" transform="matrix(-1 0 0 1 45.6436 12.3582)" fill="#393939"/>
<circle cx="4.05263" cy="4.05263" r="4.05263" transform="matrix(-1 0 0 1 42.0895 16.0568)" fill="white"/>
<circle cx="1.73684" cy="1.73684" r="1.73684" transform="matrix(-1 0 0 1 35.0121 25.4503)" fill="white"/>
<circle cx="103.644" cy="20.3582" r="15" fill="white"/>
<circle cx="11" cy="11" r="11" transform="matrix(-1 0 0 1 113.644 12.3582)" fill="#393939"/>
<circle cx="4.05263" cy="4.05263" r="4.05263" transform="matrix(-1 0 0 1 110.089 16.0568)" fill="white"/>
<circle cx="1.73684" cy="1.73684" r="1.73684" transform="matrix(-1 0 0 1 103.012 25.4503)" fill="white"/>
<path fill-rule="evenodd" clip-rule="evenodd" d="M113.111 100.861C108.681 103.098 103.672 104.358 98.37 104.358H40.391C35.0886 104.358 30.0804 103.098 25.6498 100.861C24.4131 97.547 23.7489 94.0357 23.7489 90.4003C23.7489 70.239 44.1789 53.8951 69.3805 53.8951C94.5821 53.8951 115.012 70.239 115.012 90.4003C115.012 94.0357 114.348 97.547 113.111 100.861Z" fill="#89E3B4"/>
<ellipse cx="53.812" cy="47.6003" rx="3.22105" ry="4.29474" fill="#393939"/>
<ellipse cx="84.9488" cy="47.6003" rx="3.22105" ry="4.29474" fill="#393939"/>
<circle cx="22.6436" cy="62.1898" r="11" fill="#FFAA97"/>
<circle cx="116.644" cy="62.1898" r="11" fill="#FFAA97"/>
<path d="M53.6436 82.2003H62.2331V87.6424C62.2331 89.4213 60.791 90.8634 59.012 90.8634H56.8647C55.0857 90.8634 53.6436 89.4213 53.6436 87.6424V82.2003Z" fill="#F2F2F2"/>
<path d="M78.2331 82.2003H86.8226V87.6424C86.8226 89.4213 85.3805 90.8634 83.6015 90.8634H81.4541C79.6752 90.8634 78.2331 89.4213 78.2331 87.6424V82.2003Z" fill="#F2F2F2"/>
<path d="M41.6436 75.3582C44.1306 79.365 47.5986 82.4629 52.4196 82.7312C57.3518 83.0057 63.6737 80.4039 69.4342 80.4626C74.9629 80.5189 80.497 82.8579 85.3145 82.7312C90.711 82.5894 95.2084 79.7654 97.7919 75.3582" stroke="#433D3C" stroke-width="2.83577" stroke-linecap="round" stroke-linejoin="round"/>
<rect x="63.6436" y="26.3582" width="12" height="3" rx="1.5" fill="#89E3B4" fill-opacity="0.8"/>
<rect x="63.6436" y="31.3582" width="12" height="3" rx="1.5" fill="#89E3B4" fill-opacity="0.8"/>
<path d="M74.3458 52.3037C74.3592 52.1614 74.3661 52.0172 74.3661 51.8713C74.3661 49.3788 72.3591 47.3582 69.8833 47.3582C67.4075 47.3582 65.4005 49.3788 65.4005 51.8713C65.4005 52.1133 65.4194 52.3508 65.4559 52.5825C63.9624 51.6789 62.0291 51.6624 60.5299 52.6949C58.5019 54.0916 58.0362 56.879 59.4897 58.9208C60.2646 60.0093 61.4285 60.6661 62.6538 60.8305C62.5293 60.9672 62.4118 61.1127 62.302 61.2669C60.8485 63.3086 61.3142 66.0961 63.3423 67.4928C65.3703 68.8895 68.1927 68.3666 69.6462 66.3248C69.7246 66.2146 69.7975 66.1023 69.8648 65.9881C69.9322 66.1023 70.005 66.2146 70.0835 66.3248C71.537 68.3666 74.3594 68.8895 76.3874 67.4928C78.4154 66.0961 78.8812 63.3086 77.4276 61.2669C77.2985 61.0856 77.1587 60.9162 77.0095 60.7591C78.0855 60.5175 79.0845 59.8904 79.7747 58.9208C81.2283 56.879 80.7626 54.0916 78.7345 52.6949C77.4096 51.7824 75.7456 51.6892 74.3458 52.3037Z" fill="#FFE799"/>
<g style="mix-blend-mode:multiply">
<circle cx="70.1366" cy="58.305" r="3.38163" transform="rotate(24.6549 70.1366 58.305)" fill="#FFCE05" fill-opacity="0.6"/>
</g>
<path d="M44.0141 111.91C46.3123 113.159 48.8306 114.433 51.6924 115.811C52.023 115.97 52.4262 115.824 52.5929 115.485C52.7596 115.146 52.6268 114.742 52.2961 114.583C49.4897 113.231 47.0188 111.982 44.7639 110.759C44.7649 110.667 44.7542 110.574 44.7326 110.485C44.7465 110.436 44.7581 110.385 44.7673 110.333C45.0435 108.756 45.229 106.702 44.8451 104.857C44.6562 103.949 44.3191 103.041 43.9195 102.191C42.8945 100.009 40.1135 100.506 40.0371 102.885C40.0073 103.812 40.0584 104.771 40.2472 105.679C40.4766 106.781 40.9245 107.883 41.4376 108.883C38.9847 107.439 36.7498 105.979 34.5323 104.376C34.5465 104.33 34.5589 104.283 34.5692 104.234C34.9001 102.666 35.157 100.618 34.8382 98.7586C34.6813 97.8436 34.3764 96.9239 34.0072 96.0588C33.0599 93.8396 30.2661 94.2376 30.1068 96.6144C30.0447 97.5409 30.0622 98.5015 30.219 99.4166C30.3422 100.135 30.5567 100.857 30.8219 101.552C28.5044 99.7054 26.0881 97.6345 23.3567 95.2036L22.4553 96.2335C25.1671 98.647 27.5744 100.711 29.8837 102.555C29.1904 102.541 28.4928 102.576 27.8232 102.686C26.9141 102.835 26.0072 103.127 25.1569 103.482C22.9547 104.404 23.4916 107.189 25.9035 107.356C26.8348 107.42 27.7955 107.407 28.7045 107.259C30.4632 106.971 32.2137 106.147 33.5623 105.364C35.6398 106.873 37.7286 108.257 39.9884 109.614C39.3076 109.695 38.6296 109.825 37.9882 110.022C37.1039 110.293 36.241 110.706 35.4429 111.174C33.3758 112.384 34.2825 115.06 36.7037 114.894C37.6387 114.83 38.5924 114.686 39.4766 114.415C41.1687 113.896 42.7825 112.859 44.0141 111.91Z" fill="#BBD468"/>
<path d="M13.6763 84.2039C13.6767 81.8932 14.5433 79.579 16.2811 79.3237C19.2781 78.8834 23.0635 82.9325 25.4052 88.0382C27.4593 92.5166 27.6314 96.5338 25.5395 97.7486C25.5009 97.8099 25.4592 97.8693 25.4144 97.9268C25.3654 97.9897 25.3132 98.0496 25.258 98.1065C24.5921 100.443 20.2715 101.753 15.4481 100.825C9.95329 99.7684 5.52853 96.5403 5.23326 93.5111C5.06142 91.7481 7.07437 90.3496 9.32092 89.797C7.99406 87.6195 7.17888 85.4786 8.09241 84.3054C9.00394 83.1349 11.2611 83.4387 13.6763 84.2039Z" fill="#FFEBA8"/>
<path d="M13.6763 84.2039C13.6766 81.8932 14.5432 79.579 16.281 79.3237C19.2781 78.8834 23.0634 82.9325 25.4052 88.0382C27.4592 92.5166 27.6314 96.5338 25.5394 97.7486C25.5008 97.8099 25.4591 97.8693 25.4144 97.9268C25.3654 97.9898 25.3132 98.0497 25.258 98.1065C24.592 100.443 20.2715 101.753 15.448 100.825C9.95325 99.7684 5.5285 96.5403 5.23322 93.5111C5.06138 91.7481 7.07433 90.3496 9.32089 89.797C7.99402 87.6195 7.17884 85.4786 8.09237 84.3054C9.0039 83.1349 11.2611 83.4387 13.6763 84.2039Z" fill="white"/>
<path d="M94.6308 111.91C92.3326 113.159 89.8143 114.433 86.9525 115.811C86.6219 115.97 86.2187 115.824 86.052 115.485C85.8853 115.146 86.0181 114.742 86.3488 114.583C89.1552 113.231 91.6261 111.982 93.881 110.759C93.88 110.666 93.8907 110.574 93.9123 110.485C93.8984 110.436 93.8868 110.385 93.8776 110.333C93.6014 108.756 93.4159 106.702 93.7998 104.856C93.9887 103.949 94.3258 103.041 94.7254 102.191C95.7504 100.009 98.5314 100.506 98.6078 102.885C98.6376 103.812 98.5865 104.771 98.3977 105.679C98.1683 106.781 97.7204 107.883 97.2073 108.883C99.6602 107.439 101.895 105.979 104.113 104.375C104.098 104.33 104.086 104.283 104.076 104.234C103.745 102.666 103.488 100.618 103.807 98.7585C103.964 97.8435 104.268 96.9238 104.638 96.0587C105.585 93.8396 108.379 94.2375 108.538 96.6143C108.6 97.5409 108.583 98.5015 108.426 99.4165C108.303 100.135 108.088 100.856 107.823 101.552C110.14 99.7053 112.557 97.6345 115.288 95.2035L116.19 96.2334C113.478 98.6469 111.071 100.711 108.761 102.555C109.454 102.54 110.152 102.576 110.822 102.686C111.731 102.835 112.638 103.127 113.488 103.482C115.69 104.404 115.153 107.189 112.741 107.356C111.81 107.42 110.849 107.407 109.94 107.259C108.182 106.971 106.431 106.146 105.083 105.364C103.005 106.873 100.916 108.257 98.6565 109.614C99.3373 109.695 100.015 109.825 100.657 110.022C101.541 110.293 102.404 110.706 103.202 111.173C105.269 112.384 104.362 115.06 101.941 114.894C101.006 114.83 100.053 114.686 99.1683 114.415C97.4762 113.896 95.8624 112.859 94.6308 111.91Z" fill="#BBD468"/>
<path d="M124.969 84.2038C124.968 81.8932 124.102 79.5789 122.364 79.3236C119.367 78.8833 115.581 82.9325 113.24 88.0382C111.186 92.5165 111.014 96.5338 113.105 97.7485C113.144 97.8098 113.186 97.8692 113.23 97.9267C113.28 97.9897 113.332 98.0496 113.387 98.1065C114.053 100.443 118.373 101.753 123.197 100.825C128.692 99.7683 133.116 96.5403 133.412 93.511C133.583 91.7481 131.571 90.3495 129.324 89.7969C130.651 87.6194 131.466 85.4785 130.552 84.3054C129.641 83.1348 127.384 83.4386 124.969 84.2038Z" fill="#FFEBA8"/>
<path d="M124.969 84.2038C124.968 81.8932 124.102 79.5789 122.364 79.3236C119.367 78.8833 115.581 82.9325 113.24 88.0382C111.186 92.5165 111.014 96.5338 113.105 97.7485C113.144 97.8098 113.186 97.8693 113.231 97.9267C113.28 97.9897 113.332 98.0496 113.387 98.1065C114.053 100.443 118.373 101.753 123.197 100.825C128.692 99.7683 133.116 96.5403 133.412 93.511C133.584 91.7481 131.571 90.3495 129.324 89.7969C130.651 87.6194 131.466 85.4785 130.553 84.3054C129.641 83.1348 127.384 83.4387 124.969 84.2038Z" fill="white"/>
<path d="M74.3458 108.304C74.3592 108.161 74.3661 108.017 74.3661 107.871C74.3661 105.379 72.3591 103.358 69.8833 103.358C67.4075 103.358 65.4005 105.379 65.4005 107.871C65.4005 108.113 65.4194 108.351 65.4559 108.583C63.9624 107.679 62.0291 107.662 60.5299 108.695C58.5019 110.092 58.0362 112.879 59.4897 114.921C60.2646 116.009 61.4285 116.666 62.6538 116.831C62.5293 116.967 62.4118 117.113 62.302 117.267C60.8485 119.309 61.3142 122.096 63.3423 123.493C65.3703 124.89 68.1927 124.367 69.6462 122.325C69.7246 122.215 69.7975 122.102 69.8648 121.988C69.9322 122.102 70.005 122.215 70.0835 122.325C71.537 124.367 74.3594 124.89 76.3874 123.493C78.4154 122.096 78.8812 119.309 77.4276 117.267C77.2985 117.086 77.1587 116.916 77.0095 116.759C78.0855 116.518 79.0845 115.89 79.7747 114.921C81.2283 112.879 80.7626 110.092 78.7345 108.695C77.4096 107.782 75.7456 107.689 74.3458 108.304Z" fill="white"/>
<g style="mix-blend-mode:multiply">
<circle cx="70.1366" cy="114.305" r="3.38163" transform="rotate(24.6549 70.1366 114.305)" fill="#FFCE05" fill-opacity="0.6"/>
</g>
<path d="M92.1559 106.614C92.1674 106.491 92.1733 106.367 92.1733 106.242C92.1733 104.097 90.4462 102.358 88.3157 102.358C86.1853 102.358 84.4582 104.097 84.4582 106.242C84.4582 106.45 84.4744 106.655 84.5058 106.854C83.2206 106.076 81.557 106.062 80.2669 106.951C78.5217 108.153 78.1209 110.551 79.3717 112.308C80.0385 113.245 81.0401 113.81 82.0945 113.952C81.9874 114.069 81.8862 114.194 81.7918 114.327C80.541 116.084 80.9418 118.483 82.687 119.685C84.4321 120.887 86.8609 120.437 88.1117 118.68C88.1792 118.585 88.2419 118.488 88.2998 118.39C88.3578 118.488 88.4205 118.585 88.488 118.68C89.7388 120.437 92.1676 120.887 93.9127 119.685C95.6579 118.483 96.0587 116.084 94.8079 114.327C94.6968 114.171 94.5764 114.025 94.4481 113.89C95.374 113.682 96.2337 113.143 96.8277 112.308C98.0785 110.551 97.6777 108.153 95.9325 106.951C94.7924 106.165 93.3605 106.085 92.1559 106.614Z" fill="white"/>
<g style="mix-blend-mode:multiply">
<circle cx="88.5337" cy="111.778" r="2.91" transform="rotate(24.6549 88.5337 111.778)" fill="#FFCE05" fill-opacity="0.6"/>
</g>
<path d="M55.1559 106.614C55.1674 106.491 55.1733 106.367 55.1733 106.242C55.1733 104.097 53.4462 102.358 51.3157 102.358C49.1853 102.358 47.4582 104.097 47.4582 106.242C47.4582 106.45 47.4744 106.655 47.5058 106.854C46.2206 106.076 44.557 106.062 43.2669 106.951C41.5217 108.153 41.1209 110.551 42.3717 112.308C43.0385 113.245 44.0401 113.81 45.0945 113.952C44.9874 114.069 44.8862 114.194 44.7918 114.327C43.541 116.084 43.9418 118.483 45.687 119.685C47.4321 120.887 49.8609 120.437 51.1117 118.68C51.1792 118.585 51.2419 118.488 51.2998 118.39C51.3578 118.488 51.4205 118.585 51.488 118.68C52.7388 120.437 55.1676 120.887 56.9127 119.685C58.6579 118.483 59.0587 116.084 57.8079 114.327C57.6968 114.171 57.5764 114.025 57.4481 113.89C58.374 113.682 59.2337 113.143 59.8277 112.308C61.0785 110.551 60.6777 108.153 58.9325 106.951C57.7924 106.165 56.3605 106.085 55.1559 106.614Z" fill="white"/>
<g style="mix-blend-mode:multiply">
<circle cx="51.5337" cy="111.778" r="2.91" transform="rotate(24.6549 51.5337 111.778)" fill="#FFCE05" fill-opacity="0.6"/>
</g>
</svg>
