<svg width="135" height="141" viewBox="0 0 135 141" fill="none" xmlns="http://www.w3.org/2000/svg">
<path fill-rule="evenodd" clip-rule="evenodd" d="M55.8034 76.2593C62.7195 70.3711 67.078 61.7783 67.078 52.2088C67.078 34.4568 52.0795 20.0659 33.578 20.0659C15.0764 20.0659 0.0779724 34.4568 0.0779724 52.2088C0.0779724 56.8389 1.09827 61.2403 2.93492 65.2174C1.7358 67.6773 1.07797 70.3526 1.07797 73.1503C1.07797 85.254 13.3901 95.0659 28.578 95.0659C42.4414 95.0659 53.9089 86.8905 55.8034 76.2593Z" fill="#D9DEE5"/>
<path d="M58.813 74.7669C65.1098 69.6637 69.078 62.2166 69.078 53.9231C69.078 38.538 55.4227 26.0659 38.578 26.0659C21.7333 26.0659 8.07797 38.538 8.07797 53.9231C8.07797 57.9358 9.0069 61.7504 10.6791 65.1972C9.58734 67.3291 8.98842 69.6477 8.98842 72.0724C8.98842 82.5622 20.198 91.0659 34.0257 91.0659C46.6477 91.0659 57.0882 83.9806 58.813 74.7669Z" fill="#FFDED0"/>
<path fill-rule="evenodd" clip-rule="evenodd" d="M78.3526 76.2593C71.4364 70.3711 67.078 61.7783 67.078 52.2088C67.078 34.4568 82.0764 20.0659 100.578 20.0659C119.08 20.0659 134.078 34.4568 134.078 52.2088C134.078 56.8389 133.058 61.2403 131.221 65.2174C132.42 67.6773 133.078 70.3526 133.078 73.1503C133.078 85.254 120.766 95.0659 105.578 95.0659C91.7145 95.0659 80.2471 86.8905 78.3526 76.2593Z" fill="#D9DEE5"/>
<path d="M76.3429 74.7669C70.0461 69.6637 66.078 62.2166 66.078 53.9231C66.078 38.538 79.7333 26.0659 96.578 26.0659C113.423 26.0659 127.078 38.538 127.078 53.9231C127.078 57.9358 126.149 61.7504 124.477 65.1972C125.569 67.3291 126.168 69.6477 126.168 72.0724C126.168 82.5622 114.958 91.0659 101.13 91.0659C88.5082 91.0659 78.0677 83.9806 76.3429 74.7669Z" fill="#FFDED0"/>
<path d="M107.566 101.949C82.621 103.386 74.3007 105.134 49.8492 114.595" stroke="#56392B" stroke-width="3.94968" stroke-linecap="round"/>
<path d="M43.021 109.095C47.9705 110.589 51.3394 113.028 50.5751 114.765C49.8108 116.503 45.0669 116.997 40.1174 115.503C35.1679 114.01 30.8515 110.03 30.9746 109.751C31.0976 109.471 38.0715 107.601 43.021 109.095Z" fill="#34876F"/>
<g style="mix-blend-mode:multiply">
<path fill-rule="evenodd" clip-rule="evenodd" d="M50.6832 114.252C43.9732 112.23 38.3986 111.066 31.6024 109.878C38.1931 111.271 43.4361 112.934 49.9906 115.012C50.1089 115.049 50.2275 115.087 50.3466 115.125C50.4428 115.012 50.5195 114.892 50.575 114.766C50.6478 114.6 50.6831 114.428 50.6832 114.252Z" fill="#34876F" fill-opacity="0.5"/>
</g>
<path d="M47.6908 123.64C51.0361 119.801 52.5243 115.989 50.9164 114.922C49.3085 113.855 45.0341 115.91 41.6888 119.749C38.3435 123.588 36.9101 129.192 37.1689 129.364C37.4277 129.536 44.3454 127.479 47.6908 123.64Z" fill="#34876F"/>
<g style="mix-blend-mode:multiply">
<path fill-rule="evenodd" clip-rule="evenodd" d="M51.2927 115.299C46.7555 120.5 42.7002 124.387 37.6283 128.93C42.4131 124.321 45.9125 120.187 50.2873 115.019C50.3662 114.926 50.4454 114.832 50.5248 114.739C50.6686 114.784 50.7996 114.845 50.9165 114.922C51.0696 115.024 51.1947 115.15 51.2927 115.299Z" fill="#34876F" fill-opacity="0.5"/>
</g>
<path d="M58.1138 104.008C62.5499 105.728 65.4608 108.208 64.6255 109.755C63.7902 111.302 59.3913 111.427 54.9551 109.707C50.5189 107.987 46.8545 104.022 46.989 103.774C47.1234 103.525 53.6776 102.288 58.1138 104.008Z" fill="#34876F"/>
<g style="mix-blend-mode:multiply">
<path fill-rule="evenodd" clip-rule="evenodd" d="M64.7641 109.289C58.7498 106.961 53.7137 105.501 47.5565 103.934C53.5092 105.676 58.2023 107.571 64.0693 109.941C64.1752 109.984 64.2815 110.026 64.3882 110.07C64.4852 109.972 64.5648 109.867 64.6255 109.755C64.7051 109.608 64.7506 109.452 64.7641 109.289Z" fill="#34876F" fill-opacity="0.5"/>
</g>
<path d="M62.6214 117.809C65.488 114.102 66.6441 110.514 65.1014 109.615C63.5588 108.716 59.7348 110.829 56.8682 114.536C54.0016 118.243 52.9975 123.478 53.2458 123.623C53.4941 123.768 59.7548 121.516 62.6214 117.809Z" fill="#34876F"/>
<g style="mix-blend-mode:multiply">
<path fill-rule="evenodd" clip-rule="evenodd" d="M65.4697 109.943C61.5814 114.966 58.063 118.754 53.6446 123.2C57.7946 118.708 60.7865 114.721 64.5269 109.737C64.5944 109.647 64.6621 109.557 64.7301 109.466C64.8651 109.5 64.9893 109.55 65.1015 109.615C65.2484 109.701 65.3708 109.811 65.4697 109.943Z" fill="#34876F" fill-opacity="0.5"/>
</g>
<path d="M73.5893 98.4548C77.9158 100.981 80.5128 104.056 79.3632 105.54C78.2137 107.025 73.5957 106.438 69.2692 103.911C64.9426 101.385 61.8241 96.6322 62.0092 96.3932C62.1942 96.1543 69.2627 95.9282 73.5893 98.4548Z" fill="#34876F"/>
<g style="mix-blend-mode:multiply">
<path fill-rule="evenodd" clip-rule="evenodd" d="M79.5914 105.075C73.7251 101.653 68.7252 99.3012 62.5733 96.6538C68.4803 99.451 73.0438 102.203 78.749 105.644C78.8519 105.707 78.9552 105.769 79.0589 105.831C79.1777 105.745 79.2796 105.648 79.3632 105.54C79.4726 105.399 79.5481 105.243 79.5914 105.075Z" fill="#34876F" fill-opacity="0.5"/>
</g>
<path d="M89.8777 95.8688C94.2043 98.3954 96.8012 101.47 95.6517 102.954C94.5021 104.439 89.8842 103.852 85.5576 101.325C81.2311 98.7988 78.1126 94.0462 78.2976 93.8072C78.4826 93.5683 85.5512 93.3422 89.8777 95.8688Z" fill="#34876F"/>
<g style="mix-blend-mode:multiply">
<path fill-rule="evenodd" clip-rule="evenodd" d="M95.8799 102.489C90.0135 99.0672 85.0137 96.7153 78.8618 94.0679C84.7687 96.865 89.3323 99.6175 95.0374 103.059C95.1403 103.121 95.2436 103.183 95.3473 103.245C95.4661 103.159 95.568 103.062 95.6516 102.954C95.7611 102.813 95.8366 102.657 95.8799 102.489Z" fill="#34876F" fill-opacity="0.5"/>
</g>
<path d="M76.2168 113.724C79.2561 109.793 80.4819 105.99 78.8463 105.036C77.2107 104.083 73.1564 106.323 70.1171 110.254C67.0778 114.184 66.0133 119.734 66.2765 119.888C66.5398 120.041 73.1776 117.655 76.2168 113.724Z" fill="#34876F"/>
<g style="mix-blend-mode:multiply">
<path fill-rule="evenodd" clip-rule="evenodd" d="M79.2365 105.384C75.1141 110.71 71.3838 114.726 66.6993 119.439C71.0992 114.677 74.2714 110.45 78.237 105.165C78.3085 105.07 78.3803 104.974 78.4523 104.878C78.5955 104.915 78.7273 104.967 78.8462 105.036C79.002 105.127 79.1318 105.244 79.2365 105.384Z" fill="#34876F" fill-opacity="0.5"/>
</g>
<path d="M92.5053 111.138C95.5446 107.207 96.7703 103.404 95.1347 102.45C93.4991 101.497 89.4448 103.737 86.4056 107.667C83.3663 111.598 82.3017 117.148 82.565 117.302C82.8282 117.455 89.466 115.068 92.5053 111.138Z" fill="#34876F"/>
<g style="mix-blend-mode:multiply">
<path fill-rule="evenodd" clip-rule="evenodd" d="M95.525 102.798C91.4026 108.124 87.6722 112.14 82.9877 116.853C87.3877 112.091 90.5598 107.864 94.5254 102.579C94.597 102.484 94.6687 102.388 94.7408 102.292C94.884 102.328 95.0157 102.381 95.1347 102.45C95.2904 102.541 95.4202 102.658 95.525 102.798Z" fill="#34876F" fill-opacity="0.5"/>
</g>
<path fill-rule="evenodd" clip-rule="evenodd" d="M86.7936 102.748C84.8232 101.709 85.6499 99.193 87.7812 98.5451C106.928 92.7248 108.078 77.4693 108.078 59.5659C108.078 36.6461 89.7216 18.0659 67.078 18.0659C44.4343 18.0659 26.078 36.6461 26.078 59.5659C26.078 79.7271 27.5366 96.5304 54.5105 100.283C55.7601 100.457 56.7963 101.365 57.162 102.572C63.0173 121.905 80.377 121.415 98.5299 120.903C99.1112 120.887 99.6933 120.87 100.276 120.854C101.213 120.829 101.911 119.958 101.638 119.061C101.361 118.148 101.091 117.562 100.857 117.055C100.422 116.111 100.114 115.442 100.12 113.445C100.126 111.53 100.428 110.878 100.85 109.971C100.939 109.78 101.033 109.578 101.13 109.351C101.833 107.711 100.523 106.015 98.7514 105.799C93.3615 105.138 89.5248 104.189 86.7936 102.748Z" fill="#D9DEE5"/>
<path fill-rule="evenodd" clip-rule="evenodd" d="M95.1984 105.41C96.1552 105.573 97.1724 105.723 98.2538 105.86C95.2526 109.028 93.1975 111.77 92.1246 115.254C91.9202 115.917 91.2356 116.254 90.5956 116.007C89.9555 115.759 89.6024 115.02 89.8068 114.357C90.8672 110.914 92.7476 108.168 95.1984 105.41ZM86.9226 102.966C87.683 103.354 88.5275 103.706 89.4654 104.025C86.6662 106.697 85.5436 108.917 84.1593 112.381C83.9016 113.025 83.1917 113.306 82.5737 113.007C81.9558 112.709 81.6637 111.944 81.9214 111.299C83.2492 107.977 84.4257 105.584 86.9226 102.966ZM81.5793 97.2523C81.9143 98.0894 82.3223 98.8534 82.8191 99.5512C79.3125 102.633 77.8765 104.486 76.4096 108.156C76.1519 108.801 75.442 109.081 74.824 108.783C74.206 108.484 73.914 107.72 74.1717 107.075C75.8565 102.859 77.6008 100.708 81.4565 97.3458C81.4959 97.3114 81.537 97.2802 81.5793 97.2523Z" fill="#B7BFCD"/>
<path d="M55.1122 81.0659C52.7562 123.882 76.1721 121.536 100.273 120.857C101.211 120.831 101.913 119.955 101.623 119.062C100.834 116.629 100.11 117.018 100.119 113.994C100.128 110.969 100.891 110.762 101.689 107.905C101.929 107.044 101.291 106.202 100.402 106.11C80.0431 104.002 80.101 99.0866 80.578 81.0659" stroke="#B4BCCB" stroke-width="1.5" stroke-linecap="round"/>
<path d="M80.1027 123.455C82.1164 121.27 81.9865 116.696 81.9865 116.696C81.9865 116.696 77.3858 116.971 75.3721 119.156C73.3584 121.34 73.4883 125.915 73.4883 125.915C73.4883 125.915 78.089 125.639 80.1027 123.455Z" fill="#34876F"/>
<path d="M92.4204 125.393C90.5433 122.771 85.5635 121.899 85.5635 121.899C85.5635 121.899 84.7511 126.85 86.6281 129.472C88.5052 132.095 93.4851 132.966 93.4851 132.966C93.4851 132.966 94.2975 128.015 92.4204 125.393Z" fill="#34876F"/>
<ellipse cx="46.6308" cy="72.3" rx="4.55279" ry="5.23413" fill="#323232"/>
<ellipse cx="47.9928" cy="70.3821" rx="1.20503" ry="1.06567" fill="white"/>
<ellipse cx="4.55279" cy="5.23413" rx="4.55279" ry="5.23413" transform="matrix(-1 0 0 1 94.2891 67.0659)" fill="#323232"/>
<ellipse cx="1.20503" cy="1.06567" rx="1.20503" ry="1.06567" transform="matrix(-1 0 0 1 92.8756 69.3165)" fill="white"/>
<ellipse cx="42.1755" cy="81.3547" rx="4.09751" ry="2.64342" fill="#FFC4AA"/>
<ellipse cx="93.2144" cy="81.3547" rx="4.09751" ry="2.64342" fill="#FFC4AA"/>
<ellipse cx="1.93269" cy="1.78352" rx="1.93269" ry="1.78352" transform="matrix(-0.993902 0.110268 0.117654 0.993055 82.0504 7.08026)" fill="#FFC547"/>
<ellipse cx="1.93269" cy="1.78352" rx="1.93269" ry="1.78352" transform="matrix(-0.993902 0.110268 0.117654 0.993055 70.5262 1.25226)" fill="#FFC547"/>
<ellipse cx="1.93269" cy="1.78352" rx="1.93269" ry="1.78352" transform="matrix(-0.993902 0.110268 0.117654 0.993055 57.7714 4.14343)" fill="#FFC547"/>
<path d="M80.1954 13.5245L77.8878 25.231C77.7903 25.7259 77.2738 26.0152 76.795 25.8486C69.5654 23.3321 64.2683 22.5005 56.4662 23.4322C55.9566 23.4931 55.5038 23.0885 55.5176 22.576L55.8613 9.88591C55.881 9.15853 56.7635 8.81454 57.2784 9.33356L61.9631 14.0565C62.3489 14.4454 62.9965 14.3653 63.2695 13.8949L67.4476 6.69373C67.8075 6.07342 68.737 6.17945 68.9567 6.86588L71.685 15.3904C71.8434 15.8853 72.4119 16.1182 72.869 15.8755L78.9874 12.6269C79.6045 12.2992 80.3306 12.8387 80.1954 13.5245Z" fill="#FFC547"/>
</svg>
