<svg width="133" height="131" viewBox="0 0 133 131" fill="none" xmlns="http://www.w3.org/2000/svg">
<path d="M93.5668 122.172C87.6415 122.578 82.1348 120.429 78.1603 116.677C74.7525 120.935 69.6017 123.816 63.6764 124.222C56.3271 124.726 49.6219 121.299 45.6854 115.759C42.7166 117.891 39.122 119.253 35.1857 119.523C24.393 120.263 14.9892 112.524 13.7034 102.068C6.23114 99.558 0.634058 92.8387 0.0509502 84.5976C-0.48232 77.0609 3.31666 70.2121 9.35978 66.415C5.14481 63.0596 2.30276 58.055 1.89635 52.3112C1.12008 41.3401 9.52389 31.8267 20.6668 31.0624C20.7927 31.0538 20.9185 31.0463 21.044 31.04C20.477 20.2235 28.8176 10.9117 39.8369 10.1559C42.6973 9.95972 45.4601 10.3591 48.0001 11.2468C51.1037 5.17656 57.2858 0.826706 64.6711 0.320142C73.6364 -0.294795 81.6432 4.94125 84.8347 12.7253C86.949 11.7911 89.2635 11.2015 91.7101 11.0337C102.853 10.2694 112.515 18.5436 113.292 29.5147C113.425 31.4049 113.287 33.2518 112.908 35.0181C121.687 36.6882 128.583 43.9904 129.234 53.188C129.557 57.7596 128.286 62.0782 125.888 65.616C128.762 68.7923 130.628 72.8956 130.951 77.4673C131.728 88.4383 123.324 97.9517 112.181 98.716C112.14 98.7189 112.099 98.7216 112.058 98.7241C112.191 99.4434 112.284 100.177 112.337 100.923C113.113 111.894 104.71 121.408 93.5668 122.172Z" fill="url(#paint0_linear_215_46)"/>
<path d="M94.281 122.172C88.3105 122.578 82.7618 120.429 78.7569 116.677C75.3231 120.935 70.133 123.816 64.1625 124.222C56.7571 124.726 50.0007 121.299 46.0341 115.759C43.0427 117.891 39.4207 119.253 35.4542 119.523C24.5792 120.263 15.1036 112.524 13.808 102.068C6.2787 99.558 0.638889 92.8387 0.0513298 84.5976C-0.486012 77.0609 3.34197 70.2121 9.43122 66.415C5.18407 63.0596 2.32033 58.055 1.91082 52.3112C1.12862 41.3401 9.59659 31.8267 20.8245 31.0624C20.9514 31.0538 21.0781 31.0463 21.2046 31.04C20.6333 20.2235 29.0376 10.9117 40.141 10.1559C43.0232 9.95972 45.8071 10.3591 48.3665 11.2468C51.4938 5.17656 57.7231 0.826706 65.1647 0.320142C74.1984 -0.294795 82.2665 4.94125 85.4823 12.7253C87.6127 11.7911 89.9449 11.2015 92.4102 11.0337C103.638 10.2694 113.374 18.5436 114.157 29.5147C114.291 31.4049 114.151 33.2518 113.77 35.0181C122.615 36.6882 129.564 43.9904 130.22 53.188C130.546 57.7596 129.266 62.0782 126.849 65.616C129.744 68.7923 131.625 72.8956 131.951 77.4673C132.733 88.4383 124.265 97.9517 113.037 98.716C112.996 98.7188 112.955 98.7216 112.913 98.7241C113.047 99.4434 113.142 100.177 113.195 100.923C113.977 111.894 105.509 121.408 94.281 122.172Z" fill="#764C24"/>
<path d="M114.001 71.6912C114.001 90.9035 93.0967 109.271 66.0012 109.271C38.9057 109.271 18.0012 92.6809 18.0012 73.4687C18.0012 66.2313 20.9677 58.0329 26.1141 50.6244C22.5336 48.6521 20.1228 44.9522 20.1228 40.7132C20.1228 34.4026 25.4657 29.2869 32.0565 29.2869C36.5265 29.2869 40.4225 31.64 42.467 35.1232C49.3664 30.9082 57.3697 28.2712 66.0012 28.2712C74.393 28.2712 82.1909 30.5932 88.9579 34.3697C91.0983 31.305 94.7456 29.2869 98.8852 29.2869C105.476 29.2869 110.819 34.4026 110.819 40.7132C110.819 44.406 108.989 47.6897 106.151 49.7786C111.135 56.7794 114.001 64.5778 114.001 71.6912Z" fill="#FFCF63"/>
<circle cx="31.8959" cy="41.0606" r="7.30827" fill="#FFE7B1"/>
<circle cx="100.106" cy="41.0606" r="7.30827" fill="#FFE7B1"/>
<path fill-rule="evenodd" clip-rule="evenodd" d="M33.4156 99.7192C33.1435 98.4325 33.0012 97.114 33.0012 95.7712C33.0012 81.6879 48.6565 70.2712 65.5012 70.2712C82.3459 70.2712 98.0012 81.6879 98.0012 95.7712C98.0012 97.079 97.8662 98.3638 97.6078 99.6187C89.2468 105.513 78.2573 109.271 66.0012 109.271C53.2607 109.271 41.8889 105.603 33.4156 99.7192Z" fill="#FFE7B1"/>
<g style="mix-blend-mode:multiply" opacity="0.5">
<path fill-rule="evenodd" clip-rule="evenodd" d="M43.4993 34.6555C42.1542 39.1704 41.2377 45.2021 45.0011 47.2711C52.2768 51.2712 59.9224 42.3905 59.9224 42.3905C59.9224 42.3905 58.5011 52.2714 67.0011 52.2712C75.5011 52.2711 74.3962 42.3905 74.3962 42.3905C74.3962 42.3905 79.2642 51.1892 86.5011 48.2711C91.1738 46.387 89.6039 39.0146 87.9047 34.0269C87.8949 34.0408 87.8852 34.0547 87.8755 34.0686C81.4275 30.4785 73.9973 28.2712 66.0012 28.2712C57.7766 28.2712 50.1506 30.778 43.5765 34.7848C43.5511 34.7415 43.5253 34.6985 43.4993 34.6555Z" fill="#FFCF63"/>
</g>
<path d="M66.1354 71.683V77.7156C66.1354 79.6857 67.7325 81.2827 69.7025 81.2827H70.2009C71.8957 81.2827 73.2697 79.9088 73.2697 78.2139V78.2139" stroke="#6B4A32" stroke-width="2" stroke-linecap="round" stroke-linejoin="round"/>
<path d="M66.1354 71.683V77.7156C66.1354 79.6857 64.5384 81.2827 62.5683 81.2827H62.07C60.3752 81.2827 59.0012 79.9088 59.0012 78.2139V78.2139" stroke="#6B4A32" stroke-width="2" stroke-linecap="round" stroke-linejoin="round"/>
<path d="M73.1189 72.2228C73.1189 74.4702 69.9585 76.292 66.0601 76.292C62.1616 76.292 59.0012 74.4702 59.0012 72.2228C59.0012 69.9754 62.1616 67.2712 66.0601 67.2712C69.9585 67.2712 73.1189 69.9754 73.1189 72.2228Z" fill="#6B4A32"/>
<ellipse cx="62.2637" cy="70.4473" rx="1.02344" ry="0.983047" fill="white"/>
<circle cx="41.0012" cy="66.2712" r="8" fill="#6B4A32"/>
<circle cx="43.702" cy="64.7369" r="2.76923" transform="rotate(-150 43.702 64.7369)" fill="white"/>
<circle cx="39.9794" cy="69.6296" r="1.84615" transform="rotate(-150 39.9794 69.6296)" fill="white"/>
<circle cx="92.0012" cy="66.2712" r="8" fill="#6B4A32"/>
<circle cx="94.702" cy="64.7369" r="2.76923" transform="rotate(-150 94.702 64.7369)" fill="white"/>
<circle cx="90.9794" cy="69.6296" r="1.84615" transform="rotate(-150 90.9794 69.6296)" fill="white"/>
<circle cx="32.5012" cy="82.7712" r="7.5" fill="#FEB1AA"/>
<circle cx="99.5012" cy="82.7712" r="7.5" fill="#FEB1AA"/>
<circle cx="45.2512" cy="80.5212" r="1.25" fill="#6B4A32" fill-opacity="0.7"/>
<circle cx="49.2512" cy="81.5212" r="1.25" fill="#6B4A32" fill-opacity="0.7"/>
<circle cx="46.2512" cy="84.5212" r="1.25" fill="#6B4A32" fill-opacity="0.7"/>
<circle cx="1.25" cy="1.25" r="1.25" transform="matrix(-1 0 0 1 88.0012 79.2712)" fill="#6B4A32" fill-opacity="0.7"/>
<circle cx="1.25" cy="1.25" r="1.25" transform="matrix(-1 0 0 1 84.0012 80.2712)" fill="#6B4A32" fill-opacity="0.7"/>
<circle cx="1.25" cy="1.25" r="1.25" transform="matrix(-1 0 0 1 87.0012 83.2712)" fill="#6B4A32" fill-opacity="0.7"/>
<path fill-rule="evenodd" clip-rule="evenodd" d="M17.0926 5.61774C16.52 5.24297 15.8873 5.15503 15.3567 5.37642C14.826 5.59782 14.4435 6.10939 14.307 6.77996C14.1817 7.396 14.2654 8.10138 14.5428 8.76619C14.8202 9.431 15.2626 9.98673 15.7887 10.331C16.3612 10.7057 16.994 10.7937 17.5246 10.5723C18.0552 10.3509 18.4377 9.83935 18.5742 9.16877C18.6995 8.55274 18.6158 7.84735 18.3384 7.18255C18.061 6.51774 17.6186 5.96198 17.0926 5.61774ZM19.644 12.0116C18.1869 11.246 16.6934 11.1127 15.4385 11.6364C14.1835 12.16 13.2276 13.3153 12.7468 14.8894C12.3146 16.3043 12.3477 17.8464 12.8351 19.0147C13.0719 19.5821 13.4257 19.942 13.8868 20.0843C14.3419 20.2248 14.8274 20.134 15.3248 19.9264C15.8541 19.7056 16.3968 19.3526 16.93 19.0058C17.396 18.7027 17.8361 18.4164 18.2034 18.2631C18.5205 18.1308 19.0021 18.0273 19.5119 17.9177C20.7035 17.6616 22.054 17.3713 22.5269 16.4672C22.7517 16.0374 22.7473 15.5357 22.5139 14.9763C22.0265 13.8081 20.9536 12.6998 19.644 12.0116ZM11.0469 7.1747C11.5775 6.9533 12.2102 7.04125 12.7828 7.41602C13.3088 7.76028 13.7512 8.31603 14.0286 8.98083C14.306 9.64566 14.3897 10.351 14.2644 10.9671C14.128 11.6377 13.7454 12.1492 13.2148 12.3706C12.6842 12.592 12.0515 12.504 11.4789 12.1293C10.9529 11.785 10.5104 11.2293 10.233 10.5645C9.95566 9.89967 9.87194 9.19428 9.99726 8.57825C10.1337 7.90769 10.5162 7.3961 11.0469 7.1747ZM22.3631 8.20671C22.0174 7.7802 21.5636 7.55476 21.0856 7.57196C20.7009 7.58581 20.3343 7.76362 20.0534 8.07268C19.6662 8.49854 19.4669 9.1275 19.5067 9.79823C19.5392 10.3463 19.7293 10.8607 20.0421 11.2465C20.3879 11.6731 20.8416 11.8985 21.3197 11.8813C21.4851 11.8753 21.6472 11.8391 21.8005 11.7751C22.0038 11.6903 22.1918 11.5567 22.3519 11.3806C22.7391 10.9547 22.9384 10.3257 22.8986 9.65503L22.8986 9.655C22.8661 9.10694 22.6759 8.59258 22.3631 8.20671ZM9.65927 12.4094C10.2343 12.4338 10.8215 12.7346 11.2703 13.2347C11.6369 13.6434 11.8688 14.1404 11.923 14.6341C11.9829 15.1798 11.824 15.6609 11.4754 15.9886C11.3548 16.102 11.2151 16.1917 11.0617 16.2556C10.8584 16.3405 10.6313 16.3801 10.3934 16.37C9.81841 16.3456 9.23124 16.0448 8.78244 15.5448L8.78243 15.5447C8.41574 15.1361 8.18392 14.6391 8.12971 14.1454C8.06979 13.5996 8.22874 13.1186 8.57726 12.7908C8.8577 12.5272 9.24196 12.3917 9.65927 12.4094Z" fill="#BE7E40" fill-opacity="0.74"/>
<path fill-rule="evenodd" clip-rule="evenodd" d="M115.477 114.618C116.049 114.243 116.682 114.155 117.213 114.376C117.743 114.598 118.126 115.109 118.262 115.78C118.388 116.396 118.304 117.101 118.027 117.766C117.749 118.431 117.307 118.987 116.781 119.331C116.208 119.706 115.575 119.794 115.045 119.572C114.514 119.351 114.132 118.839 113.995 118.169C113.87 117.553 113.954 116.847 114.231 116.183C114.508 115.518 114.951 114.962 115.477 114.618ZM112.925 121.012C114.382 120.246 115.876 120.113 117.131 120.636C118.386 121.16 119.342 122.315 119.823 123.889C120.255 125.304 120.222 126.846 119.734 128.015C119.497 128.582 119.144 128.942 118.683 129.084C118.227 129.225 117.742 129.134 117.245 128.926C116.715 128.706 116.173 128.353 115.639 128.006C115.173 127.703 114.733 127.416 114.366 127.263C114.049 127.131 113.567 127.027 113.057 126.918C111.866 126.662 110.515 126.371 110.042 125.467C109.818 125.037 109.822 124.536 110.055 123.976C110.543 122.808 111.616 121.7 112.925 121.012ZM121.522 116.175C120.992 115.953 120.359 116.041 119.787 116.416C119.261 116.76 118.818 117.316 118.541 117.981C118.263 118.646 118.18 119.351 118.305 119.967C118.441 120.638 118.824 121.149 119.355 121.371C119.885 121.592 120.518 121.504 121.09 121.129C121.616 120.785 122.059 120.229 122.336 119.564C122.614 118.9 122.697 118.194 122.572 117.578C122.436 116.908 122.053 116.396 121.522 116.175ZM110.206 117.207C110.552 116.78 111.006 116.555 111.484 116.572C111.868 116.586 112.235 116.764 112.516 117.073C112.903 117.499 113.102 118.128 113.063 118.798C113.03 119.346 112.84 119.861 112.527 120.247C112.181 120.673 111.728 120.898 111.25 120.881C111.084 120.875 110.922 120.839 110.769 120.775C110.566 120.69 110.378 120.557 110.217 120.381C109.83 119.955 109.631 119.326 109.671 118.655L109.671 118.655C109.703 118.107 109.893 117.593 110.206 117.207ZM122.91 121.409C122.335 121.434 121.748 121.735 121.299 122.235C120.932 122.643 120.701 123.14 120.646 123.634C120.586 124.18 120.745 124.661 121.094 124.989C121.214 125.102 121.354 125.192 121.508 125.256C121.711 125.34 121.938 125.38 122.176 125.37C122.751 125.346 123.338 125.045 123.787 124.545L123.787 124.545C124.154 124.136 124.385 123.639 124.44 123.145C124.5 122.6 124.341 122.119 123.992 121.791C123.712 121.527 123.327 121.392 122.91 121.409Z" fill="#BE7E40" fill-opacity="0.74"/>
<path d="M85.7034 26.2166C85.7168 26.0743 85.7237 25.9301 85.7237 25.7843C85.7237 23.2918 83.7167 21.2712 81.2409 21.2712C78.7651 21.2712 76.7581 23.2918 76.7581 25.7843C76.7581 26.0263 76.777 26.2638 76.8135 26.4955C75.32 25.5919 73.3867 25.5754 71.8875 26.6079C69.8595 28.0046 69.3938 30.792 70.8473 32.8338C71.6222 33.9223 72.7862 34.5791 74.0114 34.7435C73.8869 34.8802 73.7694 35.0257 73.6596 35.1798C72.2061 37.2216 72.6718 40.009 74.6999 41.4058C76.7279 42.8025 79.5503 42.2796 81.0038 40.2378C81.0822 40.1276 81.1551 40.0152 81.2224 39.901C81.2898 40.0152 81.3626 40.1276 81.4411 40.2378C82.8946 42.2796 85.717 42.8025 87.745 41.4058C89.773 40.009 90.2388 37.2216 88.7852 35.1798C88.6562 34.9985 88.5163 34.8292 88.3671 34.6721C89.4431 34.4305 90.4421 33.8034 91.1324 32.8338C92.5859 30.792 92.1202 28.0046 90.0921 26.6079C88.7672 25.6954 87.1032 25.6022 85.7034 26.2166Z" fill="white"/>
<g style="mix-blend-mode:multiply">
<circle cx="81.4942" cy="32.218" r="3.38163" transform="rotate(24.6549 81.4942 32.218)" fill="#FFCE05" fill-opacity="0.6"/>
</g>
<defs>
<linearGradient id="paint0_linear_215_46" x1="65.5012" y1="0.271179" x2="65.5012" y2="124.271" gradientUnits="userSpaceOnUse">
<stop stop-color="#764C24"/>
<stop offset="1" stop-color="#58391B"/>
</linearGradient>
</defs>
</svg>
