<svg width="117" height="137" viewBox="0 0 117 137" fill="none" xmlns="http://www.w3.org/2000/svg">
<path d="M56.3189 4.37561C56.2874 2.18045 57.4496 0.362615 58.9147 0.315362C60.3799 0.268109 61.5933 2.00933 61.6248 4.20449L61.6696 7.31971L62.3743 4.4189C62.8755 2.35564 64.3982 1.29182 65.7754 2.04279C67.1525 2.79375 67.8626 5.07512 67.3613 7.13838L64.9411 17.1006C64.4399 19.1639 62.9172 20.2277 61.54 19.4768C61.0991 19.2363 60.7266 18.839 60.4403 18.3422C60.0685 18.661 59.6397 18.8491 59.1812 18.8639C58.8056 18.876 58.4465 18.7706 58.1196 18.57C57.875 19.6913 57.3014 20.6389 56.5042 21.0736C55.127 21.8245 53.6043 20.7607 53.103 18.6975L50.6828 8.7352C50.1816 6.67194 50.8917 4.39057 52.2688 3.63961C53.646 2.88864 55.1687 3.95247 55.6699 6.01572L56.3847 8.9581L56.3189 4.37561Z" fill="#FAFAFA"/>
<path d="M5.52209 83.3145C5.52209 112.586 29.251 136.314 58.5221 136.314V136.314C87.7932 136.314 111.522 112.586 111.522 83.3145V69.3145H5.52209V83.3145Z" fill="#A97337"/>
<g style="mix-blend-mode:multiply">
<path fill-rule="evenodd" clip-rule="evenodd" d="M52.0826 116.44C52.0826 116.971 51.9424 117.497 51.6701 117.987C51.3977 118.477 50.9984 118.923 50.4952 119.298C49.9919 119.673 49.3944 119.971 48.7368 120.174C48.0792 120.377 47.3744 120.481 46.6626 120.481C45.9509 120.481 45.2461 120.377 44.5885 120.174C43.9309 119.971 43.3334 119.673 42.8301 119.298C42.3268 118.923 41.9276 118.477 41.6552 117.987C41.3828 117.497 41.2426 116.971 41.2426 116.44L46.6626 116.44H52.0826ZM62.9227 116.448C62.9213 116.976 62.7812 117.499 62.5101 117.987C62.2377 118.477 61.8385 118.923 61.3352 119.298C60.8319 119.673 60.2344 119.971 59.5768 120.174C58.9193 120.377 58.2145 120.481 57.5027 120.481C56.7909 120.481 56.0861 120.377 55.4285 120.174C54.771 119.971 54.1735 119.673 53.6702 119.298C53.1669 118.923 52.7676 118.477 52.4953 117.987C52.2229 117.497 52.0827 116.971 52.0827 116.44L57.5027 116.44L62.9227 116.44L62.9227 116.44H68.3427H73.7627C73.7627 116.971 73.6225 117.497 73.3501 117.987C73.0777 118.477 72.6785 118.923 72.1752 119.298C71.6719 119.673 71.0744 119.971 70.4168 120.174C69.7593 120.377 69.0545 120.481 68.3427 120.481C67.6309 120.481 66.9261 120.377 66.2685 120.174C65.611 119.971 65.0135 119.673 64.5102 119.298C64.0069 118.923 63.6076 118.477 63.3353 117.987C63.0642 117.499 62.9241 116.976 62.9227 116.448Z" fill="#4B2807" fill-opacity="0.5"/>
</g>
<g style="mix-blend-mode:multiply">
<path fill-rule="evenodd" clip-rule="evenodd" d="M52.0826 107.55C52.0826 108.063 51.9424 108.571 51.6701 109.045C51.3977 109.519 50.9984 109.95 50.4952 110.312C49.9919 110.675 49.3944 110.963 48.7368 111.159C48.0792 111.356 47.3744 111.457 46.6626 111.457C45.9509 111.457 45.2461 111.356 44.5885 111.159C43.9309 110.963 43.3334 110.675 42.8301 110.312C42.3268 109.95 41.9276 109.519 41.6552 109.045C41.3828 108.571 41.2426 108.063 41.2426 107.55L46.6626 107.55H52.0826ZM62.9227 107.558C62.9213 108.068 62.7812 108.574 62.5101 109.045C62.2377 109.519 61.8385 109.95 61.3352 110.312C60.8319 110.675 60.2344 110.963 59.5768 111.159C58.9193 111.356 58.2145 111.457 57.5027 111.457C56.7909 111.457 56.0861 111.356 55.4285 111.159C54.771 110.963 54.1735 110.675 53.6702 110.312C53.1669 109.95 52.7676 109.519 52.4953 109.045C52.2229 108.571 52.0827 108.063 52.0827 107.55L57.5027 107.55L62.9227 107.55L62.9227 107.55H68.3427H73.7627C73.7627 108.063 73.6225 108.571 73.3501 109.045C73.0777 109.519 72.6785 109.95 72.1752 110.312C71.6719 110.675 71.0744 110.963 70.4168 111.159C69.7593 111.356 69.0545 111.457 68.3427 111.457C67.6309 111.457 66.9261 111.356 66.2685 111.159C65.611 110.963 65.0135 110.675 64.5102 110.312C64.0069 109.95 63.6076 109.519 63.3353 109.045C63.0642 108.574 62.9241 108.068 62.9227 107.558Z" fill="#4B2807" fill-opacity="0.5"/>
</g>
<g style="mix-blend-mode:multiply">
<path fill-rule="evenodd" clip-rule="evenodd" d="M51.36 125.331V125.331L58.0446 125.331H64.7293C64.7293 126.652 64.025 127.92 62.7714 128.855C61.5178 129.789 59.8175 130.314 58.0446 130.314C56.2717 130.314 54.5715 129.789 53.3179 128.855C52.0661 127.921 51.3621 126.656 51.36 125.337C51.3589 125.989 51.186 126.635 50.8511 127.238C50.5152 127.842 50.0228 128.392 49.4021 128.855C48.7813 129.317 48.0444 129.685 47.2334 129.935C46.4224 130.186 45.5531 130.314 44.6753 130.314C43.7974 130.314 42.9282 130.186 42.1172 129.935C41.3061 129.685 40.5692 129.317 39.9485 128.855C39.3278 128.392 38.8354 127.842 38.4994 127.238C38.1635 126.633 37.9906 125.985 37.9906 125.331L44.6753 125.331H51.36ZM77.5899 127.238C77.9258 126.633 78.0987 125.985 78.0987 125.331H71.414L64.7293 125.331C64.7293 125.985 64.9022 126.633 65.2382 127.238C65.5741 127.843 66.0665 128.392 66.6872 128.855C67.308 129.318 68.0449 129.685 68.8559 129.935C69.6669 130.186 70.5362 130.314 71.414 130.314C72.2919 130.314 73.1611 130.186 73.9721 129.935C74.7832 129.685 75.5201 129.318 76.1408 128.855C76.7615 128.392 77.2539 127.843 77.5899 127.238Z" fill="#4B2807" fill-opacity="0.5"/>
</g>
<path fill-rule="evenodd" clip-rule="evenodd" d="M21.674 69.3144H5.52209V83.3144C5.52209 104.229 17.6362 122.314 35.2305 130.936C40.5038 124.179 43.7203 115.186 43.7203 105.314C43.7203 88.5943 34.4935 74.3963 21.674 69.3144ZM94.4152 69.3144H111.522V83.3144C111.522 104.502 99.0895 122.786 81.1217 131.268C75.6925 124.476 72.3689 115.349 72.3689 105.314C72.3689 88.5943 81.5957 74.3963 94.4152 69.3144Z" fill="#62401A"/>
<path d="M58.0221 14.2561C27.3592 14.2561 2.40124 37.1927 1.54482 65.7914C1.52974 66.0179 1.52209 66.2463 1.52209 66.4764V91.6462C1.52209 97.6203 6.67951 102.463 13.0415 102.463C19.4035 102.463 24.5609 97.6203 24.5609 91.6462V82.1677L24.5609 92.1613C24.5609 97.8509 29.4728 102.463 35.5318 102.463C41.5909 102.463 46.5027 97.8509 46.5027 92.1613L46.5027 82.1677V91.6462C46.5027 97.6203 51.6601 102.463 58.0221 102.463C64.3841 102.463 69.5415 97.6203 69.5415 91.6462L69.5415 92.1613C69.5415 97.8509 74.4534 102.463 80.5124 102.463C86.5715 102.463 91.4833 97.8509 91.4833 92.1613V91.6682C91.4959 97.6322 96.6485 102.463 103.003 102.463C109.365 102.463 114.522 97.6203 114.522 91.6462V66.4764C114.522 66.2463 114.514 66.0179 114.499 65.7914C113.643 37.1927 88.685 14.2561 58.0221 14.2561Z" fill="#DBDBDB"/>
<path fill-rule="evenodd" clip-rule="evenodd" d="M58.0221 9.47629C26.818 9.47629 1.52209 34.7722 1.52209 65.9763V68.8338V77.3879V86.1641C1.52209 92.5261 6.67952 97.6835 13.0415 97.6835C19.4035 97.6835 24.5609 92.5261 24.5609 86.1641V77.3879L24.561 86.7127C24.561 92.7717 29.4728 97.6835 35.5318 97.6835C41.5909 97.6835 46.5027 92.7717 46.5027 86.7127L46.5027 77.3879V86.1641C46.5027 92.5261 51.6601 97.6835 58.0221 97.6835C64.3741 97.6835 69.5253 92.5423 69.5415 86.1941V86.7127C69.5415 92.7717 74.4533 97.6835 80.5124 97.6835C86.5714 97.6835 91.4833 92.7717 91.4833 86.7127L91.4833 86.1641C91.4833 92.5261 96.6407 97.6835 103.003 97.6835C109.365 97.6835 114.522 92.5261 114.522 86.1641V77.3879V68.8338V65.9763C114.522 34.7722 89.2262 9.47629 58.0221 9.47629Z" fill="#FAFAFA"/>
<path d="M60.5639 96.2849C60.1327 96.4744 59.6435 96.5742 59.1455 96.5742H57.8525C57.3545 96.5742 56.8653 96.4744 56.4341 96.2849L45.8347 91.6262C43.8485 90.7532 41.3897 91.9443 41.5348 93.6867C41.9304 98.4396 41.9225 102.188 41.5282 106.941C41.3838 108.682 43.8399 109.87 45.824 108.998L56.8483 104.152C57.2795 103.963 57.7687 103.863 58.2667 103.863H58.7313C59.2293 103.863 59.7185 103.963 60.1497 104.152L71.2279 109.021C73.2014 109.889 75.6467 108.718 75.5172 106.986C75.1591 102.199 75.1425 98.4363 75.5035 93.6517C75.6345 91.9159 73.1836 90.7382 71.2057 91.6076L60.5639 96.2849Z" fill="#FFCEB9"/>
<path d="M44.5471 69.7039C42.5238 68.0001 42.6819 64.8367 44.8649 63.343L57.133 54.949C58.5587 53.9736 60.4494 54.0235 61.8216 55.0728L72.78 63.4528C74.7405 64.952 74.8889 67.8516 73.0917 69.5431L62.1157 79.8734C60.6372 81.2649 58.3507 81.328 56.7977 80.0202L44.5471 69.7039Z" fill="#FFD500"/>
<ellipse cx="53.0221" cy="67.6781" rx="1.5" ry="1.36364" fill="#512E0C"/>
<ellipse cx="64.7633" cy="67.6781" rx="1.5" ry="1.36364" fill="#512E0C"/>
<circle cx="32.5221" cy="52.3144" r="12" fill="#FFD500"/>
<circle cx="32.5221" cy="52.3144" r="8" fill="#323232"/>
<circle cx="35.5221" cy="49.9811" r="3" fill="white"/>
<circle cx="30.5221" cy="55.6477" r="2" fill="white"/>
<circle cx="84.5221" cy="52.3144" r="12" fill="#FFD500"/>
<circle cx="84.5221" cy="52.3144" r="8" fill="#323232"/>
<circle cx="87.5221" cy="49.9811" r="3" fill="white"/>
<circle cx="82.5221" cy="55.6477" r="2" fill="white"/>
<ellipse cx="24.5221" cy="70.2235" rx="6" ry="4" fill="#FFCEB9"/>
<ellipse cx="92.5221" cy="70.2235" rx="6" ry="4" fill="#FFCEB9"/>
<path d="M96.0988 28.2539L97.1678 23.8673C97.4861 22.5612 96.4381 21.3144 95.0221 21.3144C93.606 21.3144 92.5581 22.5612 92.8764 23.8673L93.9453 28.2539L94.4672 30.4946L95.741 30.4163L96.0988 28.2539Z" fill="#FFE591"/>
<path d="M97.1911 31.3263L101.825 32.3381C103.205 32.6394 104.522 31.6474 104.522 30.307C104.522 28.9666 103.205 27.9746 101.825 28.2758L97.1911 29.2877L94.9336 29.7267V30.7362L97.1911 31.3263Z" fill="#FFE591"/>
<path d="M92.8531 31.3263L88.219 32.3382C86.8393 32.6395 85.5221 31.6475 85.5221 30.307C85.5221 28.9666 86.8393 27.9747 88.219 28.2759L92.8531 29.2877L94.371 29.6348L94.6605 30.935L92.8531 31.3263Z" fill="#FFE591"/>
<path d="M93.7211 27.3341L91.7288 24.3172C90.9782 23.1807 89.3058 23.0004 88.3046 23.9482C87.3033 24.896 87.4937 26.4791 88.6944 27.1896L91.8814 29.0756L94.1361 30.4946L95.0221 29.6187L93.7211 27.3341Z" fill="#FFE591"/>
<path d="M98.1627 29.0756L101.35 27.1897C102.551 26.4792 102.741 24.8961 101.74 23.9483C100.738 23.0005 99.066 23.1807 98.3154 24.3173L96.323 27.3342L94.6606 29.8606L95.5014 30.9715L98.1627 29.0756Z" fill="#FFE591"/>
<path d="M98.1627 31.5385L101.35 33.4244C102.551 34.1349 102.741 35.718 101.74 36.6658C100.738 37.6136 99.066 37.4334 98.3154 36.2968L96.323 33.2799L94.7587 31.274L96.0324 30.1619L98.1627 31.5385Z" fill="#FFE591"/>
<path d="M93.7211 33.28L91.7288 36.2969C90.9782 37.4334 89.3058 37.6137 88.3046 36.6659C87.3033 35.7181 87.4937 34.135 88.6944 33.4245L91.8814 31.5386L94.6605 29.9319L95.3734 30.4981L93.7211 33.28Z" fill="#FFE591"/>
<path d="M96.2421 32.4856L97.294 36.8022C97.6072 38.0874 96.5759 39.3144 95.1825 39.3144C93.7891 39.3144 92.7579 38.0874 93.071 36.8022L94.1229 32.4856L94.5274 30.1465L95.5531 30.0404L96.2421 32.4856Z" fill="#FFE591"/>
<path d="M95.0224 32.4247C96.2578 32.4247 97.2592 31.4768 97.2592 30.3074C97.2592 29.138 96.2578 28.1901 95.0224 28.1901C93.7871 28.1901 92.7856 29.138 92.7856 30.3074C92.7856 31.4768 93.7871 32.4247 95.0224 32.4247Z" fill="#FFD500"/>
<g style="mix-blend-mode:multiply">
<path fill-rule="evenodd" clip-rule="evenodd" d="M94.4562 32.3563C94.637 32.401 94.8268 32.4247 95.0225 32.4247C96.2578 32.4247 97.2593 31.4768 97.2593 30.3074C97.2593 29.138 96.2578 28.1901 95.0225 28.1901C94.8939 28.1901 94.7679 28.2003 94.6453 28.22C95.6064 28.4574 96.3158 29.2848 96.3158 30.2689C96.3158 31.3166 95.5119 32.1866 94.4562 32.3563Z" fill="#FED402" fill-opacity="0.5"/>
</g>
<path d="M80.8713 12.5671L82.2204 6.71831C82.6222 4.97685 81.2995 3.31442 79.5123 3.31442C77.7251 3.31442 76.4024 4.97685 76.8042 6.71831L78.1533 12.5671L78.8119 15.5547L80.4197 15.4503L80.8713 12.5671Z" fill="#FFE591"/>
<path d="M82.2498 16.6636L88.0986 18.0127C89.8401 18.4144 91.5025 17.0917 91.5025 15.3045C91.5025 13.5173 89.8401 12.1947 88.0986 12.5963L82.2498 13.9454L79.4006 14.5308V15.8768L82.2498 16.6636Z" fill="#FFE591"/>
<path d="M76.7748 16.6636L70.926 18.0128C69.1845 18.4145 67.5221 17.0918 67.5221 15.3046C67.5221 13.5174 69.1845 12.1948 70.926 12.5964L76.7748 13.9455L78.6905 14.4083L79.056 16.1418L76.7748 16.6636Z" fill="#FFE591"/>
<path d="M77.8703 11.3406L75.3558 7.31817C74.4084 5.80273 72.2977 5.56244 71.0339 6.82616C69.7702 8.08988 70.0105 10.2007 71.5259 11.148L75.5484 13.6627L78.394 15.5547L79.5124 14.3868L77.8703 11.3406Z" fill="#FFE591"/>
<path d="M83.4762 13.6627L87.4987 11.1481C89.0141 10.2007 89.2544 8.08998 87.9907 6.82626C86.727 5.56254 84.6162 5.80282 83.6689 7.31827L81.1543 11.3407L79.0561 14.7094L80.1172 16.1906L83.4762 13.6627Z" fill="#FFE591"/>
<path d="M83.4762 16.9465L87.4987 19.4611C89.0141 20.4084 89.2544 22.5192 87.9907 23.7829C86.727 25.0466 84.6162 24.8064 83.6689 23.2909L81.1543 19.2685L79.1798 16.5938L80.7874 15.111L83.4762 16.9465Z" fill="#FFE591"/>
<path d="M77.8703 19.2685L75.3558 23.291C74.4084 24.8065 72.2977 25.0467 71.0339 23.783C69.7702 22.5193 70.0105 20.4085 71.5259 19.4612L75.5484 16.9466L79.056 14.8044L79.9557 15.5593L77.8703 19.2685Z" fill="#FFE591"/>
<path d="M81.0521 18.2093L82.3797 23.9648C82.775 25.6785 81.4734 27.3144 79.7147 27.3144C77.9561 27.3144 76.6545 25.6785 77.0498 23.9648L78.3774 18.2093L78.8879 15.0905L80.1825 14.9491L81.0521 18.2093Z" fill="#FFE591"/>
<path d="M79.5127 18.1282C81.0719 18.1282 82.3358 16.8642 82.3358 15.3051C82.3358 13.7459 81.0719 12.482 79.5127 12.482C77.9535 12.482 76.6896 13.7459 76.6896 15.3051C76.6896 16.8642 77.9535 18.1282 79.5127 18.1282Z" fill="#FFD500"/>
<g style="mix-blend-mode:multiply">
<path fill-rule="evenodd" clip-rule="evenodd" d="M78.798 18.0369C79.0263 18.0965 79.2658 18.1282 79.5127 18.1282C81.0719 18.1282 82.3358 16.8642 82.3358 15.3051C82.3358 13.7459 81.0719 12.482 79.5127 12.482C79.3505 12.482 79.1914 12.4956 79.0367 12.5219C80.2498 12.8384 81.145 13.9416 81.145 15.2538C81.145 16.6507 80.1305 17.8107 78.798 18.0369Z" fill="#FED402" fill-opacity="0.5"/>
</g>
<path d="M48.9864 51.1001C48.9864 63.4949 38.4696 73.6359 25.3792 73.6359C12.2889 73.6359 1.77209 63.4949 1.77209 51.1001C1.77209 38.7053 12.2889 28.5644 25.3792 28.5644C38.4696 28.5644 48.9864 38.7053 48.9864 51.1001Z" stroke="#323232" stroke-width="2.5"/>
<path d="M115.272 51.1001C115.272 63.4949 104.755 73.6359 91.665 73.6359C78.5747 73.6359 68.0579 63.4949 68.0579 51.1001C68.0579 38.7053 78.5747 28.5644 91.665 28.5644C104.755 28.5644 115.272 38.7053 115.272 51.1001Z" stroke="#323232" stroke-width="2.5"/>
<path d="M49.1316 49.3527C56.2055 48.148 60.3569 48.1697 67.9125 49.3527V53.743C60.6974 52.645 56.5833 52.6296 49.1316 53.743V49.3527Z" fill="#242424"/>
</svg>
