<svg width="131" height="178" viewBox="0 0 131 178" fill="none" xmlns="http://www.w3.org/2000/svg">
<circle cx="17" cy="86.038" r="14" fill="#9B7963"/>
<circle cx="17" cy="86.038" r="10" fill="#3B2F1E"/>
<circle cx="117" cy="86.038" r="14" fill="#9B7963"/>
<circle cx="117" cy="86.038" r="10" fill="#3B2F1E"/>
<path d="M65.1607 50.0992C65.1218 47.9041 66.5574 46.0862 68.3674 46.039C70.1773 45.9917 71.6761 47.7329 71.7151 49.9281L71.7704 53.0433L72.6409 50.1425C73.2601 48.0792 75.1411 47.0154 76.8423 47.7664C78.5435 48.5174 79.4206 50.7987 78.8014 52.862L75.8118 62.8242C75.1926 64.8875 73.3116 65.9513 71.6104 65.2004C71.0657 64.9599 70.6056 64.5626 70.2519 64.0658C69.7926 64.3846 69.2629 64.5727 68.6966 64.5875C68.2325 64.5996 67.7889 64.4942 67.3851 64.2936C67.083 65.4149 66.3744 66.3625 65.3896 66.7972C63.6884 67.5481 61.8074 66.4843 61.1882 64.4211L58.1986 54.4588C57.5794 52.3955 58.4565 50.1142 60.1577 49.3632C61.8589 48.6122 63.7399 49.6761 64.3591 51.7393L65.2421 54.6817L65.1607 50.0992Z" fill="#9B7963"/>
<ellipse cx="67" cy="108.038" rx="55" ry="51" fill="#9B7963"/>
<path fill-rule="evenodd" clip-rule="evenodd" d="M14.9126 124.457C20.2238 115.26 30.4044 109.038 42.0909 109.038C48.6589 109.038 54.7512 111.003 59.7708 114.357C64.43 117.471 71.57 117.471 76.2293 114.357C81.2489 111.003 87.3412 109.038 93.9092 109.038C104.704 109.038 114.213 114.346 119.788 122.405C113.097 143.576 91.9958 159.038 67 159.038C42.8194 159.038 22.2833 144.568 14.9126 124.457Z" fill="#F5E8CF"/>
<path d="M60 126.538L63.5 127.538L68.5 125.038L73 127.538L77 126.538L76.6497 130.566C76.2821 134.794 72.7433 138.038 68.5 138.038C64.2567 138.038 60.7179 134.794 60.3503 130.566L60 126.538Z" fill="#FEB1AA"/>
<path d="M68.5 113.475V122.353C68.5 125.253 70.8505 127.603 73.75 127.603H74.4835C76.9779 127.603 79 125.581 79 123.087V123.087" stroke="#3B2F1E" stroke-width="2.5" stroke-linecap="round" stroke-linejoin="round"/>
<path d="M68.5 113.475V122.353C68.5 125.253 66.1495 127.603 63.25 127.603H62.5166C60.0221 127.603 58 125.581 58 123.087V123.087" stroke="#3B2F1E" stroke-width="2.5" stroke-linecap="round" stroke-linejoin="round"/>
<path d="M78.7781 114.269C78.7781 117.577 74.1268 120.258 68.3891 120.258C62.6513 120.258 58 117.577 58 114.269C58 110.962 62.6513 106.038 68.3891 106.038C74.1268 106.038 78.7781 110.962 78.7781 114.269Z" fill="#3B2F1E"/>
<ellipse cx="63" cy="111.538" rx="2" ry="1.5" transform="rotate(-25.5447 63 111.538)" fill="white"/>
<ellipse cx="36.5" cy="115.038" rx="5.5" ry="3" fill="#FFCEB9"/>
<ellipse cx="98.5" cy="115.038" rx="5.5" ry="3" fill="#FFCEB9"/>
<circle cx="37.5" cy="105.538" r="7.5" fill="#3B2F1E"/>
<circle cx="34.5" cy="103.538" r="2.5" fill="white"/>
<circle cx="37.5" cy="107.538" r="1.5" fill="white"/>
<circle cx="96.5" cy="105.538" r="7.5" fill="#3B2F1E"/>
<circle cx="93.5" cy="103.538" r="2.5" fill="white"/>
<circle cx="96.5" cy="107.538" r="1.5" fill="white"/>
<path d="M32.735 120.985L10.735 118.985M33.4981 125.458L10.735 126.985M34.5421 129.744L11.735 134.985" stroke="#3B2F1E" stroke-width="2" stroke-linecap="round"/>
<path d="M102.265 120.985L124.265 118.985M101.502 125.458L124.265 126.985M100.458 129.744L123.265 134.985" stroke="#3B2F1E" stroke-width="2" stroke-linecap="round"/>
<circle cx="90.5" cy="78.538" r="3.75" stroke="white" stroke-width="1.5"/>
<circle cx="100" cy="64.038" r="5" stroke="white" stroke-width="2"/>
<circle cx="109.5" cy="46.538" r="6.25" stroke="white" stroke-width="2.5"/>
<path d="M7.85753 2.87281C8.94203 2.23479 9.95596 1.52871 10.8927 0.766838C13.5992 2.00382 16.7286 2.70678 19.9996 2.70678C22.6791 2.70678 25.2534 2.256 27.5831 1.41936C21.3252 9.99948 9.9623 30.3938 22.9179 52.429C37.1904 76.7045 25.7108 98.172 19.6525 106.787C19.3003 107.287 18.316 106.973 18.5257 106.427C21.7023 98.1508 22.2208 78.7288 7.85751 55.7668C-5.06261 35.1119 1.16674 15.5334 4.11175 4.70296C5.4143 4.18166 6.66732 3.57265 7.85753 2.87281Z" fill="#017B4E"/>
<path d="M27.2458 4.03806C27.9661 11.2722 29.9471 19.7268 34.3692 28.5781C45.2319 50.32 30.1915 78.8177 26.099 85.8567C25.872 86.2474 25.2544 86.0686 25.2874 85.6217C25.7632 79.1388 26.533 56.7551 16.9663 35.2717C12.7634 25.8329 13.5471 15.7352 16.103 6.88019C20.0603 6.7056 23.8431 5.72227 27.2458 4.03806Z" fill="#09A76D"/>
<path d="M107.577 176.576C107.004 176.848 106.469 177.15 105.974 177.476C104.545 176.947 102.892 176.647 101.164 176.647C99.7489 176.647 98.3892 176.839 97.1587 177.197C100.464 173.528 106.465 164.809 99.6227 155.387C92.0844 145.008 98.1476 135.829 101.347 132.145C101.533 131.931 102.053 132.066 101.943 132.299C100.265 135.838 99.9909 144.142 107.577 153.96C114.401 162.791 111.111 171.162 109.556 175.793C108.868 176.016 108.206 176.276 107.577 176.576Z" fill="#017B4E"/>
<path d="M98.2502 176.067C97.5946 176.361 96.9817 176.687 96.4154 177.038C94.7793 176.468 92.8877 176.144 90.9103 176.144C89.2906 176.144 87.7345 176.351 86.3261 176.737C90.109 172.781 96.9778 163.378 89.1462 153.217C80.5186 142.024 87.4579 132.126 91.1201 128.154C91.3331 127.923 91.9281 128.068 91.8013 128.32C89.8811 132.136 89.5676 141.091 98.2502 151.678C106.06 161.202 102.295 170.229 100.514 175.223C99.7271 175.464 98.9696 175.744 98.2502 176.067Z" fill="#02905D"/>
<path d="M112.996 177.113C113.376 174.02 114.423 170.405 116.758 166.62C122.496 157.324 114.552 145.14 112.39 142.13C112.27 141.963 111.944 142.039 111.962 142.231C112.213 145.002 112.62 154.573 107.567 163.759C105.347 167.794 105.761 172.112 107.111 175.898C109.201 175.972 111.199 176.393 112.996 177.113Z" fill="#09A76D"/>
</svg>
