<svg width="135" height="132" viewBox="0 0 135 132" fill="none" xmlns="http://www.w3.org/2000/svg">
<path d="M34.2373 21.7776C26.6683 23.5561 23.4148 60.3097 23.4148 60.3097L57.9689 52.8125C57.9689 52.8125 41.3857 20.0979 34.2373 21.7776Z" fill="#C4C4C4"/>
<g style="mix-blend-mode:multiply">
<path d="M35.8202 28.1372C30.1854 29.4613 27.7633 56.823 27.7633 56.823L53.4875 51.2416C53.4875 51.2416 41.1419 26.8868 35.8202 28.1372Z" fill="#C4C4C4"/>
</g>
<path d="M96.6261 21.7776C104.195 23.5561 107.449 60.3097 107.449 60.3097L72.8945 52.8125C72.8945 52.8125 89.4777 20.0979 96.6261 21.7776Z" fill="#C4C4C4"/>
<g style="mix-blend-mode:multiply">
<path d="M95.0432 28.1372C100.678 29.4613 103.1 56.823 103.1 56.823L77.3758 51.2416C77.3758 51.2416 89.7215 26.8868 95.0432 28.1372Z" fill="#C4C4C4"/>
</g>
<path d="M69.5699 13.0639C59.8996 25.1305 58.208 32.1843 56.686 48.9482" stroke="#5EA985" stroke-width="1.10842" stroke-linecap="round"/>
<path d="M65.3673 23.4228C63.3303 23.7372 61.2656 25.3597 61.2656 25.3597C61.2656 25.3597 63.7234 26.2843 65.7605 25.9699C67.7975 25.6555 69.8622 24.033 69.8622 24.033C69.8622 24.033 67.4044 23.1084 65.3673 23.4228Z" fill="#5EA985"/>
<path d="M58.55 21.95C59.3839 23.8349 61.488 25.406 61.488 25.406C61.488 25.406 61.7409 22.7922 60.907 20.9073C60.0732 19.0224 57.969 17.4512 57.969 17.4512C57.969 17.4512 57.7162 20.065 58.55 21.95Z" fill="#5EA985"/>
<path d="M62.9934 29.9806C60.9829 30.4347 59.0349 32.1957 59.0349 32.1957C59.0349 32.1957 61.5506 32.9487 63.5611 32.4946C65.5716 32.0406 67.5196 30.2796 67.5196 30.2796C67.5196 30.2796 65.0039 29.5266 62.9934 29.9806Z" fill="#5EA985"/>
<path d="M61.3255 36.4095C59.4293 37.2174 57.8294 39.2998 57.8294 39.2998C57.8294 39.2998 60.4395 39.5885 62.3357 38.7806C64.2319 37.9727 65.8318 35.8904 65.8318 35.8904C65.8318 35.8904 63.2218 35.6017 61.3255 36.4095Z" fill="#5EA985"/>
<path d="M55.8201 28.7422C56.7082 30.6022 58.857 32.1117 58.857 32.1117C58.857 32.1117 59.034 29.4917 58.1459 27.6317C57.2578 25.7717 55.109 24.2622 55.109 24.2622C55.109 24.2622 54.932 26.8822 55.8201 28.7422Z" fill="#5EA985"/>
<path d="M54.2265 36.5952C55.3209 38.3417 57.6279 39.5963 57.6279 39.5963C57.6279 39.5963 57.5049 36.9732 56.4104 35.2266C55.3159 33.4801 53.009 32.2255 53.009 32.2255C53.009 32.2255 53.132 34.8486 54.2265 36.5952Z" fill="#5EA985"/>
<path fill-rule="evenodd" clip-rule="evenodd" d="M66.3606 17.7989C66.4206 17.5273 66.4889 17.2647 66.5637 17.0139C66.3538 17.1703 66.1306 17.3245 65.8961 17.4741C64.1303 18.6005 62.3945 19.0365 62.0191 18.4479C61.6436 17.8593 62.7706 16.4691 64.5364 15.3426C64.7709 15.1931 65.0048 15.0557 65.2351 14.9312C64.9761 14.8934 64.7092 14.8446 64.4376 14.7845C62.3926 14.3325 60.8569 13.4134 61.0075 12.7317C61.1582 12.05 62.9383 11.8638 64.9833 12.3159C65.2549 12.376 65.5175 12.4442 65.7684 12.5191C65.612 12.3091 65.4577 12.0859 65.3082 11.8515C64.1817 10.0857 63.7457 8.3499 64.3343 7.97442C64.9229 7.59895 66.3132 8.726 67.4396 10.4918C67.5892 10.7262 67.7266 10.9602 67.851 11.1905C67.8889 10.9314 67.9377 10.6646 67.9977 10.393C68.4498 8.34791 69.3689 6.81221 70.0506 6.9629C70.7323 7.1136 70.9184 8.89362 70.4663 10.9387C70.4063 11.2103 70.338 11.4729 70.2632 11.7237C70.4731 11.5673 70.6963 11.4131 70.9308 11.2635C72.6965 10.1371 74.4323 9.70112 74.8078 10.2897C75.1833 10.8783 74.0562 12.2686 72.2905 13.395C72.056 13.5446 71.8221 13.682 71.5918 13.8064C71.8508 13.8442 72.1177 13.893 72.3893 13.9531C74.4343 14.4051 75.97 15.3242 75.8194 16.0059C75.6687 16.6876 73.8886 16.8738 71.8436 16.4217C71.572 16.3616 71.3094 16.2934 71.0585 16.2185C71.2149 16.4285 71.3692 16.6517 71.5187 16.8862C72.6452 18.6519 73.0812 20.3877 72.4926 20.7632C71.904 21.1387 70.5137 20.0116 69.3873 18.2459C69.2377 18.0114 69.1003 17.7775 68.9759 17.5472C68.938 17.8062 68.8892 18.0731 68.8292 18.3446C68.3771 20.3897 67.458 21.9254 66.7763 21.7747C66.0946 21.624 65.9085 19.844 66.3606 17.7989Z" fill="white"/>
<circle cx="68.4135" cy="14.3688" r="1.73816" transform="rotate(-167.535 68.4135 14.3688)" fill="#FFCE05"/>
<path d="M80.1296 20.8977C71.6496 33.8285 70.6358 41.0112 70.7136 57.8439" stroke="#5EA985" stroke-width="1.10842" stroke-linecap="round"/>
<path d="M76.9303 31.609C74.9324 32.1156 73.0312 33.927 73.0312 33.927C73.0312 33.927 75.5657 34.6138 77.5637 34.1073C79.5616 33.6008 81.4628 31.7894 81.4628 31.7894C81.4628 31.7894 78.9283 31.1025 76.9303 31.609Z" fill="#5EA985"/>
<path d="M70.0039 30.7906C71.0131 32.5878 73.257 33.9519 73.257 33.9519C73.257 33.9519 73.2603 31.3259 72.2512 29.5287C71.242 27.7315 68.9981 26.3674 68.9981 26.3674C68.9981 26.3674 68.9947 28.9934 70.0039 30.7906Z" fill="#5EA985"/>
<path d="M75.1902 38.3628C73.2319 39.0058 71.4601 40.944 71.4601 40.944C71.4601 40.944 74.036 41.4545 75.9943 40.8115C77.9525 40.1685 79.7244 38.2303 79.7244 38.2303C79.7244 38.2303 77.1485 37.7198 75.1902 38.3628Z" fill="#5EA985"/>
<path d="M67.9317 37.8115C68.9925 39.5787 71.275 40.8773 71.275 40.8773C71.275 40.8773 71.2023 38.2523 70.1415 36.4851C69.0807 34.7179 66.7982 33.4193 66.7982 33.4193C66.7982 33.4193 66.8709 36.0443 67.9317 37.8115Z" fill="#5EA985"/>
<path fill-rule="evenodd" clip-rule="evenodd" d="M77.3847 25.9162C77.4187 25.6402 77.4617 25.3723 77.5124 25.1155C77.3182 25.2911 77.1107 25.4658 76.8915 25.637C75.2407 26.9261 73.5542 27.5251 73.1245 26.9748C72.6948 26.4246 73.6847 24.9335 75.3354 23.6444C75.5546 23.4732 75.7744 23.3142 75.9919 23.1684C75.7304 23.1554 75.4601 23.1322 75.1841 23.0982C73.1053 22.8425 71.4892 22.0735 71.5744 21.3805C71.6597 20.6876 73.414 20.3332 75.4927 20.5889C75.7688 20.6229 76.0367 20.6659 76.2935 20.7166C76.1179 20.5224 75.9431 20.3149 75.772 20.0957C74.4829 18.4449 73.8839 16.7584 74.4342 16.3287C74.9844 15.899 76.4755 16.8889 77.7646 18.5396C77.9358 18.7588 78.0948 18.9786 78.2405 19.1961C78.2536 18.9346 78.2768 18.6643 78.3108 18.3883C78.5665 16.3095 79.3355 14.6934 80.0284 14.7786C80.7214 14.8639 81.0758 16.6182 80.8201 18.6969C80.7861 18.973 80.7431 19.2409 80.6924 19.4977C80.8865 19.3221 81.0941 19.1474 81.3133 18.9762C82.964 17.6871 84.6506 17.0881 85.0803 17.6384C85.51 18.1886 84.5201 19.6797 82.8694 20.9688C82.6502 21.14 82.4304 21.299 82.2129 21.4447C82.4744 21.4578 82.7447 21.481 83.0207 21.515C85.0995 21.7707 86.7156 22.5397 86.6303 23.2326C86.5451 23.9256 84.7908 24.28 82.712 24.0243C82.436 23.9903 82.1681 23.9473 81.9112 23.8966C82.0869 24.0907 82.2616 24.2983 82.4328 24.5175C83.7219 26.1682 84.3209 27.8548 83.7706 28.2845C83.2204 28.7142 81.7293 27.7243 80.4402 26.0736C80.269 25.8544 80.11 25.6346 79.9643 25.4171C79.9512 25.6786 79.928 25.9489 79.894 26.2249C79.6383 28.3037 78.8693 29.9198 78.1763 29.8345C77.4834 29.7493 77.129 27.995 77.3847 25.9162Z" fill="white"/>
<circle cx="79.1024" cy="22.3066" r="1.73816" transform="rotate(-172.987 79.1024 22.3066)" fill="#FFCE05"/>
<path d="M17.3304 67.8872C17.2813 68.011 17.1867 68.1105 17.0669 68.1643C8.58941 71.977 1.56351 80.0865 0.335852 83.6194C0.23264 83.9164 0.464566 84.1986 0.773422 84.1988C5.92634 84.2013 7.16126 84.2705 11.2537 86.1935C11.573 86.3435 11.6406 86.7776 11.3821 87.0207L7.39601 90.7693C7.0519 91.0929 7.30047 91.7202 7.76731 91.7534C9.64779 91.8873 11.9726 92.4622 14.498 93.3085C14.6698 93.3661 14.7965 93.5164 14.8299 93.6977C18.7599 115.014 37.102 131.142 59.1359 131.142H72.0171C93.5758 131.142 111.6 115.703 116.049 95.0697C116.084 94.9048 116.198 94.7672 116.352 94.7053C120.3 93.1202 124.065 91.952 126.854 91.7534C127.321 91.7202 127.569 91.0929 127.225 90.7693L123.239 87.0207C122.98 86.7776 123.048 86.3435 123.367 86.1935C127.46 84.2705 128.695 84.2013 133.848 84.1988C134.156 84.1986 134.389 83.9194 134.286 83.6224C132.874 79.5492 123.741 69.3801 113.563 66.7444C113.413 66.7056 113.289 66.5991 113.226 66.4549C106.206 50.3619 90.3956 39.1417 72.0171 39.1417H59.1359C40.2169 39.1417 24.0197 51.0316 17.3304 67.8872Z" fill="#CFCFCE"/>
<path fill-rule="evenodd" clip-rule="evenodd" d="M113.846 66.8197C110.731 66.1467 107.575 65.9654 104.466 66.3178C87.021 66.3178 72.4563 83.0273 66.8905 105.974C60.6868 82.9446 44.1165 67.1662 26.4658 67.1662C23.0417 67.1662 19.7285 67.5646 16.5797 68.3889C8.32147 72.287 1.53991 80.1545 0.335852 83.6194C0.23264 83.9164 0.464566 84.1987 0.773422 84.1988C5.92634 84.2013 7.16126 84.2705 11.2537 86.1935C11.573 86.3435 11.6406 86.7777 11.3821 87.0208L7.39601 90.7693C7.0519 91.0929 7.30047 91.7202 7.76731 91.7534C9.64779 91.8874 11.9726 92.4622 14.498 93.3085C14.6698 93.3661 14.7965 93.5164 14.8299 93.6978C17.5183 108.28 26.9507 120.433 39.6956 126.657C39.7596 126.689 39.8237 126.72 39.8878 126.751C45.7252 129.567 52.2503 131.142 59.1359 131.142L64.5792 131.142L69.3109 131.142L72.0171 131.142C78.7388 131.142 85.1169 129.641 90.8471 126.95C103.496 121.009 112.987 109.27 116.049 95.0698C116.084 94.9048 116.198 94.7672 116.352 94.7053C120.3 93.1202 124.065 91.952 126.854 91.7534C127.321 91.7202 127.569 91.0929 127.225 90.7693L123.239 87.0208C122.98 86.7777 123.048 86.3435 123.367 86.1935C127.46 84.2705 128.695 84.2013 133.848 84.1988C134.156 84.1986 134.389 83.9195 134.286 83.6224C132.887 79.587 123.909 69.5681 113.846 66.8197Z" fill="#F4F4F4"/>
<ellipse cx="36.811" cy="101.442" rx="5.5" ry="3.3" fill="#FFC7AF"/>
<ellipse cx="95.811" cy="101.442" rx="5.5" ry="3.3" fill="#FFC7AF"/>
<circle cx="6.5" cy="6.5" r="6.5" transform="matrix(-1 0 0 1 48.311 84.1417)" fill="#282828"/>
<circle cx="2.25" cy="2.25" r="2.25" transform="matrix(-1 0 0 1 41.811 87.1417)" fill="white"/>
<circle cx="1.5" cy="1.5" r="1.5" transform="matrix(-1 0 0 1 44.311 91.1417)" fill="white"/>
<circle cx="6.5" cy="6.5" r="6.5" transform="matrix(-1 0 0 1 97.311 84.1417)" fill="#282828"/>
<circle cx="2.25" cy="2.25" r="2.25" transform="matrix(-1 0 0 1 90.811 87.1417)" fill="white"/>
<circle cx="1.5" cy="1.5" r="1.5" transform="matrix(-1 0 0 1 93.311 91.1417)" fill="white"/>
<rect x="66.5744" y="103.709" width="1.93315" height="8.35123" rx="0.966577" fill="#282828"/>
<ellipse cx="67.5023" cy="101.463" rx="6.57272" ry="4.32117" fill="#282828"/>
<circle cx="64.1386" cy="99.5775" r="1.0439" fill="white"/>
<path d="M60.811 109.142C64.2907 112.273 70.8313 112.273 74.311 109.142" stroke="#282828" stroke-width="1.93315" stroke-linecap="round"/>
<path d="M21.9701 60.6655C23.8027 61.3335 26.2377 60.777 27.5963 60.3575C28.1566 60.1845 28.3864 59.5541 28.0689 59.0611C27.299 57.8657 25.7933 55.8727 23.9608 55.2047C22.1283 54.5367 19.6932 55.0932 18.3346 55.5127C17.7743 55.6857 17.5445 56.3162 17.862 56.8091C18.6319 58.0046 20.1376 59.9975 21.9701 60.6655Z" fill="#5EA985"/>
<path d="M36.4974 59.4048C34.8399 60.4329 32.3425 60.3854 30.9268 60.2521C30.3431 60.1972 29.9893 59.6269 30.1995 59.0795C30.7091 57.7521 31.7761 55.4936 33.4336 54.4655C35.0911 53.4373 37.5884 53.4849 39.0041 53.6181C39.5879 53.673 39.9416 54.2433 39.7315 54.7907C39.2218 56.1182 38.1549 58.3766 36.4974 59.4048Z" fill="#5EA985"/>
<path d="M103.823 56.6273C105.826 58.3729 109.619 58.402 111.347 58.3126C111.86 58.2861 112.236 57.854 112.192 57.3428C112.045 55.6184 111.497 51.8655 109.494 50.1199C107.49 48.3743 103.698 48.3453 101.969 48.4346C101.457 48.4611 101.08 48.8932 101.124 49.4045C101.272 51.1288 101.82 54.8817 103.823 56.6273Z" fill="#5EA985"/>
<path d="M70.2689 100.366C68.6962 99.6035 67.5311 97.7049 66.9326 96.5328C66.6673 96.0132 66.958 95.4137 67.5302 95.3002C68.8212 95.0442 71.0333 94.7831 72.606 95.5456C74.1787 96.3081 75.3438 98.2067 75.9423 99.3788C76.2075 99.8984 75.9169 100.498 75.3447 100.611C74.0537 100.867 71.8416 101.129 70.2689 100.366Z" fill="#5EA985"/>
<path d="M108.465 78.2928C106.052 79.4053 102.404 78.3677 100.771 77.7963C100.286 77.627 100.046 77.1065 100.232 76.6282C100.859 75.0148 102.438 71.5669 104.851 70.4544C107.264 69.3419 110.912 70.3795 112.546 70.9509C113.03 71.1203 113.27 71.6408 113.085 72.1191C112.458 73.7324 110.878 77.1803 108.465 78.2928Z" fill="#5EA985"/>
<path fill-rule="evenodd" clip-rule="evenodd" d="M26.3011 55.6149C26.3611 55.3433 26.4294 55.0807 26.5043 54.8298C26.2943 54.9862 26.0711 55.1405 25.8366 55.29C24.0709 56.4165 22.3351 56.8525 21.9596 56.2639C21.5841 55.6753 22.7112 54.285 24.4769 53.1586C24.7114 53.009 24.9453 52.8716 25.1756 52.7472C24.9166 52.7093 24.6497 52.6605 24.3782 52.6005C22.3331 52.1484 20.7974 51.2293 20.9481 50.5476C21.0988 49.8659 22.8788 49.6798 24.9239 50.1319C25.1954 50.1919 25.458 50.2602 25.7089 50.335C25.5525 50.1251 25.3983 49.9019 25.2487 49.6674C24.1223 47.9017 23.6863 46.1658 24.2749 45.7904C24.8634 45.4149 26.2537 46.5419 27.3801 48.3077C27.5297 48.5422 27.6671 48.7761 27.7916 49.0064C27.8294 48.7474 27.8782 48.4805 27.9382 48.2089C28.3903 46.1639 29.3094 44.6282 29.9911 44.7789C30.6728 44.9295 30.8589 46.7096 30.4069 48.7546C30.3468 49.0262 30.2785 49.2888 30.2037 49.5397C30.4136 49.3833 30.6368 49.2291 30.8713 49.0795C32.6371 47.9531 34.3729 47.5171 34.7483 48.1057C35.1238 48.6942 33.9968 50.0845 32.231 51.2109C31.9966 51.3605 31.7626 51.4979 31.5323 51.6223C31.7914 51.6602 32.0582 51.709 32.3298 51.769C34.3749 52.2211 35.9106 53.1402 35.7599 53.8219C35.6092 54.5036 33.8292 54.6897 31.7841 54.2376C31.5125 54.1776 31.2499 54.1093 30.999 54.0345C31.1554 54.2444 31.3097 54.4676 31.4593 54.7021C32.5857 56.4679 33.0217 58.2037 32.4331 58.5791C31.8445 58.9546 30.4542 57.8276 29.3278 56.0618C29.1782 55.8273 29.0408 55.5934 28.9164 55.3631C28.8785 55.6221 28.8298 55.889 28.7697 56.1606C28.3176 58.2056 27.3985 59.7413 26.7168 59.5906C26.0352 59.44 25.849 57.6599 26.3011 55.6149Z" fill="white"/>
<circle cx="28.354" cy="52.1848" r="1.73816" transform="rotate(-167.535 28.354 52.1848)" fill="#FFCE05"/>
</svg>
