<svg width="126" height="169" viewBox="0 0 126 169" fill="none" xmlns="http://www.w3.org/2000/svg">
<path d="M58.9148 18.32C60.1927 13.5896 66.1476 9.59632 66.1476 9.59632C66.1476 9.59632 68.7956 15.6876 67.5177 20.418C66.2398 25.1485 60.7548 29.5596 60.7548 29.5596C60.7548 29.5596 57.637 23.0505 58.9148 18.32Z" fill="#ACCC5F"/>
<path d="M55.9642 15.718C51.8375 10.7527 42.2616 9.34269 42.2616 9.34269C42.2616 9.34269 42.128 18.2495 46.2547 23.2148C50.3813 28.1801 59.6768 30.2971 59.6768 30.2971C59.6768 30.2971 60.0908 20.6832 55.9642 15.718Z" fill="#BBD468"/>
<circle cx="19.578" cy="41.7704" r="19.5" fill="#454545"/>
<circle cx="18.578" cy="41.7473" r="13.5" fill="#FFDED0"/>
<circle cx="105.578" cy="41.7704" r="19.5" fill="#454545"/>
<circle cx="105.578" cy="41.7473" r="13.5" fill="#FFDED0"/>
<path d="M120.078 77.4243C120.078 103.117 94.1105 127.247 62.078 127.247C30.0455 127.247 4.07797 103.117 4.07797 77.4243C4.07797 51.7312 30.0455 23.2473 62.078 23.2473C94.1105 23.2473 120.078 51.7312 120.078 77.4243Z" fill="#FBFBFB"/>
<circle cx="31.078" cy="72.2473" r="13" fill="#454545"/>
<circle cx="35.4667" cy="69.7539" r="4.5" transform="rotate(-150 35.4667 69.7539)" fill="white"/>
<circle cx="29.4178" cy="77.7049" r="3" transform="rotate(-150 29.4178 77.7049)" fill="white"/>
<circle cx="95.078" cy="72.2473" r="13" fill="#454545"/>
<circle cx="99.4667" cy="69.7539" r="4.5" transform="rotate(-150 99.4667 69.7539)" fill="white"/>
<circle cx="93.4178" cy="77.7049" r="3" transform="rotate(-150 93.4178 77.7049)" fill="white"/>
<ellipse cx="24.578" cy="93.7473" rx="7.5" ry="5.5" fill="#FFC6AD"/>
<ellipse cx="101.578" cy="93.7473" rx="7.5" ry="5.5" fill="#FFC6AD"/>
<rect x="61.9818" y="87.2566" width="2.14795" height="8.91294" rx="1.07397" fill="#454545"/>
<ellipse cx="63.013" cy="84.8591" rx="7.30303" ry="4.61181" fill="#454545"/>
<ellipse cx="59.2754" cy="82.8469" rx="1.15989" ry="1.11412" fill="white"/>
<path d="M55.578 93.7405C59.4443 97.0829 66.7117 97.0829 70.578 93.7405" stroke="#454545" stroke-width="2.5" stroke-linecap="round"/>
<path d="M52.5423 72.033C52.5423 84.4278 42.0255 94.5687 28.9351 94.5687C15.8448 94.5687 5.32797 84.4278 5.32797 72.033C5.32797 59.6382 15.8448 49.4973 28.9351 49.4973C42.0255 49.4973 52.5423 59.6382 52.5423 72.033Z" stroke="#323232" stroke-width="2.5"/>
<path d="M118.828 72.033C118.828 84.4278 108.311 94.5687 95.2208 94.5687C82.1305 94.5687 71.6137 84.4278 71.6137 72.033C71.6137 59.6382 82.1305 49.4973 95.2208 49.4973C108.311 49.4973 118.828 59.6382 118.828 72.033Z" stroke="#323232" stroke-width="2.5"/>
<path d="M52.6875 70.2856C59.7614 69.0809 63.9128 69.1026 71.4685 70.2856V74.6759C64.2533 73.5779 60.1392 73.5625 52.6875 74.6759V70.2856Z" fill="#242424"/>
<path d="M86.5578 98.9638C86.7874 98.5946 86.6406 98.1069 86.2469 97.9224C81.8564 95.8658 79.23 94.3423 75.2081 91.6366C74.8482 91.3945 74.3557 91.5192 74.1573 91.905C70.4345 99.1457 68.1183 103.357 63.5927 110.402C59.2799 118.775 56.7048 123.381 51.6756 131.347C48.0161 138.777 45.6983 142.91 41.291 149.686C41.0755 150.017 41.1659 150.462 41.4947 150.681C45.6106 153.426 48.2608 154.943 52.7313 157.074C53.0822 157.241 53.5037 157.099 53.6826 156.754C57.4044 149.578 59.7699 145.471 64.1364 138.437C68.5704 130.132 71.2009 125.558 76.0535 117.492C79.9389 110.033 82.2192 105.939 86.5578 98.9638Z" fill="#BCD466"/>
<g style="mix-blend-mode:multiply" opacity="0.25">
<path fill-rule="evenodd" clip-rule="evenodd" d="M48.8202 155.119C46.3739 153.822 44.2667 152.53 41.4947 150.681C41.1659 150.462 41.0755 150.017 41.291 149.686C45.6983 142.91 48.0161 138.777 51.6756 131.347C56.7048 123.381 59.2798 118.775 63.5927 110.402C68.1183 103.357 70.4345 99.1457 74.1573 91.905C74.3557 91.5192 74.8482 91.3945 75.2081 91.6366C76.2837 92.3602 77.2594 92.9993 78.1958 93.5865C78.0116 93.6394 77.8478 93.7647 77.7523 93.9504C74.0295 101.191 71.7133 105.402 67.1877 112.447C62.8749 120.821 60.2998 125.426 55.2706 133.392C51.6111 140.822 49.2933 144.956 44.886 151.731C44.6705 152.062 44.7609 152.507 45.0897 152.726C46.4544 153.637 47.6579 154.412 48.8202 155.119ZM82.4982 96.0703C83.6374 96.6705 84.8533 97.2696 86.2469 97.9224C86.4537 98.0193 86.5923 98.1998 86.6441 98.4028C85.1827 97.6493 83.867 96.9078 82.4982 96.0703Z" fill="#BCD466"/>
</g>
<path d="M82.5722 120.13C85.3347 124.127 84.5148 131.506 84.5148 131.506C84.5148 131.506 78.1822 129.888 75.4196 125.892C72.6571 121.896 72.8563 114.641 72.8563 114.641C72.8563 114.641 79.8096 116.134 82.5722 120.13Z" fill="#ACCC5F"/>
<path d="M88.5087 118.875C94.5965 116.363 99.3039 107.389 99.3039 107.389C99.3039 107.389 91.0544 104.487 84.9666 106.998C78.8787 109.51 73.6122 117.989 73.6122 117.989C73.6122 117.989 82.4208 121.386 88.5087 118.875Z" fill="#BBD468"/>
<path d="M41.6562 125.581C38.5863 120.218 39.6836 111.387 39.6836 111.387C39.6836 111.387 46.8847 114.504 49.9546 119.867C53.0245 125.23 52.6392 134.021 52.6392 134.021C52.6392 134.021 44.7261 130.944 41.6562 125.581Z" fill="#ACCC5F"/>
<path d="M47.6184 121.155C47.2217 115.838 51.4857 109.289 51.4857 109.289C51.4857 109.289 56.1217 114.309 56.5184 119.626C56.9151 124.944 53.1596 131.729 53.1596 131.729C53.1596 131.729 48.015 126.473 47.6184 121.155Z" fill="#BBD468"/>
<rect width="14.3366" height="5.94194" rx="2.97097" transform="matrix(-0.86916 -0.494531 -0.494531 0.86916 77.5228 114.91)" fill="#8BB554"/>
<rect width="14.3366" height="5.94194" rx="2.97097" transform="matrix(-0.86916 -0.494531 -0.494531 0.86916 65.7689 135.568)" fill="#8BB554"/>
</svg>
