<svg width="119" height="128" viewBox="0 0 119 128" fill="none" xmlns="http://www.w3.org/2000/svg">
<path d="M3.14519 15.5533V4.09261C3.14519 1.98725 4.85192 0.280518 6.95728 0.280518C9.06265 0.280518 10.7293 2.00529 11.1565 4.06685C12.9634 12.7858 20.8689 19.3715 30.0845 19.3715H49.1452V42.2805H30.0845C15.3721 42.2805 3.14519 30.2889 3.14519 15.5533Z" fill="#FAEDE5"/>
<path d="M115.145 15.5533V4.09261C115.145 1.98725 113.438 0.280518 111.333 0.280518C109.228 0.280518 107.561 2.00529 107.134 4.06685C105.327 12.7858 97.4215 19.3715 88.2059 19.3715H69.1452V42.2805H88.2059C102.918 42.2805 115.145 30.2889 115.145 15.5533Z" fill="#FAEDE5"/>
<path d="M59.4526 54.903C61.7199 50.3755 66.299 47.2805 71.5786 47.2805C77.2887 47.2805 82.1792 50.9006 84.2122 56.0378C85.7875 55.3823 87.5086 55.0215 89.3113 55.0215C96.5354 55.0215 102.448 60.8158 102.921 68.1459C109.526 70.3124 114.145 75.2789 114.145 81.0593C114.145 84.9928 112.006 88.5494 108.558 91.1033C109.429 92.9562 109.916 95.0358 109.916 97.2331C109.916 105.006 103.809 111.308 96.2759 111.308C94.4731 111.308 92.752 110.947 91.1768 110.291C89.1438 115.428 84.2532 119.049 78.5432 119.049C75.054 119.049 71.8709 117.697 69.4587 115.473C67.0191 117.834 63.7375 119.281 60.1286 119.281C56.2151 119.281 52.6864 117.58 50.199 114.856C47.7254 117.444 44.2873 119.048 40.4861 119.048C34.6806 119.048 29.7222 115.306 27.753 110.032C26.0233 110.851 24.0991 111.308 22.0715 111.308C14.538 111.308 8.43097 105.006 8.43097 97.233C8.43097 94.9824 8.94294 92.8552 9.85326 90.9686C5.70558 88.4488 3.14519 84.9864 3.14519 81.1653C3.14519 75.8782 8.04687 71.278 15.2726 68.911C15.3686 61.2231 21.4384 55.0214 28.912 55.0214C30.9396 55.0214 32.8638 55.4779 34.5935 56.2966C36.5627 51.0226 41.5211 47.2805 47.3266 47.2805C52.6062 47.2805 57.1853 50.3755 59.4526 54.903Z" fill="#463424"/>
<g style="mix-blend-mode:multiply">
<path fill-rule="evenodd" clip-rule="evenodd" d="M3.26433 79.7442C3.18554 80.2115 3.14519 80.6855 3.14519 81.1652C3.14519 84.7118 5.3508 87.9492 8.98401 90.4109C9.21011 89.6181 9.50204 88.8544 9.85326 88.1265C6.2263 85.923 3.81309 82.9988 3.26433 79.7442ZM8.49964 95.812C8.45423 96.2793 8.43097 96.7533 8.43097 97.233C8.43097 105.006 14.538 111.307 22.0715 111.307C24.0991 111.307 26.0233 110.851 27.753 110.032C29.7222 115.306 34.6806 119.048 40.4861 119.048C44.2873 119.048 47.7254 117.444 50.199 114.856C52.6864 117.58 56.2151 119.28 60.1286 119.28C63.7375 119.28 67.0191 117.834 69.4587 115.473C71.8709 117.697 75.054 119.048 78.5432 119.048C84.2532 119.048 89.1438 115.428 91.1768 110.291C92.752 110.947 94.4731 111.308 96.2759 111.308C103.809 111.308 109.916 105.006 109.916 97.233C109.916 96.7534 109.893 96.2793 109.848 95.812C109.157 102.918 103.345 108.465 96.2759 108.465C94.4731 108.465 92.752 108.105 91.1768 107.449C89.1438 112.586 84.2532 116.206 78.5432 116.206C75.054 116.206 71.8709 114.855 69.4587 112.631C67.0191 114.992 63.7375 116.438 60.1286 116.438C56.2151 116.438 52.6864 114.738 50.199 112.014C47.7254 114.602 44.2873 116.206 40.4861 116.206C34.6806 116.206 29.7222 112.464 27.753 107.19C26.0233 108.009 24.0991 108.465 22.0715 108.465C15.0029 108.465 9.19011 102.918 8.49964 95.812ZM109.377 90.4576C112.342 87.9658 114.145 84.6714 114.145 81.0593C114.145 80.5796 114.113 80.1056 114.051 79.6382C113.604 83.0032 111.586 86.0187 108.558 88.2612C108.888 88.9628 109.163 89.6969 109.377 90.4576Z" fill="#463424"/>
</g>
<path d="M29.0768 36.3113C23.5814 36.8986 18.7758 38.5079 14.793 41.0974C5.15138 47.3656 1.43016 58.6465 1.28447 59.1259L0.430319 61.9052L3.31136 62.2562C4.11095 62.3536 23.1518 64.5176 32.5434 50.3434L29.0768 36.3113Z" fill="#D18059"/>
<g style="mix-blend-mode:multiply">
<path fill-rule="evenodd" clip-rule="evenodd" d="M0.510517 61.6442C6.02492 61.4093 19.058 59.4435 26.8982 46.9553L25.1115 36.9375C26.3893 36.6661 27.7118 36.4572 29.0768 36.3113L32.5434 50.3434C23.1518 64.5175 4.11093 62.3536 3.31135 62.2562L0.430306 61.9052L0.510517 61.6442Z" fill="#D18059"/>
</g>
<path d="M89.7357 36.3113C95.2311 36.8986 100.037 38.5079 104.019 41.0974C113.661 47.3656 117.382 58.6465 117.528 59.1259L118.382 61.9052L115.501 62.2562C114.702 62.3536 95.6607 64.5176 86.2691 50.3434L89.7357 36.3113Z" fill="#D18059"/>
<g style="mix-blend-mode:multiply">
<path fill-rule="evenodd" clip-rule="evenodd" d="M118.302 61.6442C112.788 61.4093 99.7545 59.4435 91.9143 46.9553L93.701 36.9375C92.4232 36.6661 91.1007 36.4572 89.7357 36.3113L86.2691 50.3434C95.6607 64.5175 114.702 62.3536 115.501 62.2562L118.382 61.9052L118.302 61.6442Z" fill="#D18059"/>
</g>
<path d="M16.5969 54.995C11.227 30.4801 29.8949 7.28052 54.991 7.28052H61.889C87.196 7.28052 106.021 30.6751 100.606 55.3959C99.9674 58.3097 99.0022 61.1421 97.7285 63.8393L93.3406 73.1315C91.8851 76.2137 90.8967 79.4954 90.4078 82.8686L90.0612 85.2602C87.8131 100.772 74.5165 112.281 58.8426 112.281C42.9981 112.281 29.6121 100.527 27.5628 84.8158L27.3699 83.3364C26.8901 79.6584 25.7982 76.0866 24.1395 72.7691L19.8361 64.1623C18.3811 61.2524 17.2931 58.173 16.5969 54.995Z" fill="#F0BF8E"/>
<ellipse cx="32.1452" cy="71.6805" rx="4" ry="2.4" fill="#FF946D"/>
<ellipse cx="85.1452" cy="71.6805" rx="4" ry="2.4" fill="#FF946D"/>
<path d="M65.0349 112.39C66.0675 116.408 70.9887 119.77 70.9887 119.77C70.9887 119.77 73.2247 114.572 72.1921 110.554C71.1596 106.537 66.631 102.816 66.631 102.816C66.631 102.816 64.0023 108.373 65.0349 112.39Z" fill="#ACCC5F"/>
<path d="M56.1438 110.736C53.5501 113.32 47.9742 113.328 47.9742 113.328C47.9742 113.328 48.3324 108.087 50.9261 105.502C53.5198 102.918 58.9201 102.422 58.9201 102.422C58.9201 102.422 58.7375 108.151 56.1438 110.736Z" fill="#ACCC5F"/>
<path d="M64.7768 113.615C62.6128 118.672 55.2865 122.168 55.2865 122.168C55.2865 122.168 53.15 114.943 55.3141 109.886C57.4782 104.829 64.4193 100.825 64.4193 100.825C64.4193 100.825 66.9409 108.558 64.7768 113.615Z" fill="#BBD468"/>
<path d="M25.1452 88.7005C25.1452 78.9385 33.7269 71.5018 43.4586 72.27C53.9731 73.1 63.2103 73.1429 73.765 72.3268C83.5127 71.5731 92.1452 78.997 92.1452 88.7738C92.1452 97.0824 85.827 104.082 77.5363 104.627C64.1521 105.506 53.2036 105.493 39.8284 104.618C31.4999 104.074 25.1452 97.0468 25.1452 88.7005Z" fill="#FAEDE5"/>
<circle cx="40.1452" cy="89.2805" r="3" fill="#463424"/>
<circle cx="78.1452" cy="89.2805" r="3" fill="#463424"/>
<path d="M90.9715 22.558C88.6517 13.4912 76.7355 7.28052 59.4719 7.28052C46.368 7.28052 36.345 9.8829 30.9564 15.8213C28.0437 18.5363 26.1452 22.9831 26.1452 28.0081C26.1452 36.2755 31.2842 42.9775 37.6234 42.9775C40.3379 42.9775 42.8323 41.7487 44.7974 39.6943C46.7624 41.7487 49.2568 42.9775 51.9713 42.9775C54.2067 42.9775 56.2928 42.1441 58.0571 40.7026C60.1447 43.525 63.0747 45.2805 66.3191 45.2805C69.2932 45.2805 72.0031 43.8054 74.0421 41.3855C75.9137 43.1135 78.1993 44.129 80.6669 44.129C87.0062 44.129 92.1452 37.427 92.1452 29.1596C92.1452 26.7902 91.7231 24.5493 90.9715 22.558Z" fill="#4D3A2A"/>
<g style="mix-blend-mode:multiply">
<path fill-rule="evenodd" clip-rule="evenodd" d="M26.2208 26.2809C26.8774 33.7346 31.7321 39.523 37.6234 39.523C40.3379 39.523 42.8323 38.2942 44.7974 36.2398C46.7624 38.2942 49.2568 39.523 51.9713 39.523C54.2067 39.523 56.2928 38.6896 58.0571 37.2481C60.1447 40.0705 63.0747 41.826 66.3191 41.826C69.2932 41.826 72.0031 40.3509 74.0421 37.931C75.9137 39.659 78.1993 40.6745 80.6669 40.6745C86.5582 40.6745 91.4129 34.8861 92.0696 27.4324C92.1195 27.9991 92.1452 28.5755 92.1452 29.1597C92.1452 37.427 87.0062 44.129 80.6669 44.129C78.1993 44.129 75.9137 43.1136 74.0421 41.3855C72.0031 43.8054 69.2932 45.2805 66.3191 45.2805C63.0747 45.2805 60.1447 43.525 58.0571 40.7026C56.2928 42.1442 54.2067 42.9776 51.9713 42.9776C49.2568 42.9776 46.7624 41.7488 44.7974 39.6944C42.8323 41.7488 40.3379 42.9776 37.6234 42.9776C31.2842 42.9776 26.1452 36.2755 26.1452 28.0082C26.1452 27.424 26.1708 26.8476 26.2208 26.2809Z" fill="#4D3A2A"/>
</g>
<circle cx="77.1452" cy="64.2805" r="5" fill="#463424"/>
<circle cx="79.1452" cy="63.2805" r="2" fill="white"/>
<circle cx="41.1452" cy="64.2805" r="5" fill="#463424"/>
<circle cx="43.1452" cy="63.2805" r="2" fill="white"/>
<path d="M70.42 9.24916C67.0164 7.53018 61.6925 8.83067 60.0821 9.28882C59.8166 9.36434 59.6759 9.6429 59.7727 9.90137C60.3598 11.4694 62.473 16.526 65.8766 18.245C69.2802 19.964 74.6041 18.6635 76.2146 18.2054C76.48 18.1298 76.6207 17.8513 76.5239 17.5928C75.9368 16.0248 73.8236 10.9682 70.42 9.24916Z" fill="#BBD468"/>
<path d="M61.5012 19.2024C61.37 15.9502 58.2334 12.5221 57.1615 11.442C56.9671 11.2461 56.6581 11.2586 56.4801 11.4695C55.4987 12.6324 52.6484 16.3021 52.7796 19.5543C52.9108 22.8065 56.0474 26.2346 57.1193 27.3147C57.3137 27.5106 57.6228 27.4982 57.8008 27.2872C58.7822 26.1243 61.6324 22.4547 61.5012 19.2024Z" fill="#BBD468"/>
</svg>
