<svg width="126" height="125" viewBox="0 0 126 125" fill="none" xmlns="http://www.w3.org/2000/svg">
<circle cx="19.578" cy="26.5891" r="19.5" fill="#FFAC42"/>
<circle cx="18.578" cy="26.5659" r="13.5" fill="#FFE29C"/>
<circle cx="105.578" cy="26.5891" r="19.5" fill="#FFAC42"/>
<circle cx="105.578" cy="26.5659" r="13.5" fill="#FFE29C"/>
<path d="M57.9084 4.66278C57.8549 2.17808 59.8258 0.120467 62.3105 0.0669813C64.7952 0.013496 66.8528 1.98439 66.9063 4.4691L66.9822 7.99522L68.1773 4.71178C69.0273 2.37638 71.6096 1.17224 73.945 2.02225C76.2804 2.87227 77.4845 5.45456 76.6345 7.78996L72.5303 19.0663C71.6803 21.4017 69.098 22.6058 66.7626 21.7558C66.0148 21.4837 65.3831 21.0339 64.8976 20.4716C64.267 20.8324 63.5399 21.0454 62.7624 21.0621C62.1254 21.0758 61.5164 20.9565 60.962 20.7295C60.5473 21.9986 59.5745 23.0712 58.2226 23.5632C55.8872 24.4133 53.3049 23.2091 52.4549 20.8737L48.3506 9.59741C47.5006 7.26201 48.7047 4.67972 51.0401 3.8297C53.3755 2.97968 55.9578 4.18383 56.8078 6.51923L58.02 9.84971L57.9084 4.66278Z" fill="#FFAC42"/>
<path d="M120.078 65.2429C120.078 90.9361 94.1105 115.066 62.078 115.066C30.0455 115.066 4.078 90.9361 4.078 65.2429C4.078 39.5498 30.0455 11.0659 62.078 11.0659C94.1105 11.0659 120.078 39.5498 120.078 65.2429Z" fill="#FFAC42"/>
<path fill-rule="evenodd" clip-rule="evenodd" d="M44.5213 33.3849C44.2079 34.2757 42.9481 34.2757 42.6347 33.3849L36.9178 17.1369C41.6397 14.77 46.7173 13.0031 52.0446 12.0029L44.5213 33.3849ZM53.9952 11.6728L61.6347 33.3849C61.9481 34.2757 63.2079 34.2757 63.5213 33.3849L71.1076 11.824C68.1652 11.3278 65.1495 11.0659 62.078 11.0659C59.3351 11.0659 56.6367 11.2748 53.9952 11.6728ZM73.1863 12.2158L80.6347 33.3849C80.9481 34.2757 82.2079 34.2757 82.5213 33.3849L88.0858 17.5702C83.4415 15.1497 78.4404 13.3106 73.1863 12.2158Z" fill="#6B4A32"/>
<path fill-rule="evenodd" clip-rule="evenodd" d="M5.13374 56.0657C5.92053 52.5869 7.13284 49.1244 8.72251 45.754L22.0004 52.1043C22.9013 52.5351 22.6837 53.875 21.6928 53.9987L5.13374 56.0657ZM4.23041 68.6613C4.12935 67.5263 4.07794 66.3862 4.07794 65.243C4.07794 62.9727 4.28069 60.6806 4.67246 58.3883L20.6812 61.5737C21.6979 61.776 21.773 63.2012 20.7832 63.5093L4.23041 68.6613Z" fill="#6B4A32"/>
<path fill-rule="evenodd" clip-rule="evenodd" d="M119.963 68.2087C120.039 67.2233 120.078 66.2343 120.078 65.243C120.078 63.0675 119.892 60.8721 119.532 58.6756L104.966 61.5737C103.95 61.776 103.875 63.2012 104.864 63.5093L119.963 68.2087ZM115.705 46.3377C117.133 49.4616 118.237 52.6602 118.978 55.874L103.955 53.9987C102.964 53.875 102.746 52.5351 103.647 52.1043L115.705 46.3377Z" fill="#6B4A32"/>
<path fill-rule="evenodd" clip-rule="evenodd" d="M18.1379 97.0224C19.3489 81.4474 38.7823 69.0659 62.578 69.0659C85.8935 69.0659 105.021 80.9528 106.923 96.0835C96.2855 107.388 80.1467 115.066 62.0781 115.066C44.5143 115.066 28.774 107.811 18.1379 97.0224Z" fill="#FFE29C"/>
<circle cx="28.578" cy="76.5659" r="7.5" fill="#FF8F75"/>
<circle cx="95.578" cy="76.5659" r="7.5" fill="#FF8F75"/>
<circle cx="37.078" cy="58.0659" r="9" fill="#6B4A32"/>
<circle cx="40.1163" cy="56.3398" r="3.11538" transform="rotate(-150 40.1163 56.3398)" fill="white"/>
<circle cx="35.9285" cy="61.8442" r="2.07692" transform="rotate(-150 35.9285 61.8442)" fill="white"/>
<circle cx="88.078" cy="58.0659" r="9" fill="#6B4A32"/>
<circle cx="91.1163" cy="56.3398" r="3.11538" transform="rotate(-150 91.1163 56.3398)" fill="white"/>
<circle cx="86.9285" cy="61.8442" r="2.07692" transform="rotate(-150 86.9285 61.8442)" fill="white"/>
<path d="M63.1635 69.0659V75.9029C63.1635 78.1356 64.9734 79.9456 67.2062 79.9456H67.771C69.6918 79.9456 71.2489 78.3885 71.2489 76.4677V76.4677" stroke="#6B4A32" stroke-width="2" stroke-linecap="round" stroke-linejoin="round"/>
<path d="M63.1634 69.0659V75.9029C63.1634 78.1356 61.3535 79.9456 59.1207 79.9456H58.5559C56.6351 79.9456 55.078 78.3885 55.078 76.4677V76.4677" stroke="#6B4A32" stroke-width="2" stroke-linecap="round" stroke-linejoin="round"/>
<ellipse cx="63.078" cy="69.6777" rx="8" ry="4.61181" fill="#6B4A32"/>
<ellipse cx="58.7754" cy="67.6655" rx="1.15989" ry="1.11412" fill="white"/>
<circle cx="41.328" cy="74.3159" r="1.25" fill="#6B4A32" fill-opacity="0.7"/>
<circle cx="45.328" cy="75.3159" r="1.25" fill="#6B4A32" fill-opacity="0.7"/>
<circle cx="42.328" cy="78.3159" r="1.25" fill="#6B4A32" fill-opacity="0.7"/>
<circle cx="1.25" cy="1.25" r="1.25" transform="matrix(-1 0 0 1 84.078 73.0659)" fill="#6B4A32" fill-opacity="0.7"/>
<circle cx="1.25" cy="1.25" r="1.25" transform="matrix(-1 0 0 1 80.078 74.0659)" fill="#6B4A32" fill-opacity="0.7"/>
<circle cx="1.25" cy="1.25" r="1.25" transform="matrix(-1 0 0 1 83.078 77.0659)" fill="#6B4A32" fill-opacity="0.7"/>
<path d="M97.0084 19.0691C97.1033 19.0146 97.1964 18.9551 97.2876 18.8906C98.8457 17.7879 99.2209 15.6395 98.1256 14.0918C97.0304 12.5442 94.8795 12.1835 93.3214 13.2862C93.1701 13.3932 93.03 13.5101 92.9013 13.6354C92.8054 12.3021 91.9605 11.0863 90.6519 10.6059C88.8816 9.95608 86.9332 10.8981 86.2999 12.7099C85.9623 13.6758 86.0666 14.694 86.5059 15.5326C86.3654 15.5153 86.2224 15.5062 86.0775 15.5058C84.1582 15.5004 82.6218 17.0246 82.6459 18.9102C82.6699 20.7959 84.2454 22.3288 86.1647 22.3342C86.2683 22.3344 86.3708 22.3303 86.472 22.3218C86.4303 22.4144 86.3923 22.5097 86.3582 22.6075C85.7249 24.4193 86.6466 26.4149 88.4168 27.0648C90.1871 27.7146 92.1355 26.7726 92.7688 24.9608C92.8251 24.7999 92.869 24.6375 92.9012 24.4748C93.5283 25.0405 94.3622 25.3875 95.2737 25.3901C97.193 25.3955 98.7294 23.8712 98.7053 21.9856C98.6896 20.7537 98.0117 19.6724 97.0084 19.0691Z" fill="white"/>
<g style="mix-blend-mode:multiply">
<circle cx="91.3948" cy="19.0929" r="2.58966" transform="rotate(79.3678 91.3948 19.0929)" fill="#FED402"/>
</g>
<path d="M100.331 106.097C100.49 106.006 100.645 105.907 100.797 105.799C103.397 103.959 104.024 100.373 102.196 97.7908C100.368 95.2081 96.7787 94.6062 94.1785 96.4463C93.9261 96.625 93.6923 96.82 93.4775 97.0291C93.3176 94.804 91.9075 92.7751 89.7237 91.9735C86.7695 90.889 83.5179 92.461 82.4611 95.4846C81.8977 97.0966 82.0718 98.7956 82.8048 100.195C82.5704 100.166 82.3318 100.151 82.09 100.15C78.887 100.141 76.323 102.685 76.3632 105.832C76.4034 108.978 79.0325 111.537 82.2355 111.546C82.4084 111.546 82.5794 111.539 82.7482 111.525C82.6788 111.68 82.6154 111.839 82.5583 112.002C81.5015 115.025 83.0396 118.356 85.9938 119.44C88.948 120.524 92.1996 118.952 93.2564 115.929C93.3503 115.66 93.4237 115.389 93.4774 115.118C94.5238 116.062 95.9155 116.641 97.4365 116.645C100.64 116.654 103.203 114.111 103.163 110.964C103.137 108.908 102.006 107.104 100.331 106.097Z" fill="white"/>
<g style="mix-blend-mode:multiply">
<circle cx="90.9634" cy="106.137" r="4.32162" transform="rotate(79.3678 90.9634 106.137)" fill="#FED402"/>
</g>
<path d="M17.5912 73.6159C11.7481 73.1028 8.43343 72.9724 2.42772 73.127" stroke="#61432D" stroke-width="1.8" stroke-linecap="round" stroke-linejoin="round"/>
<path d="M17.0369 82.5697C11.4218 83.5961 8.33655 84.3255 2.98973 86.0052" stroke="#61432D" stroke-width="1.8" stroke-linecap="round" stroke-linejoin="round"/>
<path d="M16.6987 78.2812C10.8283 78.0457 7.96195 78.4108 2.09975 78.9116" stroke="#61432D" stroke-width="1.8" stroke-linecap="round" stroke-linejoin="round"/>
<path d="M106.591 73.6159C112.434 73.1028 115.749 72.9724 121.755 73.127" stroke="#61432D" stroke-width="1.8" stroke-linecap="round" stroke-linejoin="round"/>
<path d="M107.146 82.5697C112.761 83.5961 115.846 84.3255 121.193 86.0052" stroke="#61432D" stroke-width="1.8" stroke-linecap="round" stroke-linejoin="round"/>
<path d="M107.484 78.2812C113.354 78.0457 116.221 78.4108 122.083 78.9116" stroke="#61432D" stroke-width="1.8" stroke-linecap="round" stroke-linejoin="round"/>
</svg>
