<svg width="128" height="136" viewBox="0 0 128 136" fill="none" xmlns="http://www.w3.org/2000/svg">
<circle cx="21.2474" cy="26.5891" r="19.5" fill="#FFE36B"/>
<g style="mix-blend-mode:multiply">
<circle cx="20.2474" cy="26.5659" r="13.5" fill="#FFE36B"/>
</g>
<circle cx="107.247" cy="26.5891" r="19.5" fill="#FFE36B"/>
<g style="mix-blend-mode:multiply">
<circle cx="107.247" cy="26.5659" r="13.5" fill="#FFE36B"/>
</g>
<path d="M59.5778 4.66278C59.5243 2.17808 61.4952 0.120467 63.9799 0.0669813C66.4646 0.013496 68.5222 1.98439 68.5757 4.4691L68.6516 7.99522L69.8467 4.71178C70.6967 2.37638 73.279 1.17224 75.6144 2.02225C77.9498 2.87227 79.1539 5.45456 78.3039 7.78996L74.1997 19.0663C73.3497 21.4017 70.7674 22.6058 68.432 21.7558C67.6842 21.4837 67.0525 21.0339 66.567 20.4716C65.9364 20.8324 65.2093 21.0454 64.4318 21.0621C63.7948 21.0758 63.1858 20.9565 62.6314 20.7295C62.2167 21.9986 61.2439 23.0712 59.892 23.5632C57.5566 24.4133 54.9743 23.2091 54.1243 20.8737L50.02 9.59741C49.17 7.26201 50.3741 4.67972 52.7095 3.8297C55.0449 2.97968 57.6272 4.18383 58.4772 6.51923L59.6894 9.84971L59.5778 4.66278Z" fill="#FFE36B"/>
<path d="M121.747 65.2429C121.747 90.9361 95.7799 115.066 63.7474 115.066C31.7149 115.066 5.74741 90.9361 5.74741 65.2429C5.74741 39.5498 31.7149 11.0659 63.7474 11.0659C95.7799 11.0659 121.747 39.5498 121.747 65.2429Z" fill="#FFE36B"/>
<path fill-rule="evenodd" clip-rule="evenodd" d="M65.121 11.0834C73.4355 11.2948 81.3174 13.4163 88.4128 16.8917C87.1422 22.1556 82.4015 26.0659 76.7474 26.0659C70.12 26.0659 64.7474 20.6933 64.7474 14.0659C64.7474 13.0363 64.8771 12.037 65.121 11.0834Z" fill="#343434"/>
<path fill-rule="evenodd" clip-rule="evenodd" d="M43.7474 21.0659C47.0611 21.0659 49.7474 18.3796 49.7474 15.0659C49.7474 14.339 49.6181 13.6423 49.3814 12.9976C45.4783 14.0588 41.7334 15.5289 38.192 17.3368C39.0873 19.5246 41.2373 21.0659 43.7474 21.0659Z" fill="#343434"/>
<circle cx="35.7474" cy="32.0659" r="5" fill="#343434"/>
<circle cx="58.7474" cy="33.0659" r="4" fill="#343434"/>
<circle cx="79.7474" cy="38.0659" r="3" fill="#343434"/>
<circle cx="55.2474" cy="47.5659" r="2.5" fill="#343434"/>
<circle cx="73.2474" cy="53.5659" r="2.5" fill="#343434"/>
<circle cx="63.5" cy="108.566" r="2.5" fill="#343434"/>
<circle cx="102.747" cy="39.0659" r="3" fill="#343434"/>
<path fill-rule="evenodd" clip-rule="evenodd" d="M23.8275 100.728C19.4037 97.0214 15.6415 92.7567 12.7132 88.1292C14.2724 86.2573 16.6208 85.0659 19.2474 85.0659C23.9418 85.0659 27.7474 88.8715 27.7474 93.5659C27.7474 96.5738 26.185 99.2168 23.8275 100.728Z" fill="#343434"/>
<path fill-rule="evenodd" clip-rule="evenodd" d="M6.63792 56.8267C7.37006 53.3092 8.54032 49.8027 10.099 46.3854C12.2257 47.1455 13.7474 49.178 13.7474 51.5659C13.7474 54.6035 11.285 57.0659 8.24741 57.0659C7.68742 57.0659 7.14699 56.9822 6.63792 56.8267Z" fill="#343434"/>
<path fill-rule="evenodd" clip-rule="evenodd" d="M117.308 46.195C119.615 51.2016 121.089 56.4029 121.573 61.5528C120.694 61.8845 119.742 62.066 118.747 62.066C114.329 62.066 110.747 58.4842 110.747 54.066C110.747 50.1389 113.577 46.8727 117.308 46.195Z" fill="#343434"/>
<path fill-rule="evenodd" clip-rule="evenodd" d="M114.673 88.2998C112.797 91.2385 110.584 94.0292 108.079 96.6218C106.119 95.7803 104.747 93.8333 104.747 91.5659C104.747 88.5284 107.21 86.0659 110.247 86.0659C112.062 86.0659 113.671 86.9447 114.673 88.2998Z" fill="#343434"/>
<path fill-rule="evenodd" clip-rule="evenodd" d="M46.5745 112.691C42.9871 111.676 39.5486 110.359 36.2963 108.78C37.0377 106.619 39.0874 105.066 41.5 105.066C44.5376 105.066 47 107.528 47 110.566C47 111.319 46.8486 112.037 46.5745 112.691Z" fill="#343434"/>
<path fill-rule="evenodd" clip-rule="evenodd" d="M94.8301 106.866C90.0845 109.573 84.8705 111.708 79.3217 113.12C78.4848 111.804 78 110.241 78 108.566C78 103.871 81.8056 100.066 86.5 100.066C90.6124 100.066 94.0427 102.986 94.8301 106.866Z" fill="#343434"/>
<circle cx="33.7474" cy="55.0659" r="8" fill="#343434"/>
<circle cx="36.4481" cy="53.5317" r="2.76923" transform="rotate(-150 36.4481 53.5317)" fill="white"/>
<circle cx="32.8524" cy="58.8972" r="1.5" transform="rotate(-150 32.8524 58.8972)" fill="white"/>
<circle cx="93.7474" cy="55.0659" r="8" fill="#343434"/>
<circle cx="96.4481" cy="53.5317" r="2.76923" transform="rotate(-150 96.4481 53.5317)" fill="white"/>
<circle cx="92.8523" cy="58.8972" r="1.5" transform="rotate(-150 92.8523 58.8972)" fill="white"/>
<ellipse cx="19.7474" cy="74.4659" rx="6" ry="4.4" fill="#FFA787"/>
<ellipse cx="108.747" cy="74.4659" rx="6" ry="4.4" fill="#FFA787"/>
<ellipse cx="63.7108" cy="78.5659" rx="29.9634" ry="19.5" fill="#FAFAFA"/>
<path d="M63.7474 71.0659V78.5659C63.7474 81.0512 65.7621 83.0659 68.2474 83.0659H68.9114C71.03 83.0659 72.7474 81.3485 72.7474 79.2299V79.2299" stroke="#343434" stroke-width="2" stroke-linecap="round" stroke-linejoin="round"/>
<path d="M63.7474 71.0659V78.5659C63.7474 81.0512 61.7327 83.0659 59.2474 83.0659H58.5835C56.4649 83.0659 54.7474 81.3485 54.7474 79.2299V79.2299" stroke="#343434" stroke-width="2" stroke-linecap="round" stroke-linejoin="round"/>
<ellipse cx="63.7474" cy="69.6777" rx="8" ry="4.61181" fill="#343434"/>
<ellipse cx="59.4448" cy="67.6655" rx="1.15989" ry="1.11412" fill="white"/>
<path d="M44.9109 70.6159C39.0678 70.1028 35.7531 69.9724 29.7474 70.127" stroke="#343434" stroke-width="1.5" stroke-linecap="round" stroke-linejoin="round"/>
<path d="M43.409 79.5697C38.3628 80.4354 35.6001 81.0736 30.8379 82.5881" stroke="#343434" stroke-width="1.5" stroke-linecap="round" stroke-linejoin="round"/>
<path d="M43.0155 75.261C37.74 75.0493 35.164 75.3775 29.8959 75.8275" stroke="#343434" stroke-width="1.5" stroke-linecap="round" stroke-linejoin="round"/>
<path d="M82.9109 70.6159C88.7541 70.1028 92.0688 69.9724 98.0745 70.127" stroke="#343434" stroke-width="1.5" stroke-linecap="round" stroke-linejoin="round"/>
<path d="M84.4129 79.5697C89.4591 80.4354 92.2217 81.0736 96.9839 82.5881" stroke="#343434" stroke-width="1.5" stroke-linecap="round" stroke-linejoin="round"/>
<path d="M84.8064 75.261C90.0819 75.0493 92.6578 75.3775 97.926 75.8275" stroke="#343434" stroke-width="1.5" stroke-linecap="round" stroke-linejoin="round"/>
<path d="M49.6778 18.0691C49.7726 18.0146 49.8658 17.9551 49.957 17.8906C51.5151 16.7879 51.8903 14.6395 50.795 13.0918C49.6998 11.5442 47.5488 11.1835 45.9908 12.2862C45.8395 12.3932 45.6994 12.5101 45.5707 12.6354C45.4748 11.3021 44.6299 10.0863 43.3213 9.60592C41.551 8.95608 39.6026 9.89807 38.9693 11.7099C38.6317 12.6758 38.736 13.694 39.1752 14.5326C39.0348 14.5153 38.8918 14.5062 38.7469 14.5058C36.8276 14.5004 35.2912 16.0246 35.3152 17.9102C35.3393 19.7959 36.9148 21.3288 38.8341 21.3342C38.9377 21.3344 39.0402 21.3303 39.1413 21.3218C39.0997 21.4144 39.0617 21.5097 39.0275 21.6075C38.3943 23.4193 39.316 25.4149 41.0862 26.0648C42.8565 26.7146 44.8049 25.7726 45.4382 23.9608C45.4944 23.7999 45.5384 23.6375 45.5706 23.4748C46.1977 24.0405 47.0316 24.3875 47.9431 24.3901C49.8624 24.3955 51.3988 22.8712 51.3747 20.9856C51.359 19.7537 50.6811 18.6724 49.6778 18.0691Z" fill="white"/>
<g style="mix-blend-mode:multiply">
<circle cx="44.0641" cy="18.0929" r="2.58966" transform="rotate(79.3678 44.0641 18.0929)" fill="#FED402"/>
</g>
<path d="M10.7365 102.517C24.2025 117.697 32.9515 121.446 54.2972 127.127" stroke="#BBD468" stroke-width="1.84133" stroke-linecap="round"/>
<path d="M5.07625 100.402C5.6527 101.156 6.40052 101.803 7.20125 102.349C9.65332 104.022 12.4437 101.705 11.3292 98.9534C10.9776 98.0855 10.5345 97.2385 9.97697 96.5092C9.45274 95.8234 8.80163 95.208 8.10612 94.6657C5.72691 92.8102 2.72671 94.964 3.73205 97.8088C4.06226 98.7431 4.49889 99.6471 5.07625 100.402Z" fill="#BBD468"/>
<path d="M15.3674 105.165C15.356 105.855 15.4546 106.567 15.6078 107.244C15.9862 108.918 18.0073 108.951 18.4404 107.291C18.6157 106.619 18.7376 105.911 18.7489 105.22C18.7603 104.53 18.6617 103.818 18.5085 103.141C18.1302 101.467 16.109 101.434 15.6759 103.094C15.5006 103.766 15.3787 104.474 15.3674 105.165Z" fill="#BBD468"/>
<path d="M13.1555 110.803C13.8462 110.801 14.5559 110.687 15.2297 110.52C16.8948 110.108 16.8863 108.086 15.2179 107.687C14.5427 107.526 13.8321 107.419 13.1414 107.421C12.4507 107.424 11.741 107.538 11.0671 107.705C9.4021 108.117 9.41053 110.139 11.0789 110.538C11.7542 110.699 12.4648 110.806 13.1555 110.803Z" fill="#BBD468"/>
<path d="M22.2354 111.039C22.224 111.729 22.3227 112.441 22.4758 113.118C22.8542 114.791 24.8753 114.825 25.3084 113.165C25.4837 112.493 25.6056 111.785 25.6169 111.094C25.6283 110.403 25.5297 109.692 25.3765 109.014C24.9982 107.341 22.977 107.308 22.5439 108.968C22.3686 109.64 22.2467 110.348 22.2354 111.039Z" fill="#BBD468"/>
<path d="M20.9566 117.533C21.6264 117.364 22.288 117.084 22.902 116.759C24.419 115.958 23.9248 113.998 22.2095 114.012C21.5152 114.018 20.7997 114.085 20.1299 114.253C19.4601 114.422 18.7985 114.703 18.1846 115.027C16.6676 115.828 17.1617 117.788 18.8771 117.774C19.5713 117.768 20.2869 117.702 20.9566 117.533Z" fill="#BBD468"/>
<path d="M29.9175 116.417C29.9538 117.106 30.1013 117.81 30.3007 118.475C30.7935 120.118 32.8121 120.012 33.1298 118.326C33.2584 117.644 33.3312 116.929 33.2949 116.239C33.2586 115.549 33.1112 114.846 32.9117 114.181C32.4189 112.538 30.4003 112.644 30.0826 114.33C29.9541 115.012 29.8813 115.727 29.9175 116.417Z" fill="#BBD468"/>
<path d="M29.2113 122.302C29.8499 122.038 30.4644 121.666 31.0254 121.257C32.4116 120.246 31.6412 118.378 29.9456 118.638C29.2593 118.743 28.5608 118.912 27.9222 119.175C27.2836 119.438 26.6692 119.811 26.1081 120.22C24.7219 121.23 25.4924 123.099 27.1879 122.839C27.8742 122.734 28.5728 122.565 29.2113 122.302Z" fill="#BBD468"/>
<path d="M38.3992 119.852C38.4933 120.536 38.6993 121.225 38.954 121.871C39.5831 123.467 41.5856 123.191 41.7605 121.485C41.8313 120.794 41.8438 120.076 41.7497 119.391C41.6556 118.707 41.4495 118.019 41.1949 117.373C40.5658 115.777 38.5632 116.052 38.3883 117.759C38.3176 118.449 38.3051 119.168 38.3992 119.852Z" fill="#BBD468"/>
<path d="M38.5637 126.617C39.1666 126.28 39.7327 125.837 40.2415 125.365C41.4986 124.198 40.5125 122.433 38.8596 122.892C38.1906 123.077 37.5169 123.328 36.9139 123.665C36.311 124.001 35.7449 124.444 35.2361 124.917C33.979 126.084 34.9651 127.848 36.618 127.39C37.287 127.204 37.9607 126.954 38.5637 126.617Z" fill="#BBD468"/>
<path d="M116.341 102.052C102.876 117.232 94.1265 120.982 72.7808 126.662" stroke="#BBD468" stroke-width="1.84133" stroke-linecap="round"/>
<path d="M122.002 99.9376C121.425 100.692 120.677 101.338 119.877 101.885C117.425 103.558 114.634 101.24 115.749 98.4887C116.1 97.6207 116.543 96.7738 117.101 96.0445C117.625 95.3587 118.276 94.7433 118.972 94.2009C121.351 92.3455 124.351 94.4993 123.346 97.3441C123.016 98.2784 122.579 99.1824 122.002 99.9376Z" fill="#BBD468"/>
<path d="M111.711 104.7C111.722 105.391 111.623 106.103 111.47 106.78C111.092 108.453 109.071 108.486 108.638 106.826C108.462 106.154 108.34 105.446 108.329 104.756C108.318 104.065 108.416 103.353 108.569 102.676C108.948 101.003 110.969 100.97 111.402 102.629C111.577 103.301 111.699 104.009 111.711 104.7Z" fill="#BBD468"/>
<path d="M113.922 110.339C113.232 110.336 112.522 110.223 111.848 110.056C110.183 109.643 110.192 107.621 111.86 107.223C112.535 107.061 113.246 106.954 113.937 106.957C114.627 106.96 115.337 107.073 116.011 107.24C117.676 107.653 117.667 109.674 115.999 110.073C115.324 110.234 114.613 110.342 113.922 110.339Z" fill="#BBD468"/>
<path d="M104.843 110.574C104.854 111.264 104.755 111.976 104.602 112.653C104.224 114.327 102.203 114.36 101.77 112.7C101.594 112.028 101.472 111.32 101.461 110.629C101.45 109.939 101.548 109.227 101.701 108.55C102.08 106.877 104.101 106.843 104.534 108.503C104.709 109.175 104.831 109.883 104.843 110.574Z" fill="#BBD468"/>
<path d="M106.121 117.068C105.452 116.899 104.79 116.619 104.176 116.295C102.659 115.494 103.153 113.534 104.869 113.548C105.563 113.553 106.278 113.62 106.948 113.789C107.618 113.958 108.279 114.238 108.893 114.562C110.41 115.363 109.916 117.323 108.201 117.309C107.507 117.304 106.791 117.237 106.121 117.068Z" fill="#BBD468"/>
<path d="M97.1604 115.952C97.1241 116.642 96.9767 117.345 96.7772 118.01C96.2844 119.653 94.2658 119.547 93.9482 117.861C93.8196 117.179 93.7468 116.464 93.7831 115.774C93.8194 115.085 93.9668 114.381 94.1662 113.716C94.659 112.073 96.6777 112.179 96.9953 113.865C97.1239 114.547 97.1967 115.262 97.1604 115.952Z" fill="#BBD468"/>
<path d="M97.8667 121.837C97.2281 121.574 96.6136 121.201 96.0526 120.792C94.6663 119.782 95.4368 117.913 97.1324 118.173C97.8187 118.278 98.5172 118.447 99.1558 118.71C99.7943 118.974 100.409 119.346 100.97 119.755C102.356 120.766 101.586 122.634 99.89 122.374C99.2038 122.269 98.5052 122.1 97.8667 121.837Z" fill="#BBD468"/>
<path d="M88.6788 119.387C88.5846 120.072 88.3786 120.76 88.124 121.406C87.4949 123.002 85.4923 122.726 85.3174 121.02C85.2467 120.329 85.2342 119.611 85.3283 118.927C85.4224 118.242 85.6284 117.554 85.8831 116.908C86.5122 115.312 88.5147 115.587 88.6896 117.294C88.7604 117.985 88.7729 118.703 88.6788 119.387Z" fill="#BBD468"/>
<path d="M88.5143 126.152C87.9113 125.815 87.3452 125.373 86.8365 124.9C85.5794 123.733 86.5654 121.968 88.2184 122.427C88.8874 122.613 89.5611 122.863 90.164 123.2C90.767 123.537 91.3331 123.979 91.8419 124.452C93.0989 125.619 92.1129 127.384 90.46 126.925C89.791 126.739 89.1173 126.489 88.5143 126.152Z" fill="#BBD468"/>
<path d="M10.7365 102.517C24.2025 117.697 32.9515 121.446 54.2972 127.127" stroke="#BBD468" stroke-width="1.84133" stroke-linecap="round"/>
<path d="M5.07625 100.402C5.6527 101.156 6.40052 101.803 7.20125 102.349C9.65332 104.022 12.4437 101.705 11.3292 98.9534C10.9776 98.0855 10.5345 97.2385 9.97697 96.5092C9.45274 95.8234 8.80163 95.208 8.10612 94.6657C5.72691 92.8102 2.72671 94.964 3.73205 97.8088C4.06226 98.7431 4.49889 99.6471 5.07625 100.402Z" fill="#BBD468"/>
<path d="M15.3674 105.165C15.356 105.855 15.4546 106.567 15.6078 107.244C15.9862 108.918 18.0073 108.951 18.4404 107.291C18.6157 106.619 18.7376 105.911 18.7489 105.22C18.7603 104.53 18.6617 103.818 18.5085 103.141C18.1302 101.467 16.109 101.434 15.6759 103.094C15.5006 103.766 15.3787 104.474 15.3674 105.165Z" fill="#BBD468"/>
<path d="M13.1555 110.803C13.8462 110.801 14.5559 110.687 15.2297 110.52C16.8948 110.108 16.8863 108.086 15.2179 107.687C14.5427 107.526 13.8321 107.419 13.1414 107.421C12.4507 107.424 11.741 107.538 11.0671 107.705C9.4021 108.117 9.41053 110.139 11.0789 110.538C11.7542 110.699 12.4648 110.806 13.1555 110.803Z" fill="#BBD468"/>
<path d="M22.2354 111.039C22.224 111.729 22.3227 112.441 22.4758 113.118C22.8542 114.791 24.8753 114.825 25.3084 113.165C25.4837 112.493 25.6056 111.785 25.6169 111.094C25.6283 110.403 25.5297 109.692 25.3765 109.014C24.9982 107.341 22.977 107.308 22.5439 108.968C22.3686 109.64 22.2467 110.348 22.2354 111.039Z" fill="#BBD468"/>
<path d="M20.9566 117.533C21.6264 117.364 22.288 117.084 22.902 116.759C24.419 115.958 23.9248 113.998 22.2095 114.012C21.5152 114.018 20.7997 114.085 20.1299 114.253C19.4601 114.422 18.7985 114.703 18.1846 115.027C16.6676 115.828 17.1617 117.788 18.8771 117.774C19.5713 117.768 20.2869 117.702 20.9566 117.533Z" fill="#BBD468"/>
<path d="M29.9175 116.417C29.9538 117.106 30.1013 117.81 30.3007 118.475C30.7935 120.118 32.8121 120.012 33.1298 118.326C33.2584 117.644 33.3312 116.929 33.2949 116.239C33.2586 115.549 33.1112 114.846 32.9117 114.181C32.4189 112.538 30.4003 112.644 30.0826 114.33C29.9541 115.012 29.8813 115.727 29.9175 116.417Z" fill="#BBD468"/>
<path d="M29.2113 122.302C29.8499 122.038 30.4644 121.666 31.0254 121.257C32.4116 120.246 31.6412 118.378 29.9456 118.638C29.2593 118.743 28.5608 118.912 27.9222 119.175C27.2836 119.438 26.6692 119.811 26.1081 120.22C24.7219 121.23 25.4924 123.099 27.1879 122.839C27.8742 122.734 28.5728 122.565 29.2113 122.302Z" fill="#BBD468"/>
<path d="M38.3992 119.852C38.4933 120.536 38.6993 121.225 38.954 121.871C39.5831 123.467 41.5856 123.191 41.7605 121.485C41.8313 120.794 41.8438 120.076 41.7497 119.391C41.6556 118.707 41.4495 118.019 41.1949 117.373C40.5658 115.777 38.5632 116.052 38.3883 117.759C38.3176 118.449 38.3051 119.168 38.3992 119.852Z" fill="#BBD468"/>
<path d="M38.5637 126.617C39.1666 126.28 39.7327 125.837 40.2415 125.365C41.4986 124.198 40.5125 122.433 38.8596 122.892C38.1906 123.077 37.5169 123.328 36.9139 123.665C36.311 124.001 35.7449 124.444 35.2361 124.917C33.979 126.084 34.9651 127.848 36.618 127.39C37.287 127.204 37.9607 126.954 38.5637 126.617Z" fill="#BBD468"/>
<path d="M116.341 102.052C102.876 117.232 94.1265 120.982 72.7808 126.662" stroke="#BBD468" stroke-width="1.84133" stroke-linecap="round"/>
<path d="M122.002 99.9376C121.425 100.692 120.677 101.338 119.877 101.885C117.425 103.558 114.634 101.24 115.749 98.4887C116.1 97.6207 116.543 96.7738 117.101 96.0445C117.625 95.3587 118.276 94.7433 118.972 94.2009C121.351 92.3455 124.351 94.4993 123.346 97.3441C123.016 98.2784 122.579 99.1824 122.002 99.9376Z" fill="#BBD468"/>
<path d="M111.711 104.7C111.722 105.391 111.623 106.103 111.47 106.78C111.092 108.453 109.071 108.486 108.638 106.826C108.462 106.154 108.34 105.446 108.329 104.756C108.318 104.065 108.416 103.353 108.569 102.676C108.948 101.003 110.969 100.97 111.402 102.629C111.577 103.301 111.699 104.009 111.711 104.7Z" fill="#BBD468"/>
<path d="M113.922 110.339C113.232 110.336 112.522 110.223 111.848 110.056C110.183 109.643 110.192 107.621 111.86 107.223C112.535 107.061 113.246 106.954 113.937 106.957C114.627 106.96 115.337 107.073 116.011 107.24C117.676 107.653 117.667 109.674 115.999 110.073C115.324 110.234 114.613 110.342 113.922 110.339Z" fill="#BBD468"/>
<path d="M104.843 110.574C104.854 111.264 104.755 111.976 104.602 112.653C104.224 114.327 102.203 114.36 101.77 112.7C101.594 112.028 101.472 111.32 101.461 110.629C101.45 109.939 101.548 109.227 101.701 108.55C102.08 106.877 104.101 106.843 104.534 108.503C104.709 109.175 104.831 109.883 104.843 110.574Z" fill="#BBD468"/>
<path d="M106.121 117.068C105.452 116.899 104.79 116.619 104.176 116.295C102.659 115.494 103.153 113.534 104.869 113.548C105.563 113.553 106.278 113.62 106.948 113.789C107.618 113.958 108.279 114.238 108.893 114.562C110.41 115.363 109.916 117.323 108.201 117.309C107.507 117.304 106.791 117.237 106.121 117.068Z" fill="#BBD468"/>
<path d="M97.1604 115.952C97.1241 116.642 96.9767 117.345 96.7772 118.01C96.2844 119.653 94.2658 119.547 93.9482 117.861C93.8196 117.179 93.7468 116.464 93.7831 115.774C93.8194 115.085 93.9668 114.381 94.1662 113.716C94.659 112.073 96.6777 112.179 96.9953 113.865C97.1239 114.547 97.1967 115.262 97.1604 115.952Z" fill="#BBD468"/>
<path d="M97.8667 121.837C97.2281 121.574 96.6136 121.201 96.0526 120.792C94.6663 119.782 95.4368 117.913 97.1324 118.173C97.8187 118.278 98.5172 118.447 99.1558 118.71C99.7943 118.974 100.409 119.346 100.97 119.755C102.356 120.766 101.586 122.634 99.89 122.374C99.2038 122.269 98.5052 122.1 97.8667 121.837Z" fill="#BBD468"/>
<path d="M88.6788 119.387C88.5846 120.072 88.3786 120.76 88.124 121.406C87.4949 123.002 85.4923 122.726 85.3174 121.02C85.2467 120.329 85.2342 119.611 85.3283 118.927C85.4224 118.242 85.6284 117.554 85.8831 116.908C86.5122 115.312 88.5147 115.587 88.6896 117.294C88.7604 117.985 88.7729 118.703 88.6788 119.387Z" fill="#BBD468"/>
<path d="M88.5143 126.152C87.9113 125.815 87.3452 125.373 86.8365 124.9C85.5794 123.733 86.5654 121.968 88.2184 122.427C88.8874 122.613 89.5611 122.863 90.164 123.2C90.767 123.537 91.3331 123.979 91.8419 124.452C93.0989 125.619 92.1129 127.384 90.46 126.925C89.791 126.739 89.1173 126.489 88.5143 126.152Z" fill="#BBD468"/>
<path d="M71.0669 115.386C71.0841 115.204 71.0929 115.02 71.0929 114.834C71.0929 111.648 68.528 109.066 65.364 109.066C62.2 109.066 59.6351 111.648 59.6351 114.834C59.6351 115.143 59.6593 115.446 59.7058 115.742C57.7972 114.588 55.3266 114.567 53.4107 115.886C50.8189 117.671 50.2237 121.233 52.0813 123.843C53.0716 125.234 54.5591 126.073 56.1248 126.283C55.9658 126.458 55.8156 126.644 55.6753 126.841C53.8178 129.45 54.413 133.012 57.0047 134.797C59.5965 136.582 63.2034 135.914 65.061 133.305C65.1612 133.164 65.2543 133.02 65.3404 132.874C65.4264 133.02 65.5195 133.164 65.6198 133.305C67.4774 135.914 71.0843 136.582 73.6761 134.797C76.2678 133.012 76.863 129.45 75.0054 126.841C74.8405 126.609 74.6617 126.393 74.4711 126.192C75.8462 125.883 77.1228 125.082 78.005 123.843C79.8626 121.233 79.2674 117.671 76.6756 115.886C74.9824 114.72 72.8559 114.601 71.0669 115.386Z" fill="white"/>
<g style="mix-blend-mode:multiply">
<circle cx="65.6877" cy="123.056" r="4.32162" transform="rotate(24.6549 65.6877 123.056)" fill="#FED402"/>
</g>
<path d="M71.0669 115.386C71.0841 115.204 71.0929 115.02 71.0929 114.834C71.0929 111.648 68.528 109.066 65.364 109.066C62.2 109.066 59.6351 111.648 59.6351 114.834C59.6351 115.143 59.6593 115.446 59.7058 115.742C57.7972 114.588 55.3266 114.567 53.4107 115.886C50.8189 117.671 50.2237 121.233 52.0813 123.843C53.0716 125.234 54.5591 126.073 56.1248 126.283C55.9658 126.458 55.8156 126.644 55.6753 126.841C53.8178 129.45 54.413 133.012 57.0047 134.797C59.5965 136.582 63.2034 135.914 65.061 133.305C65.1612 133.164 65.2543 133.02 65.3404 132.874C65.4264 133.02 65.5195 133.164 65.6198 133.305C67.4774 135.914 71.0843 136.582 73.6761 134.797C76.2678 133.012 76.863 129.45 75.0054 126.841C74.8405 126.609 74.6617 126.393 74.4711 126.192C75.8462 125.883 77.1228 125.082 78.005 123.843C79.8626 121.233 79.2674 117.671 76.6756 115.886C74.9824 114.72 72.8559 114.601 71.0669 115.386Z" fill="white"/>
<g style="mix-blend-mode:multiply">
<circle cx="65.6877" cy="123.056" r="4.32162" transform="rotate(24.6549 65.6877 123.056)" fill="#FED402"/>
</g>
</svg>
