<svg width="142" height="170" viewBox="0 0 142 170" fill="none" xmlns="http://www.w3.org/2000/svg">
<path d="M35.0394 51.2948C30.2973 46.1382 25.5565 41.7275 23.9248 35.9108C19.9745 21.8298 27.3508 6.72733 27.612 6.14491L28.5762 3.97685C28.8583 3.34266 29.6441 3.11935 30.2175 3.51041L32.1532 4.83043C32.9957 5.40495 59.8768 19.5602 50.0461 40.7067L35.0394 51.2948Z" fill="#B9997B"/>
<path d="M37.3332 48.8759C33.8426 45.0802 30.353 41.8337 29.152 37.5521C26.2443 27.1875 31.6737 16.0709 31.866 15.6422L32.433 14.3675C32.715 13.7333 33.5008 13.51 34.0742 13.9011L35.2087 14.6747C35.8288 15.0976 55.6153 25.5169 48.3792 41.0823L37.3332 48.8759Z" fill="#FDF5CF"/>
<path d="M106.295 51.2948C111.037 46.1382 115.778 41.7275 117.41 35.9108C121.36 21.8298 113.984 6.72733 113.723 6.14491L112.758 3.97685C112.476 3.34266 111.691 3.11935 111.117 3.51041L109.181 4.83043C108.339 5.40495 81.4578 19.5602 91.2885 40.7067L106.295 51.2948Z" fill="#B9997B"/>
<path d="M104.001 48.8759C107.492 45.0802 110.982 41.8337 112.183 37.5521C115.09 27.1875 109.661 16.0709 109.469 15.6422L108.902 14.3675C108.62 13.7333 107.834 13.51 107.26 13.9011L106.126 14.6747C105.506 15.0976 85.7192 25.5169 92.9554 41.0823L104.001 48.8759Z" fill="#FDF5CF"/>
<path fill-rule="evenodd" clip-rule="evenodd" d="M76.7963 9.51461C79.2442 10.4056 80.5063 13.1122 79.6154 15.56L76.0663 25.3108C75.303 27.408 73.207 28.6348 71.0828 28.3831C70.7343 28.6364 70.3449 28.8459 69.9198 29.0007C67.472 29.8916 64.7654 28.6295 63.8744 26.1817L60.3254 16.4308C59.4345 13.983 60.6966 11.2764 63.1444 10.3854C65.5923 9.49449 68.2989 10.7566 69.1898 13.2044L69.8119 14.9136L70.751 12.3336C71.6419 9.88579 74.3485 8.62367 76.7963 9.51461Z" fill="#B9997B"/>
<path fill-rule="evenodd" clip-rule="evenodd" d="M107.852 48.29C107.898 48.6492 108.11 48.9681 108.424 49.1483C118.673 55.032 125.576 66.085 125.576 78.7503C125.576 97.5882 110.305 112.859 91.4668 112.859H51.8051C32.9672 112.859 17.696 97.5882 17.696 78.7503C17.696 66.085 24.599 55.032 34.8478 49.1484C35.1618 48.9681 35.3739 48.6492 35.42 48.29C37.522 31.9133 51.5146 19.2577 68.4631 19.2577H74.8089C91.7573 19.2577 105.75 31.9133 107.852 48.29Z" fill="#B9997B"/>
<path fill-rule="evenodd" clip-rule="evenodd" d="M123.471 90.5732C118.663 103.584 106.148 112.859 91.4669 112.859H51.8051C37.1238 112.859 24.6088 103.584 19.8008 90.5732C24.6088 77.5626 37.1238 68.287 51.8051 68.287H91.4669C106.148 68.287 118.663 77.5626 123.471 90.5732Z" fill="#FDF5CF"/>
<ellipse cx="46.668" cy="56.5869" rx="6.68583" ry="8.35729" fill="#433D3C"/>
<ellipse cx="44.9965" cy="53.6618" rx="2.50719" ry="2.92505" fill="white"/>
<circle cx="48.7573" cy="57.8404" r="1.25359" fill="white"/>
<ellipse cx="6.68583" cy="8.35729" rx="6.68583" ry="8.35729" transform="matrix(-1 0 0 1 103.498 48.2296)" fill="#433D3C"/>
<ellipse cx="2.50719" cy="2.92505" rx="2.50719" ry="2.92505" transform="matrix(-1 0 0 1 100.99 50.7368)" fill="white"/>
<circle cx="1.25359" cy="1.25359" r="1.25359" transform="matrix(-1 0 0 1 95.976 56.5869)" fill="white"/>
<path d="M81.3918 68.717C81.3918 65.8841 77.3382 64.0567 72.338 64.0567C67.3377 64.0567 63.2842 65.8841 63.2842 68.717C63.2842 71.5498 67.3377 75.0067 72.338 75.0067C77.3382 75.0067 81.3918 71.5498 81.3918 68.717Z" fill="#433D3C"/>
<circle cx="76.492" cy="68.6157" r="1.27818" fill="white"/>
<path d="M72.297 67.6816V77.1041C72.297 80.1812 74.7915 82.6756 77.8686 82.6756H78.647C81.2941 82.6756 83.4401 80.5297 83.4401 77.8825V77.8825" stroke="#433D3C" stroke-width="2.34332" stroke-linecap="round" stroke-linejoin="round"/>
<path d="M72.297 67.6816V77.1041C72.297 80.1812 69.8025 82.6756 66.7255 82.6756H65.9471C63.2999 82.6756 61.1539 80.5297 61.1539 77.8825V77.8825" stroke="#433D3C" stroke-width="2.34332" stroke-linecap="round" stroke-linejoin="round"/>
<ellipse cx="38.8679" cy="80.9901" rx="6.68583" ry="4.90294" fill="#FFCEB9"/>
<ellipse cx="104.612" cy="80.9901" rx="6.68583" ry="4.90294" fill="#FFCEB9"/>
<path d="M51.3574 23.4172L52.5388 18.2953C52.8906 16.7703 51.7323 15.3145 50.1673 15.3145C48.6022 15.3145 47.4439 16.7703 47.7958 18.2953L48.9772 23.4172L49.554 26.0334L50.9619 25.942L51.3574 23.4172Z" fill="#FFE591"/>
<path d="M52.5646 27.0045L57.6865 28.1859C59.2115 28.5377 60.6673 27.3794 60.6673 25.8143C60.6673 24.2492 59.2115 23.091 57.6865 23.4427L52.5646 24.6241L50.0695 25.1368V26.3155L52.5646 27.0045Z" fill="#FFE591"/>
<path d="M47.77 27.0045L42.6481 28.186C41.1231 28.5378 39.6673 27.3795 39.6673 25.8144C39.6673 24.2493 41.1231 23.0911 42.6481 23.4428L47.77 24.6242L49.4477 25.0295L49.7677 26.5476L47.77 27.0045Z" fill="#FFE591"/>
<path d="M48.7294 22.3431L46.5273 18.8206C45.6977 17.4935 43.8493 17.2831 42.7427 18.3897C41.636 19.4964 41.8464 21.3448 43.1735 22.1744L46.6961 24.3766L49.188 26.0334L50.1673 25.0107L48.7294 22.3431Z" fill="#FFE591"/>
<path d="M53.6385 24.3766L57.1611 22.1745C58.4882 21.3449 58.6986 19.4965 57.5919 18.3898C56.4853 17.2832 54.6368 17.4936 53.8072 18.8207L51.6052 22.3432L49.7678 25.2932L50.697 26.5903L53.6385 24.3766Z" fill="#FFE591"/>
<path d="M53.6385 27.2523L57.1611 29.4543C58.4882 30.2839 58.6986 32.1324 57.5919 33.239C56.4853 34.3457 54.6368 34.1352 53.8072 32.8081L51.6052 29.2856L49.8761 26.9434L51.2839 25.6449L53.6385 27.2523Z" fill="#FFE591"/>
<path d="M48.7294 29.2857L46.5273 32.8082C45.6977 34.1353 43.8493 34.3457 42.7427 33.2391C41.636 32.1324 41.8464 30.284 43.1735 29.4544L46.6961 27.2523L49.7677 25.3764L50.5556 26.0375L48.7294 29.2857Z" fill="#FFE591"/>
<path d="M51.5157 28.3581L52.6783 33.3983C53.0245 34.899 51.8846 36.3316 50.3446 36.3316C48.8045 36.3316 47.6647 34.899 48.0108 33.3983L49.1734 28.3581L49.6205 25.6269L50.7542 25.5031L51.5157 28.3581Z" fill="#FFE591"/>
<path d="M50.1676 28.2871C51.533 28.2871 52.6399 27.1802 52.6399 25.8148C52.6399 24.4495 51.533 23.3426 50.1676 23.3426C48.8022 23.3426 47.6954 24.4495 47.6954 25.8148C47.6954 27.1802 48.8022 28.2871 50.1676 28.2871Z" fill="#FFD500"/>
<g style="mix-blend-mode:multiply">
<path fill-rule="evenodd" clip-rule="evenodd" d="M49.5418 28.2072C49.7417 28.2593 49.9514 28.2871 50.1676 28.2871C51.533 28.2871 52.6399 27.1802 52.6399 25.8148C52.6399 24.4495 51.533 23.3426 50.1676 23.3426C50.0255 23.3426 49.8862 23.3546 49.7507 23.3776C50.813 23.6547 51.5971 24.6208 51.5971 25.7699C51.5971 26.9932 50.7086 28.009 49.5418 28.2072Z" fill="#FED402" fill-opacity="0.5"/>
</g>
<path d="M22.8343 84.4829C22.369 83.6524 21.3639 83.3009 20.468 83.6228L18.6185 84.2874C17.3557 84.7412 16.9042 86.2778 17.5978 87.4266C18.6823 89.2227 19.2688 90.8437 19.5764 92.9187C19.7735 94.2482 21.1013 95.1496 22.3662 94.6951L24.2201 94.0289C25.111 93.7088 25.6626 92.806 25.4966 91.8741C24.9851 89.0033 24.2577 87.0236 22.8343 84.4829Z" fill="#3F2B1F"/>
<path d="M42.66 100.366C38.5842 93.4879 30.0598 91.2747 22.5358 93.99C14.8873 96.7501 9.68547 104.094 11.0969 112.106C12.6247 120.777 15.8978 130.903 22.9063 133.595C33.0607 137.496 42.2733 134.115 47.6323 124.616C51.3747 117.982 47.1831 107.999 42.66 100.366Z" fill="#9F784E"/>
<g style="mix-blend-mode:multiply">
<path fill-rule="evenodd" clip-rule="evenodd" d="M49.0777 118.726C49.0608 120.855 48.6266 122.853 47.6323 124.616C42.2733 134.115 33.0607 137.496 22.9063 133.595C15.8979 130.903 12.6247 120.777 11.097 112.106C10.594 109.251 10.9307 106.481 11.9185 103.974C11.9135 104.777 11.9727 105.592 12.1008 106.416C13.4613 115.166 16.5608 125.454 23.6162 128.164C33.7706 132.065 43.5508 128.536 48.9098 119.036C48.9677 118.934 49.0236 118.83 49.0777 118.726Z" fill="#9F784E" fill-opacity="0.6"/>
</g>
<path d="M7.56601 107.87C7.11123 102.521 12.5854 96.7772 22.2572 93.3017C29.5985 90.6636 35.7174 90.0471 39.8855 92.1601C42.0426 93.0357 43.9667 95.048 44.9391 97.754C46.5389 102.206 44.9567 106.849 41.4052 108.126C39.8844 108.672 38.2492 108.513 36.7507 107.802C36.0474 109.304 34.8877 110.468 33.3669 111.014C32.1146 111.464 30.7846 111.435 29.5172 111.014C28.8938 112.955 27.592 114.49 25.7743 115.143C24.1081 115.742 22.3045 115.493 20.6939 114.6C19.9797 115.908 18.8957 116.915 17.5132 117.411C13.9617 118.688 9.78574 116.113 8.18595 111.661C7.72745 110.385 7.5303 109.094 7.56601 107.87Z" fill="#322318"/>
<path d="M6.79691 105.73C6.34212 100.38 11.8163 94.6369 21.4881 91.1613C28.8294 88.5232 34.9483 87.9067 39.1163 90.0197C41.2735 90.8953 43.1976 92.9076 44.17 95.6136C45.7698 100.065 44.1876 104.709 40.6361 105.985C39.1153 106.532 37.4801 106.372 35.9816 105.662C35.2783 107.163 34.1186 108.327 32.5978 108.874C31.3455 109.324 30.0154 109.295 28.7481 108.874C28.1247 110.814 26.8229 112.349 25.0052 113.003C23.339 113.601 21.5354 113.352 19.9248 112.46C19.2106 113.767 18.1266 114.774 16.7441 115.271C13.1926 116.547 9.01664 113.973 7.41685 109.521C6.95834 108.245 6.7612 106.953 6.79691 105.73Z" fill="#5E4030"/>
<path d="M53.2137 100.929C52.9083 100.384 52.2488 100.153 51.6609 100.365L50.4473 100.801C49.6186 101.099 49.3223 102.107 49.7774 102.861C50.4891 104.039 50.874 105.103 51.0758 106.465C51.2051 107.337 52.0765 107.929 52.9065 107.63L54.1231 107.193C54.7077 106.983 55.0697 106.391 54.9607 105.779C54.6251 103.895 54.1478 102.596 53.2137 100.929Z" fill="#3F2B1F"/>
<path d="M66.2237 111.352C63.5491 106.838 57.9552 105.386 53.0178 107.168C47.9988 108.979 44.5852 113.798 45.5115 119.056C46.514 124.746 48.6619 131.391 53.261 133.157C59.9245 135.717 65.9699 133.499 69.4866 127.265C71.9425 122.912 69.1918 116.361 66.2237 111.352Z" fill="#9F784E"/>
<g style="mix-blend-mode:multiply">
<path fill-rule="evenodd" clip-rule="evenodd" d="M70.4351 123.4C70.424 124.797 70.1391 126.108 69.4866 127.265C65.9699 133.498 59.9245 135.717 53.261 133.157C48.6619 131.391 46.514 124.746 45.5115 119.056C45.1814 117.182 45.4024 115.365 46.0505 113.719C46.0473 114.246 46.0862 114.781 46.1702 115.322C47.063 121.064 49.097 127.815 53.7268 129.593C60.3903 132.153 66.8082 129.837 70.3249 123.604C70.3629 123.536 70.3996 123.468 70.4351 123.4Z" fill="#9F784E" fill-opacity="0.6"/>
</g>
<path d="M43.1944 116.276C42.896 112.766 46.4882 108.997 52.835 106.716C57.6525 104.985 61.6678 104.58 64.403 105.967C65.8186 106.541 67.0812 107.862 67.7193 109.638C68.7691 112.559 67.7308 115.606 65.4003 116.444C64.4023 116.802 63.3293 116.698 62.3459 116.231C61.8844 117.217 61.1234 117.981 60.1254 118.339C59.3036 118.635 58.4308 118.616 57.5992 118.339C57.1901 119.613 56.3358 120.62 55.143 121.049C54.0496 121.442 52.866 121.278 51.8091 120.693C51.3405 121.55 50.6291 122.211 49.7219 122.537C47.3914 123.375 44.651 121.685 43.6012 118.764C43.3003 117.927 43.171 117.079 43.1944 116.276Z" fill="#322318"/>
<path d="M42.6897 114.871C42.3913 111.361 45.9835 107.592 52.3303 105.311C57.1478 103.58 61.1631 103.176 63.8983 104.562C65.3139 105.137 66.5765 106.457 67.2146 108.233C68.2644 111.155 67.2261 114.202 64.8956 115.039C63.8976 115.398 62.8246 115.293 61.8412 114.827C61.3797 115.812 60.6187 116.576 59.6207 116.935C58.7989 117.23 57.9261 117.211 57.0945 116.935C56.6854 118.208 55.8311 119.215 54.6383 119.644C53.5449 120.037 52.3613 119.874 51.3044 119.288C50.8358 120.146 50.1244 120.807 49.2172 121.133C46.8867 121.97 44.1463 120.281 43.0965 117.359C42.7956 116.522 42.6663 115.674 42.6897 114.871Z" fill="#5E4030"/>
<path d="M104.169 99.866C120.972 119.297 124.218 130.901 127.786 158.636" stroke="#BBD468" stroke-width="1.84133" stroke-linecap="round"/>
<path d="M102.459 92.4101C103.681 93.6303 104.565 95.2575 105.197 96.8543C106.29 99.6142 103.701 102.002 101.012 100.744C99.4971 100.035 97.9508 99.1038 96.7563 97.9107C95.6015 96.7572 94.6909 95.2746 93.9898 93.8095C92.6875 91.0878 95.1449 88.4768 97.94 89.6128C99.5751 90.2774 101.235 91.1867 102.459 92.4101Z" fill="#BBD468"/>
<path d="M106.719 106.119C107.936 106.26 109.169 106.68 110.252 107.16C111.819 107.856 111.588 109.851 109.902 110.169C108.738 110.388 107.442 110.513 106.225 110.372C105.008 110.23 103.774 109.811 102.692 109.331C101.124 108.635 101.356 106.639 103.042 106.322C104.205 106.103 105.502 105.977 106.719 106.119Z" fill="#BBD468"/>
<path d="M114.164 104.284C113.998 105.498 113.553 106.722 113.051 107.794C112.323 109.347 110.332 109.074 110.05 107.382C109.854 106.215 109.756 104.916 109.922 103.702C110.089 102.488 110.534 101.264 111.036 100.192C111.764 98.6383 113.754 98.9114 114.037 100.603C114.232 101.771 114.331 103.07 114.164 104.284Z" fill="#BBD468"/>
<path d="M112.945 115.717C114.162 115.859 115.395 116.278 116.477 116.758C118.045 117.454 117.813 119.45 116.127 119.767C114.964 119.986 113.667 120.112 112.45 119.97C111.233 119.829 110 119.409 108.918 118.929C107.35 118.233 107.582 116.238 109.268 115.92C110.431 115.701 111.728 115.576 112.945 115.717Z" fill="#BBD468"/>
<path d="M121.308 115.196C120.854 116.334 120.128 117.416 119.383 118.336C118.303 119.668 116.437 118.925 116.569 117.215C116.66 116.034 116.877 114.75 117.33 113.612C117.784 112.473 118.51 111.392 119.255 110.472C120.335 109.139 122.201 109.883 122.069 111.593C121.978 112.773 121.761 114.058 121.308 115.196Z" fill="#BBD468"/>
<path d="M118.412 126.255C119.617 126.48 120.818 126.983 121.865 127.537C123.381 128.339 123.012 130.314 121.308 130.515C120.132 130.653 118.83 130.689 117.626 130.464C116.422 130.239 115.22 129.735 114.174 129.182C112.657 128.379 113.026 126.405 114.73 126.204C115.906 126.065 117.208 126.03 118.412 126.255Z" fill="#BBD468"/>
<path d="M125.915 126.35C125.303 127.412 124.429 128.378 123.56 129.181C122.299 130.345 120.559 129.341 120.936 127.667C121.196 126.512 121.594 125.272 122.207 124.211C122.819 123.15 123.693 122.184 124.562 121.38C125.822 120.217 127.563 121.22 127.186 122.894C126.926 124.049 126.527 125.289 125.915 126.35Z" fill="#BBD468"/>
<path d="M121.309 137.472C122.49 137.797 123.645 138.4 124.641 139.039C126.084 139.966 125.551 141.903 123.836 141.96C122.653 141.999 121.353 141.925 120.171 141.599C118.99 141.274 117.835 140.671 116.839 140.032C115.396 139.105 115.929 137.168 117.644 137.111C118.827 137.072 120.127 137.146 121.309 137.472Z" fill="#BBD468"/>
<path d="M129.77 138.807C129.037 139.788 128.055 140.644 127.096 141.339C125.707 142.346 124.098 141.143 124.67 139.526C125.064 138.41 125.607 137.225 126.341 136.244C127.074 135.262 128.056 134.406 129.014 133.711C130.403 132.705 132.013 133.907 131.441 135.525C131.046 136.641 130.504 137.825 129.77 138.807Z" fill="#BBD468"/>
<path d="M89.1691 109.866C105.972 129.297 109.218 140.901 112.786 168.636" stroke="#BBD468" stroke-width="1.84133" stroke-linecap="round"/>
<path d="M87.4592 102.41C88.6808 103.63 89.5646 105.257 90.1971 106.854C91.2903 109.614 88.7006 112.002 86.0117 110.744C84.497 110.035 82.9507 109.104 81.7562 107.911C80.6014 106.757 79.6908 105.275 78.9897 103.809C77.6874 101.088 80.1448 98.4768 82.9399 99.6128C84.5751 100.277 86.2345 101.187 87.4592 102.41Z" fill="#BBD468"/>
<path d="M91.719 116.119C92.936 116.26 94.1693 116.68 95.2515 117.16C96.8194 117.856 96.5875 119.851 94.9017 120.169C93.7383 120.388 92.4416 120.513 91.2246 120.372C90.0076 120.23 88.7743 119.811 87.6921 119.331C86.1242 118.635 86.3562 116.639 88.0419 116.322C89.2053 116.103 90.502 115.977 91.719 116.119Z" fill="#BBD468"/>
<path d="M99.1641 114.284C98.9976 115.498 98.553 116.722 98.0506 117.794C97.3226 119.347 95.3323 119.074 95.0495 117.382C94.8544 116.215 94.7559 114.916 94.9224 113.702C95.0889 112.488 95.5335 111.264 96.0359 110.192C96.7638 108.638 98.7541 108.911 99.0369 110.603C99.2321 111.771 99.3306 113.07 99.1641 114.284Z" fill="#BBD468"/>
<path d="M97.9446 125.717C99.1616 125.859 100.395 126.278 101.477 126.758C103.045 127.454 102.813 129.45 101.127 129.767C99.9638 129.986 98.6672 130.112 97.4502 129.97C96.2331 129.829 94.9998 129.409 93.9177 128.929C92.3497 128.233 92.5817 126.238 94.2675 125.92C95.4309 125.701 96.7275 125.576 97.9446 125.717Z" fill="#BBD468"/>
<path d="M106.308 125.196C105.854 126.334 105.128 127.416 104.383 128.336C103.303 129.668 101.437 128.925 101.569 127.215C101.66 126.034 101.877 124.75 102.33 123.612C102.784 122.473 103.51 121.392 104.255 120.472C105.335 119.139 107.201 119.883 107.069 121.593C106.978 122.773 106.761 124.058 106.308 125.196Z" fill="#BBD468"/>
<path d="M103.412 136.255C104.617 136.48 105.818 136.983 106.865 137.537C108.381 138.339 108.012 140.314 106.308 140.515C105.132 140.653 103.83 140.689 102.626 140.464C101.421 140.239 100.22 139.735 99.1736 139.182C97.6573 138.379 98.0263 136.405 99.7299 136.204C100.906 136.065 102.208 136.03 103.412 136.255Z" fill="#BBD468"/>
<path d="M110.915 136.35C110.303 137.412 109.429 138.378 108.56 139.181C107.299 140.345 105.559 139.341 105.936 137.667C106.195 136.512 106.594 135.272 107.207 134.211C107.819 133.15 108.692 132.184 109.562 131.38C110.822 130.217 112.563 131.22 112.186 132.894C111.926 134.049 111.527 135.289 110.915 136.35Z" fill="#BBD468"/>
<path d="M106.309 147.472C107.49 147.797 108.645 148.4 109.641 149.039C111.084 149.966 110.551 151.903 108.836 151.96C107.653 151.999 106.353 151.925 105.171 151.599C103.99 151.274 102.835 150.671 101.839 150.032C100.395 149.105 100.929 147.168 102.644 147.111C103.827 147.072 105.127 147.146 106.309 147.472Z" fill="#BBD468"/>
<path d="M114.77 148.807C114.037 149.788 113.055 150.644 112.096 151.339C110.707 152.346 109.098 151.143 109.67 149.526C110.064 148.41 110.607 147.225 111.34 146.244C112.074 145.262 113.056 144.406 114.014 143.711C115.403 142.705 117.013 143.907 116.441 145.525C116.046 146.641 115.504 147.825 114.77 148.807Z" fill="#BBD468"/>
</svg>
