<svg width="121" height="129" viewBox="0 0 121 129" fill="none" xmlns="http://www.w3.org/2000/svg">
<ellipse cx="15.6705" cy="9.26049" rx="15.6705" ry="9.26049" transform="matrix(0.864804 0.502109 0.509896 -0.860236 2.7417 34.8671)" fill="#FFDE73"/>
<ellipse cx="10.8288" cy="6.39925" rx="10.8288" ry="6.39925" transform="matrix(0.864804 0.502109 0.509896 -0.860236 8.38776 34.8369)" fill="#FFC2A9"/>
<ellipse cx="15.6705" cy="9.26049" rx="15.6705" ry="9.26049" transform="matrix(-0.864804 0.502109 -0.509896 -0.860236 118.06 34.8671)" fill="#FFDE73"/>
<ellipse cx="10.8288" cy="6.39925" rx="10.8288" ry="6.39925" transform="matrix(-0.864804 0.502109 -0.509896 -0.860236 112.414 34.8369)" fill="#FFC2A9"/>
<path d="M29.6231 10.6408H34.6231L36.6231 43.6408H27.6231L29.6231 10.6408Z" fill="#FFDE73"/>
<circle cx="32.1231" cy="9.14081" r="8.5" fill="#FFDE73"/>
<path d="M86.6231 10.6408H91.6231L93.6231 43.6408H84.6231L86.6231 10.6408Z" fill="#FFDE73"/>
<circle cx="89.1231" cy="9.14081" r="8.5" fill="#FFDE73"/>
<rect x="18.6231" y="19.6408" width="85" height="105" rx="42.5" fill="#FFDE73"/>
<path fill-rule="evenodd" clip-rule="evenodd" d="M62.5423 19.6641C73.5782 20.0262 83.5496 24.5957 90.9042 31.8203C88.9201 38.0936 83.0526 42.6408 76.1231 42.6408C67.5627 42.6408 60.6231 35.7012 60.6231 27.1408C60.6231 24.4297 61.3192 21.8811 62.5423 19.6641Z" fill="#C37D2C"/>
<path fill-rule="evenodd" clip-rule="evenodd" d="M23.9059 41.6031C27.3234 35.4234 32.2353 30.1852 38.154 26.3762C39.6947 28.2033 40.6231 30.5636 40.6231 33.1408C40.6231 38.9398 35.9221 43.6408 30.1231 43.6408C27.7964 43.6408 25.6464 42.884 23.9059 41.6031Z" fill="#C37D2C"/>
<path fill-rule="evenodd" clip-rule="evenodd" d="M103.551 59.6412C103.599 60.4683 103.623 61.3017 103.623 62.1408V73.6408C103.623 73.6408 103.623 73.6408 103.623 73.6408C99.7571 73.6408 96.6231 70.5068 96.6231 66.6408C96.6231 62.7989 99.7181 59.6799 103.551 59.6412Z" fill="#C37D2C"/>
<path fill-rule="evenodd" clip-rule="evenodd" d="M18.6954 84.6404C18.6474 83.8133 18.6231 82.9799 18.6231 82.1408V70.6408C22.4891 70.6408 25.6231 73.7748 25.6231 77.6408C25.6231 81.4827 22.5281 84.6017 18.6954 84.6404Z" fill="#C37D2C"/>
<ellipse cx="31.6231" cy="73.0408" rx="4" ry="2.4" fill="#ED653B" fill-opacity="0.6"/>
<ellipse cx="90.6231" cy="73.0408" rx="4" ry="2.4" fill="#ED653B" fill-opacity="0.6"/>
<circle cx="9" cy="9" r="9" transform="matrix(-1 0 0 1 46.6231 51.6408)" fill="#333333"/>
<circle cx="3" cy="3" r="3" transform="matrix(-1 0 0 1 43.6231 54.6408)" fill="white"/>
<circle cx="1.5" cy="1.5" r="1.5" transform="matrix(-1 0 0 1 37.6231 61.6408)" fill="white"/>
<circle cx="84.6231" cy="60.6408" r="9" fill="#333333"/>
<circle cx="81.6231" cy="57.6408" r="3" fill="white"/>
<circle cx="86.1231" cy="63.1408" r="1.5" fill="white"/>
<ellipse cx="60.6231" cy="100.141" rx="46" ry="27.5" fill="#FFCEB9"/>
<ellipse cx="40.6231" cy="90.1408" rx="3" ry="4.5" fill="#333333"/>
<ellipse cx="83.6231" cy="90.1408" rx="3" ry="4.5" fill="#333333"/>
<path d="M94.3229 112.869C91.9067 109.142 85.7359 107.353 83.964 106.906C83.6964 106.838 83.4371 107.006 83.3896 107.278C83.075 109.078 82.1899 115.442 84.6061 119.169C87.0223 122.895 93.1931 124.684 94.965 125.132C95.2326 125.2 95.4919 125.031 95.5394 124.76C95.854 122.959 96.7391 116.596 94.3229 112.869Z" fill="#CCE772"/>
<path d="M82.21 119.915C83.4463 116.329 81.4498 111.257 80.7804 109.729C80.6697 109.476 80.3748 109.374 80.1318 109.505C78.6624 110.296 73.9643 113.06 72.7279 116.646C71.4916 120.232 73.4881 125.304 74.1575 126.832C74.2682 127.085 74.5631 127.187 74.8061 127.056C76.2755 126.265 80.9736 123.501 82.21 119.915Z" fill="#CCE772"/>
<path d="M37.6231 103.641C46.6231 118.141 78.6231 118.141 87.1231 103.641" stroke="#333333" stroke-width="2.5" stroke-linecap="round" stroke-linejoin="round"/>
<path d="M60.8278 51.4852C63.2186 38.5598 66.8943 33.3954 77.0662 22.63" stroke="#CCE772" stroke-width="1.24764" stroke-linecap="round"/>
<path d="M58.1076 55.7638C58.3778 53.2783 60.8981 50.7029 60.8981 50.7029C60.8981 50.7029 62.5177 53.5559 62.2475 56.0415C61.9773 58.527 59.7579 61.1923 59.7579 61.1923C59.7579 61.1923 57.8375 58.2493 58.1076 55.7638Z" fill="#CCE772"/>
<path d="M63.0582 48.8619C62.0939 47.4475 61.9759 45.248 61.9759 45.248C61.9759 45.248 63.9985 46.1887 64.9627 47.6031C65.927 49.0175 66.045 51.217 66.045 51.217C66.045 51.217 64.0224 50.2763 63.0582 48.8619Z" fill="#CCE772"/>
<path d="M58.3103 46.4891C59.853 45.5118 62.1487 45.3239 62.1487 45.3239C62.1487 45.3239 61.0192 47.3059 59.4766 48.2833C57.9339 49.2606 55.6382 49.4485 55.6382 49.4485C55.6382 49.4485 56.7677 47.4665 58.3103 46.4891Z" fill="#CCE772"/>
<path d="M65.2375 42.8637C64.2733 41.4493 64.1552 39.2498 64.1552 39.2498C64.1552 39.2498 66.1779 40.1905 67.1421 41.6049C68.1064 43.0193 68.2244 45.2188 68.2244 45.2188C68.2244 45.2188 66.2018 44.2781 65.2375 42.8637Z" fill="#CCE772"/>
<path d="M60.3466 39.6132C62.0683 39.0095 64.3136 39.3569 64.3136 39.3569C64.3136 39.3569 62.7366 41.0448 61.0149 41.6486C59.2933 42.2523 57.0479 41.9049 57.0479 41.9049C57.0479 41.9049 58.625 40.217 60.3466 39.6132Z" fill="#CCE772"/>
<path d="M68.1939 37.5787C67.337 36.0983 67.3773 33.8879 67.3773 33.8879C67.3773 33.8879 69.3201 34.9644 70.1771 36.4448C71.034 37.9253 70.9937 40.1356 70.9937 40.1356C70.9937 40.1356 69.0508 39.0591 68.1939 37.5787Z" fill="#CCE772"/>
<path d="M63.2528 33.9756C64.9892 33.4193 67.2196 33.8298 67.2196 33.8298C67.2196 33.8298 65.5949 35.4756 63.8585 36.032C62.1221 36.5883 59.8916 36.1778 59.8916 36.1778C59.8916 36.1778 61.5164 34.532 63.2528 33.9756Z" fill="#CCE772"/>
<path d="M72.0619 31.9735C71.3413 30.4221 71.5744 28.2127 71.5744 28.2127C71.5744 28.2127 73.4075 29.4477 74.1281 30.9991C74.8488 32.5505 74.6157 34.7599 74.6157 34.7599C74.6157 34.7599 72.7826 33.5248 72.0619 31.9735Z" fill="#CCE772"/>
<path d="M67.8538 28.2832C69.5902 27.7268 71.8206 28.1374 71.8206 28.1374C71.8206 28.1374 70.1958 29.7831 68.4594 30.3395C66.723 30.8959 64.4926 30.4853 64.4926 30.4853C64.4926 30.4853 66.1174 28.8395 67.8538 28.2832Z" fill="#CCE772"/>
<path d="M90.6231 46.1646C90.6231 43.2191 93.0666 40.8313 96.0807 40.8313C96.5162 40.8313 96.9398 40.8811 97.3458 40.9753C97.8243 38.5072 100.043 36.6408 102.708 36.6408C105.321 36.6408 107.505 38.4356 108.04 40.8327C108.082 40.8317 108.124 40.8313 108.165 40.8313C111.18 40.8313 113.623 43.2191 113.623 46.1646C113.623 49.7413 110.656 52.6408 106.996 52.6408H97.2502C93.5902 52.6408 90.6231 49.7413 90.6231 46.1646Z" fill="white"/>
<path d="M6.62311 56.9741C6.62311 54.3968 8.74786 52.3075 11.3689 52.3075C11.7475 52.3075 12.1159 52.3511 12.4689 52.4335C12.885 50.2739 14.8144 48.6408 17.1316 48.6408C19.404 48.6408 21.3033 50.2113 21.7684 52.3087C21.8046 52.3079 21.8409 52.3075 21.8773 52.3075C24.4984 52.3075 26.6231 54.3968 26.6231 56.9741C26.6231 60.1038 24.0431 62.6408 20.8604 62.6408H12.3858C9.20316 62.6408 6.62311 60.1038 6.62311 56.9741Z" fill="white"/>
</svg>
