<svg width="121" height="125" viewBox="0 0 121 125" fill="none" xmlns="http://www.w3.org/2000/svg">
<path fill-rule="evenodd" clip-rule="evenodd" d="M39.8476 73.9744C38.5094 75.9845 36.7953 77.7564 34.7963 79.2058C35.7264 81.2822 36.2422 83.5741 36.2422 85.9831C36.2422 86.0736 36.2415 86.1641 36.24 86.2543C40.0312 86.9486 43.3876 88.9365 45.8632 91.7588C49.2532 87.6039 54.2146 84.9831 59.7422 84.9831C60.0777 84.9831 60.4111 84.9927 60.7422 85.0118C61.0733 84.9927 61.4067 84.9831 61.7422 84.9831C67.2698 84.9831 72.2312 87.6039 75.6212 91.7588C78.0969 88.9365 81.4533 86.9486 85.2444 86.2543C85.243 86.1641 85.2422 86.0736 85.2422 85.9831C85.2422 84.6733 85.3947 83.398 85.6834 82.1733C82.7795 83.7786 79.4338 84.6933 75.8725 84.6933C72.608 84.6933 69.5247 83.9247 66.7968 82.5602C64.0689 83.9247 60.9856 84.6933 57.7211 84.6933C49.9576 84.6933 43.2186 80.3462 39.8476 73.9744ZM105.23 102.813C113.717 101.639 120.242 94.5515 120.242 85.9831C120.242 81.9804 118.818 78.3008 116.435 75.3963C118.831 72.1095 120.242 68.0721 120.242 63.7079C120.242 52.6699 111.213 43.7218 100.074 43.7218C95.2278 43.7218 90.7808 45.4157 87.303 48.2387C84.0542 46.02 80.1164 44.721 75.8725 44.721C72.608 44.721 69.5247 45.4896 66.7968 46.8542C64.0689 45.4896 60.9856 44.721 57.7211 44.721C50.4496 44.721 44.0769 48.5345 40.5285 54.2534C36.9326 47.9875 29.8201 43.7218 21.6335 43.7218C9.81943 43.7218 0.242218 52.6054 0.242218 63.5638C0.242218 68.1622 1.92857 72.3952 4.75892 75.7599C2.55113 78.6051 1.24222 82.1456 1.24222 85.9831C1.24222 94.5515 7.76776 101.639 16.2545 102.813C16.2463 103.035 16.2422 103.259 16.2422 103.483C16.2422 113.148 23.8534 120.983 33.2422 120.983C37.6136 120.983 41.5996 119.285 44.6115 116.494C47.9601 121.629 53.4888 124.983 59.7422 124.983C60.0777 124.983 60.4111 124.973 60.7422 124.954C61.0733 124.973 61.4067 124.983 61.7422 124.983C67.9956 124.983 73.5243 121.629 76.8729 116.494C79.8848 119.285 83.8708 120.983 88.2422 120.983C97.6311 120.983 105.242 113.148 105.242 103.483C105.242 103.259 105.238 103.035 105.23 102.813Z" fill="#FAFAFA"/>
<path fill-rule="evenodd" clip-rule="evenodd" d="M100.731 101.067C108.369 100.013 114.242 93.6452 114.242 85.9479C114.242 82.3522 112.961 79.0467 110.816 76.4375C112.972 73.4848 114.242 69.8578 114.242 65.9373C114.242 56.0215 106.116 47.9831 96.0909 47.9831C91.7293 47.9831 87.7269 49.5048 84.5969 52.0408C81.673 50.0477 78.129 48.8807 74.3095 48.8807C71.3714 48.8807 68.5965 49.5712 66.1413 50.797C63.6862 49.5712 60.9112 48.8807 57.9732 48.8807C51.4289 48.8807 45.6935 52.3065 42.4999 57.444C39.2635 51.8151 32.8623 47.9831 25.4944 47.9831C14.8617 47.9831 6.24222 55.9635 6.24222 65.8079C6.24222 69.9388 7.75993 73.7415 10.3072 76.764C8.32024 79.32 7.14222 82.5006 7.14222 85.9479C7.14222 93.6452 13.0152 100.013 20.6532 101.067C20.6459 101.266 20.6422 101.467 20.6422 101.669C20.6422 110.351 27.4923 117.39 35.9422 117.39C39.8765 117.39 43.4639 115.864 46.1746 113.357C49.1883 117.97 54.1642 120.983 59.7922 120.983C60.0942 120.983 60.3942 120.974 60.6922 120.957C60.9902 120.974 61.2903 120.983 61.5922 120.983C67.2203 120.983 72.1961 117.97 75.2099 113.357C77.9206 115.864 81.508 117.39 85.4422 117.39C93.8922 117.39 100.742 110.351 100.742 101.669C100.742 101.467 100.739 101.266 100.731 101.067ZM41.887 75.1601C40.6827 76.9658 39.14 78.5576 37.3409 79.8597C38.178 81.7249 38.6422 83.7839 38.6422 85.9479C38.6422 86.0293 38.6416 86.1105 38.6403 86.1916C42.0523 86.8153 45.073 88.6011 47.3011 91.1365C50.3521 87.404 54.8174 85.0496 59.7922 85.0496C60.0942 85.0496 60.3942 85.0583 60.6922 85.0754C60.9902 85.0583 61.2903 85.0496 61.5922 85.0496C66.5671 85.0496 71.0323 87.404 74.0833 91.1365C76.3114 88.6011 79.3322 86.8153 82.7442 86.1916C82.7429 86.1105 82.7422 86.0293 82.7422 85.9479C82.7422 84.7713 82.8795 83.6257 83.1393 82.5254C80.5257 83.9675 77.5146 84.7893 74.3095 84.7893C71.3714 84.7893 68.5965 84.0988 66.1413 82.873C63.6862 84.0988 60.9112 84.7893 57.9732 84.7893C50.9861 84.7893 44.921 80.8841 41.887 75.1601Z" fill="white"/>
<path d="M3.74826 37.8546C3.46617 36.7949 4.11873 35.7612 5.19866 35.5704C8.52575 34.9829 15.6559 34.302 21.5583 37.6801C29.5523 42.2554 32.2672 52.5437 32.2672 52.5437C32.2672 52.5437 21.2681 56.7299 13.274 52.1546C7.2755 48.7214 4.67352 41.3306 3.74826 37.8546Z" fill="#FFECD4"/>
<path d="M114.331 37.8546C114.613 36.7949 113.961 35.7612 112.881 35.5704C109.554 34.9829 102.424 34.302 96.5214 37.6801C88.5273 42.2554 85.8125 52.5437 85.8125 52.5437C85.8125 52.5437 96.8116 56.7299 104.806 52.1546C110.804 48.7214 113.406 41.3306 114.331 37.8546Z" fill="#FFECD4"/>
<g style="mix-blend-mode:multiply">
<path d="M8.57182 40.6106C8.25883 39.5596 8.91425 38.5249 9.99953 38.3674C12.4092 38.0179 16.6969 37.8166 20.3 39.8788C25.6421 42.9362 27.4563 49.8115 27.4563 49.8115C27.4563 49.8115 20.106 52.6089 14.7639 49.5515C11.0811 47.4437 9.31416 43.1034 8.57182 40.6106Z" fill="#FFECD4" fill-opacity="0.8"/>
</g>
<g style="mix-blend-mode:multiply">
<path d="M109.924 40.991C110.237 39.9399 109.582 38.9052 108.497 38.7478C106.087 38.3982 101.799 38.197 98.1961 40.2591C92.854 43.3166 91.0398 50.1918 91.0398 50.1918C91.0398 50.1918 98.3901 52.9893 103.732 49.9318C107.415 47.824 109.182 43.4838 109.924 40.991Z" fill="#FFECD4" fill-opacity="0.8"/>
</g>
<path d="M20.7807 71.3459C19.4117 88.9463 33.3244 103.983 50.9779 103.983H67.4921C85.1509 103.983 99.0654 88.9377 97.6883 71.3326L94.8407 34.9279C93.9159 23.1052 84.0523 13.9831 72.1935 13.9831H46.2603C34.3976 13.9831 24.5323 23.1109 23.6124 34.9379L20.7807 71.3459Z" fill="url(#paint0_linear_215_7)"/>
<ellipse cx="40.2422" cy="73.4831" rx="4" ry="4.5" fill="#3A211F"/>
<circle cx="41.9922" cy="71.7331" r="0.75" fill="white"/>
<ellipse cx="4" cy="4.5" rx="4" ry="4.5" transform="matrix(-1 0 0 1 84.2422 68.9831)" fill="#3A211F"/>
<circle cx="0.75" cy="0.75" r="0.75" transform="matrix(-1 0 0 1 82.7422 70.9831)" fill="white"/>
<rect x="61.2346" y="82.118" width="1.66414" height="7.21125" rx="0.832068" fill="#3A211F"/>
<path d="M67.9562 79.4022C67.9562 77.8496 65.334 76.5909 62.0993 76.5909C58.8645 76.5909 56.2423 77.8496 56.2423 79.4022C56.2423 80.9549 58.8646 84.6442 62.0993 84.6442C65.334 84.6442 67.9562 80.9549 67.9562 79.4022Z" fill="#3A211F"/>
<circle cx="58.8047" cy="79.1533" r="1.09818" fill="white"/>
<path fill-rule="evenodd" clip-rule="evenodd" d="M49.8708 1.98306C45.3206 1.98306 41.4343 4.64775 39.8908 8.40326C38.5352 7.82024 37.027 7.49521 35.4378 7.49521C29.58 7.49521 24.8226 11.9113 24.7474 17.3857C19.084 19.0712 15.2422 22.3469 15.2422 26.1117C15.2422 28.8326 17.249 31.2981 20.4999 33.0924C19.7864 34.4358 19.3851 35.9506 19.3851 37.5532C19.3851 43.0883 24.1717 47.5753 30.0763 47.5753C31.6655 47.5753 33.1737 47.2503 34.5294 46.6673C36.0729 50.4228 39.9592 53.0875 44.5094 53.0875C47.4887 53.0875 50.1834 51.9451 52.1222 50.1021C54.0718 52.0418 56.8375 53.2527 59.9049 53.2527C62.7335 53.2527 65.3055 52.223 67.2177 50.5416C69.1083 52.125 71.6032 53.0875 74.3379 53.0875C78.8134 53.0875 82.6465 50.5097 84.2399 46.8516C85.4746 47.3184 86.8236 47.5753 88.2365 47.5753C94.1412 47.5753 98.9278 43.0883 98.9278 37.5532C98.9278 35.9886 98.5453 34.5078 97.8633 33.1883C100.566 31.3697 102.242 28.8372 102.242 26.0362C102.242 21.9201 98.6221 18.3836 93.4451 16.8408C93.0739 11.6212 88.4399 7.49521 82.7778 7.49521C81.3648 7.49521 80.0159 7.75216 78.7812 8.21894C77.1878 4.56086 73.3547 1.98306 68.8792 1.98306C64.7411 1.98306 61.1521 4.18694 59.375 7.4109C57.598 4.18694 54.0089 1.98306 49.8708 1.98306Z" fill="#FAFAFA"/>
<path fill-rule="evenodd" clip-rule="evenodd" d="M50.9644 5.14319C46.9751 5.14319 43.5679 7.47943 42.2147 10.772C41.0261 10.2609 39.7038 9.97587 38.3105 9.97587C33.1749 9.97587 29.0039 13.8476 28.938 18.6472C23.9728 20.1249 20.6046 22.9967 20.6046 26.2974C20.6046 28.6829 22.364 30.8444 25.2141 32.4175C24.5886 33.5953 24.2368 34.9233 24.2368 36.3284C24.2368 41.1811 28.4333 45.115 33.6101 45.115C35.0034 45.115 36.3257 44.83 37.5143 44.3189C38.8674 47.6115 42.2746 49.9477 46.264 49.9477C48.876 49.9477 51.2385 48.9461 52.9382 47.3304C54.6475 49.0309 57.0723 50.0926 59.7615 50.0926C62.2414 50.0926 64.4964 49.1897 66.1729 47.7156C67.8304 49.1038 70.0178 49.9477 72.4154 49.9477C76.3391 49.9477 79.6998 47.6876 81.0967 44.4805C82.1792 44.8897 83.3618 45.115 84.6006 45.115C89.7773 45.115 93.9739 41.1811 93.9739 36.3283C93.9739 34.9567 93.6386 33.6584 93.0406 32.5016C95.41 30.9073 96.8798 28.6869 96.8798 26.2312C96.8798 22.6225 93.7059 19.522 89.1671 18.1694C88.8417 13.5932 84.7789 9.97587 79.8149 9.97587C78.576 9.97587 77.3934 10.2012 76.3109 10.6104C74.9139 7.40324 71.5533 5.14319 67.6296 5.14319C64.0016 5.14319 60.855 7.07538 59.297 9.90189C57.739 7.07538 54.5924 5.14319 50.9644 5.14319Z" fill="white"/>
<circle cx="36.2422" cy="85.9831" r="5" fill="#FFC6AD"/>
<circle cx="85.2422" cy="85.9831" r="5" fill="#FFC6AD"/>
<path d="M47.5987 23.4129C51.9648 20.5664 53.7398 12.6948 53.7398 12.6948C53.7398 12.6948 45.8212 11.1431 41.4551 13.9896C37.089 16.8361 35.314 24.7076 35.314 24.7076C35.314 24.7076 43.2326 26.2594 47.5987 23.4129Z" fill="#34876F"/>
<path d="M76.5656 32.1744C72.18 28.19 63.3044 28.1778 63.3044 28.1778C63.3044 28.1778 64.1656 37.0115 68.5512 40.9958C72.9368 44.9801 81.8124 44.9924 81.8124 44.9924C81.8124 44.9924 80.9511 36.1587 76.5656 32.1744Z" fill="#34876F"/>
<path d="M63.8051 88.1571C58.6959 87.1268 52.1332 90.4017 52.1332 90.4017C52.1332 90.4017 56.9139 95.9639 62.0231 96.9941C67.1323 98.0244 73.695 94.7496 73.695 94.7496C73.695 94.7496 68.9143 89.1874 63.8051 88.1571Z" fill="#34876F"/>
<path d="M74.3728 107.09C75.8564 109.883 80.5287 111.376 80.5287 111.376C80.5287 111.376 81.9071 106.668 80.4235 103.876C78.9399 101.083 74.2676 99.5903 74.2676 99.5903C74.2676 99.5903 72.8892 104.298 74.3728 107.09Z" fill="#34876F"/>
<path d="M48.6284 39.8069C48.7523 39.7357 48.874 39.658 48.993 39.5738C51.0276 38.1339 51.5175 35.3284 50.0873 33.3075C48.6571 31.2866 45.8484 30.8156 43.8138 32.2555C43.6163 32.3952 43.4333 32.5479 43.2653 32.7115C43.1401 30.9704 42.0368 29.3828 40.328 28.7555C38.0163 27.9069 35.472 29.137 34.645 31.503C34.2042 32.7643 34.3404 34.0938 34.914 35.1889C34.7305 35.1662 34.5439 35.1543 34.3546 35.1538C31.8483 35.1468 29.8421 37.1372 29.8735 39.5995C29.905 42.0617 31.9622 44.0635 34.4685 44.0705C34.6038 44.0708 34.7376 44.0654 34.8697 44.0544C34.8154 44.1753 34.7657 44.2997 34.7211 44.4274C33.8942 46.7933 35.0977 49.3992 37.4094 50.2478C39.721 51.0964 42.2653 49.8663 43.0923 47.5004C43.1657 47.2902 43.2231 47.0782 43.2652 46.8657C44.084 47.6045 45.173 48.0576 46.3632 48.061C48.8695 48.068 50.8757 46.0776 50.8443 43.6153C50.8237 42.0067 49.9385 40.5946 48.6284 39.8069Z" fill="#FFCE05"/>
<g style="mix-blend-mode:multiply">
<circle cx="41.2981" cy="39.838" r="3.38163" transform="rotate(79.3678 41.2981 39.838)" fill="#FED402"/>
</g>
<defs>
<linearGradient id="paint0_linear_215_7" x1="57.9876" y1="103.983" x2="57.7454" y2="44.9508" gradientUnits="userSpaceOnUse">
<stop stop-color="#FFECD5"/>
<stop offset="1" stop-color="#FFE9CF"/>
</linearGradient>
</defs>
</svg>
