<svg width="133" height="147" viewBox="0 0 133 147" fill="none" xmlns="http://www.w3.org/2000/svg">
<path d="M36.3265 9.82483C39.324 12.371 26.181 16.8258 28.0259 24.1802C29.8701 31.5353 42.2446 20.5033 45.012 24.0392C47.7793 27.5751 31.966 33.4226 37.9411 42.3087C43.9163 51.1949 58.078 47.659 58.078 47.659V51.3365C58.078 51.3365 26.4113 60.2467 15.9586 37.6174C5.50516 14.9873 14.2677 0.065918 19.8016 0.065918C25.3356 0.065918 21.0313 8.90526 24.1059 11.4514C27.1805 13.9976 33.3289 7.27937 36.3265 9.82483Z" fill="#FED080"/>
<path d="M95.8295 9.82483C92.832 12.371 105.975 16.8258 104.13 24.1802C102.286 31.5353 89.9114 20.5033 87.144 24.0392C84.3767 27.5751 100.19 33.4226 94.2149 42.3087C88.2397 51.1949 74.078 47.659 74.078 47.659V51.3365C74.078 51.3365 105.745 60.2467 116.197 37.6174C126.651 14.9873 117.888 0.065918 112.354 0.065918C106.82 0.065918 111.125 8.90526 108.05 11.4514C104.976 13.9976 98.8271 7.27937 95.8295 9.82483Z" fill="#FED080"/>
<ellipse cx="18.1895" cy="10.749" rx="18.1895" ry="10.749" transform="matrix(0.930138 -0.36721 0.375592 0.926785 1.14191 57.4922)" fill="#BF8969"/>
<g style="mix-blend-mode:multiply">
<ellipse cx="12.5694" cy="7.42788" rx="12.5694" ry="7.42788" transform="matrix(0.930138 -0.36721 0.375592 0.926785 7.6167 58.5064)" fill="#BF8969"/>
</g>
<ellipse cx="18.1895" cy="10.749" rx="18.1895" ry="10.749" transform="matrix(-0.930138 -0.36721 -0.375592 0.926785 131.054 57.4922)" fill="#BF8969"/>
<g style="mix-blend-mode:multiply">
<ellipse cx="12.5694" cy="7.42788" rx="12.5694" ry="7.42788" transform="matrix(-0.930138 -0.36721 -0.375592 0.926785 124.579 58.5064)" fill="#BF8969"/>
</g>
<path d="M63.8748 21.1271C63.8433 18.9319 65.0055 17.1141 66.4706 17.0669C67.9358 17.0196 69.1492 18.7608 69.1807 20.956L69.2255 24.0712L69.9302 21.1704C70.4314 19.1071 71.9541 18.0433 73.3313 18.7943C74.7084 19.5452 75.4185 21.8266 74.9173 23.8899L72.4971 33.8521C71.9958 35.9154 70.4731 36.9792 69.0959 36.2283C68.655 35.9878 68.2825 35.5905 67.9962 35.0937C67.6244 35.4125 67.1956 35.6006 66.7371 35.6154C66.3615 35.6275 66.0024 35.5221 65.6755 35.3215C65.4309 36.4428 64.8573 37.3904 64.0601 37.8251C62.6829 38.576 61.1602 37.5122 60.659 35.449L58.2388 25.4867C57.7375 23.4234 58.4476 21.1421 59.8247 20.3911C61.2019 19.6401 62.7246 20.704 63.2258 22.7672L63.9406 25.7096L63.8748 21.1271Z" fill="#BF8969"/>
<path d="M24.0666 65.3563C26.3466 43.5927 44.6953 27.0659 66.578 27.0659C88.4607 27.0659 106.809 43.5927 109.089 65.3564L111.401 87.4256C113.901 111.289 95.1875 132.066 71.1934 132.066H61.9627C37.9685 132.066 19.2546 111.289 21.7546 87.4256L24.0666 65.3563Z" fill="#BF8969"/>
<ellipse cx="66.578" cy="105.566" rx="48.5" ry="25.5" fill="#FED080"/>
<ellipse cx="37.078" cy="80.4659" rx="4" ry="2.4" fill="#FFCEB9"/>
<ellipse cx="96.078" cy="80.4659" rx="4" ry="2.4" fill="#FFCEB9"/>
<circle cx="9" cy="9" r="9" transform="matrix(-1 0 0 1 52.078 59.0659)" fill="#4B2B1D"/>
<circle cx="3" cy="3" r="3" transform="matrix(-1 0 0 1 49.078 62.0659)" fill="white"/>
<circle cx="1.5" cy="1.5" r="1.5" transform="matrix(-1 0 0 1 43.078 69.0659)" fill="white"/>
<circle cx="90.078" cy="68.0659" r="9" fill="#4B2B1D"/>
<circle cx="87.078" cy="65.0659" r="3" fill="white"/>
<circle cx="91.578" cy="70.5659" r="1.5" fill="white"/>
<path d="M59.2136 94.6064L65.578 92.0659L72.6541 94.6064V97.2945C72.6541 101.006 69.6453 104.015 65.9338 104.015C62.2223 104.015 59.2136 101.006 59.2136 97.2945V94.6064Z" fill="#FEB1AA"/>
<path d="M74.7218 81.8815C74.7218 84.3797 70.7873 86.4048 65.9338 86.4048C61.0803 86.4048 57.1458 84.3797 57.1458 81.8815C57.1458 79.3834 61.0803 76.0659 65.9338 76.0659C70.7873 76.0659 74.7218 79.3834 74.7218 81.8815Z" fill="#4B2B1D"/>
<circle cx="69.8109" cy="79.426" r="1.29236" fill="white"/>
<path d="M65.894 80.1219V89.2679C65.894 92.2546 68.3153 94.6759 71.3021 94.6759H72.0576C74.6271 94.6759 76.7101 92.5929 76.7101 90.0234V90.0234" stroke="#4B2B1D" stroke-width="2.27455" stroke-linecap="round" stroke-linejoin="round"/>
<path d="M65.8941 80.1219V89.2679C65.8941 92.2546 63.4728 94.6759 60.486 94.6759H59.7305C57.161 94.6759 55.078 92.5929 55.078 90.0234V90.0234" stroke="#4B2B1D" stroke-width="2.27455" stroke-linecap="round" stroke-linejoin="round"/>
<path fill-rule="evenodd" clip-rule="evenodd" d="M82.2145 115.823C81.0284 115.823 80.101 116.85 80.2383 118.028C81.4725 128.621 83.3893 134.703 90.5502 142.476C90.9903 142.954 91.641 143.177 92.2838 143.083L92.8366 143.002C93.4528 144.482 94.4919 145.636 95.6783 146.647C96.0986 147.005 96.7298 146.954 97.088 146.534C97.4462 146.114 97.3959 145.483 96.9755 145.124C96.0734 144.356 95.3698 143.581 94.9032 142.7L97.7933 142.276C98.3905 143.895 99.4853 145.13 100.746 146.205C101.167 146.563 101.798 146.512 102.156 146.092C102.514 145.672 102.464 145.041 102.044 144.682C101.047 143.833 100.293 142.977 99.8329 141.978L102.38 141.605C102.993 143.12 104.046 144.293 105.251 145.32C105.671 145.679 106.303 145.628 106.661 145.208C107.019 144.788 106.969 144.156 106.548 143.798C105.623 143.009 104.906 142.214 104.44 141.304L106.975 140.933C107.597 142.345 108.608 143.457 109.756 144.436C110.176 144.794 110.808 144.744 111.166 144.324C111.524 143.903 111.474 143.272 111.053 142.914C110.199 142.186 109.522 141.452 109.057 140.628L111.576 140.259C112.204 141.573 113.17 142.622 114.261 143.552C114.681 143.91 115.312 143.86 115.671 143.439C116.029 143.019 115.979 142.388 115.558 142.03C114.776 141.363 114.143 140.692 113.684 139.95L116.185 139.584C116.813 140.801 117.734 141.788 118.766 142.668C119.186 143.026 119.817 142.976 120.176 142.555C120.534 142.135 120.483 141.504 120.063 141.146C119.354 140.541 118.767 139.933 118.322 139.272L120.802 138.909C121.425 140.03 122.298 140.955 123.271 141.784C123.691 142.142 124.322 142.092 124.68 141.671C125.039 141.251 124.988 140.62 124.568 140.261C123.714 139.534 123.038 138.801 122.572 137.977C123.009 137.314 123.056 136.404 122.54 135.669C117.911 129.08 115.59 124.469 113.619 117.323C113.377 116.443 112.582 115.823 111.669 115.823H82.2145Z" fill="#C03A2B"/>
<path d="M19.2432 96.7989C19.3628 96.0336 20.2722 95.6871 20.8838 96.1625C46.6587 116.197 87.9124 115.309 111.865 96.1379C112.457 95.6634 113.352 95.9726 113.507 96.7159L117.836 117.496C118.57 121.018 116.871 124.623 113.595 126.109C82.769 140.092 48.8754 140.067 20.0363 126.036C17.0181 124.567 15.4225 121.252 15.9406 117.936L19.2432 96.7989Z" fill="#E64C3C"/>
<circle cx="23.078" cy="21.0659" r="2" fill="white"/>
<circle cx="122.078" cy="55.0659" r="2" fill="white"/>
<circle cx="105.078" cy="22.0659" r="2" fill="white"/>
<circle cx="14.078" cy="138.066" r="2" fill="white"/>
<circle cx="101.078" cy="112.066" r="2" fill="white"/>
<circle cx="29.078" cy="112.066" r="2" fill="white"/>
<circle cx="14.078" cy="43.0659" r="2" fill="white"/>
<circle cx="124.078" cy="17.0659" r="2" fill="white"/>
<circle cx="128.578" cy="119.566" r="1.5" fill="white"/>
<circle cx="122.578" cy="138.566" r="1.5" fill="white"/>
<circle cx="3.578" cy="121.566" r="1.5" fill="white"/>
<circle cx="73.078" cy="127.066" r="2" fill="white"/>
<circle cx="110.078" cy="134.066" r="2" fill="white"/>
</svg>
