<svg width="128" height="139" viewBox="0 0 128 139" fill="none" xmlns="http://www.w3.org/2000/svg">
<circle cx="26.1397" cy="26.7421" r="25.9615" fill="#C4C4C4"/>
<circle cx="24.8084" cy="26.7113" r="17.9733" fill="#FFDED0"/>
<circle cx="25.9615" cy="25.9615" r="25.9615" transform="matrix(-1 0 0 1 127.101 0.780579)" fill="#C4C4C4"/>
<circle cx="17.9733" cy="17.9733" r="17.9733" transform="matrix(-1 0 0 1 120.444 8.73792)" fill="#FFDED0"/>
<path fill-rule="evenodd" clip-rule="evenodd" d="M62.1225 127.353C62.1245 127.377 62.1264 127.401 62.1283 127.425C62.129 127.401 62.1298 127.377 62.1307 127.353H62.1225ZM105.058 110.3C105.302 110.282 105.549 110.272 105.797 110.272C111.191 110.272 115.563 114.644 115.563 120.037V120.875C115.563 126.269 111.191 130.641 105.797 130.641C103.376 130.641 101.161 129.759 99.4543 128.3C99.3535 133.606 95.0209 137.876 89.6909 137.876C85.4729 137.876 81.8795 135.202 80.5138 131.456C79.608 135.643 75.8824 138.781 71.424 138.781C66.3839 138.781 62.2802 134.771 62.1283 129.768C61.7441 134.809 57.5317 138.781 52.3917 138.781C47.6685 138.781 43.7284 135.427 42.8225 130.971C41.4911 134.479 38.0991 136.972 34.1248 136.972C28.9885 136.972 24.8247 132.808 24.8247 127.672V127.484C23.04 129.425 20.4798 130.641 17.6356 130.641C12.2425 130.641 7.87048 126.269 7.87048 120.875V120.038C7.87048 114.644 12.2425 110.272 17.6356 110.272C17.8738 110.272 18.11 110.281 18.3439 110.298C24.2574 100.013 35.3546 93.0881 48.0692 93.0881H75.3309C88.0465 93.0881 99.1444 100.014 105.058 110.3Z" fill="#D5DE72"/>
<path fill-rule="evenodd" clip-rule="evenodd" d="M115.186 80.832C113.053 78.2537 111.716 75.05 111.716 71.7038C111.716 43.6859 89.9765 20.9728 63.1589 20.9728C36.3413 20.9728 14.6013 43.6859 14.6013 71.7038C14.6013 75.05 13.2651 78.2537 11.1322 80.8319C7.80331 84.8559 5.94745 89.3325 5.94745 94.0496C5.94745 111.574 31.5619 125.78 63.1589 125.78C94.7559 125.78 120.37 111.574 120.37 94.0496C120.37 89.3325 118.514 84.8559 115.186 80.832Z" fill="#C4C4C4"/>
<path fill-rule="evenodd" clip-rule="evenodd" d="M112.876 77.0997C113.46 78.4377 114.245 79.6956 115.186 80.832C118.514 84.8559 120.37 89.3326 120.37 94.0497C120.37 111.574 94.7559 125.78 63.1589 125.78C31.5619 125.78 5.94745 111.574 5.94745 94.0497C5.94745 89.3326 7.80331 84.8559 11.1322 80.832C12.0722 79.6956 12.8576 78.4377 13.4419 77.0997C16.0878 76.2422 18.899 75.7805 21.8128 75.7805C29.9638 75.7805 37.3118 79.3934 42.4858 85.1783C47.6598 79.3933 55.0078 75.7805 63.1589 75.7805C71.3099 75.7805 78.6579 79.3933 83.8319 85.1783C89.0059 79.3933 96.3539 75.7805 104.505 75.7805C107.419 75.7805 110.23 76.2421 112.876 77.0997Z" fill="#EBEBEB"/>
<rect x="62.7444" y="77.9761" width="1.92307" height="11.5384" rx="0.961536" fill="#433D3C"/>
<ellipse cx="63.7514" cy="77.5852" rx="7.13278" ry="4.68937" fill="#433D3C"/>
<circle cx="60.0731" cy="76.0695" r="1.4423" fill="white"/>
<path d="M55.9473 86.5013C59.591 89.8999 67.6882 89.8999 71.3319 86.5013" stroke="#433D3C" stroke-width="1.92307" stroke-linecap="round"/>
<ellipse cx="6.42867" cy="8.03584" rx="6.42867" ry="8.03584" transform="matrix(-1 0 0 1 47.6509 59.4343)" fill="#433D3C"/>
<ellipse cx="2.41075" cy="2.81254" rx="2.41075" ry="2.81254" transform="matrix(-1 0 0 1 45.2401 61.8451)" fill="white"/>
<circle cx="1.20538" cy="1.20538" r="1.20538" transform="matrix(-1 0 0 1 40.4186 67.4702)" fill="white"/>
<ellipse cx="6.42867" cy="8.03584" rx="6.42867" ry="8.03584" transform="matrix(-1 0 0 1 92.9813 59.4343)" fill="#433D3C"/>
<ellipse cx="2.41075" cy="2.81254" rx="2.41075" ry="2.81254" transform="matrix(-1 0 0 1 90.5706 61.8452)" fill="white"/>
<circle cx="1.20538" cy="1.20538" r="1.20538" transform="matrix(-1 0 0 1 85.7491 67.4702)" fill="white"/>
<circle cx="24.1782" cy="92.7806" r="11" fill="#FFDED0"/>
<circle cx="102.178" cy="92.7806" r="11" fill="#FFDED0"/>
<path d="M84.7935 79.1045C91.4628 78.6946 95.2462 78.5904 102.101 78.7139" stroke="#343434" stroke-width="1.5" stroke-linecap="round" stroke-linejoin="round"/>
<path d="M102.027 90.2036C95.4916 89.032 91.7627 88.4945 84.9536 87.83" stroke="#343434" stroke-width="1.5" stroke-linecap="round" stroke-linejoin="round"/>
<path d="M84.734 83.7101C91.3192 83.5648 94.5413 83.8389 101.128 84.2227" stroke="#343434" stroke-width="1.5" stroke-linecap="round" stroke-linejoin="round"/>
<path d="M43.4473 79.1045C36.778 78.6946 32.9946 78.5904 26.1397 78.7139" stroke="#343434" stroke-width="1.5" stroke-linecap="round" stroke-linejoin="round"/>
<path d="M26.2139 90.2036C32.7491 89.032 36.4781 88.4945 43.2872 87.83" stroke="#343434" stroke-width="1.5" stroke-linecap="round" stroke-linejoin="round"/>
<path d="M43.5067 83.7101C36.9216 83.5648 33.6994 83.8389 27.1132 84.2227" stroke="#343434" stroke-width="1.5" stroke-linecap="round" stroke-linejoin="round"/>
<path d="M45.359 21.2311C45.0701 21.601 44.6875 21.9058 44.2498 22.1148L43.1132 22.6576C42.6754 22.8667 42.1979 22.9726 41.7286 22.9648L30.1946 22.7732C28.0333 22.7373 26.4385 24.9561 27.3951 26.6311C30.0042 31.2002 31.7805 34.9377 33.6955 39.8392C34.3968 41.634 37.1208 41.7861 38.4501 40.0844L45.8358 30.629C46.1248 30.2592 46.5073 29.9544 46.9451 29.7453L47.3535 29.5503C47.7912 29.3412 48.2687 29.2353 48.738 29.2431L60.793 29.4434C62.9405 29.4791 64.5332 27.2864 63.5953 25.6153C61.0028 20.9961 59.1981 17.2545 57.239 12.3361C56.5283 10.5518 53.8136 10.4074 52.4885 12.1038L45.359 21.2311Z" fill="#FF8A70"/>
</svg>
