<svg width="134" height="132" viewBox="0 0 134 132" fill="none" xmlns="http://www.w3.org/2000/svg">
<path d="M93.5499 15.866C76.7473 35.2965 73.501 46.9012 69.9332 74.6357" stroke="#5EA985" stroke-width="1.84133" stroke-linecap="round"/>
<path d="M95.2598 8.41005C94.0382 9.63026 93.1544 11.2574 92.5219 12.8542C91.4287 15.6142 94.0184 18.0018 96.7072 16.7439C98.222 16.0353 99.7683 15.1038 100.963 13.9106C102.118 12.7571 103.028 11.2746 103.729 9.8094C105.032 7.08778 102.574 4.47669 99.7791 5.61276C98.1439 6.27737 96.4845 7.18668 95.2598 8.41005Z" fill="#5EA985"/>
<path d="M91 22.1189C89.783 22.2604 88.5496 22.6797 87.4675 23.1599C85.8996 23.8557 86.1315 25.8512 87.8173 26.1688C88.9807 26.388 90.2773 26.5132 91.4944 26.3717C92.7114 26.2303 93.9447 25.8109 95.0268 25.3307C96.5948 24.6349 96.3628 22.6394 94.6771 22.3218C93.5136 22.1027 92.217 21.9774 91 22.1189Z" fill="#5EA985"/>
<path d="M83.5549 20.2837C83.7214 21.4976 84.166 22.722 84.6684 23.794C85.3964 25.3473 87.3867 25.0743 87.6695 23.3824C87.8646 22.2147 87.9631 20.9158 87.7966 19.7019C87.6301 18.4881 87.1855 17.2636 86.6831 16.1916C85.9551 14.6383 83.9649 14.9113 83.6821 16.6033C83.4869 17.771 83.3884 19.0699 83.5549 20.2837Z" fill="#5EA985"/>
<path d="M84.7745 31.7174C83.5574 31.8589 82.3241 32.2782 81.242 32.7584C79.674 33.4543 79.906 35.4497 81.5918 35.7673C82.7552 35.9865 84.0518 36.1117 85.2688 35.9702C86.4859 35.8288 87.7192 35.4094 88.8013 34.9292C90.3693 34.2334 90.1373 32.2379 88.4515 31.9203C87.2881 31.7012 85.9915 31.5759 84.7745 31.7174Z" fill="#5EA985"/>
<path d="M76.4113 31.196C76.8648 32.3342 77.5907 33.4158 78.3361 34.3356C79.4161 35.6684 81.2824 34.9249 81.1501 33.2146C81.0589 32.0342 80.8422 30.7497 80.3888 29.6115C79.9354 28.4733 79.2094 27.3916 78.4641 26.4718C77.384 25.1391 75.5177 25.8825 75.65 27.5929C75.7412 28.7732 75.9579 30.0577 76.4113 31.196Z" fill="#5EA985"/>
<path d="M79.3068 42.255C78.1024 42.48 76.9009 42.9833 75.8545 43.537C74.3382 44.3392 74.7071 46.314 76.4108 46.5146C77.5866 46.6531 78.8887 46.6886 80.0931 46.4636C81.2975 46.2386 82.499 45.7352 83.5454 45.1816C85.0617 44.3793 84.6927 42.4046 82.9891 42.204C81.8133 42.0655 80.5112 42.0299 79.3068 42.255Z" fill="#5EA985"/>
<path d="M71.8038 42.3504C72.416 43.4117 73.2897 44.3778 74.1595 45.181C75.4197 46.3449 77.1599 45.3411 76.7834 43.6675C76.5235 42.5125 76.1247 41.2724 75.5125 40.2111C74.9003 39.1498 74.0265 38.1836 73.1568 37.3804C71.8966 36.2166 70.1564 37.2203 70.5329 38.8939C70.7927 40.049 71.1916 41.289 71.8038 42.3504Z" fill="#5EA985"/>
<path d="M76.4105 53.4717C75.2293 53.7971 74.0743 54.3996 73.0781 55.0393C71.6346 55.9661 72.1682 57.9028 73.8827 57.9596C75.0659 57.9988 76.3665 57.9248 77.5477 57.5994C78.7289 57.2739 79.8838 56.6714 80.88 56.0318C82.3235 55.105 81.79 53.1682 80.0755 53.1114C78.8922 53.0723 77.5917 53.1463 76.4105 53.4717Z" fill="#5EA985"/>
<path d="M67.9487 54.8065C68.6821 55.788 69.664 56.6441 70.6226 57.3388C72.0115 58.3455 73.6208 57.143 73.0491 55.5257C72.6546 54.4095 72.1119 53.2252 71.3785 52.2437C70.6451 51.2623 69.6633 50.4062 68.7047 49.7114C67.3157 48.7047 65.7064 49.9072 66.2781 51.5246C66.6727 52.6408 67.2154 53.825 67.9487 54.8065Z" fill="#5EA985"/>
<path d="M102.923 26.5582C87.1431 46.8283 84.4987 58.5848 82.3639 86.4662" stroke="#5EA985" stroke-width="1.84133" stroke-linecap="round"/>
<path d="M104.246 19.0242C103.089 20.3057 102.29 21.9762 101.741 23.6035C100.791 26.416 103.501 28.6671 106.121 27.2724C107.597 26.4867 109.094 25.4768 110.225 24.2237C111.319 23.0123 112.152 21.4848 112.777 19.9855C113.937 17.2004 111.349 14.7194 108.616 15.9979C107.017 16.7458 105.406 17.7394 104.246 19.0242Z" fill="#5EA985"/>
<path d="M100.698 32.9342C99.4901 33.1382 98.28 33.6204 97.2241 34.1557C95.694 34.9314 96.0284 36.9123 97.7283 37.1426C98.9015 37.3016 100.203 37.3599 101.411 37.1559C102.619 36.9519 103.829 36.4697 104.885 35.9344C106.415 35.1587 106.081 33.1778 104.381 32.9475C103.208 32.7885 101.906 32.7302 100.698 32.9342Z" fill="#5EA985"/>
<path d="M93.1685 31.4849C93.3973 32.6886 93.9044 33.8885 94.4613 34.9332C95.2683 36.4469 97.2419 36.0718 97.4372 34.3675C97.572 33.1913 97.6034 31.8891 97.3747 30.6854C97.1459 29.4817 96.6388 28.2818 96.0818 27.2371C95.2749 25.7233 93.3013 26.0985 93.106 27.8028C92.9712 28.9789 92.9397 30.2812 93.1685 31.4849Z" fill="#5EA985"/>
<path d="M94.9753 42.8406C93.7671 43.0446 92.557 43.5268 91.5011 44.0621C89.971 44.8378 90.3055 46.8187 92.0054 47.049C93.1785 47.208 94.4799 47.2663 95.688 47.0623C96.8961 46.8583 98.1062 46.3761 99.1622 45.8408C100.692 45.0651 100.358 43.0842 98.6579 42.8539C97.4847 42.6949 96.1834 42.6366 94.9753 42.8406Z" fill="#5EA985"/>
<path d="M86.5964 42.7505C87.1078 43.8639 87.8885 44.9067 88.6802 45.7869C89.8275 47.0622 91.653 46.2237 91.4329 44.5224C91.2809 43.3483 90.9984 42.0767 90.487 40.9633C89.9755 39.8499 89.1948 38.8071 88.4031 37.9269C87.2559 36.6516 85.4304 37.4901 85.6505 39.1914C85.8024 40.3655 86.0849 41.6371 86.5964 42.7505Z" fill="#5EA985"/>
<path d="M90.0575 53.6457C88.8663 53.9325 87.6923 54.497 86.6758 55.1038C85.2028 55.9831 85.673 57.9362 87.3847 58.0488C88.5661 58.1266 89.8683 58.095 91.0595 57.8083C92.2507 57.5215 93.4247 56.957 94.4412 56.3502C95.9142 55.4709 95.444 53.5178 93.7323 53.4051C92.551 53.3274 91.2487 53.359 90.0575 53.6457Z" fill="#5EA985"/>
<path d="M82.5694 54.1274C83.2354 55.1557 84.1578 56.0756 85.0677 56.833C86.3862 57.9304 88.0724 56.8383 87.6102 55.1863C87.2912 54.0462 86.829 52.8283 86.163 51.7999C85.4969 50.7716 84.5746 49.8517 83.6646 49.0943C82.3461 47.9969 80.66 49.089 81.1221 50.741C81.4411 51.8811 81.9033 53.099 82.5694 54.1274Z" fill="#5EA985"/>
<path d="M87.7427 64.9967C86.5798 65.3826 85.4574 66.0437 84.4954 66.7338C83.1016 67.7338 83.7342 69.6405 85.4493 69.6089C86.633 69.5871 87.928 69.4462 89.0909 69.0604C90.2538 68.6745 91.3762 68.0133 92.3381 67.3232C93.732 66.3233 93.0994 64.4166 91.3842 64.4482C90.2006 64.47 88.9055 64.6109 87.7427 64.9967Z" fill="#5EA985"/>
<path d="M79.3609 66.7655C80.1439 67.7079 81.1685 68.5123 82.1616 69.1568C83.6006 70.0906 85.1458 68.8069 84.4916 67.2211C84.04 66.1267 83.4371 64.972 82.6541 64.0295C81.8712 63.0871 80.8466 62.2827 79.8535 61.6383C78.4145 60.7045 76.8692 61.9882 77.5235 63.574C77.975 64.6684 78.578 65.8231 79.3609 66.7655Z" fill="#5EA985"/>
<path d="M16.5233 35.1341C9.73158 40.7273 24.8242 79.6574 24.8242 79.6574L56.1414 54.7546C56.1414 54.7546 22.9376 29.8517 16.5233 35.1341Z" fill="#C4C4C4"/>
<path d="M16.5233 35.1341C9.73158 40.7273 24.8242 79.6574 24.8242 79.6574L56.1414 54.7546C56.1414 54.7546 22.9376 29.8517 16.5233 35.1341Z" fill="#EF8F35"/>
<path fill-rule="evenodd" clip-rule="evenodd" d="M19.3181 63.5653C15.8456 52.1441 12.6793 38.2997 16.5233 35.1341C19.9699 32.2958 31.151 38.1724 40.7597 44.2179C32.1171 40.6992 23.4412 38.2007 20.395 40.7094C16.9956 43.5088 17.6479 53.586 19.3181 63.5653Z" fill="#C4C4C4"/>
<path fill-rule="evenodd" clip-rule="evenodd" d="M19.3181 63.5653C15.8456 52.1441 12.6793 38.2997 16.5233 35.1341C19.9699 32.2958 31.151 38.1724 40.7597 44.2179C32.1171 40.6992 23.4412 38.2007 20.395 40.7094C16.9956 43.5088 17.6479 53.586 19.3181 63.5653Z" fill="#542016"/>
<path d="M112.477 35.1341C119.268 40.7273 104.176 79.6574 104.176 79.6574L72.8586 54.7546C72.8586 54.7546 106.062 29.8517 112.477 35.1341Z" fill="#C4C4C4"/>
<path d="M112.477 35.1341C119.268 40.7273 104.176 79.6574 104.176 79.6574L72.8586 54.7546C72.8586 54.7546 106.062 29.8517 112.477 35.1341Z" fill="#EF8F35"/>
<path fill-rule="evenodd" clip-rule="evenodd" d="M109.682 63.5651C113.154 52.1439 116.321 38.2997 112.477 35.1341C109.03 32.2958 97.849 38.1724 88.2403 44.218C96.8829 40.6993 105.559 38.2007 108.605 40.7094C112.004 43.5088 111.352 53.5859 109.682 63.5651Z" fill="#C4C4C4"/>
<path fill-rule="evenodd" clip-rule="evenodd" d="M109.682 63.5651C113.154 52.1439 116.321 38.2997 112.477 35.1341C109.03 32.2958 97.849 38.1724 88.2403 44.218C96.8829 40.6993 105.559 38.2007 108.605 40.7094C112.004 43.5088 111.352 53.5859 109.682 63.5651Z" fill="#542016"/>
<path d="M73.3662 30.6315C75.3637 31.5165 76.4601 33.9828 75.8151 36.1402L72.622 46.8195C72.0065 48.878 70.0279 49.9114 68.1126 49.2329C67.6543 50.0011 66.9849 50.6331 66.1628 50.9974C64.1653 51.8824 62.023 50.851 61.378 48.6936L58.1849 38.0143C57.5399 35.857 58.6363 33.3906 60.6338 32.5056C62.6313 31.6206 64.7735 32.652 65.4186 34.8093L66.7198 39.1614L68.5814 32.9352C69.2265 30.7778 71.3687 29.7464 73.3662 30.6315Z" fill="#EF8F35"/>
<path d="M17.0195 102.569C16.9703 102.445 16.8757 102.346 16.7559 102.292C8.27843 98.4792 1.25253 90.3696 0.0248777 86.8368C-0.0783341 86.5398 0.153592 86.2575 0.462448 86.2574C5.61537 86.2549 6.85029 86.1856 10.9427 84.2627C11.262 84.1126 11.3296 83.6785 11.0711 83.4354L7.08503 79.6868C6.74093 79.3632 6.9895 78.736 7.45634 78.7027C9.33681 78.5688 11.6617 77.9939 14.187 77.1476C14.3588 77.0901 14.4855 76.9397 14.5189 76.7584C18.4489 55.4418 36.791 39.3144 58.8249 39.3144H71.7062C93.2648 39.3144 111.289 54.7536 115.738 75.3864C115.773 75.5514 115.887 75.689 116.041 75.7508C119.989 77.336 123.754 78.5042 126.543 78.7027C127.01 78.736 127.258 79.3632 126.914 79.6868L122.928 83.4354C122.669 83.6785 122.737 84.1126 123.056 84.2627C127.149 86.1856 128.384 86.2549 133.537 86.2574C133.845 86.2575 134.078 86.5367 133.975 86.8338C132.563 90.9069 123.43 101.076 113.252 103.712C113.102 103.751 112.978 103.857 112.915 104.001C105.895 120.094 90.0847 131.314 71.7062 131.314H58.8249C39.9059 131.314 23.7087 119.425 17.0195 102.569Z" fill="#EF8F35"/>
<g filter="url(#filter0_f_215_10)">
<ellipse cx="29" cy="91.7145" rx="9" ry="5.4" fill="#FF6E41"/>
<ellipse cx="101" cy="91.7145" rx="9" ry="5.4" fill="#FF6E41"/>
</g>
<path fill-rule="evenodd" clip-rule="evenodd" d="M113.139 103.756C113.041 103.809 112.961 103.895 112.915 104.001C105.895 120.094 90.0847 131.314 71.7062 131.314H58.8249C39.9127 131.314 23.7203 119.433 17.0266 102.587C26.8534 91.4804 46.2953 84.3145 65 84.3145C84.3532 84.3145 103.962 91.9858 113.139 103.756Z" fill="#FFCEB9"/>
<ellipse cx="6.4" cy="8" rx="6.4" ry="8" transform="matrix(-1 0 0 1 41.8 71.3144)" fill="#542016"/>
<ellipse cx="2.4" cy="2.8" rx="2.4" ry="2.8" transform="matrix(-1 0 0 1 39.4 73.7144)" fill="white"/>
<circle cx="1.2" cy="1.2" r="1.2" transform="matrix(-1 0 0 1 34.6 79.3144)" fill="white"/>
<ellipse cx="6.4" cy="8" rx="6.4" ry="8" transform="matrix(-1 0 0 1 103.8 71.3144)" fill="#542016"/>
<ellipse cx="2.4" cy="2.8" rx="2.4" ry="2.8" transform="matrix(-1 0 0 1 101.4 73.7144)" fill="white"/>
<circle cx="1.2" cy="1.2" r="1.2" transform="matrix(-1 0 0 1 96.6 79.3144)" fill="white"/>
<rect x="65.2474" y="86.7566" width="2.23684" height="9.66316" rx="1.11842" fill="#542016"/>
<ellipse cx="66.321" cy="85.3145" rx="7.60526" ry="5" fill="#542016"/>
<circle cx="62.429" cy="83.1329" r="1.20789" fill="white"/>
<path d="M58 93.796C62.0263 97.4197 70.9737 97.4197 75 93.796" stroke="#542016" stroke-width="2.23684" stroke-linecap="round"/>
<path d="M92.8526 43.7867C92.9689 43.6885 93.0817 43.584 93.1905 43.4731C95.0496 41.5778 95.0306 38.5444 93.1481 36.6978C91.2655 34.8512 88.2323 34.8906 86.3732 36.7859C86.1927 36.9699 86.03 37.1646 85.8849 37.3679C85.4232 35.5669 83.9655 34.1124 82.0555 33.7793C79.4716 33.3287 77.0384 35.1008 76.6208 37.7375C76.3981 39.1431 76.7932 40.5107 77.6022 41.5496C77.4057 41.5607 77.2077 41.5836 77.0093 41.619C74.3812 42.0873 72.6562 44.5542 73.1565 47.1289C73.6568 49.7036 76.1929 51.4111 78.821 50.9428C78.9629 50.9175 79.1021 50.8864 79.2385 50.8498C79.2045 50.9868 79.1761 51.1266 79.1535 51.2689C78.7359 53.9056 80.4919 56.4084 83.0758 56.859C85.6596 57.3096 88.0928 55.5375 88.5105 52.9008C88.5476 52.6667 88.5675 52.4336 88.5713 52.2029C89.5697 52.8217 90.797 53.09 92.0451 52.8676C94.6732 52.3992 96.3981 49.9323 95.8979 47.3576C95.571 45.6756 94.3752 44.3636 92.8526 43.7867Z" fill="#F6D384"/>
<circle cx="85.1757" cy="45.2105" r="3.60188" transform="rotate(69.1033 85.1757 45.2105)" fill="white" fill-opacity="0.6"/>
<defs>
<filter id="filter0_f_215_10" x="14" y="80.3145" width="102" height="22.8" filterUnits="userSpaceOnUse" color-interpolation-filters="sRGB">
<feFlood flood-opacity="0" result="BackgroundImageFix"/>
<feBlend mode="normal" in="SourceGraphic" in2="BackgroundImageFix" result="shape"/>
<feGaussianBlur stdDeviation="3" result="effect1_foregroundBlur_215_10"/>
</filter>
</defs>
</svg>
