<svg width="136" height="133" viewBox="0 0 136 133" fill="none" xmlns="http://www.w3.org/2000/svg">
<circle cx="16.078" cy="54.0659" r="16" fill="#D2714C"/>
<circle cx="17.078" cy="54.0659" r="12" fill="#FFE1C2"/>
<circle cx="16" cy="16" r="16" transform="matrix(-1 0 0 1 135.078 38.0659)" fill="#D2714C"/>
<circle cx="12" cy="12" r="12" transform="matrix(-1 0 0 1 130.078 42.0659)" fill="#FFE1C2"/>
<path fill-rule="evenodd" clip-rule="evenodd" d="M74.8414 0.368816C77.4362 1.31328 78.7742 4.18249 77.8297 6.77738L74.0675 17.114C73.2583 19.3372 71.0364 20.6377 68.7845 20.3708C68.4151 20.6394 68.0023 20.8614 67.5517 21.0255C64.9568 21.9699 62.0876 20.632 61.1431 18.0371L57.3809 7.70047C56.4364 5.10559 57.7744 2.23637 60.3693 1.29191C62.9642 0.347449 65.8334 1.68538 66.7778 4.28027L67.4373 6.09221L68.4328 3.35718C69.3773 0.762289 72.2465 -0.575647 74.8414 0.368816Z" fill="#D2714C"/>
<path d="M119.078 59.2178C119.078 82.8821 96.0206 102.066 67.578 102.066C39.1353 102.066 16.078 82.8821 16.078 59.2178C16.078 35.5534 39.1353 9.06592 67.578 9.06592C96.0206 9.06592 119.078 35.5534 119.078 59.2178Z" fill="#D2714C"/>
<path fill-rule="evenodd" clip-rule="evenodd" d="M24.4456 82.6391C24.916 73.2245 32.6655 65.0659 42.94 65.0659H92.302C102.538 65.0659 110.27 73.1642 110.791 82.5363C101.612 94.2869 85.6973 102.06 67.6 102.066C67.5927 102.066 67.5853 102.066 67.578 102.066C67.5707 102.066 67.5634 102.066 67.556 102.066C49.5115 102.06 33.6368 94.3322 24.4456 82.6391Z" fill="#FFE1C2"/>
<path fill-rule="evenodd" clip-rule="evenodd" d="M68.078 66.4468C64.6326 74.7439 57.2074 80.4847 48.603 80.4847C36.7151 80.4847 27.078 69.5263 27.078 56.0083C27.078 42.4903 36.7151 31.5319 48.603 31.5319C57.2074 31.5319 64.6326 37.2728 68.078 45.5698C71.5234 37.2728 78.9486 31.5319 87.553 31.5319C99.4409 31.5319 109.078 42.4903 109.078 56.0083C109.078 69.5263 99.4409 80.4847 87.553 80.4847C78.9486 80.4847 71.5234 74.7439 68.078 66.4468Z" fill="#FFE1C2"/>
<ellipse cx="8" cy="10" rx="8" ry="10" transform="matrix(-1 0 0 1 55.078 51.0659)" fill="#562B30"/>
<ellipse cx="3" cy="3.5" rx="3" ry="3.5" transform="matrix(-1 0 0 1 52.078 54.0659)" fill="white"/>
<circle cx="1.5" cy="1.5" r="1.5" transform="matrix(-1 0 0 1 46.078 61.0659)" fill="white"/>
<ellipse cx="90.078" cy="61.0659" rx="8" ry="10" fill="#562B30"/>
<ellipse cx="88.078" cy="57.5659" rx="3" ry="3.5" fill="white"/>
<circle cx="92.578" cy="62.5659" r="1.5" fill="white"/>
<path d="M75.7626 71.2122C75.7626 73.0796 72.8213 74.2843 69.1931 74.2843C65.5649 74.2843 62.6237 73.0796 62.6237 71.2122C62.6237 69.3447 65.5649 67.0659 69.1931 67.0659C72.8213 67.0659 75.7626 69.3447 75.7626 71.2122Z" fill="#562B30"/>
<circle cx="72.2074" cy="69.647" r="0.927448" fill="white"/>
<path d="M69.1635 68.9693V75.8063C69.1635 78.039 70.9734 79.849 73.2062 79.849H73.771C75.6918 79.849 77.2489 78.2919 77.2489 76.371V76.371" stroke="#562B30" stroke-width="1.70032" stroke-linecap="round" stroke-linejoin="round"/>
<path d="M69.1634 68.9693V75.8063C69.1634 78.039 67.3535 79.849 65.1207 79.849H64.5559C62.6351 79.849 61.078 78.2919 61.078 76.371V76.371" stroke="#562B30" stroke-width="1.70032" stroke-linecap="round" stroke-linejoin="round"/>
<ellipse cx="38.578" cy="75.5659" rx="7.5" ry="5.5" fill="#FFB99B"/>
<ellipse cx="97.578" cy="75.5659" rx="7.5" ry="5.5" fill="#FFB99B"/>
<g clip-path="url(#clip0_215_17)">
<path d="M87.3683 96.1794C88.1161 94.6398 88.3597 93.1234 88.2161 91.7319C88.0979 90.5886 88.42 89.4146 89.0932 88.438C89.1404 88.3695 89.1891 88.3018 89.2397 88.2354L91.1987 85.6639C92.3096 84.2055 92.187 82.1639 90.8637 81.0927C89.4908 79.9813 87.4155 80.3184 86.2704 81.8217L85.1958 83.2323C84.2244 84.5074 82.7282 85.2527 81.2036 85.2156C79.7149 85.1793 78.1291 85.6032 76.5926 86.6177C71.2641 90.1356 65.2865 92.5565 59.0247 93.6406C52.7629 94.7247 46.5192 94.4195 40.6919 92.8329C37.0473 91.8406 33.7128 93.6129 31.8815 96.3581C30.0427 99.1145 29.7195 102.852 32.1209 105.757C35.0372 109.285 38.7551 112.146 43.1058 114.063C54.5311 119.1 68.2606 116.723 78.3384 107.964C82.1796 104.625 85.2266 100.588 87.3683 96.1794V96.1794Z" fill="#EEBF00"/>
<path d="M89.0932 88.438C89.1404 88.3695 89.1891 88.3018 89.2397 88.2354L90.2673 86.8866L91.1987 85.6639C92.3096 84.2055 92.187 82.1639 90.8637 81.0927C89.4908 79.9813 87.4155 80.3184 86.2704 81.8217L85.277 83.1257L85.1958 83.2323C84.2244 84.5074 82.7282 85.2527 81.2036 85.2156C79.7149 85.1793 78.1291 85.6032 76.5926 86.6177C71.2641 90.1356 65.2865 92.5565 59.0247 93.6406C52.7629 94.7247 46.5192 94.4195 40.6919 92.8329C37.0473 91.8406 33.7128 93.6129 31.8815 96.3581C39.6877 103.676 50.4523 106.981 61.4294 105.429C72.3331 103.888 82.3979 97.7018 89.0932 88.438V88.438Z" fill="#FFD422"/>
<path d="M90.2673 86.8866L91.1987 85.6639C92.3096 84.2055 92.187 82.1639 90.8637 81.0927C89.4908 79.9813 87.4155 80.3185 86.2703 81.8217L85.2769 83.1257C86.5722 84.8127 88.2896 86.1071 90.2673 86.8866Z" fill="#AA6100"/>
</g>
<g clip-path="url(#clip1_215_17)">
<path d="M105.273 19.8347C105.009 18.9537 104.554 18.2652 103.992 17.7669C103.529 17.3575 103.23 16.776 103.141 16.1448C103.135 16.1006 103.13 16.0561 103.126 16.0114L102.966 14.282C102.876 13.3011 102.085 12.5379 101.172 12.5951C100.225 12.6544 99.5264 13.5421 99.6197 14.5531L99.7073 15.5018C99.7865 16.3594 99.4654 17.1981 98.8487 17.7376C98.2465 18.2643 97.7731 19.0085 97.534 19.9683C96.7044 23.2969 95.2193 26.4275 93.1359 29.1324C91.0524 31.8374 88.4711 33.9861 85.5889 35.4764C83.7862 36.4085 83.1111 38.3218 83.3843 40.0735C83.6587 41.8325 84.8892 43.4286 86.8953 43.7051C89.3314 44.0409 91.8423 43.8215 94.2607 42.9989C100.612 40.8387 105.18 34.9079 105.984 27.7794C106.29 25.0622 106.028 22.3576 105.273 19.8347V19.8347Z" fill="#EEBF00"/>
<path d="M103.141 16.1448C103.135 16.1006 103.13 16.0561 103.126 16.0114L103.042 15.1043L102.966 14.282C102.876 13.3011 102.085 12.5379 101.172 12.5951C100.225 12.6544 99.5264 13.5421 99.6197 14.5531L99.7007 15.4301L99.7073 15.5018C99.7865 16.3594 99.4654 17.1981 98.8487 17.7376C98.2465 18.2643 97.7731 19.0085 97.534 19.9683C96.7044 23.2969 95.2193 26.4275 93.1359 29.1324C91.0524 31.8374 88.4711 33.9861 85.5889 35.4764C83.7862 36.4085 83.1111 38.3218 83.3843 40.0735C89.1327 40.1314 94.593 37.5264 98.3721 32.9225C102.126 28.3494 103.86 22.2436 103.141 16.1448V16.1448Z" fill="#FFD422"/>
<path d="M103.042 15.1043L102.966 14.282C102.876 13.3012 102.085 12.538 101.172 12.5951C100.225 12.6544 99.5265 13.5422 99.6198 14.5531L99.7007 15.4302C100.826 15.6268 101.976 15.5147 103.042 15.1043Z" fill="#AA6100"/>
</g>
<g clip-path="url(#clip2_215_17)">
<path d="M24.7569 16.7548C24.532 16.1658 24.4914 15.6016 24.5888 15.0956C24.6689 14.6799 24.5884 14.2388 24.3728 13.8588C24.3577 13.8322 24.342 13.8058 24.3255 13.7798L23.6894 12.7733C23.3286 12.2024 23.4392 11.4572 23.9592 11.1067C24.4987 10.743 25.2493 10.9334 25.6212 11.5218L25.9702 12.0739C26.2856 12.573 26.8107 12.8946 27.3713 12.93C27.9187 12.9645 28.4869 13.171 29.0181 13.5926C30.8602 15.0547 32.9758 16.1351 35.2386 16.7341C37.5014 17.3331 39.8022 17.4218 41.9914 17.0269C43.3606 16.7799 44.5271 17.5374 45.1109 18.6035C45.697 19.674 45.6955 21.0557 44.721 22.0444C43.5376 23.2452 42.0814 24.1755 40.4234 24.7394C36.0693 26.2202 31.1079 24.9068 27.6915 21.3691C26.3894 20.0205 25.4011 18.4414 24.7569 16.7548V16.7548Z" fill="#EEBF00"/>
<path d="M24.3728 13.8588C24.3577 13.8322 24.342 13.8058 24.3255 13.7798L23.9918 13.2518L23.6894 12.7733C23.3286 12.2024 23.4392 11.4572 23.9592 11.1067C24.4987 10.743 25.2493 10.9334 25.6212 11.5218L25.9438 12.0322L25.9702 12.0739C26.2856 12.573 26.8107 12.8946 27.3713 12.93C27.9187 12.9645 28.4869 13.171 29.0181 13.5926C30.8602 15.0547 32.9758 16.1351 35.2386 16.7341C37.5014 17.3331 39.8022 17.4218 41.9914 17.0269C43.3606 16.7799 44.5271 17.5374 45.1109 18.6035C42.0114 21.0377 37.9553 21.9045 33.9774 20.9823C30.026 20.0663 26.5318 17.4731 24.3728 13.8588V13.8588Z" fill="#FFD422"/>
<path d="M23.9918 13.2518L23.6894 12.7733C23.3286 12.2024 23.4392 11.4572 23.9592 11.1067C24.4986 10.743 25.2493 10.9334 25.6212 11.5218L25.9438 12.0322C25.4143 12.6096 24.7425 13.0293 23.9918 13.2518Z" fill="#AA6100"/>
</g>
<defs>
<clipPath id="clip0_215_17">
<rect width="52" height="56" fill="white" transform="translate(58.0128 56.0659) rotate(37.2993)"/>
</clipPath>
<clipPath id="clip1_215_17">
<rect width="27.9379" height="30.0869" fill="white" transform="translate(79.078 14.6338) rotate(-5.27369)"/>
</clipPath>
<clipPath id="clip2_215_17">
<rect width="19.1533" height="20.6267" fill="white" transform="matrix(-0.845318 0.534264 0.534264 0.845318 36.8174 2.97937)"/>
</clipPath>
</defs>
</svg>
