<svg width="118" height="131" viewBox="0 0 118 131" fill="none" xmlns="http://www.w3.org/2000/svg">
<path d="M5.65394 62.0521C10.3938 38.6465 24.3941 28.8319 40.8533 21.8082C41.4489 21.5541 42.1227 21.9302 42.2238 22.5698L56.2109 110.996C56.2719 111.381 56.0999 111.77 55.7746 111.986C40.7207 121.985 28.8996 128.34 12.5095 130.128C11.443 130.245 10.4808 129.472 10.4278 128.401C10.1087 121.951 12.3759 116.482 15.0498 111.383C15.5076 110.51 14.5741 109.548 13.6958 109.996L6.54733 113.64C5.96636 113.936 5.26067 113.603 5.13672 112.963C3.54368 104.735 5.19202 98.9821 8.73046 91.4022C9.13239 90.5412 8.2314 89.6369 7.37576 90.0501L1.87932 92.7046C1.18421 93.0403 0.388756 92.4915 0.463774 91.7233C1.66313 79.4404 5.05676 72.1721 13.9744 64.4766C14.7294 63.825 14.2135 62.5405 13.2204 62.6326L6.71647 63.2354C6.05659 63.2966 5.52241 62.7016 5.65394 62.0521Z" fill="#4D3A2A"/>
<g style="mix-blend-mode:multiply">
<path fill-rule="evenodd" clip-rule="evenodd" d="M40.8533 21.8083C24.3941 28.8319 10.3938 38.6466 5.65396 62.0521C5.52243 62.7016 6.0566 63.2966 6.71649 63.2354L9.27238 62.9985C9.01455 62.7752 8.87307 62.4225 8.94808 62.0521C13.5033 39.5584 26.6114 29.6173 42.2354 22.6425L42.2239 22.5698C42.1227 21.9302 41.4489 21.5541 40.8533 21.8083ZM14.6112 129.871C14.1062 129.569 13.7534 129.038 13.7219 128.401C13.4029 121.951 15.6701 116.482 18.3439 111.383C18.8018 110.51 17.8683 109.548 16.99 109.996L15.1701 110.924C15.1676 111.074 15.1301 111.23 15.0498 111.383C12.376 116.482 10.1087 121.951 10.4278 128.401C10.4808 129.472 11.443 130.245 12.5096 130.128C13.2184 130.051 13.9188 129.965 14.6112 129.871ZM8.38179 112.705C6.87261 104.614 8.52328 98.9025 12.0246 91.4022C12.4265 90.5412 11.5255 89.6369 10.6699 90.0501L8.82869 90.9393C8.83318 91.0897 8.8031 91.2467 8.73047 91.4022C5.19203 98.9821 3.5437 104.735 5.13674 112.963C5.26069 113.603 5.96637 113.936 6.54735 113.64L8.38179 112.705ZM3.75327 91.7996C3.75387 91.7744 3.7554 91.749 3.75791 91.7233C4.95726 79.4404 8.3509 72.1722 17.2685 64.4766C18.0235 63.825 17.5076 62.5405 16.5145 62.6326L13.9658 62.8688C14.4089 63.2565 14.5021 64.0212 13.9744 64.4766C5.05678 72.1722 1.66315 79.4404 0.463792 91.7233C0.388774 92.4916 1.18423 93.0403 1.87934 92.7046L3.75327 91.7996Z" fill="#4D3A2A"/>
</g>
<path d="M23.2385 28.8002C21.2723 22.6884 25.747 12.6119 27.7849 8.5208C28.2849 7.5171 29.5185 7.18288 30.4586 7.794C34.2124 10.234 42.9238 16.4036 44.8623 22.2536C47.436 30.0203 38.8377 41.7838 38.8377 41.7838C38.8377 41.7838 25.7084 36.4775 23.2385 28.8002Z" fill="#CB9C6F"/>
<path d="M27.811 29.3144C24.7715 24.1464 28.4749 16.1862 29.7993 13.667C30.0394 13.2104 30.5863 13.0454 31.0427 13.2899C33.4924 14.6027 40.7689 18.8959 42.311 24.3144C44.2361 31.0792 41.4757 41.5244 41.4757 41.5244C41.4757 41.5244 30.6022 34.0603 27.811 29.3144Z" fill="#FEF2E7"/>
<path d="M116.043 28.8002C118.009 22.6884 113.534 12.6119 111.496 8.5208C110.996 7.5171 109.763 7.18288 108.822 7.794C105.069 10.234 96.3573 16.4036 94.4187 22.2536C91.8451 30.0203 100.443 41.7838 100.443 41.7838C100.443 41.7838 113.573 36.4775 116.043 28.8002Z" fill="#CB9C6F"/>
<path d="M111.47 29.3144C114.51 24.1464 110.806 16.1862 109.482 13.667C109.242 13.2104 108.695 13.0454 108.238 13.2899C105.789 14.6027 98.5122 18.8959 96.9701 24.3144C95.0449 31.0792 97.8054 41.5244 97.8054 41.5244C97.8054 41.5244 108.679 34.0603 111.47 29.3144Z" fill="#FEF2E7"/>
<rect x="23.311" y="18.3144" width="90" height="103.493" rx="40" fill="#CB9C6F"/>
<path fill-rule="evenodd" clip-rule="evenodd" d="M109.539 98.7869C103.153 112.389 89.3318 121.808 73.311 121.808H63.311C47.2901 121.808 33.4691 112.389 27.083 98.7869C31.4364 86.2855 43.326 77.3144 57.311 77.3144H79.311C93.2959 77.3144 105.186 86.2855 109.539 98.7869Z" fill="#FEF2E7"/>
<circle cx="48.811" cy="94.8144" r="2.5" fill="#1A1A1A"/>
<circle cx="89.6002" cy="94.8144" r="2.5" fill="#1A1A1A"/>
<circle cx="39.4849" cy="101.184" r="4" fill="#FEB1AA"/>
<circle cx="97.4849" cy="101.184" r="4" fill="#FEB1AA"/>
<ellipse cx="6.60326" cy="7.54658" rx="6.60326" ry="7.54658" transform="matrix(-0.965926 -0.258819 -0.258819 0.965926 49.9739 64.7325)" fill="#181818"/>
<circle cx="43.8566" cy="68.5497" r="2.4287" transform="rotate(15 43.8566 68.5497)" fill="white"/>
<circle cx="40.7238" cy="73.1888" r="1.45722" transform="rotate(15 40.7238 73.1888)" fill="white"/>
<ellipse cx="96.5277" cy="70.3129" rx="6.60326" ry="7.54658" transform="rotate(-15 96.5277 70.3129)" fill="#181818"/>
<circle cx="2.4287" cy="2.4287" r="2.4287" transform="matrix(-0.965926 0.258819 0.258819 0.965926 96.0309 65.5752)" fill="white"/>
<circle cx="1.45722" cy="1.45722" r="1.45722" transform="matrix(-0.965926 0.258819 0.258819 0.965926 98.4767 71.4041)" fill="white"/>
<path d="M91.1146 110.64C88.0791 107.416 81.0102 107.319 81.0102 107.319C81.0102 107.319 80.6806 114.381 83.7161 117.605C86.0622 120.098 90.8179 120.721 92.8568 120.876C93.3947 120.917 93.8364 120.501 93.8281 119.962C93.7966 117.917 93.4607 113.133 91.1146 110.64Z" fill="#34876F"/>
<path d="M71.2355 114.185C72.8645 110.929 78.9292 109.444 78.9292 109.444C78.9292 109.444 81.3773 115.188 79.7483 118.444C78.489 120.961 74.5787 122.42 72.8688 122.952C72.4012 123.098 71.9165 122.855 71.7526 122.394C71.1535 120.706 69.9762 116.702 71.2355 114.185Z" fill="#34876F"/>
<path d="M53.9197 104.025C59.5692 114.382 79.6565 114.382 84.9921 104.025" stroke="#181818" stroke-width="1.94203" stroke-linecap="round" stroke-linejoin="round"/>
<path d="M41.311 19.3144C50.8753 7.19097 69.9587 10.3622 84.4956 15.5492C97.0108 20.0148 104.604 29.8524 107.303 37.9527C110.163 44.8732 106.711 52.179 99.8028 54.0641C96.5096 54.9628 92.9647 54.5226 89.8174 53.0738C87.9997 54.4593 85.6203 56.3144 83.2832 56.3144C78.9627 56.3144 75.4011 52.5108 73.4215 48.4323C71.7192 50.7635 69.6927 53.0738 67.27 53.0738C64.0403 53.0738 60.9891 49.6683 59.221 45.8141C57.2456 47.2352 52.107 49.4943 49.6554 49.4943C42.272 49.4943 36.311 41.2909 36.311 32.1818C36.311 27.9868 38.2242 23.2271 41.311 19.3144Z" fill="#271B10"/>
<path d="M43.166 18.1947C51.8005 7.3397 69.6874 9.46182 82.811 14.1061C94.1094 18.1045 100.964 26.9128 103.401 34.1655C105.983 40.3619 102.866 46.9034 96.63 48.5913C93.657 49.3959 90.4567 49.0018 87.6153 47.7046C85.9744 48.9451 83.8263 50.6061 81.7165 50.6061C77.816 50.6061 74.6007 47.2004 72.8136 43.5487C71.2767 45.6359 69.4472 47.7046 67.2601 47.7046C64.3444 47.7046 61.5899 44.6554 59.9936 41.2044C58.2103 42.4768 53.5713 44.4996 51.358 44.4996C44.6924 44.4996 39.311 37.1545 39.311 28.9985C39.311 25.2424 40.3794 21.698 43.166 18.1947Z" fill="#4D3A2A"/>
<path d="M62.8109 7.81312C62.3956 8.07595 61.9058 8.2579 61.3908 8.34069L60.0535 8.55566C59.5385 8.63845 59.0163 8.61917 58.5396 8.49975L46.8219 5.5646C44.6261 5.01458 42.2761 6.62432 42.7086 8.35716C43.8882 13.0838 44.4876 16.8645 44.8502 21.7232C44.983 23.5024 47.7157 24.2915 49.6265 23.0823L60.2432 16.3637C60.6585 16.1009 61.1483 15.919 61.6633 15.8362L62.1438 15.7589C62.6589 15.6761 63.181 15.6954 63.6578 15.8148L75.9047 18.8826C78.0865 19.4291 80.4258 17.8423 80.0111 16.1174C78.8648 11.3498 78.2377 7.55867 77.8356 2.67418C77.6898 0.902171 74.964 0.122225 73.0593 1.32763L62.8109 7.81312Z" fill="#F0836B"/>
</svg>
