<svg width="137" height="140" viewBox="0 0 137 140" fill="none" xmlns="http://www.w3.org/2000/svg">
<path d="M78.2599 129.397C80.7667 127.462 85.7053 128.107 85.7053 128.107C85.7053 128.107 85.0781 133.048 82.5712 134.983C80.0643 136.918 75.1258 136.273 75.1258 136.273C75.1258 136.273 75.753 131.332 78.2599 129.397Z" fill="#34876F"/>
<path d="M68.8601 53.3937C71.3592 47.8374 76.4064 44.0391 82.2258 44.0391C88.5196 44.0391 93.9101 48.4819 96.1509 54.7865C97.8872 53.982 99.7843 53.5392 101.771 53.5392C109.734 53.5392 116.251 60.6503 116.773 69.6462C124.053 72.3051 129.144 78.4002 129.144 85.4942C129.144 90.3216 126.787 94.6865 122.986 97.8207C123.945 100.095 124.483 102.647 124.483 105.344C124.483 114.883 117.752 122.616 109.448 122.616C107.461 122.616 105.564 122.174 103.827 121.369C101.587 127.674 96.1961 132.117 89.9023 132.117C86.0565 132.117 82.5479 130.458 79.8891 127.729C77.2001 130.627 73.583 132.401 69.6052 132.401C65.2915 132.401 61.4022 130.314 58.6604 126.971C55.9339 130.148 52.1444 132.117 47.9546 132.117C41.5556 132.117 36.0903 127.524 33.9197 121.051C32.0132 122.056 29.8923 122.616 27.6574 122.616C19.3538 122.616 12.6224 114.883 12.6224 105.344C12.6224 102.581 13.1867 99.9708 14.1901 97.6554C9.61835 94.563 6.7962 90.3138 6.7962 85.6243C6.7962 79.1357 12.199 73.4901 20.1635 70.5852C20.2692 61.1502 26.9596 53.5391 35.1973 53.5391C37.4321 53.5391 39.5531 54.0993 41.4596 55.1041C43.6301 48.6316 49.0954 44.0391 55.4944 44.0391C61.3138 44.0391 66.361 47.8374 68.8601 53.3937Z" fill="#463424"/>
<g style="mix-blend-mode:multiply">
<path fill-rule="evenodd" clip-rule="evenodd" d="M6.8932 84.1243C6.82898 84.6186 6.7962 85.1189 6.7962 85.6243C6.7962 90.0161 9.27141 94.0217 13.3408 97.0527C13.5725 96.2246 13.8571 95.4238 14.1901 94.6555C10.1111 91.8963 7.42484 88.2163 6.8932 84.1243ZM12.6783 103.844C12.6413 104.338 12.6224 104.838 12.6224 105.344C12.6224 114.883 19.3538 122.617 27.6574 122.617C29.8923 122.617 32.0132 122.056 33.9197 121.052C36.0903 127.524 41.5556 132.117 47.9546 132.117C52.1444 132.117 55.9339 130.148 58.6604 126.971C61.4022 130.314 65.2915 132.401 69.6052 132.401C73.583 132.401 77.2001 130.627 79.8891 127.729C82.5479 130.458 86.0565 132.117 89.9023 132.117C96.1961 132.117 101.587 127.674 103.827 121.369C105.564 122.174 107.461 122.617 109.448 122.617C117.752 122.617 124.483 114.883 124.483 105.344C124.483 104.838 124.464 104.338 124.427 103.844C123.765 112.681 117.312 119.617 109.448 119.617C107.461 119.617 105.564 119.174 103.827 118.369C101.587 124.674 96.1961 129.117 89.9023 129.117C86.0565 129.117 82.5479 127.458 79.8891 124.729C77.2001 127.627 73.583 129.401 69.6052 129.401C65.2915 129.401 61.4022 127.314 58.6604 123.971C55.9339 127.148 52.1444 129.117 47.9546 129.117C41.5556 129.117 36.0903 124.524 33.9197 118.052C32.0132 119.056 29.8923 119.617 27.6574 119.617C19.7937 119.617 13.34 112.681 12.6783 103.844ZM123.785 97.1246C127.114 94.0552 129.144 89.9739 129.144 85.4943C129.144 84.9889 129.118 84.4886 129.068 83.9943C128.635 88.222 126.389 92.0146 122.986 94.8208C123.298 95.5608 123.566 96.3302 123.785 97.1246Z" fill="#463424"/>
</g>
<path d="M19.781 13.9978C20.1823 13.3067 21.1786 13.4024 21.4266 14.1621C24.3487 23.114 26.2662 36.8759 48.8258 33.7378L30.4921 51.1782C11.7493 43.4652 11.0955 28.9558 19.781 13.9978Z" fill="#FADD9D"/>
<path d="M116.885 13.9978C116.484 13.3067 115.488 13.4024 115.24 14.1621C112.317 23.114 110.4 36.8759 87.8403 33.7378L106.174 51.1782C124.917 43.4652 125.571 28.9558 116.885 13.9978Z" fill="#FADD9D"/>
<ellipse cx="18.4543" cy="10.9056" rx="18.4543" ry="10.9056" transform="matrix(0.863045 -0.505127 0.512897 0.85845 0.970093 59.4957)" fill="#AE8964"/>
<ellipse cx="13.2023" cy="7.80188" rx="13.2023" ry="7.80188" transform="matrix(0.863045 -0.505127 0.512897 0.85845 6.99884 59.7711)" fill="#FFCEB9"/>
<ellipse cx="18.4543" cy="10.9056" rx="18.4543" ry="10.9056" transform="matrix(-0.863045 -0.505127 -0.512897 0.85845 136.451 59.0482)" fill="#AE8964"/>
<ellipse cx="13.2023" cy="7.80188" rx="13.2023" ry="7.80188" transform="matrix(-0.863045 -0.505127 -0.512897 0.85845 130.231 59.7711)" fill="#FFCEB9"/>
<rect x="22.0706" y="15.2849" width="92.4406" height="103.493" rx="40.1916" fill="#AE8964"/>
<path fill-rule="evenodd" clip-rule="evenodd" d="M108.032 100.478C100.864 111.494 88.4424 118.778 74.3197 118.778H62.2622C48.1394 118.778 35.718 111.494 28.5499 100.478C34.2465 92.1158 43.8452 86.625 54.7263 86.625H81.8556C92.7367 86.625 102.335 92.1158 108.032 100.478Z" fill="#7F5939"/>
<ellipse cx="48.1952" cy="98.2138" rx="3.01437" ry="4.52155" fill="#1A1A1A"/>
<ellipse cx="88.3867" cy="98.2138" rx="3.01437" ry="4.52155" fill="#1A1A1A"/>
<ellipse cx="36.4687" cy="85.0385" rx="4.35015" ry="2.53396" fill="#FFCEB9"/>
<ellipse cx="100.633" cy="85.0385" rx="4.35015" ry="2.53396" fill="#FFCEB9"/>
<ellipse cx="6.7971" cy="7.76812" rx="6.7971" ry="7.76812" transform="matrix(-1 0 0 1 48.5498 65.4231)" fill="#181818"/>
<ellipse cx="39.7536" cy="70.738" rx="2.39898" ry="2.86194" fill="white"/>
<ellipse cx="44.2504" cy="75.7065" rx="1.29827" ry="1.28884" fill="white"/>
<ellipse cx="6.7971" cy="7.76812" rx="6.7971" ry="7.76812" transform="matrix(-1 0 0 1 102.454 65.4231)" fill="#181818"/>
<ellipse cx="93.6575" cy="70.7381" rx="2.39898" ry="2.86194" fill="white"/>
<ellipse cx="98.1545" cy="75.7066" rx="1.29827" ry="1.28884" fill="white"/>
<path fill-rule="evenodd" clip-rule="evenodd" d="M69.1265 7.20192C71.0108 3.11097 74.8162 0.314423 79.2039 0.314423C83.9492 0.314423 88.0135 3.58549 89.703 8.22738C91.0121 7.63506 92.4424 7.309 93.9406 7.309C99.9441 7.309 104.858 12.5447 105.251 19.168C110.74 21.1257 114.579 25.6133 114.579 30.8364C114.579 34.3906 112.801 37.6043 109.936 39.9119C110.659 41.5862 111.064 43.4653 111.064 45.4507C111.064 52.4743 105.989 58.1681 99.7285 58.1681C98.2303 58.1681 96.8 57.8421 95.4909 57.2497C93.8014 61.8916 89.7371 65.1627 84.9918 65.1627C82.0921 65.1627 79.4468 63.9414 77.4421 61.9322C75.4147 64.0657 72.6876 65.3724 69.6884 65.3724C66.436 65.3724 63.5036 63.8358 61.4364 61.3744C59.3807 63.7131 56.5235 65.1627 53.3645 65.1627C48.5399 65.1627 44.4192 61.7814 42.7827 57.0159C41.3453 57.7557 39.7461 58.1681 38.0611 58.1681C31.8005 58.1681 26.7252 52.4743 26.7252 45.4507C26.7252 43.4171 27.1506 41.4949 27.9072 39.7902C24.4602 37.5134 22.3324 34.3848 22.3324 30.9321C22.3324 26.1548 26.4059 21.9982 32.4109 19.8594C32.4906 12.9127 37.5349 7.309 43.7459 7.309C45.4309 7.309 47.03 7.72144 48.4674 8.46125C50.104 3.69574 54.2246 0.314423 59.0492 0.314423C63.4369 0.314423 67.2423 3.11097 69.1265 7.20192Z" fill="#4D3A2A"/>
<g style="mix-blend-mode:multiply">
<path fill-rule="evenodd" clip-rule="evenodd" d="M22.5602 28.9905C22.4102 29.6234 22.3324 30.2718 22.3324 30.9321C22.3324 34.0657 24.0851 36.9323 26.9858 39.1375C27.1864 38.0756 27.4985 37.0619 27.9071 36.1135C25.1194 34.2171 23.1945 31.747 22.5602 28.9905ZM26.8289 43.7226C26.7605 44.2877 26.7251 44.8645 26.7251 45.4507C26.7251 52.4743 31.8004 58.1681 38.0611 58.1681C39.7461 58.1681 41.3452 57.7557 42.7827 57.0159C44.4192 61.7814 48.5399 65.1627 53.3645 65.1627C56.5235 65.1627 59.3807 63.7131 61.4364 61.3744C63.5036 63.8358 66.436 65.3724 69.6884 65.3724C72.6876 65.3724 75.4147 64.0657 77.4422 61.9322C79.4468 63.9414 82.0921 65.1627 84.9918 65.1627C89.7371 65.1627 93.8014 61.8917 95.4909 57.2497C96.8 57.8421 98.2304 58.1681 99.7286 58.1681C105.989 58.1681 111.065 52.4743 111.065 45.4507C111.065 44.8645 111.029 44.2877 110.961 43.7226C110.209 50.1141 105.467 55.0401 99.7286 55.0401C98.2304 55.0401 96.8 54.7043 95.4909 54.0942C93.8014 58.8747 89.7371 62.2435 84.9918 62.2435C82.0921 62.2435 79.4468 60.9856 77.4422 58.9165C75.4147 61.1137 72.6876 62.4594 69.6884 62.4594C66.436 62.4594 63.5036 60.8769 61.4364 58.3421C59.3807 60.7505 56.5235 62.2434 53.3645 62.2434C48.5399 62.2434 44.4192 58.7612 42.7827 53.8534C41.3452 54.6153 39.7461 55.04 38.0611 55.04C32.3229 55.04 27.5805 50.1141 26.8289 43.7226ZM110.806 39.1512C113.157 36.9217 114.579 34.0153 114.579 30.8364C114.579 30.1757 114.517 29.5269 114.399 28.8934C113.88 31.7508 112.269 34.3041 109.936 36.2389C110.32 37.1552 110.615 38.131 110.806 39.1512Z" fill="#4D3A2A"/>
</g>
<path d="M80.1421 113.851C76.2422 111.585 69.456 113.295 69.456 113.295C69.456 113.295 71.3284 120.038 75.2283 122.305C79.1282 124.572 85.9144 122.862 85.9144 122.862C85.9144 122.862 84.042 116.118 80.1421 113.851Z" fill="#34876F"/>
<path d="M53.4049 106.155C59.0544 116.513 79.1417 116.513 84.4774 106.155" stroke="#181818" stroke-width="1.94203" stroke-linecap="round" stroke-linejoin="round"/>
<path d="M53.2821 34.3955C57.5216 31.6315 59.2452 23.9881 59.2452 23.9881C59.2452 23.9881 51.5561 22.4813 47.3166 25.2453C43.077 28.0093 41.3535 35.6527 41.3535 35.6527C41.3535 35.6527 49.0425 37.1595 53.2821 34.3955Z" fill="#34876F"/>
<path d="M81.1007 42.6225C76.9885 38.8866 68.3169 39.2597 68.3169 39.2597C68.3169 39.2597 68.7751 47.9272 72.8872 51.6631C76.9994 55.3991 85.671 55.026 85.671 55.026C85.671 55.026 85.2128 46.3585 81.1007 42.6225Z" fill="#34876F"/>
</svg>
