<svg width="133" height="117" viewBox="0 0 133 117" fill="none" xmlns="http://www.w3.org/2000/svg">
<path d="M54.844 39.0669C57.0184 36.9763 58.0036 34.3673 57.1116 30.9324C54.2111 19.7649 31.2558 5.08366 18.1189 9.3607C4.98194 13.6377 -2.00798 25.1708 0.892436 36.3384C1.5449 38.8506 2.70851 41.0803 4.26982 42.9789C3.49087 45.8986 3.54164 48.7351 4.57826 51.2332C5.74026 54.0336 7.99132 56.0481 10.9444 57.2334C10.0945 59.7021 10.0081 62.0389 10.8364 64.035C13.655 70.8274 25.9981 71.1019 38.4055 64.6479C50.8129 58.194 58.5862 47.4557 55.7677 40.6632C55.5272 40.0836 55.2173 39.5515 54.844 39.0669Z" fill="#C4C4C4"/>
<path d="M77.6404 39.0669C75.466 36.9763 74.4807 34.3673 75.3728 30.9324C78.2732 19.7649 101.229 5.08366 114.365 9.3607C127.502 13.6377 134.492 25.1708 131.592 36.3384C130.939 38.8506 129.776 41.0803 128.215 42.9789C128.994 45.8986 128.943 48.7351 127.906 51.2332C126.744 54.0336 124.493 56.0481 121.54 57.2334C122.39 59.7021 122.476 62.0389 121.648 64.035C118.829 70.8274 106.486 71.1019 94.0789 64.6479C81.6715 58.194 73.8981 47.4557 76.7167 40.6632C76.9572 40.0836 77.267 39.5515 77.6404 39.0669Z" fill="#C4C4C4"/>
<ellipse cx="27.2095" cy="38.385" rx="17.6578" ry="19.4741" fill="#EAEAEA"/>
<ellipse cx="105.15" cy="38.385" rx="17.6578" ry="19.4741" fill="#EAEAEA"/>
<path d="M106.242 51.3144C106.242 70.5187 106.252 85.3144 66.4875 85.3144C26.7226 85.3144 25.7422 70.5187 25.7422 51.3144C25.7422 32.1102 44.8943 7.31442 66.8558 7.31442C88.8174 7.31442 106.242 32.1102 106.242 51.3144Z" fill="#C4C4C4"/>
<circle cx="48.4382" cy="48.3971" r="3.28661" fill="#606060"/>
<circle cx="84.5909" cy="48.3971" r="3.28661" fill="#606060"/>
<path d="M67.2422 56.3144V61.8144C67.2422 64.2997 69.2569 66.3144 71.7422 66.3144H73.0455C74.811 66.3144 76.2422 64.8832 76.2422 63.1177V63.1177" stroke="#606060" stroke-width="1.64331" stroke-linecap="round" stroke-linejoin="round"/>
<path d="M67.2422 56.3144V61.8144C67.2422 64.2997 65.2275 66.3144 62.7422 66.3144H61.4389C59.6734 66.3144 58.2422 64.8832 58.2422 63.1177V63.1177" stroke="#606060" stroke-width="1.64331" stroke-linecap="round" stroke-linejoin="round"/>
<path d="M75.1316 52.9144C75.1316 57.5536 76.7925 61.3144 67.2422 61.3144C57.6919 61.3144 59.3528 57.5536 59.3528 52.9144C59.3528 48.2752 62.885 43.3144 67.2422 43.3144C71.5994 43.3144 75.1316 48.2752 75.1316 52.9144Z" fill="#606060"/>
<circle cx="63.7422" cy="48.8144" r="1.5" fill="white"/>
<circle cx="38.2422" cy="61.3144" r="7" fill="#FFCEB9"/>
<circle cx="95.2422" cy="61.3144" r="7" fill="#FFCEB9"/>
<path d="M30.183 93.1567C50.8577 84.4483 63.7012 81.6778 86.9487 80.3516" stroke="#56392B" stroke-width="3.49573" stroke-linecap="round"/>
<path d="M89.776 71.9641C85.9501 75.5189 83.9742 79.2948 85.4341 80.6225C86.894 81.9501 91.4115 80.3796 95.2374 76.8248C99.0633 73.2701 101.218 67.6181 100.983 67.4044C100.748 67.1907 93.6018 68.4094 89.776 71.9641Z" fill="#34876F"/>
<g style="mix-blend-mode:multiply">
<path fill-rule="evenodd" clip-rule="evenodd" d="M85.1092 80.1789C90.2975 75.3633 94.8355 71.8539 100.47 67.7955C95.1124 71.9612 91.0949 75.8029 86.0725 80.6056C85.9819 80.6922 85.891 80.7792 85.7997 80.8665C85.6627 80.8002 85.5403 80.719 85.4342 80.6225C85.2952 80.4961 85.1873 80.3474 85.1092 80.1789Z" fill="#34876F" fill-opacity="0.5"/>
</g>
<path d="M91.9671 87.8429C87.2401 85.6226 84.2079 82.6281 85.1939 80.9188C86.18 79.2094 90.9612 79.3291 95.6882 81.5494C100.415 83.7697 104.189 88.4967 104.03 88.7718C103.872 89.0469 96.694 90.0632 91.9671 87.8429Z" fill="#34876F"/>
<g style="mix-blend-mode:multiply">
<path fill-rule="evenodd" clip-rule="evenodd" d="M85.0195 81.4404C91.4282 84.4465 96.8196 86.4067 103.422 88.5558C97.0506 86.2202 92.0538 83.7849 85.807 80.7405C85.6943 80.6856 85.5813 80.6305 85.4678 80.5751C85.3574 80.68 85.2656 80.7946 85.1939 80.9189C85.1 81.0817 85.0426 81.2561 85.0195 81.4404Z" fill="#34876F" fill-opacity="0.5"/>
</g>
<path d="M67.4123 74.4778C64.3663 77.7934 62.9252 81.1731 64.2704 82.2147C65.6155 83.2564 69.391 81.599 72.4371 78.2834C75.4831 74.9677 76.95 69.9635 76.7335 69.7959C76.517 69.6282 70.4584 71.1622 67.4123 74.4778Z" fill="#34876F"/>
<g style="mix-blend-mode:multiply">
<path fill-rule="evenodd" clip-rule="evenodd" d="M63.9608 81.8556C68.0919 77.3636 71.7531 74.0384 76.3192 70.1668C71.9984 74.1118 68.8072 77.6871 64.8178 82.1567C64.7458 82.2373 64.6736 82.3183 64.6011 82.3995C64.4788 82.3519 64.3681 82.2905 64.2703 82.2147C64.1422 82.1155 64.0394 81.9951 63.9608 81.8556Z" fill="#34876F" fill-opacity="0.5"/>
</g>
<path d="M69.2894 88.5826C65.3333 86.433 62.8747 83.7027 63.8097 82.2814C64.7447 80.86 68.8536 81.2045 72.8097 83.354C76.7659 85.5036 79.7753 89.7624 79.6248 89.9911C79.4743 90.2199 73.2456 90.7321 69.2894 88.5826Z" fill="#34876F"/>
<g style="mix-blend-mode:multiply">
<path fill-rule="evenodd" clip-rule="evenodd" d="M63.6333 82.7213C68.9971 85.6322 73.5383 87.5914 79.1126 89.7744C73.7465 87.4425 69.569 85.0943 64.3464 82.1587C64.2522 82.1058 64.1576 82.0526 64.0627 81.9993C63.9624 82.0839 63.8777 82.178 63.8097 82.2813C63.7206 82.4167 63.6624 82.5639 63.6333 82.7213Z" fill="#34876F" fill-opacity="0.5"/>
</g>
<path d="M47.167 79.7775C44.6909 83.5477 43.812 87.122 45.3102 87.9346C46.8084 88.7472 50.2736 86.4987 52.7497 82.7286C55.2258 78.9584 55.8679 73.7738 55.6267 73.643C55.3856 73.5122 49.6432 76.0074 47.167 79.7775Z" fill="#34876F"/>
<g style="mix-blend-mode:multiply">
<path fill-rule="evenodd" clip-rule="evenodd" d="M44.9462 87.6295C48.3051 82.521 51.3879 78.6421 55.277 74.0767C51.6422 78.675 49.0646 82.7254 45.8422 87.7888C45.784 87.8802 45.7257 87.9719 45.6671 88.0639C45.5385 88.0366 45.4192 87.9937 45.3103 87.9346C45.1676 87.8572 45.0465 87.7548 44.9462 87.6295Z" fill="#34876F" fill-opacity="0.5"/>
</g>
<path d="M51.0168 93.6264C47.0535 91.4729 44.5905 88.7377 45.5272 87.3138C46.4639 85.8899 50.5802 86.2349 54.5435 88.3884C58.5068 90.5418 61.5217 94.8083 61.3709 95.0375C61.2202 95.2667 54.9801 95.7798 51.0168 93.6264Z" fill="#34876F"/>
<g style="mix-blend-mode:multiply">
<path fill-rule="evenodd" clip-rule="evenodd" d="M45.3505 87.7546C50.7241 90.6707 55.2734 92.6335 60.8578 94.8204C55.4821 92.4843 51.2969 90.1319 46.0649 87.191C45.9705 87.1379 45.8758 87.0847 45.7808 87.0313C45.6803 87.1161 45.5954 87.2103 45.5272 87.3138C45.4381 87.4494 45.3797 87.5969 45.3505 87.7546Z" fill="#34876F" fill-opacity="0.5"/>
</g>
<path d="M75.5298 23.355C69.8228 19.6722 66.4345 15.2858 68.0024 13.2539C69.5704 11.222 75.7122 12.2068 81.4191 15.8896C87.1261 19.5725 91.1695 26.3207 90.9171 26.6478C90.6648 26.9748 81.2368 27.0379 75.5298 23.355Z" fill="#34876F"/>
<g style="mix-blend-mode:multiply">
<path fill-rule="evenodd" clip-rule="evenodd" d="M67.6871 13.8957C75.4252 18.8836 82.0339 22.3466 90.1713 26.2635C82.3641 22.1463 76.3465 18.1395 68.8237 13.1304C68.6881 13.04 68.5519 12.9494 68.4152 12.8584C68.2547 12.9743 68.1165 13.1062 68.0025 13.2539C67.8532 13.4474 67.7488 13.6622 67.6871 13.8957Z" fill="#34876F" fill-opacity="0.5"/>
</g>
<path d="M59.0393 11.5372C63.2977 8.78917 65.8259 5.51623 64.6559 4.0001C63.486 2.48397 58.9033 3.21877 54.6449 5.96678C50.3866 8.71479 47.3696 13.7501 47.5579 13.9941C47.7462 14.2381 54.781 14.2852 59.0393 11.5372Z" fill="#34876F"/>
<g style="mix-blend-mode:multiply">
<path fill-rule="evenodd" clip-rule="evenodd" d="M64.8913 4.47907C59.1174 8.20085 54.1863 10.7848 48.1145 13.7074C53.9399 10.6353 58.43 7.6456 64.0432 3.90801C64.1444 3.8406 64.2461 3.77294 64.3481 3.70503C64.4678 3.79156 64.5709 3.88991 64.656 4.00016C64.7674 4.14453 64.8452 4.30482 64.8913 4.47907Z" fill="#34876F" fill-opacity="0.5"/>
</g>
</svg>
